<?xml version="1.0" encoding="UTF-8"?>
<svg id="Capa_1" data-name="Capa 1" xmlns="http://www.w3.org/2000/svg" viewBox="0 0 256.3 258.63">
  <defs>
    <style>
      .cls-1, .cls-2, .cls-3, .cls-4, .cls-5, .cls-6 {
        stroke: #ad95c6;
        stroke-miterlimit: 10;
        stroke-width: 2px;
      }

      .cls-1, .cls-2, .cls-4, .cls-6 {
        fill: none;
      }

      .cls-1, .cls-3 {
        stroke-linecap: round;
      }

      .cls-2 {
        font-family: SweetieBubbleGum, 'Sweetie Bubble Gum';
      }

      .cls-2, .cls-6 {
        font-size: 33.28px;
      }

      .cls-3, .cls-5 {
        fill: #ad95c6;
      }

      .cls-6 {
        font-family: MyriadPro-Regular, 'Myriad Pro';
      }
    </style>
  </defs>
  <g>
    <path class="cls-4" d="M96.46,131.78s-14.33-11.51-15.69-38.35c-.87-17.05,4.4-28.23,8.36-34.13,2.18-3.25,6.68-3.96,9.74-1.52,5.84,4.66,14.04,14.61,13.35,33.43,0,0-.43,24.43-2.01,29.48"/>
    <path class="cls-4" d="M167.46,131.78s14.33-11.51,15.69-38.35c.87-17.05-4.4-28.23-8.36-34.13-2.18-3.25-6.68-3.96-9.74-1.52-5.84,4.66-14.04,14.61-13.35,33.43,0,0,.43,24.43,2.01,29.48"/>
  </g>
  <g>
    <path class="cls-1" d="M109.92,183.12c0,5.07,3.68,12.1,12.85,12.1,5.07,0,9.19-4.11,9.19-9.19"/>
    <path class="cls-1" d="M153.99,183.12c0,5.07-3.68,12.1-12.85,12.1-5.07,0-9.19-4.11-9.19-9.19"/>
  </g>
  <path id="NARIZ" class="cls-4" d="M131.96,180.2h6.35c.34,0,.49.43.22.64l-2.88,2.27-2.88,2.28c-.48.37-1.15.37-1.62,0l-2.88-2.28-2.88-2.27c-.27-.21-.12-.64.22-.64h6.35Z"/>
  <g id="OJOS">
    <path class="cls-4" d="M155.46,160.21c0,4.67-14.09,11.03-23.51,11.03-8.87,0-23.51-6.97-23.51-11.03,0-5.74,14.12-14.86,23.51-14.86,9.93,0,23.51,9.72,23.51,14.86Z"/>
    <path class="cls-5" d="M132.06,153.41l4.79-2.25c.18-.09.39.07.35.27l-.9,4.7c-.02.09.01.18.08.23l3.79,3.31c.16.14.08.41-.13.43l-5.29.69c-.08.01-.15.06-.19.13l-2.39,4.34c-.09.17-.34.17-.43,0l-2.39-4.34c-.04-.07-.11-.12-.19-.13l-5.29-.69c-.21-.03-.29-.29-.13-.43l3.79-3.31c.07-.06.1-.15.08-.23l-.9-4.7c-.04-.2.17-.36.35-.27l4.79,2.25c.07.03.14.03.21,0Z"/>
    <line class="cls-4" x1="113.41" y1="144.88" x2="116.38" y2="150.94"/>
    <line class="cls-4" x1="150.5" y1="144.88" x2="147.53" y2="150.95"/>
    <line class="cls-4" x1="131.96" y1="138.55" x2="131.96" y2="145.36"/>
    <ellipse class="cls-4" cx="131.96" cy="158.3" rx="14.45" ry="12.94"/>
  </g>
  <g id="CARA">
    <g>
      <path class="cls-1" d="M131.96,207.47c-9.48,0-18.32-4-26.03-8.01"/>
      <path class="cls-1" d="M102.84,125.54c7.94-6.47,18.08-10.35,29.12-10.35"/>
      <path class="cls-1" d="M85.82,161.33c0-11.14,3.95-21.37,10.53-29.34"/>
      <path class="cls-1" d="M85.82,161.33s.31,19.02,2.7,23.63c2.39,4.62,12.56,11.95,17.62,14.62"/>
    </g>
  </g>
  <g id="CARA-2" data-name="CARA">
    <g>
      <path class="cls-1" d="M132.39,207.47c9.48,0,18.32-4,26.03-8.01"/>
      <path class="cls-1" d="M161.51,125.54c-7.94-6.47-18.08-10.35-29.12-10.35"/>
      <path class="cls-1" d="M178.53,161.33c0-11.14-3.95-21.37-10.53-29.34"/>
      <path class="cls-1" d="M178.53,161.33s-.31,19.02-2.7,23.63-12.56,11.95-17.62,14.62"/>
    </g>
  </g>
  <path class="cls-3" d="M213.87,116.29l-6.67,3.51c-.26.14-.57-.09-.52-.38l1.27-7.42c.02-.12-.02-.24-.1-.32l-5.39-5.26c-.21-.21-.1-.57.2-.61l7.45-1.08c.12-.02.22-.09.27-.2l3.33-6.75c.13-.27.51-.27.65,0l3.33,6.75c.05.11.15.18.27.2l7.45,1.08c.3.04.41.41.2.61l-5.39,5.26c-.08.08-.12.2-.1.32l1.27,7.42c.05.29-.26.52-.52.38l-6.67-3.51c-.1-.06-.23-.06-.34,0Z"/>
  <path class="cls-3" d="M202.18,207.17l-6.67,3.51c-.26.14-.57-.09-.52-.38l1.27-7.42c.02-.12-.02-.24-.1-.32l-5.39-5.26c-.21-.21-.1-.57.2-.61l7.45-1.08c.12-.02.22-.09.27-.2l3.33-6.75c.13-.27.51-.27.65,0l3.33,6.75c.05.11.15.18.27.2l7.45,1.08c.3.04.41.41.2.61l-5.39,5.26c-.08.08-.12.2-.1.32l1.27,7.42c.05.29-.26.52-.52.38l-6.67-3.51c-.1-.06-.23-.06-.34,0Z"/>
  <path class="cls-3" d="M46.56,99.67l-4.72,2.48c-.26.14-.57-.09-.52-.38l.9-5.26c.02-.12-.02-.24-.1-.32l-3.82-3.72c-.21-.21-.1-.57.2-.61l5.28-.77c.12-.02.22-.09.27-.2l2.36-4.78c.13-.27.51-.27.65,0l2.36,4.78c.05.11.15.18.27.2l5.28.77c.3.04.41.41.2.61l-3.82,3.72c-.08.08-.12.2-.1.32l.9,5.26c.05.29-.26.52-.52.38l-4.72-2.48c-.1-.06-.23-.06-.34,0Z"/>
  <path class="cls-3" d="M46.56,178.06l-5.91,3.11c-.26.14-.57-.09-.52-.38l1.13-6.58c.02-.12-.02-.24-.1-.32l-4.78-4.66c-.21-.21-.1-.57.2-.61l6.61-.96c.12-.02.22-.09.27-.2l2.95-5.99c.13-.27.51-.27.65,0l2.95,5.99c.05.11.15.18.27.2l6.61.96c.3.04.41.41.2.61l-4.78,4.66c-.08.08-.12.2-.1.32l1.13,6.58c.05.29-.26.52-.52.38l-5.91-3.11c-.1-.06-.23-.06-.34,0Z"/>
  <text class="cls-6" transform="translate(31.59 95.15) rotate(-60.35)"><tspan x="0" y="0"> </tspan></text>
  <text class="cls-6" transform="translate(34.9 89.31) rotate(-56.87)"><tspan x="0" y="0"> </tspan></text>
  <text class="cls-6" transform="translate(38.57 83.68) rotate(-53.4)"><tspan x="0" y="0"> </tspan></text>
  <text class="cls-6" transform="translate(42.58 78.26) rotate(-49.95)"><tspan x="0" y="0"> </tspan></text>
  <text class="cls-6" transform="translate(46.89 73.12) rotate(-46.53)"><tspan x="0" y="0"> </tspan></text>
  <text class="cls-6" transform="translate(51.5 68.24) rotate(-43.11)"><tspan x="0" y="0"> </tspan></text>
  <text class="cls-6" transform="translate(56.4 63.64) rotate(-39.71)"><tspan x="0" y="0"> </tspan></text>
  <text class="cls-6" transform="translate(61.58 59.32) rotate(-36.3)"><tspan x="0" y="0"> </tspan></text>
  <text class="cls-6" transform="translate(67 55.33) rotate(-32.9)"><tspan x="0" y="0"> </tspan></text>
  <text class="cls-6" transform="translate(72.63 51.68) rotate(-29.51)"><tspan x="0" y="0"> </tspan></text>
  <text class="cls-6" transform="translate(78.49 48.35) rotate(-26.12)"><tspan x="0" y="0"> </tspan></text>
  <text class="cls-2" transform="translate(84.07 45.14) rotate(-19.49)"><tspan x="0" y="0">n</tspan></text>
  <text class="cls-2" transform="translate(102.72 38.55) rotate(-10.11)"><tspan x="0" y="0">u</tspan></text>
  <text class="cls-2" transform="translate(120.45 35.38) rotate(-1.69)"><tspan x="0" y="0">r</tspan></text>
  <text class="cls-2" transform="translate(137.12 35.04) rotate(4.94)"><tspan x="0" y="0">i</tspan></text>
  <text class="cls-2" transform="translate(147.26 35.71) rotate(11.48)"><tspan x="0" y="0">v</tspan></text>
  <text class="cls-2" transform="translate(162.78 38.68) rotate(20.2)"><tspan x="0" y="0">a</tspan></text>
  <path class="cls-1" d="M190.75,36.6c38.45,20.89,64.55,61.62,64.55,108.46,0,4.26-.22,8.46-.64,12.61"/>
  <path class="cls-1" d="M9.31,158.26c-.46-4.34-.7-8.74-.7-13.2,0-46.66,25.9-87.26,64.11-108.22"/>
</svg>