<svg width="200" height="203" viewBox="0 0 200 203" fill="none" xmlns="http://www.w3.org/2000/svg">
<path d="M149.518 57.9525C149.228 57.9525 148.998 57.722 148.998 57.4321C148.998 53.3352 146.374 49.9967 143.142 49.9967C142.852 49.9967 142.622 49.7662 142.622 49.4763C142.622 49.1863 142.852 48.9558 143.142 48.9558C146.367 48.9558 148.998 45.6248 148.998 41.5205C148.998 41.2305 149.228 41 149.518 41C149.808 41 150.038 41.2305 150.038 41.5205C150.038 45.6173 152.661 48.9558 155.894 48.9558C156.184 48.9558 156.414 49.1863 156.414 49.4763C156.414 49.7662 156.184 49.9967 155.894 49.9967C152.669 49.9967 150.038 53.3278 150.038 57.4321C150.038 57.722 149.808 57.9525 149.518 57.9525ZM145.527 49.4837C147.333 50.3016 148.79 52.0266 149.518 54.2051C150.254 52.0266 151.703 50.3016 153.509 49.4837C151.703 48.6658 150.246 46.9408 149.518 44.7623C148.782 46.9408 147.333 48.6658 145.527 49.4837Z" fill="#70A9A1"/>
<path d="M155.894 66.6593C155.604 66.6593 155.374 66.4288 155.374 66.1389C155.374 64.2354 154.177 62.6814 152.706 62.6814C152.416 62.6814 152.186 62.4509 152.186 62.161C152.186 61.871 152.416 61.6405 152.706 61.6405C154.177 61.6405 155.374 60.0865 155.374 58.1831C155.374 57.8931 155.604 57.6626 155.894 57.6626C156.184 57.6626 156.414 57.8931 156.414 58.1831C156.414 60.0865 157.611 61.6405 159.082 61.6405C159.372 61.6405 159.602 61.871 159.602 62.161C159.602 62.4509 159.372 62.6814 159.082 62.6814C157.611 62.6814 156.414 64.2354 156.414 66.1389C156.414 66.4288 156.184 66.6593 155.894 66.6593ZM154.438 62.161C155.04 62.5476 155.545 63.135 155.894 63.8414C156.243 63.135 156.749 62.5476 157.351 62.161C156.749 61.7743 156.243 61.1869 155.894 60.4806C155.545 61.1869 155.04 61.7743 154.438 62.161Z" fill="#70A9A1"/>
<path d="M45.7891 151.496C45.4993 151.496 45.2689 151.266 45.2689 150.976C45.2689 147.637 43.1361 144.916 40.5202 144.916C40.2304 144.916 40 144.686 40 144.396C40 144.106 40.2304 143.875 40.5202 143.875C43.1435 143.875 45.2689 141.154 45.2689 137.815C45.2689 137.525 45.4993 137.295 45.7891 137.295C46.079 137.295 46.3093 137.525 46.3093 137.815C46.3093 141.154 48.4422 143.875 51.0581 143.875C51.3479 143.875 51.5783 144.106 51.5783 144.396C51.5783 144.686 51.3479 144.916 51.0581 144.916C48.4347 144.916 46.3093 147.637 46.3093 150.976C46.3093 151.266 46.079 151.496 45.7891 151.496ZM42.6976 144.403C44.0725 145.087 45.1798 146.396 45.7891 148.039C46.3985 146.396 47.5132 145.087 48.8806 144.403C47.5058 143.719 46.3985 142.41 45.7891 140.767C45.1798 142.41 44.065 143.719 42.6976 144.403Z" fill="#70A9A1"/>
<mask id="mask0_121_6536" style="mask-type:luminance" maskUnits="userSpaceOnUse" x="42" y="46" width="116" height="117">
<path d="M157.529 104.646C157.529 104.974 157.529 105.308 157.514 105.635C157.514 106 157.507 106.371 157.492 106.736C157.425 108.818 157.239 110.87 156.949 112.877C156.905 113.264 156.838 113.651 156.771 114.037C156.295 116.959 155.604 119.807 154.698 122.558C154.571 122.967 154.43 123.361 154.289 123.763C152.699 128.313 150.551 132.603 147.928 136.551C147.348 137.429 146.739 138.291 146.114 139.124C137.992 150.024 126.116 157.965 112.398 161.014C111.981 161.11 111.558 161.2 111.134 161.281C107.471 162.017 103.673 162.397 99.7938 162.397C99.4371 162.397 99.0878 162.397 98.7311 162.382C98.3075 162.382 97.8765 162.367 97.4603 162.345C94.8519 162.248 92.2954 161.973 89.791 161.534C89.412 161.467 89.0404 161.4 88.6614 161.319C85.5253 160.709 82.4859 159.846 79.5578 158.738C79.216 158.619 78.8741 158.486 78.5249 158.352C75.5374 157.17 72.6763 155.742 69.9564 154.099C69.6591 153.92 69.3618 153.734 69.0646 153.549C67.5634 152.604 66.1217 151.601 64.7246 150.522C64.4496 150.322 64.1746 150.106 63.8997 149.883C63.0153 149.184 62.1533 148.463 61.3135 147.697C61.0534 147.481 60.8007 147.243 60.5406 146.998C59.1807 145.749 57.8876 144.425 56.6688 143.042C56.431 142.782 56.2007 142.522 55.9851 142.254C54.3651 140.373 52.8788 138.395 51.5188 136.321C51.3182 136.024 51.1249 135.726 50.9317 135.414C48.9698 132.306 47.3052 128.997 45.9526 125.525C45.8263 125.19 45.6925 124.856 45.5736 124.514C43.2996 118.32 42.0659 111.628 42.0659 104.639C42.0659 103.97 42.0734 103.301 42.1031 102.639C42.1254 101.94 42.1626 101.241 42.2146 100.557C42.5713 95.3449 43.6266 90.3335 45.2838 85.5972C45.529 84.8908 45.7891 84.1845 46.0567 83.493C47.4092 80.0727 49.0738 76.8012 51.0209 73.7304C51.333 73.2322 51.6526 72.7415 51.987 72.2508C55.8439 66.5553 60.6893 61.596 66.2778 57.5958C66.5602 57.395 66.8426 57.1943 67.1324 57.0009C68.3883 56.1384 69.674 55.3206 71.0042 54.5621C71.7399 54.1383 72.4756 53.7368 73.2336 53.3428C79.9666 49.8407 87.4798 47.6324 95.4464 47.0376C95.9443 47.0004 96.4496 46.9707 96.955 46.9409C97.8988 46.8963 98.8426 46.874 99.7938 46.874C103.205 46.874 106.549 47.1714 109.797 47.7365C110.458 47.8481 111.112 47.9819 111.766 48.1232C116.284 49.0674 120.609 50.5545 124.674 52.5026C125.158 52.7331 125.641 52.971 126.124 53.2164C128.539 54.4581 130.865 55.8633 133.065 57.4247C133.384 57.6404 133.696 57.8709 134.008 58.1014C138.185 61.1796 141.93 64.8006 145.141 68.8751C145.371 69.1577 145.602 69.4551 145.817 69.7525C149.317 74.3624 152.134 79.5077 154.133 85.0544C154.244 85.3816 154.363 85.7087 154.475 86.0359C155.196 88.1475 155.79 90.3186 156.266 92.5343C156.34 92.8689 156.407 93.2184 156.474 93.5604C157.172 97.1442 157.537 100.847 157.537 104.639L157.529 104.646Z" fill="white"/>
</mask>
<g mask="url(#mask0_121_6536)">
<path d="M157.529 104.646C157.529 104.974 157.529 105.308 157.514 105.635C157.514 106 157.507 106.371 157.492 106.736C157.425 108.818 157.239 110.87 156.949 112.877C156.905 113.264 156.838 113.651 156.771 114.037C156.295 116.959 155.604 119.807 154.698 122.558C154.571 122.967 154.43 123.361 154.289 123.763C152.699 128.313 150.551 132.603 147.928 136.551C147.348 137.429 146.739 138.291 146.114 139.124C137.992 150.024 126.116 157.965 112.398 161.014C111.981 161.11 111.558 161.2 111.134 161.281C107.471 162.017 103.673 162.397 99.7938 162.397C99.4371 162.397 99.0878 162.397 98.7311 162.382C98.3075 162.382 97.8765 162.367 97.4603 162.345C94.8519 162.248 92.2954 161.973 89.791 161.534C89.412 161.467 89.0404 161.4 88.6614 161.319C85.5253 160.709 82.4859 159.846 79.5578 158.738C79.216 158.619 78.8741 158.486 78.5249 158.352C75.5374 157.17 72.6763 155.742 69.9564 154.099C69.6591 153.92 69.3618 153.734 69.0646 153.549C67.5634 152.604 66.1217 151.601 64.7246 150.522C64.4496 150.322 64.1746 150.106 63.8997 149.883C63.0153 149.184 62.1533 148.463 61.3135 147.697C61.0534 147.481 60.8007 147.243 60.5406 146.998C59.1807 145.749 57.8876 144.425 56.6688 143.042C56.431 142.782 56.2007 142.522 55.9851 142.254C54.3651 140.373 52.8788 138.395 51.5188 136.321C51.3182 136.024 51.1249 135.726 50.9317 135.414C48.9698 132.306 47.3052 128.997 45.9526 125.525C45.8263 125.19 45.6925 124.856 45.5736 124.514C43.2996 118.32 42.0659 111.628 42.0659 104.639C42.0659 103.97 42.0734 103.301 42.1031 102.639C42.1254 101.94 42.1626 101.241 42.2146 100.557C42.5713 95.3449 43.6266 90.3335 45.2838 85.5972C45.529 84.8908 45.7891 84.1845 46.0567 83.493C47.4092 80.0727 49.0738 76.8012 51.0209 73.7304C51.333 73.2322 51.6526 72.7415 51.987 72.2508C55.8439 66.5553 60.6893 61.596 66.2778 57.5958C66.5602 57.395 66.8426 57.1943 67.1324 57.0009C68.3883 56.1384 69.674 55.3206 71.0042 54.5621C71.7399 54.1383 72.4756 53.7368 73.2336 53.3428C79.9666 49.8407 87.4798 47.6324 95.4464 47.0376C95.9443 47.0004 96.4496 46.9707 96.955 46.9409C97.8988 46.8963 98.8426 46.874 99.7938 46.874C103.205 46.874 106.549 47.1714 109.797 47.7365C110.458 47.8481 111.112 47.9819 111.766 48.1232C116.284 49.0674 120.609 50.5545 124.674 52.5026C125.158 52.7331 125.641 52.971 126.124 53.2164C128.539 54.4581 130.865 55.8633 133.065 57.4247C133.384 57.6404 133.696 57.8709 134.008 58.1014C138.185 61.1796 141.93 64.8006 145.141 68.8751C145.371 69.1577 145.602 69.4551 145.817 69.7525C149.317 74.3624 152.134 79.5077 154.133 85.0544C154.244 85.3816 154.363 85.7087 154.475 86.0359C155.196 88.1475 155.79 90.3186 156.266 92.5343C156.34 92.8689 156.407 93.2184 156.474 93.5604C157.172 97.1442 157.537 100.847 157.537 104.639L157.529 104.646Z" fill="#B8D8D8"/>
<path d="M126.124 53.2238C115.318 55.8485 104.877 59.7818 94.9931 64.9642C93.8783 65.5442 92.7487 66.1316 91.4705 66.1687H91.3888C90.0437 66.1687 88.5351 65.3434 88.2824 63.9158C88.1041 62.9046 88.6094 61.9455 89.0033 61.306C90.6679 58.6591 93.2318 56.711 95.5207 55.1645C99.9499 52.168 104.78 49.6623 109.811 47.7366C110.473 47.8481 111.127 47.9819 111.781 48.1232C106.244 50.0861 100.931 52.7554 96.1078 56.027C93.9081 57.514 91.4557 59.3803 89.8876 61.8637C89.5829 62.347 89.1891 63.0682 89.308 63.73C89.4714 64.6222 90.5267 65.1427 91.4482 65.1278C92.4886 65.1055 93.5068 64.5627 94.4877 64.0497C104.097 59.0085 114.218 55.1422 124.682 52.5026C125.165 52.7331 125.648 52.971 126.131 53.2164L126.124 53.2238Z" fill="#E8E8E8"/>
<path d="M87.9406 134.804C81.334 140.656 75.307 147.117 69.9638 154.106C69.6665 153.928 69.3693 153.742 69.072 153.556C74.4821 146.485 80.5685 139.95 87.2569 134.031C89.0702 132.425 89.6944 131.183 89.2262 130.113C88.8769 129.317 87.9852 128.841 86.9894 128.916C85.5476 129.027 84.4255 129.852 83.2364 130.73C82.0177 131.629 80.7469 132.559 79.0897 132.7C78.3911 132.76 77.7223 132.418 77.3953 131.838C76.8008 130.767 77.6703 129.86 78.0418 129.473L80.5314 126.893C81.0665 126.335 81.817 125.585 82.2926 125.131C82.6642 124.782 83.5188 123.874 83.5411 122.93C83.5486 122.477 83.3702 122.06 82.9838 121.666C82.7831 121.458 82.5156 121.361 82.1589 121.361H82.1514C80.2861 121.361 76.4589 124.068 71.9183 128.611C71.0042 129.533 70.001 130.477 68.7599 131.577C64.628 135.258 60.5927 139.102 56.6911 143.065C56.4533 142.805 56.223 142.544 56.0074 142.277C59.9015 138.314 63.9443 134.47 68.0762 130.797C69.295 129.711 70.2833 128.782 71.19 127.875C74.0065 125.049 79.1863 120.32 82.1514 120.32H82.1737C82.8054 120.32 83.3331 120.536 83.7269 120.945C84.3066 121.54 84.5964 122.216 84.5815 122.952C84.5593 124.239 83.5857 125.347 83.0135 125.889C82.5453 126.328 81.7947 127.101 81.2894 127.622L78.7998 130.194C78.2722 130.745 78.1533 131.035 78.3168 131.332C78.4431 131.563 78.7255 131.689 79.0154 131.667C80.3902 131.555 81.4826 130.745 82.6419 129.897C83.8979 128.975 85.1909 128.016 86.9299 127.882C88.3642 127.778 89.6721 128.499 90.1998 129.696C91.0915 131.726 89.3526 133.585 87.9629 134.819L87.9406 134.804Z" fill="#E8E8E8"/>
<path d="M108.243 138.886C101.719 146.076 95.5356 153.683 89.7985 161.542C89.4194 161.475 89.0479 161.408 88.6689 161.326C94.5026 153.289 100.819 145.526 107.471 138.18C108.013 137.578 107.946 136.856 107.686 136.373C107.456 135.92 106.935 135.481 106.17 135.585C104.862 135.786 103.688 136.492 102.588 137.206C93.5885 143.043 85.9787 151.073 79.5578 158.746C79.216 158.627 78.8742 158.493 78.5249 158.359C85.0497 150.545 92.8082 142.314 102.023 136.336C103.22 135.563 104.513 134.782 105.984 134.559C107.099 134.403 108.095 134.916 108.608 135.882C109.135 136.879 108.987 138.054 108.236 138.879L108.243 138.886Z" fill="#E8E8E8"/>
<path d="M154.698 122.558C154.571 122.967 154.43 123.361 154.289 123.763C132.366 130.425 112.606 144.136 98.7385 162.389C98.3149 162.389 97.8839 162.375 97.4677 162.352C111.64 143.437 132.054 129.272 154.698 122.558Z" fill="#E8E8E8"/>
<path d="M121.836 126.722C121.434 127.176 120.557 128.306 121.048 129.02C121.694 129.964 123.649 128.774 123.872 128.64C134.276 122.112 145.356 116.826 156.942 112.878C156.897 113.264 156.831 113.651 156.764 114.037C145.445 117.948 134.603 123.131 124.422 129.518C123.604 130.031 122.653 130.41 121.813 130.41C121.167 130.41 120.587 130.18 120.193 129.607C119.547 128.663 119.851 127.399 121.055 126.031C125.841 120.603 132.269 115.933 140.154 112.156C145.787 109.457 151.725 107.398 157.507 105.635C157.507 106 157.499 106.372 157.484 106.736C151.844 108.461 146.077 110.468 140.608 113.093C132.842 116.818 126.525 121.406 121.836 126.73V126.722Z" fill="#E8E8E8"/>
<path d="M156.466 93.5679C154.809 94.0437 153.182 94.5791 151.569 95.1888L151.257 95.3003C150.224 95.6944 149.154 96.1033 148.002 96.2446C147.89 96.2595 147.772 96.2669 147.645 96.2669C146.687 96.2669 145.802 95.791 145.267 94.9806C144.665 94.0661 144.628 92.921 145.163 91.9842C146.426 89.7907 148.544 87.8129 151.116 86.4151C152.089 85.8872 153.1 85.4411 154.118 85.0544C154.23 85.3816 154.348 85.7088 154.46 86.0359C153.479 86.4002 152.528 86.824 151.606 87.3297C149.198 88.6383 147.229 90.4822 146.062 92.5046C145.713 93.0995 145.743 93.8133 146.129 94.4081C146.516 94.9955 147.147 95.3003 147.831 95.2111C148.886 95.0773 149.904 94.6981 150.878 94.3189L151.19 94.2073C152.855 93.5828 154.542 93.0177 156.251 92.5344C156.325 92.869 156.392 93.2184 156.459 93.5605L156.466 93.5679Z" fill="#E8E8E8"/>
<path d="M147.928 136.559C147.348 137.436 146.739 138.299 146.114 139.132C142.748 141.437 139.188 143.474 135.465 145.221C133.897 145.957 132.284 146.656 130.716 147.325C127.275 148.805 123.708 150.337 120.528 152.396C118.157 153.928 114.441 156.828 112.398 161.021C111.981 161.118 111.558 161.207 111.134 161.289C113.2 156.486 117.354 153.207 119.963 151.526C123.21 149.422 126.815 147.876 130.3 146.374C131.853 145.705 133.466 145.013 135.019 144.284C139.597 142.128 143.915 139.548 147.928 136.559Z" fill="#E8E8E8"/>
<path d="M96.955 46.9485C95.2383 48.9188 92.9123 50.5695 90.1552 51.7071C85.4585 53.6551 80.2713 53.9674 75.7009 54.2425L75.3962 54.2648C73.9397 54.3541 72.4756 54.4433 71.0042 54.5697C71.7399 54.1459 72.4756 53.7444 73.2337 53.3503C73.9397 53.3057 74.6456 53.2611 75.3368 53.2239L75.6415 53.209C80.1375 52.9339 85.2207 52.6291 89.7613 50.7479C91.9908 49.826 93.9229 48.5545 95.4464 47.0451C95.9443 47.008 96.4496 46.9782 96.955 46.9485Z" fill="#E8E8E8"/>
<path d="M71.8588 142.106C69.503 144.909 67.1175 147.719 64.732 150.523C64.457 150.322 64.1821 150.106 63.9071 149.883C66.3075 147.073 68.7004 144.255 71.0636 141.437C71.3163 141.132 72.1115 140.113 71.6953 139.593C71.3609 139.169 70.5063 139.288 69.9489 139.674C66.6791 141.912 63.9368 144.797 61.3284 147.697C61.0683 147.482 60.8156 147.244 60.5555 146.998C63.1268 144.151 66.0177 141.102 69.3618 138.812C70.3354 138.143 71.7845 138.009 72.5202 138.946C73.137 139.734 72.9067 140.864 71.8662 142.106H71.8588Z" fill="#E8E8E8"/>
<path d="M145.81 69.7527C142.057 70.9647 138.296 72.013 134.491 72.764C133.793 72.8978 133.065 73.0242 132.351 73.0242C131.846 73.0242 131.341 72.9648 130.85 72.8012C129.579 72.3922 128.427 71.0985 128.68 69.6635C128.858 68.6597 129.631 67.9905 130.308 67.3957C130.449 67.2767 130.582 67.1503 130.716 67.0314C131.341 66.4514 131.794 65.5517 131.415 65.0313C131.147 64.6595 130.538 64.5628 129.906 64.4662C129.059 64.3398 128.093 64.1836 127.662 63.2765C127.223 62.362 127.669 61.2616 128.896 60.2578C130.189 59.1945 131.586 58.2503 133.065 57.4324C133.384 57.648 133.696 57.8785 134.008 58.109C132.426 58.9492 130.932 59.9381 129.557 61.0608C129.252 61.3136 128.286 62.1687 128.606 62.823C128.784 63.2096 129.282 63.3137 130.07 63.4327C130.85 63.5591 131.734 63.6929 132.262 64.4141C133.035 65.4774 132.373 66.9124 131.43 67.7898C131.288 67.9162 131.147 68.0426 130.999 68.1764C130.397 68.7043 129.824 69.1951 129.706 69.8419C129.55 70.7119 130.345 71.5372 131.17 71.8123C132.128 72.1246 133.191 71.961 134.291 71.7454C137.932 71.0316 141.529 70.0352 145.133 68.8828C145.364 69.1653 145.594 69.4627 145.81 69.7601V69.7527Z" fill="#E8E8E8"/>
<path d="M56.3121 127.138C55.8885 130.09 54.3725 133.116 51.9275 135.882C51.8012 136.031 51.66 136.18 51.5262 136.321C51.3256 136.024 51.1324 135.726 50.9391 135.414C51.0135 135.332 51.0803 135.265 51.1472 135.183C53.4584 132.574 54.8853 129.733 55.2791 126.982C55.4055 126.09 55.5615 123.904 54.1644 122.856C52.5741 121.659 50.144 122.796 48.836 123.584C47.8476 124.179 46.889 124.826 45.9675 125.525C45.8411 125.19 45.7074 124.856 45.5885 124.514C46.4654 123.867 47.372 123.257 48.301 122.692C50.9466 121.108 53.2503 120.87 54.7887 122.023C56.0892 122.997 56.6465 124.856 56.3121 127.131V127.138Z" fill="#E8E8E8"/>
<path d="M88.6763 56.4805C88.2675 55.4321 86.915 55.3206 85.8449 55.67C83.8458 56.3094 82.0771 57.6181 80.8509 59.3505C80.4645 59.7371 80.1449 60.1015 79.87 60.4658C79.268 61.2539 78.993 62.3321 79.7585 62.9269C80.0112 63.1276 80.2935 63.1946 80.5685 63.1946C81.0293 63.1946 81.4603 62.9938 81.6535 62.9046C83.883 61.8636 85.9266 60.503 87.7399 58.8449C88.8769 57.8114 88.8769 56.9786 88.6837 56.473L88.6763 56.4805ZM87.0339 58.0791C85.2949 59.6628 83.333 60.964 81.2076 61.9677C80.6428 62.2354 80.457 62.161 80.405 62.1164C80.2415 61.99 80.3827 61.5067 80.6948 61.0978C80.9549 60.7632 81.2596 60.4137 81.6238 60.0494L81.6832 59.9825C82.7831 58.4136 84.3734 57.2389 86.1644 56.6589C86.4022 56.5846 86.6921 56.5251 86.9596 56.5251C87.3089 56.5251 87.6136 56.6143 87.7102 56.8597C87.7325 56.9043 87.7325 56.9563 87.7325 57.0084C87.7325 57.3801 87.3089 57.8337 87.0339 58.0791Z" fill="#E8E8E8"/>
<path d="M149.02 100.587C148.492 100.178 147.712 100.014 147.036 100.133C146.813 100.156 141.596 100.698 136.617 105.1C135.77 105.851 135.145 107.108 135.777 108.104C136.112 108.639 136.706 108.915 137.494 108.915C137.865 108.915 138.282 108.855 138.735 108.729C142.228 107.762 145.579 106.074 148.433 103.851C149.013 103.397 149.778 102.684 149.674 101.725C149.629 101.271 149.406 100.877 149.013 100.587H149.02ZM147.794 103.026C145.052 105.167 141.819 106.795 138.46 107.725C138.029 107.844 136.981 108.067 136.654 107.546C136.364 107.085 136.773 106.342 137.308 105.873C142.02 101.71 147.08 101.167 147.17 101.159C147.266 101.145 147.37 101.137 147.459 101.137C147.809 101.137 148.158 101.234 148.388 101.412C148.544 101.531 148.626 101.665 148.641 101.829C148.678 102.163 148.411 102.55 147.794 103.026Z" fill="#E8E8E8"/>
<path d="M57.2188 82.705C56.1858 84.8761 54.5583 86.668 52.9828 88.4079L52.4626 88.9804C48.628 93.2334 45.1649 97.8136 42.1105 102.647C42.1328 101.948 42.17 101.249 42.222 100.565C45.0608 96.2373 48.2267 92.133 51.6897 88.2815L52.2174 87.7089C53.7408 86.0286 55.3163 84.2887 56.2824 82.2589C56.5351 81.7235 56.8992 80.742 56.4459 80.1695C55.9108 79.5003 54.6698 79.8349 53.9712 80.0952C50.7162 81.2997 47.7585 83.1957 45.2912 85.6122C45.5365 84.9058 45.7966 84.1995 46.0641 83.508C48.3084 81.6343 50.8574 80.1324 53.6071 79.1137C55.2643 78.504 56.5574 78.6527 57.2559 79.5227C57.8653 80.2885 57.8504 81.3889 57.2262 82.7124L57.2188 82.705Z" fill="#E8E8E8"/>
<path d="M68.9382 61.6184C68.8788 64.0349 67.5039 66.5332 65.2671 68.3102C63.1268 70.0055 60.4738 70.9052 58.4004 71.5074C57.6944 71.7156 56.9735 71.9015 56.2601 72.0948C54.6252 72.5261 52.9234 72.9796 51.3404 73.6116C51.2364 73.6562 51.1324 73.6934 51.0283 73.738C51.3404 73.2399 51.66 72.7491 51.9944 72.2584C53.3172 71.79 54.6698 71.4331 55.9851 71.0836C56.6986 70.8977 57.4045 70.7118 58.1105 70.5037C60.0947 69.9311 62.6215 69.0761 64.6205 67.4924C66.6196 65.9086 67.8384 63.7078 67.8978 61.5887C67.935 60.0645 67.2959 58.5923 66.2852 57.6034C66.5676 57.4026 66.85 57.2019 67.1398 57.0085C68.2694 58.1908 68.9754 59.8786 68.9308 61.6184H68.9382Z" fill="#E8E8E8"/>
<path d="M75.4779 124.149C75.4036 124.514 75.6489 124.737 76.013 124.856C76.2582 124.938 76.719 124.625 76.7264 125.101C76.7264 125.466 76.4812 125.77 75.9758 125.696C75.6266 125.644 75.2921 125.793 75.3813 126.194C75.4779 126.596 75.8346 126.551 76.1914 126.477C77.425 126.231 77.7222 125.413 77.4324 124.149C77.1352 124.075 76.7784 123.428 76.1765 124.075C75.9907 124.268 75.6117 123.473 75.4779 124.149Z" fill="#E8E8E8"/>
<path d="M74.9206 146.53C75.0246 146.612 74.6976 147.087 75.203 146.805C75.6191 146.574 76.2285 146.537 76.2137 145.905C76.2137 145.764 76.496 145.377 76.0056 145.31C75.2253 145.199 74.4524 144.641 73.3451 145.585C74.4672 145.288 74.4673 146.173 74.9206 146.53Z" fill="#E8E8E8"/>
<path d="M65.4008 130.953C65.9731 130.99 66.6196 131.287 67.1101 130.744C67.281 130.551 67.3479 130.269 67.5114 129.919C67.006 129.919 66.6196 129.852 66.2629 129.934C65.8244 130.031 65.4083 130.254 64.9847 130.417C65.1184 130.603 65.2522 130.938 65.3934 130.945L65.4008 130.953Z" fill="#E8E8E8"/>
<path d="M84.3289 57.5959C84.745 57.8933 85.1166 58.0048 85.5699 57.6628C86.0604 57.2985 86.8035 57.2985 87.1008 56.6293C86.6623 56.2055 86.3428 56.607 85.9861 56.7408C85.7557 56.3765 85.4733 55.9601 85.0125 56.2724C84.8342 56.3914 85.5996 56.5847 85.3172 57.0011C84.968 57.2985 84.589 56.607 84.2843 57.0159C84.2099 57.12 84.039 57.3803 84.3289 57.5885V57.5959Z" fill="#E8E8E8"/>
<path d="M83.3702 131.228C83.7789 131.027 84.314 131.086 84.5964 130.618C84.3809 130.224 83.8309 130.752 83.6452 130.157C83.608 130.038 82.8351 129.949 82.4487 130.194C82.0994 130.417 82.2406 130.856 82.3595 131.086C82.5676 131.481 83.0581 131.376 83.3628 131.228H83.3702Z" fill="#E8E8E8"/>
<path d="M151.718 150.924C151.889 150.604 152.149 150.337 152.089 150.21C151.903 149.809 151.614 149.474 151.056 149.496C150.35 149.526 150.202 150.054 150.254 150.515C150.447 152.069 151.368 149.593 151.71 150.924H151.718Z" fill="#E8E8E8"/>
<path d="M79.1937 131.005C78.9187 130.819 78.7181 130.157 78.3316 130.603C77.7966 131.228 78.8593 130.938 78.8741 131.309C79.0005 131.875 79.0896 132.633 79.8997 132.38C80.8063 132.105 80.1078 131.339 80.457 130.477C79.8848 131.057 79.6173 131.436 79.1862 130.997L79.1937 131.005Z" fill="#E8E8E8"/>
<path d="M60.496 142.024C61.4993 143.043 62.2201 142.411 63.1937 141.734C62.1012 141.399 61.3284 141.645 60.496 142.024Z" fill="#E8E8E8"/>
<path d="M110.971 117.547C111.194 117.539 111.446 117.391 111.335 117.108C111.283 116.982 110.993 116.803 110.926 116.84C110.228 117.242 109.247 116.707 108.593 117.621C109.477 117.985 110.22 117.577 110.971 117.547Z" fill="#E8E8E8"/>
<path d="M66.3966 50.6362C66.5156 49.6102 66.5527 48.7254 66.0102 47.9075C66.0771 48.7774 65.2968 49.7812 66.3966 50.6362Z" fill="#E8E8E8"/>
<path d="M119.16 58.3691C120.29 58.7408 120.424 57.6032 121.048 57.2612C121.635 57.4545 121.761 56.9341 121.791 56.6292C121.813 56.3467 121.501 56.4582 121.33 56.6143C120.119 56.5995 119.881 57.7296 119.168 58.3691H119.16Z" fill="#E8E8E8"/>
<path d="M71.019 134.797C71.5095 135.273 72.0149 135.213 72.5425 135.005C72 134.165 73.0999 134.276 73.2336 133.838C73.8579 133.815 74.5713 133.912 74.5862 132.96C73.8504 132.603 73.8281 133.719 73.2188 133.607C72.1338 133.384 72.1263 135.005 71.019 134.789V134.797Z" fill="#E8E8E8"/>
<path d="M91.9536 122.253C92.288 122.469 92.444 121.852 92.4366 121.621C92.4069 120.9 91.6117 121.279 91.3368 120.937C91.0618 120.952 90.7422 120.9 90.8166 121.242C90.9355 121.815 91.5448 121.993 91.9536 122.253Z" fill="#E8E8E8"/>
<path d="M49.2002 51.9375C47.5875 51.1865 46.6512 52.2647 45.5439 52.4282C46.7329 52.6959 47.7287 51.9226 49.2002 51.9375Z" fill="#E8E8E8"/>
<path d="M75.359 144.046C75.8272 144.292 75.7678 143.726 75.961 143.533C75.9758 143.02 75.5894 143.161 75.2996 143.087C74.8091 142.961 74.601 143.139 74.5713 143.585C74.5416 144.173 75.0915 143.912 75.3516 144.046H75.359Z" fill="#E8E8E8"/>
<path d="M62.0938 47.5581C61.8709 46.703 61.2243 46.7179 60.6595 46.6138C60.6372 46.6138 60.5035 46.874 60.5406 46.9558C60.8379 47.677 61.4621 47.506 62.1012 47.5506L62.0938 47.5581Z" fill="#E8E8E8"/>
<path d="M117.377 108.037C117.444 108 117.369 107.673 117.377 107.42C117.392 107.093 117.369 106.706 116.886 106.825C116.596 106.892 116.203 107.003 116.292 107.45C116.373 107.844 116.582 108.134 117.377 108.03V108.037Z" fill="#E8E8E8"/>
<path d="M122.021 126.648C121.813 126.782 122.274 127.28 121.947 127.585C122.571 127.815 122.965 127.48 123.515 126.953C122.906 126.819 122.527 126.321 122.021 126.648Z" fill="#E8E8E8"/>
<path d="M68.47 132.551C68.039 132.633 68.418 131.837 67.8161 132.001C67.3033 132.142 66.8946 132.336 66.7682 132.841C66.7236 133.02 66.9392 133.258 67.0358 133.473C67.1695 133.495 67.3033 133.518 67.4445 133.54C67.3479 132.462 68.1059 132.841 68.47 132.551Z" fill="#E8E8E8"/>
<path d="M68.2322 122.253C69.0274 122.32 69.6962 122.647 69.9712 121.971C70.1273 121.592 69.4956 121.473 69.2355 121.376C68.3214 121.041 68.8936 122.06 68.2322 122.246V122.253Z" fill="#E8E8E8"/>
<path d="M155.708 77.7901C156.05 77.0391 154.98 77.0094 154.973 76.3997C154.579 77.0911 154.846 77.5893 155.277 78.0206C155.307 78.0577 155.649 77.909 155.708 77.7826V77.7901Z" fill="#E8E8E8"/>
<path d="M97.0739 106.825C96.9475 106.706 96.7915 106.572 96.5908 106.691C96.9401 107.509 97.1482 107.628 97.7501 107.487C98.0325 107.42 98.1886 107.316 98.144 107.048C97.9879 106.119 97.3934 107.115 97.0739 106.818V106.825Z" fill="#E8E8E8"/>
<path d="M123.337 158.456C123.062 158.456 122.742 158.478 122.735 158.865C122.72 159.341 123.077 159.333 123.411 159.326C123.79 159.356 124.117 159.147 124.11 158.82C124.102 158.382 123.649 158.456 123.344 158.456H123.337Z" fill="#E8E8E8"/>
<path d="M86.2462 126.826C86.0753 127.19 86.4914 127.131 86.759 127.168C87.294 127.25 87.4427 126.878 87.6953 126.544C87.4872 126.395 87.4427 126.038 87.1751 126.157C86.8258 126.313 86.3948 126.521 86.2462 126.826Z" fill="#E8E8E8"/>
<path d="M137.152 152.545C136.795 152.299 136.216 151.608 135.547 152.448C135.77 152.567 135.963 152.686 136.164 152.79C136.922 153.177 137.613 152.85 137.152 152.545Z" fill="#E8E8E8"/>
<path d="M78.2573 141.823C77.9824 141.407 77.3284 141.63 77.1277 141.801C76.6298 142.225 77.0237 142.559 77.477 142.775C77.5885 143.199 77.2615 143.385 77.0386 143.66C76.4143 144.396 77.2244 144.091 77.4622 144.195C77.4622 144.894 77.7817 145.191 78.5323 144.976C78.4283 144.663 77.8412 144.649 78.0418 144.188C79.0302 143.459 77.4324 143.147 77.7743 142.522C78.2945 142.53 78.5174 142.202 78.2648 141.831L78.2573 141.823Z" fill="#E8E8E8"/>
<path d="M134.447 137.979C134.566 137.986 134.856 137.644 134.826 137.518C134.759 137.25 134.714 136.834 134.142 136.916C134.179 137.302 133.444 136.968 133.57 137.451C133.667 137.808 134.098 137.942 134.447 137.972V137.979Z" fill="#E8E8E8"/>
<path d="M63.2457 127.8C63.974 128.053 64.3381 127.808 64.5313 127.19C64.5759 127.042 64.7766 126.856 64.457 126.826C63.7659 126.759 63.543 127.265 63.2457 127.8Z" fill="#E8E8E8"/>
<path d="M90.2517 128.224C90.4673 128.224 90.7274 128.268 90.7942 127.83C90.4078 127.793 90.6456 127.183 90.1849 127.161C89.895 127.146 89.6572 127.317 89.6424 127.666C89.6275 128.09 89.8727 128.239 90.2517 128.231V128.224Z" fill="#E8E8E8"/>
<path d="M143.981 140.485C144.494 140.864 144.933 141.132 145.661 141.095C145.356 140.173 144.821 140.091 143.981 140.485Z" fill="#E8E8E8"/>
<path d="M83.7566 127.696C83.9276 127.949 84.3066 128.09 84.6187 128.194C84.8491 128.268 85.0423 128.097 85.0794 127.822C84.9159 127.428 84.5815 127.354 84.1951 127.361C83.9573 127.361 83.6154 127.503 83.7492 127.696H83.7566Z" fill="#E8E8E8"/>
<path d="M52.9605 139.213C52.8342 139.243 52.6558 139.533 52.693 139.607C52.849 139.912 52.9531 140.366 53.451 140.254C53.6293 140.21 53.7705 140.001 54.0455 139.771C53.399 139.875 53.4659 139.079 52.9605 139.213Z" fill="#E8E8E8"/>
<path d="M69.0943 130.209C68.4626 130.231 68.4106 130.782 68.1208 131.421C68.8639 131.228 69.3544 131.124 69.4807 130.551C69.503 130.462 69.2281 130.202 69.0943 130.202V130.209Z" fill="#E8E8E8"/>
<path d="M123.01 85.4187C122.14 85.1287 121.739 85.5971 121.256 86.4001C122.029 86.1176 122.638 86.0135 123.01 85.4187Z" fill="#E8E8E8"/>
<path d="M120.141 97.0772C120.424 97.1441 120.78 97.2334 121.078 96.7501C120.922 96.6088 120.751 96.3709 120.528 96.2891C120.193 96.1627 119.874 96.3337 119.747 96.6608C119.718 96.7426 119.978 97.0475 120.141 97.0847V97.0772Z" fill="#E8E8E8"/>
<path d="M109.366 129.094C109.202 129.101 108.883 129.466 108.92 129.547C109.135 130.053 109.581 130.224 110.294 130.12C109.767 129.852 110.101 129.049 109.366 129.094Z" fill="#E8E8E8"/>
<path d="M55.8216 142.492C55.9183 142.433 55.9183 141.987 55.8142 141.897C55.3237 141.466 54.9819 142.068 54.5286 142.21C54.9596 142.485 55.3683 142.782 55.8216 142.5V142.492Z" fill="#E8E8E8"/>
<path d="M76.1393 131.421C76.5704 131.882 76.6075 131.391 76.6373 131.064C76.9122 131.02 77.3061 131.012 77.2689 130.663C77.2318 130.276 76.8676 130.484 76.6224 130.499C76.2657 130.573 75.9833 130.105 75.5746 130.343C75.8941 130.655 75.8941 131.161 76.1393 131.414V131.421Z" fill="#E8E8E8"/>
<path d="M132.054 150.195C131.422 150.225 131.541 150.879 131.333 151.355C131.712 151.132 132.099 150.909 132.478 150.686C132.336 150.515 132.188 150.188 132.054 150.195Z" fill="#E8E8E8"/>
<path d="M115.534 149.831C115.801 149.831 115.95 149.72 115.965 149.437C115.994 148.961 115.682 148.939 115.34 148.954C115.125 148.961 114.82 148.917 114.865 149.251C114.917 149.586 115.177 149.786 115.526 149.831H115.534Z" fill="#E8E8E8"/>
<path d="M47.1714 92.3336C47.9889 92.3039 48.6131 92.1254 49.1407 91.6719C48.5091 91.8206 47.7659 91.6273 47.1714 92.3336Z" fill="#E8E8E8"/>
<path d="M68.6038 51.7219C67.8309 51.7517 67.2364 51.2461 66.9094 52.1978C67.4371 52.2424 67.9275 52.4654 68.6038 51.7219Z" fill="#E8E8E8"/>
<path d="M106.638 95.6944C106.95 95.6498 107.084 95.4044 107.173 95.107C107.069 94.7129 106.735 94.8914 106.497 94.8616C106.244 94.8319 106.029 94.9211 106.066 95.2334C106.111 95.5531 106.311 95.739 106.638 95.6944Z" fill="#E8E8E8"/>
<path d="M59.255 137.191C58.6679 137.206 58.8165 137.674 58.7422 138.009C58.6233 138.135 58.4524 138.239 58.4004 138.388C58.3335 138.581 58.549 138.566 58.6753 138.589C59.1287 138.656 59.0246 138.269 59.1138 138.046C59.3442 137.979 59.7529 138.195 59.7529 137.763C59.7529 137.533 59.6563 137.191 59.2624 137.198L59.255 137.191Z" fill="#E8E8E8"/>
<path d="M84.5815 127.094C84.8639 127.109 85.1835 127.094 85.0794 126.662C85.02 126.417 84.8268 126.291 84.4775 126.268C84.3512 126.424 84.0019 126.477 84.0316 126.819C84.0613 127.153 84.366 127.071 84.5741 127.086L84.5815 127.094Z" fill="#E8E8E8"/>
<path d="M121.085 123.25C120.238 123.071 120.149 123.822 119.718 124.164C120.691 124.595 120.684 123.696 121.085 123.25Z" fill="#E8E8E8"/>
<path d="M142.451 122.729C142.369 122.774 142.361 122.945 142.317 123.064C142.74 123.205 143.112 123.651 143.684 123.324C143.305 122.982 143.127 122.35 142.458 122.737L142.451 122.729Z" fill="#E8E8E8"/>
<path d="M73.7093 117.004C73.9842 117.004 74.3186 117.004 74.2741 116.617C74.2518 116.424 74.0957 116.194 73.7761 116.164C73.5086 116.194 73.308 116.409 73.2634 116.669C73.2039 116.974 73.4789 117.011 73.7167 117.011L73.7093 117.004Z" fill="#E8E8E8"/>
<path d="M96.5537 87.4635C97.0441 87.7535 97.438 87.5304 97.8096 87.1958C97.4157 86.6084 96.9624 86.891 96.5239 87.1215C96.4794 87.1438 96.4942 87.4263 96.5537 87.4635Z" fill="#E8E8E8"/>
<path d="M84.8193 98.029C84.4998 97.6869 84.4923 96.9954 83.7938 97.1813C83.6749 97.2111 83.4965 97.3747 83.5039 97.449C83.6154 98.2148 84.5221 97.5531 84.8193 98.029Z" fill="#E8E8E8"/>
<path d="M63.7362 92.3558C62.785 91.709 62.2276 92.0138 61.6405 92.4971C62.4431 93.0399 62.837 92.0584 63.7362 92.3558Z" fill="#E8E8E8"/>
<path d="M122.802 133.28C122.75 133.548 122.698 133.838 123.144 133.823C123.411 133.815 123.701 133.867 123.85 133.525C123.887 133.124 123.456 133.28 123.285 133.109C123.092 132.908 122.861 132.975 122.809 133.28H122.802Z" fill="#E8E8E8"/>
<path d="M71.9406 131.191C71.4129 130.878 71.3014 130.425 70.7961 130.358C70.3948 131.31 70.8927 131.399 71.9406 131.191Z" fill="#E8E8E8"/>
<path d="M75.8569 128.142C76.5481 128.663 77.0385 128.388 77.4621 128.521C77.5959 128.893 77.908 128.759 78.1607 128.744C78.1979 128.744 78.2796 128.499 78.235 128.425C78.0641 128.142 77.752 128.209 77.4844 128.179C77.4844 128.001 77.477 127.822 77.4696 127.644C76.823 127.473 76.7041 128.343 75.8569 128.135V128.142Z" fill="#E8E8E8"/>
<path d="M77.5072 127.659C77.5072 127.659 77.4997 127.644 77.4922 127.636C77.4922 127.636 77.4771 127.636 77.4696 127.636C77.4696 127.636 77.4696 127.652 77.4696 127.659C77.4846 127.659 77.4922 127.659 77.5072 127.659Z" fill="#E8E8E8"/>
<path d="M96.405 56.302C96.0632 55.8781 95.7139 55.5064 95.1119 55.7071C95.0599 55.722 95.0079 55.8781 95.0302 55.9302C95.3646 56.4878 95.9889 55.9897 96.405 56.3094V56.302Z" fill="#E8E8E8"/>
<path d="M125.358 75.7603C125.499 75.79 125.693 75.5372 125.878 75.4034C125.678 75.2398 125.611 74.935 125.336 75.0019C125.083 75.0688 124.853 75.2249 124.608 75.3439C124.853 75.4926 125.091 75.7082 125.358 75.7603Z" fill="#E8E8E8"/>
<path d="M140.972 71.076C141.492 71.4626 141.968 71.3586 142.629 71.2322C142.012 71.0091 141.626 70.4514 140.972 71.076Z" fill="#E8E8E8"/>
<path d="M92.444 58.4285C91.8049 58.8672 91.8346 59.3951 92.013 60.0494C92.3994 59.5661 92.5852 59.12 92.444 58.4285Z" fill="#E8E8E8"/>
<path d="M120.342 48.6957C119.732 48.4504 119.391 49.0526 118.878 49.0526C119.406 49.127 120.067 49.6846 120.342 48.6957Z" fill="#E8E8E8"/>
<path d="M91.1807 116.543C91.3442 116.179 91.5077 115.814 91.6712 115.443C91.5151 115.881 90.5044 115.554 90.7645 116.231C90.8165 116.365 91.0395 116.439 91.1807 116.543Z" fill="#E8E8E8"/>
<path d="M146.798 125.398C146.345 125.153 145.869 124.796 145.512 125.577C145.958 125.726 146.389 125.807 146.798 125.398Z" fill="#E8E8E8"/>
<path d="M100.009 118.744C99.5337 118.922 99.5263 119.45 99.2141 119.748C99.3702 119.829 99.6526 119.993 99.6675 119.971C99.935 119.614 100.321 119.272 100.002 118.744H100.009Z" fill="#E8E8E8"/>
<path d="M75.1881 119.577C75.2401 119.145 74.8314 119.257 74.6233 119.153C74.3781 119.026 74.17 119.205 74.1403 119.435C74.0882 119.807 74.4152 119.837 74.6902 119.919C74.8983 119.881 75.151 119.874 75.1881 119.584V119.577Z" fill="#E8E8E8"/>
<path d="M144.368 131.339C145.059 131.012 145.52 130.923 145.386 130.373C145.334 130.164 145.104 130.105 144.94 130.179C144.427 130.395 144.881 130.863 144.368 131.347V131.339Z" fill="#E8E8E8"/>
<path d="M62.9707 147.34C62.8667 147.139 62.7106 146.961 62.5769 146.76C62.3391 147.02 62.1607 147.221 61.9749 147.422C62.2127 147.548 62.4357 147.749 62.6809 147.786C62.9187 147.824 63.1194 147.63 62.9707 147.34Z" fill="#E8E8E8"/>
<path d="M61.8709 145.035C61.7 145.035 61.3135 144.879 61.4919 145.303C61.5811 145.511 61.5588 145.905 62.0047 145.846C62.1904 145.675 62.5174 145.585 62.4431 145.236C62.3688 144.894 62.079 145.043 61.8709 145.043V145.035Z" fill="#E8E8E8"/>
<path d="M51.2364 133.927C50.7014 133.8 50.248 133.696 49.5495 133.533C50.5602 134.291 50.5824 134.299 51.2364 133.927Z" fill="#E8E8E8"/>
<path d="M158.347 68.7487C158.458 68.7189 158.636 68.5479 158.621 68.4884C158.51 68.0646 158.183 67.9531 157.477 68.0572C157.982 68.2282 157.759 68.9197 158.347 68.7561V68.7487Z" fill="#E8E8E8"/>
<path d="M152.706 122.722C152.156 123.198 152.045 123.636 152.453 124.38C152.676 123.725 152.803 123.287 152.706 122.722Z" fill="#E8E8E8"/>
<path d="M77.3953 132.901C77.1723 132.953 76.8379 132.708 76.8007 133.109C76.7933 133.213 77.098 133.377 77.2838 133.473C77.5216 133.607 77.7148 133.57 77.7743 133.265C77.7445 133.042 77.7817 132.819 77.3953 132.901Z" fill="#E8E8E8"/>
<path d="M115.749 90.9135C115.705 90.7276 115.437 90.6012 115.274 90.4451C115.058 90.7127 114.798 90.9655 114.984 91.5009C114.887 90.8094 115.928 91.6347 115.749 90.9061V90.9135Z" fill="#E8E8E8"/>
<path d="M143.097 133.198C142.859 133.176 142.592 133.213 142.607 133.525C142.614 133.815 142.822 134.046 143.112 134.083C143.55 134.135 143.142 133.57 143.565 133.518C143.521 133.22 143.275 133.22 143.097 133.198Z" fill="#E8E8E8"/>
<path d="M72.9066 120.952C72.6391 121.027 72.379 121.198 72.4236 121.525C72.4533 121.755 72.6763 121.748 72.8621 121.74C73.1742 121.74 73.2262 121.525 73.2113 121.056C73.2113 121.064 73.137 120.878 72.9066 120.945V120.952Z" fill="#E8E8E8"/>
<path d="M140.875 49.5805C140.719 49.4615 140.518 49.402 140.414 49.5953C140.206 49.982 140.667 50.205 140.697 50.5768C141.098 50.1753 141.284 49.8928 140.875 49.5805Z" fill="#E8E8E8"/>
<path d="M75.9833 154.932C75.4779 154.716 75.1732 154.887 75.0172 155.244C74.9726 155.34 75.1955 155.69 75.2476 155.682C75.6266 155.616 75.7603 155.259 75.9833 154.932Z" fill="#E8E8E8"/>
<path d="M80.1524 154.337C79.5355 154.277 79.1194 154.114 78.6289 154.389C79.0897 154.991 79.5133 154.939 80.1524 154.337Z" fill="#E8E8E8"/>
<path d="M155.404 95.6571C155.82 96.0437 156.035 96.3709 156.6 96.4601C156.466 95.8132 156.169 95.5679 155.404 95.6571Z" fill="#E8E8E8"/>
<path d="M71.9406 142.849C71.7548 143.102 71.2048 142.916 71.2717 143.407C71.3014 143.645 71.517 143.637 71.621 143.63C72.0223 143.637 72.2155 143.437 72.2675 143.161C72.3047 142.968 72 142.76 71.9406 142.849Z" fill="#E8E8E8"/>
<path d="M137.367 147.645C137.122 147.548 136.907 147.727 136.951 147.972C136.988 148.173 137.182 148.344 137.308 148.522C137.464 148.403 137.628 148.277 137.739 148.195C137.813 147.816 137.546 147.719 137.375 147.645H137.367Z" fill="#E8E8E8"/>
<path d="M46.3093 65.953C46.1904 65.7225 46.0715 65.4177 45.752 65.4697C45.5662 65.4995 45.4175 65.7374 45.2466 65.8787C45.477 66.0125 45.6999 66.1761 45.9526 66.2579C46.1235 66.3099 46.3167 66.2207 46.3093 65.953Z" fill="#E8E8E8"/>
<path d="M90.0437 126.61C90.1923 126.543 90.4896 126.841 90.5044 126.417C90.5193 126.142 90.3855 125.986 90.1105 125.971C89.8579 125.956 89.6572 125.993 89.6795 126.328C89.6944 126.581 89.6944 126.767 90.0511 126.61H90.0437Z" fill="#E8E8E8"/>
<path d="M78.0269 127.592C78.1607 126.819 77.4622 127.109 77.0609 126.99C77.2021 127.205 77.3433 127.421 77.4919 127.629C77.6777 127.666 77.9303 128.142 78.0269 127.585V127.592Z" fill="#E8E8E8"/>
<path d="M157.18 140.5C157.589 140.633 157.908 140.507 158.086 140.083C157.73 139.912 157.38 139.957 157.061 140.172C157.031 140.195 157.105 140.477 157.18 140.5Z" fill="#E8E8E8"/>
<path d="M75.3739 140.15C75.4556 140.217 75.7009 140.247 75.738 140.195C75.9684 139.905 75.7752 139.615 75.6117 139.28C75.7083 139.6 74.876 139.719 75.3665 140.15H75.3739Z" fill="#E8E8E8"/>
<path d="M143.61 127.086C143.759 127.287 143.974 127.443 144.19 127.57C144.219 127.585 144.412 127.339 144.524 127.213C144.316 126.997 144.167 126.744 143.833 126.811C143.669 126.841 143.424 126.841 143.61 127.086Z" fill="#E8E8E8"/>
<path d="M71.3832 133.756C71.5244 133.6 71.725 133.466 71.7845 133.287C71.8514 133.094 71.673 132.982 71.4649 132.975C71.242 132.975 70.9893 132.938 70.9447 133.243C70.9002 133.533 71.2123 133.555 71.3832 133.756Z" fill="#E8E8E8"/>
<path d="M139.114 129.049C139.471 129.116 139.448 128.863 139.433 128.626C139.433 128.395 139.419 128.127 139.077 128.261C138.921 128.321 138.72 128.484 138.69 128.618C138.646 128.871 138.891 129.005 139.114 129.049Z" fill="#E8E8E8"/>
<path d="M70.9596 129.384C70.9967 129.324 70.8927 129.086 70.8333 129.079C70.4542 129.005 70.0901 129.034 69.8672 129.718C70.3353 129.577 70.7218 129.793 70.9596 129.391V129.384Z" fill="#E8E8E8"/>
<path d="M72.8398 122.975C72.8398 122.833 72.5648 122.811 72.3864 122.915C72.2229 123.153 72.0594 123.391 71.7993 123.763C72.3939 123.607 72.8472 123.54 72.8398 122.975Z" fill="#E8E8E8"/>
<path d="M72.3868 122.916C72.3868 122.916 72.3944 122.9 72.402 122.893L72.3716 122.923C72.3716 122.923 72.3716 122.923 72.3792 122.923L72.3868 122.916Z" fill="#E8E8E8"/>
<path d="M113.416 130.15C113.862 130.001 113.839 129.577 114.144 128.893C113.542 129.339 113.148 129.533 113.193 130.023C113.193 130.075 113.356 130.165 113.416 130.142V130.15Z" fill="#E8E8E8"/>
<path d="M80.3604 127.889C79.8477 128.217 79.2011 128.209 79.5876 128.953C79.8922 128.737 80.2267 128.566 80.3604 127.889Z" fill="#E8E8E8"/>
<path d="M105.182 49.2162C105.182 49.2162 105.055 49.179 104.974 49.1567C104.877 49.5285 104.862 49.878 105.003 50.2349C105.836 49.9077 105.278 49.5434 105.182 49.2162Z" fill="#E8E8E8"/>
<path d="M136.126 62.8971C136.372 62.86 136.342 62.6518 136.349 62.4808C136.349 62.2205 136.282 62.0346 135.881 62.1164C135.77 62.1982 135.48 62.2503 135.606 62.5402C135.688 62.7336 135.844 62.9417 136.126 62.8971Z" fill="#E8E8E8"/>
<path d="M62.9559 135.689C63.0153 135.481 62.7329 135.496 62.5694 135.451C62.3242 135.392 62.0864 135.414 62.1087 135.719C62.1161 135.838 62.3242 136.009 62.4728 136.053C62.7478 136.135 62.9113 135.853 62.9559 135.689Z" fill="#E8E8E8"/>
<path d="M58.17 135.243C58.17 135.243 58.2071 135.28 58.2294 135.295C58.3855 135.548 57.4268 136.247 58.5267 136.135C58.8017 136.113 59.0841 136.083 59.359 136.061C59.9486 136.333 60.4316 136.058 60.8082 135.235C61.0831 135.213 61.4919 135.161 61.2838 134.812C61.0311 134.388 60.7561 134.849 60.496 134.975C59.9907 135.012 60.3771 135.652 59.9684 135.756C59.686 135.473 59.4036 135.198 59.1212 134.916C58.7868 134.826 58.5936 134.276 58.1328 134.603C57.843 134.819 57.843 135.042 58.17 135.235V135.243Z" fill="#E8E8E8"/>
<path d="M68.6187 60.332C68.7301 60.2354 68.7301 60.0197 68.7896 59.8636C68.47 59.8785 68.1505 59.8933 67.8309 59.9082C66.9837 59.4175 66.7905 59.8636 66.7088 60.8004C67.1324 60.3989 67.4073 60.0941 67.8309 60.0569C68.1356 60.0569 68.2248 60.674 68.6187 60.3395V60.332Z" fill="#E8E8E8"/>
<path d="M137.94 133.31C137.457 133.25 137.055 133.139 136.654 133.347C137.169 133.52 137.598 133.508 137.94 133.31Z" fill="#E8E8E8"/>
<path d="M104.632 156.783C104.87 156.783 104.944 156.642 104.899 156.426C104.773 156.248 104.647 156.077 104.513 155.898C104.468 156.069 104.409 156.233 104.379 156.404C104.349 156.597 104.379 156.776 104.632 156.783Z" fill="#E8E8E8"/>
<path d="M118.581 155.088C118.833 155.013 119.056 154.857 119.361 154.701C119.168 154.552 118.982 154.322 118.893 154.352C118.655 154.434 118.395 154.582 118.268 154.783C118.164 154.954 118.38 155.14 118.581 155.08V155.088Z" fill="#E8E8E8"/>
<path d="M126.711 154.5C127.075 154.671 127.313 154.486 127.55 154.069C127.149 153.987 126.792 153.839 126.525 154.196C126.495 154.233 126.614 154.456 126.711 154.5Z" fill="#E8E8E8"/>
<path d="M74.1328 83.6269C74.6976 83.4856 75.1584 83.3741 75.7975 83.2179C75.1064 83.1138 74.5713 82.8759 74.1328 83.6269Z" fill="#E8E8E8"/>
<path d="M153.88 96.4229C153.561 96.0958 153.397 96.1181 153.226 96.2519C153.115 96.3411 153.003 96.4229 152.892 96.4973C152.788 96.5716 152.528 96.5196 152.632 96.7724C153.182 96.9806 153.449 96.5419 153.88 96.4229Z" fill="#E8E8E8"/>
<path d="M130.352 96.4453C130.464 96.4081 130.523 96.2371 130.612 96.133C130.293 96.0438 130.092 95.6423 129.535 95.8059C129.981 95.9397 129.706 96.6609 130.36 96.4453H130.352Z" fill="#E8E8E8"/>
<path d="M102.826 100.728C102.447 100.044 102.202 99.7393 101.496 99.5088C101.823 100.133 102.09 100.416 102.826 100.728Z" fill="#E8E8E8"/>
<path d="M97.817 125.332C98.2183 125.227 98.5527 125.131 98.9466 125.027C98.419 124.595 98.0251 124.469 97.817 125.332Z" fill="#E8E8E8"/>
<path d="M65.594 99.6351C66.0697 99.5013 65.8393 99.1592 65.8021 98.8618C65.4677 98.951 65.215 99.1741 65.1779 99.4864C65.1556 99.6871 65.4454 99.6723 65.594 99.6351Z" fill="#E8E8E8"/>
<path d="M78.941 126.224C79.0822 126.201 79.2086 126.008 79.4241 125.807C79.1119 125.763 78.9113 125.718 78.7032 125.711C78.5249 125.703 78.3019 125.733 78.5026 125.978C78.6066 126.105 78.8073 126.239 78.941 126.224Z" fill="#E8E8E8"/>
<path d="M67.6972 76.0204C67.6303 75.8791 67.5931 75.6858 67.4817 75.6189C67.0655 75.3735 66.9466 75.7527 66.7608 76.0055C67.0804 76.1542 67.3851 76.1394 67.6972 76.0278V76.0204Z" fill="#E8E8E8"/>
<path d="M115.222 114.454C115.095 114.692 115.296 114.759 115.482 114.736C115.638 114.714 115.861 114.662 115.92 114.55C116.009 114.387 115.905 114.216 115.556 114.216C115.489 114.26 115.296 114.327 115.222 114.461V114.454Z" fill="#E8E8E8"/>
<path d="M78.1013 118.424C77.8932 118.38 77.7594 118.506 77.7594 118.736C77.7594 118.96 77.7074 119.227 78.0493 119.235C78.2945 119.235 78.3168 119.041 78.3391 118.744C78.3614 118.655 78.3168 118.469 78.1013 118.432V118.424Z" fill="#E8E8E8"/>
<path d="M94.0344 123.978C93.8486 123.725 94.1013 123.175 93.4027 123.131C93.5142 123.517 93.425 123.919 94.0344 123.978Z" fill="#E8E8E8"/>
<path d="M141.819 111.011C142.525 111.019 142.867 111.48 143.402 111.286C143.03 110.751 142.584 110.751 141.819 111.011Z" fill="#E8E8E8"/>
<path d="M153.925 111.755C154.274 111.561 154.668 111.963 154.757 111.39C154.779 111.264 154.713 111.123 154.683 110.989C154.348 111.078 154.148 111.301 153.925 111.755Z" fill="#E8E8E8"/>
<path d="M124.726 47.5581C124.749 47.4987 124.689 47.35 124.63 47.3277C124.251 47.1864 124.072 47.4466 123.939 47.8481C124.199 47.7589 124.585 47.9894 124.726 47.5581Z" fill="#E8E8E8"/>
<path d="M79.7808 136.328C79.6247 135.704 78.7701 135.659 78.6512 135.005C78.3688 135.25 77.8263 135.533 77.856 135.734C77.9452 136.366 77.3656 137.131 78.0493 137.592C78.3465 137.793 78.8816 137.57 79.164 137.176C79.6024 137.496 79.8402 137.25 80.026 136.871C80.2638 136.856 80.5462 136.774 80.4645 136.522C80.3753 136.217 80.0186 136.366 79.7734 136.336L79.7808 136.328Z" fill="#E8E8E8"/>
<path d="M76.392 158.33C76.3251 158.277 76.2657 158.24 76.1988 158.196C77.0311 158.084 77.529 158.746 78.287 158.3C77.5959 158.233 77.0831 157.645 76.1691 158.181C75.5968 157.824 75.2253 157.906 74.8537 158.151C75.2476 158.196 75.6489 158.24 76.3846 158.322L76.392 158.33Z" fill="#E8E8E8"/>
<path d="M60.34 149.415C60.6744 149.913 61.0683 149.861 61.5662 149.667C61.1352 149.541 60.8082 149.273 60.34 149.415Z" fill="#E8E8E8"/>
<path d="M66.1514 149.4C66.0548 149.325 66.2183 148.976 65.8987 149.117C65.7576 149.177 65.6312 149.348 65.5866 149.496C65.542 149.638 65.5495 149.905 65.7873 149.883C66.0177 149.861 66.196 149.697 66.1589 149.392L66.1514 149.4Z" fill="#E8E8E8"/>
<path d="M62.9856 148.507C62.8444 148.411 62.6883 148.218 62.5769 148.24C62.4357 148.27 62.2945 148.455 62.2276 148.612C62.1533 148.79 62.2053 148.961 62.4654 148.961C62.7329 148.961 62.8221 148.745 62.9856 148.515V148.507Z" fill="#E8E8E8"/>
<path d="M60.2434 146.864C60.2285 147.243 60.5778 147.362 61.0757 147.184C60.9271 147.005 60.8602 146.864 60.7487 146.805C60.5778 146.715 60.2657 146.277 60.2434 146.864Z" fill="#E8E8E8"/>
<path d="M64.0706 47.7366C64.3604 47.6846 64.4199 47.469 64.509 47.2608C64.6057 47.0154 64.4496 46.9708 64.2638 46.9485C63.9591 46.9113 63.8625 47.0898 63.8922 47.3426C63.9071 47.4913 63.8179 47.7143 64.078 47.7366H64.0706Z" fill="#E8E8E8"/>
<path d="M146.746 154.604C146.805 154.381 146.62 154.314 146.426 154.292C146.241 154.27 146.047 154.285 146.003 154.5C145.958 154.716 146.085 154.82 146.404 154.805C146.486 154.813 146.687 154.805 146.739 154.604H146.746Z" fill="#E8E8E8"/>
<path d="M148.463 52.748C148.24 52.4506 147.905 52.5473 147.222 52.6216C147.749 52.8372 148.061 52.9636 148.373 53.09C148.411 52.9711 148.507 52.8075 148.463 52.7406V52.748Z" fill="#E8E8E8"/>
<path d="M128.16 129.666C128.204 129.822 128.36 130.016 128.502 130.053C128.613 130.083 128.873 129.919 128.903 129.8C128.97 129.503 128.613 129.54 128.487 129.391C128.234 129.332 128.1 129.473 128.152 129.666H128.16Z" fill="#E8E8E8"/>
<path d="M149.897 134.157C149.756 134.105 149.458 134.135 149.414 134.224C149.288 134.462 149.451 134.648 149.689 134.752C149.897 134.849 150.016 134.693 150.142 134.581C150.231 134.343 150.046 134.209 149.897 134.157Z" fill="#E8E8E8"/>
<path d="M62.5843 132.246H61.0608C60.3697 131.689 59.7455 131.384 59.203 132.499C59.8569 132.47 60.444 132.47 61.0311 132.44C61.4696 132.417 61.9303 132.804 62.5769 132.239L62.5843 132.246Z" fill="#E8E8E8"/>
<path d="M83.8681 132.247H84.9977C84.9977 132.247 84.9531 132.009 84.8862 131.927C84.5592 131.555 84.3437 131.689 83.8681 132.247Z" fill="#E8E8E8"/>
<path d="M147.72 67.1502C147.667 67.1205 147.43 67.232 147.422 67.2989C147.385 67.5666 147.556 67.6855 147.89 67.6855C147.942 67.6707 148.069 67.6261 148.188 67.5815C148.032 67.4327 147.898 67.2617 147.72 67.1502Z" fill="#E8E8E8"/>
<path d="M60.3846 70.3028C60.1616 70.0946 59.9238 70.3994 59.6191 70.6894C59.8495 70.734 59.9759 70.7786 60.1096 70.7786C60.4589 70.7786 60.6744 70.5705 60.392 70.3028H60.3846Z" fill="#E8E8E8"/>
<path d="M80.1449 67.9903C80.2489 67.9977 80.3679 67.9159 80.5908 67.8267C80.353 67.6854 80.2192 67.5665 80.0632 67.5293C79.9888 67.5144 79.8179 67.6408 79.7956 67.7226C79.7362 67.9977 79.9888 67.9754 80.1449 67.9903Z" fill="#E8E8E8"/>
<path d="M144.561 68.3547C144.687 68.258 144.784 68.0647 144.814 67.9086C144.836 67.7896 144.71 67.6632 144.465 67.7375C144.286 67.7599 144.279 67.9606 144.286 68.1391C144.286 68.3101 144.308 68.548 144.561 68.3547Z" fill="#E8E8E8"/>
<path d="M88.654 49.7366C88.758 49.7143 88.8621 49.6548 89.0255 49.5805C88.8323 49.4169 88.7134 49.2459 88.5648 49.2013C88.3716 49.1492 88.2081 49.2682 88.2452 49.5061C88.2824 49.7441 88.4608 49.7738 88.6614 49.7366H88.654Z" fill="#E8E8E8"/>
<path d="M157.767 54.5697C157.321 54.5548 156.972 54.2797 156.578 54.7853C156.994 54.7779 157.343 54.9637 157.767 54.5697Z" fill="#E8E8E8"/>
<path d="M78.9484 60.3097C79.1565 60.3766 79.1119 60.1759 79.1639 60.0792C79.1491 59.871 79.2383 59.5959 78.8964 59.5811C78.8072 59.5811 78.6437 59.7 78.6289 59.7892C78.5769 60.0346 78.7032 60.2279 78.9484 60.3097Z" fill="#E8E8E8"/>
<path d="M124.199 57.566C124.243 57.6776 124.266 57.8188 124.347 57.8932C124.511 58.0419 124.734 58.4137 124.89 57.9601C124.942 57.8114 124.6 57.5289 124.437 57.3132C124.355 57.395 124.273 57.4842 124.199 57.566Z" fill="#E8E8E8"/>
<path d="M78.2648 48.2198C78.1533 48.1751 78.0195 48.0636 77.9452 48.0934C77.5885 48.2495 77.7148 48.6213 77.8263 48.9707C77.9749 48.7179 78.1161 48.4726 78.2648 48.2198Z" fill="#E8E8E8"/>
<path d="M49.6461 139.667C49.817 139.652 49.9731 139.518 50.2109 139.407C49.8542 139.131 49.7278 138.96 49.5718 138.931C49.2968 138.879 49.2894 139.079 49.3637 139.28C49.4231 139.436 49.4157 139.689 49.6535 139.667H49.6461Z" fill="#E8E8E8"/>
<path d="M75.2253 140.901C75.2476 140.544 74.98 140.5 74.8165 140.381C74.7645 140.492 74.6382 140.641 74.6753 140.7C74.7794 140.886 74.9503 141.035 75.0915 141.199C75.1435 141.08 75.1956 140.968 75.2253 140.901Z" fill="#E8E8E8"/>
<path d="M82.0994 140.76C82.3075 140.462 82.2555 140.165 81.8616 140.284C81.5569 140.373 81.6981 140.745 81.8096 141.035C81.9136 140.938 82.0325 140.864 82.0994 140.76Z" fill="#E8E8E8"/>
<path d="M79.2457 140.812C79.1937 140.849 79.0153 140.938 79.0302 140.975C79.1045 141.199 79.2457 141.384 79.5132 141.303C79.6024 141.273 79.7139 141.109 79.7065 141.013C79.6916 140.775 79.4761 140.804 79.2457 140.812Z" fill="#E8E8E8"/>
<path d="M64.9995 141.979C64.4868 142.976 65.9136 142.782 65.7873 143.556C65.9656 143.429 66.0177 143.407 66.04 143.377C66.3521 142.822 66.7955 142.681 67.3702 142.953C67.4296 142.983 67.556 142.931 67.6229 142.879C67.712 142.805 67.8532 142.745 67.7418 142.567C67.504 142.18 67.3628 141.771 67.2587 141.318C67.1175 140.723 66.3818 140.886 65.9359 140.931C65.6015 140.961 65.7055 141.392 65.9285 141.585C66.2703 141.89 66.3967 142.173 65.8765 142.344C65.0962 142.611 65.8244 141.66 65.3488 141.652C65.0739 141.176 64.6726 141.422 64.2044 141.459C64.5239 141.667 64.7692 141.831 65.007 141.987L64.9995 141.979Z" fill="#E8E8E8"/>
<path d="M62.8741 142.782C62.7106 142.775 62.51 142.767 62.4951 143.02C62.51 143.243 62.666 143.355 62.8444 143.31C62.993 143.266 63.1862 143.124 63.2234 142.99C63.2829 142.723 63.0153 142.797 62.8741 142.79V142.782Z" fill="#E8E8E8"/>
<path d="M113.133 143.28C113.111 143.162 113.215 142.857 112.881 142.961C112.695 143.013 112.554 143.124 112.591 143.422C112.643 143.459 112.732 143.578 112.836 143.6C113.089 143.66 113.163 143.466 113.133 143.28Z" fill="#E8E8E8"/>
<path d="M79.6619 144.136C79.6619 144.136 79.922 144.009 79.9591 143.898C80.0632 143.63 79.8402 143.623 79.6173 143.593C79.5281 143.637 79.4092 143.697 79.2903 143.749C79.4092 143.883 79.5132 144.039 79.6544 144.136H79.6619Z" fill="#E8E8E8"/>
<path d="M63.6916 130.767C63.5132 130.73 63.3275 130.871 63.3646 131.094C63.3795 131.176 63.5355 131.28 63.6396 131.295C63.7882 131.317 63.9889 131.362 64.078 131.087C63.9591 130.983 63.8402 130.797 63.6916 130.767Z" fill="#E8E8E8"/>
<path d="M53.0645 132.016C53.2503 132.038 53.4138 131.912 53.399 131.689C53.3321 131.384 53.124 131.503 52.9605 131.525C52.8044 131.54 52.522 131.436 52.6335 131.756C52.6781 131.882 52.9085 132.001 53.0645 132.016Z" fill="#E8E8E8"/>
<path d="M65.3637 134.997C65.2522 135.191 65.4603 135.213 65.5792 135.22C65.8467 135.22 65.9582 135.02 66.092 134.789C65.9879 134.715 65.8319 134.551 65.7947 134.574C65.6238 134.685 65.4529 134.826 65.3563 134.997H65.3637Z" fill="#E8E8E8"/>
<path d="M110.748 135.295C110.48 135.451 110.562 135.667 110.83 135.793C110.83 137.064 111.536 136.068 111.922 136.113C111.744 135.912 111.558 135.711 111.38 135.51C111.29 135.094 110.963 135.168 110.748 135.295Z" fill="#E8E8E8"/>
<path d="M141.7 136.343C141.559 136.105 141.522 135.942 141.425 135.897C141.247 135.815 141.061 135.243 140.868 135.786C140.756 136.12 141.172 136.247 141.7 136.343Z" fill="#E8E8E8"/>
<path d="M104.877 154.828C105.226 154.813 105.234 154.605 105.204 154.448C105.167 154.233 104.974 154.225 104.795 154.27C104.661 154.307 104.394 154.27 104.565 154.538C104.647 154.671 104.803 154.761 104.877 154.828Z" fill="#E8E8E8"/>
<path d="M75.4185 162.397C75.2847 162.397 75.151 162.464 75.0246 162.501C75.1361 162.642 75.2178 162.828 75.3665 162.91C75.5597 163.014 75.7083 162.895 75.7752 162.605C75.8049 162.404 75.6043 162.389 75.4259 162.404L75.4185 162.397Z" fill="#E8E8E8"/>
<path d="M126.101 144.611C125.663 144.463 125.38 144.366 125.091 144.269C125.306 144.82 125.618 144.805 126.101 144.611Z" fill="#E8E8E8"/>
<path d="M93.8932 146.076C93.8783 146.277 93.9527 146.433 94.2648 146.418C94.3094 146.351 94.4283 146.262 94.4431 146.165C94.4729 145.875 94.2053 145.816 94.0195 145.697C93.9749 145.823 93.9081 145.95 93.8932 146.084V146.076Z" fill="#E8E8E8"/>
<path d="M73.4046 150.389C73.2782 150.708 73.5978 150.641 73.7018 150.641C73.8802 150.641 74.0734 150.545 74.0437 150.314C74.0288 150.218 73.9173 150.136 73.8727 150.084C73.5755 150.069 73.4714 150.218 73.4046 150.389Z" fill="#E8E8E8"/>
<path d="M118.514 154.173C118.38 154.032 118.306 153.905 118.187 153.839C117.971 153.712 117.733 153.563 117.555 153.891C117.845 153.965 117.986 154.396 118.514 154.173Z" fill="#E8E8E8"/>
<path d="M85.9786 94.3113C85.7483 94.2964 85.6591 94.4526 85.7037 94.6459C85.7483 94.8466 85.9118 94.921 86.105 94.8243C86.261 94.7425 86.3948 94.631 86.6921 94.4228C86.3056 94.3633 86.1421 94.3262 85.9861 94.3187L85.9786 94.3113Z" fill="#E8E8E8"/>
<path d="M105.538 99.5831C105.68 99.5756 105.806 99.4195 105.843 99.3972C106.051 99.0775 105.806 99.0552 105.746 99.0552C105.59 99.07 105.353 99.1072 105.301 99.2188C105.226 99.3526 105.315 99.598 105.538 99.5831Z" fill="#E8E8E8"/>
<path d="M43.307 103.197C43.7529 103.293 44.1319 103.375 44.5258 103.107C44.1022 102.988 43.7232 102.84 43.307 103.197Z" fill="#E8E8E8"/>
<path d="M83.1324 112.231C83.2587 112.238 83.3999 112.186 83.3405 111.985C83.229 111.859 83.0952 111.732 82.902 111.851C82.7905 111.918 82.5899 112.045 82.6048 112.074C82.7014 112.32 82.9466 112.216 83.1324 112.231Z" fill="#E8E8E8"/>
<path d="M142.852 112.528C142.874 112.349 142.755 112.29 142.614 112.26C142.369 112.26 142.294 112.431 142.294 112.625C142.294 112.758 142.361 112.885 142.399 113.019C142.592 112.9 142.815 112.803 142.844 112.528H142.852Z" fill="#E8E8E8"/>
<path d="M76.3251 113.628C76.6744 113.599 76.6521 113.398 76.6224 113.219C76.6075 113.115 76.4812 112.937 76.4663 112.944C76.2508 113.034 76.0427 113.175 76.1022 113.442C76.1245 113.532 76.2805 113.591 76.3251 113.621V113.628Z" fill="#E8E8E8"/>
<path d="M128.412 116.402C128.412 116.268 128.45 116.015 128.145 116.097C127.959 116.149 127.818 116.261 127.855 116.469C127.87 116.565 127.967 116.655 128.011 116.722C128.279 116.714 128.412 116.588 128.412 116.402Z" fill="#E8E8E8"/>
<path d="M91.3962 76.9351C91.5225 76.9202 91.7752 76.9797 91.7455 76.7641C91.6563 76.5187 91.5597 76.37 91.3368 76.3998C91.1138 76.4369 91.0544 76.6228 91.0692 76.7938C91.0692 76.8533 91.2847 76.9425 91.3888 76.9351H91.3962Z" fill="#E8E8E8"/>
<path d="M151.941 80.7791C151.666 80.3106 151.346 80.1619 150.878 80.4222C151.212 80.5337 151.383 80.9426 151.941 80.7791Z" fill="#E8E8E8"/>
<path d="M121.605 83.4334C121.568 83.0914 121.375 83.0914 121.182 83.1063C120.996 83.1211 120.773 83.1657 120.959 83.4111C121.055 83.5375 121.256 83.6044 121.419 83.6416C121.479 83.6565 121.575 83.478 121.605 83.4408V83.4334Z" fill="#E8E8E8"/>
<path d="M120.401 85.3073C120.513 85.1586 120.438 85.047 120.297 85.0247C120.022 84.995 119.866 85.2106 119.814 85.4188C119.792 85.5303 119.978 85.6865 120.067 85.8203C120.178 85.6493 120.29 85.4783 120.394 85.3073H120.401Z" fill="#E8E8E8"/>
<path d="M73.0999 88.1773C73.2188 87.9319 73.0255 87.8724 72.8323 87.865C72.706 87.865 72.5871 87.917 72.379 87.9617C72.5425 88.0881 72.6317 88.1996 72.7506 88.2293C72.862 88.2591 73.0701 88.2442 73.0999 88.1847V88.1773Z" fill="#E8E8E8"/>
<path d="M55.8737 91.2034C55.725 91.4487 55.5838 91.6867 55.4352 91.932C55.5095 91.9692 55.5913 92.051 55.6656 92.0436C56.1561 91.9841 55.8737 91.5157 55.8737 91.2034Z" fill="#E8E8E8"/>
<path d="M88.7209 126.484C88.7803 126.67 88.8918 126.811 89.1073 126.767C89.2262 126.744 89.3377 126.663 89.3451 126.663C89.308 126.239 89.1296 126.231 88.9438 126.261C88.8249 126.283 88.6614 126.291 88.7209 126.492V126.484Z" fill="#E8E8E8"/>
<path d="M115.653 127.897C115.957 127.897 115.972 127.666 115.987 127.443C115.994 127.243 115.92 127.079 115.705 127.124C115.355 127.191 115.771 127.503 115.563 127.652C115.497 127.704 115.422 127.904 115.653 127.904V127.897Z" fill="#E8E8E8"/>
<path d="M67.3182 127.919C67.4222 127.904 67.5188 127.815 67.6006 127.77C67.5708 127.503 67.4371 127.354 67.2364 127.369C67.1101 127.376 66.8054 127.287 66.9169 127.622C66.9763 127.807 67.1027 127.956 67.3256 127.926L67.3182 127.919Z" fill="#E8E8E8"/>
<path d="M148.277 127.882C148.425 127.882 148.567 127.726 148.671 127.666C148.782 127.369 148.574 127.369 148.485 127.376C148.314 127.376 148.032 127.406 148.002 127.495C147.942 127.652 148.069 127.889 148.284 127.882H148.277Z" fill="#E8E8E8"/>
<path d="M61.373 129.503C61.2392 129.584 61.1129 129.77 61.0831 129.926C61.0386 130.172 61.2243 130.224 61.4399 130.179C61.6851 130.127 61.6851 129.956 61.6256 129.696C61.5513 129.666 61.6925 129.309 61.373 129.503Z" fill="#E8E8E8"/>
<path d="M94.131 118.618C94.0567 118.513 94.0121 118.372 93.9304 118.335C93.7594 118.261 93.5588 117.74 93.4102 118.261C93.3507 118.461 93.6703 118.833 94.1384 118.618H94.131Z" fill="#E8E8E8"/>
<path d="M90.7051 119.324C91.3367 119.606 90.9131 119.086 91.0023 118.959C91.0023 118.781 91.3888 118.632 91.1064 118.461C90.9057 118.335 90.601 118.305 90.4747 118.647C89.8876 119.093 90.3558 119.168 90.6976 119.324H90.7051Z" fill="#E8E8E8"/>
<path d="M155.285 120.803C155.077 120.655 155.047 120.893 155.069 120.945C155.151 121.138 155.277 121.302 155.433 121.547C155.575 121.376 155.679 121.257 155.783 121.131C155.619 121.019 155.448 120.915 155.285 120.803Z" fill="#E8E8E8"/>
<path d="M54.8184 122.328C54.9744 122.35 55.2271 122.365 55.2271 122.142C55.2271 122.008 55.0413 121.874 54.9744 121.778C54.6697 121.785 54.5211 121.882 54.5583 122.105C54.5731 122.194 54.7143 122.313 54.8184 122.328Z" fill="#E8E8E8"/>
<path d="M72.402 122.893C72.402 122.893 72.3792 122.893 72.3716 122.893C72.3716 122.9 72.3716 122.908 72.3716 122.923L72.402 122.893Z" fill="#E8E8E8"/>
<path d="M71.398 122.841C71.8365 122.863 72.104 122.878 72.3716 122.885C72.275 121.733 71.896 122.499 71.398 122.841Z" fill="#E8E8E8"/>
<path d="M106.296 123.785C106.415 123.696 106.646 123.711 106.608 123.45C106.579 123.235 106.438 123.123 106.252 123.205C106.103 123.272 105.925 123.428 105.902 123.569C105.865 123.815 106.125 123.733 106.296 123.785Z" fill="#E8E8E8"/>
<path d="M146.538 124.268C146.56 124.149 146.471 124.015 146.434 123.896C146.211 124.082 145.988 124.268 145.646 124.566C146.107 124.581 146.456 124.744 146.538 124.276V124.268Z" fill="#E8E8E8"/>
<path d="M136.721 125.978C136.52 125.949 136.334 126.023 136.379 126.268C136.394 126.365 136.535 126.499 136.632 126.514C136.855 126.551 136.951 126.38 137.011 126.127C136.929 126.082 136.832 125.993 136.728 125.978H136.721Z" fill="#E8E8E8"/>
</g>
<path d="M80.1523 105.524L69.2503 107.859V107.234L69.4956 107.182C69.7037 107.137 70.0009 107.048 70.3799 106.914C70.7589 106.78 71.1082 106.58 71.4203 106.312C71.725 106.044 71.8811 105.695 71.8811 105.264V84.3332C71.8811 83.902 71.725 83.6195 71.4203 83.4856C71.1156 83.3518 70.7664 83.2923 70.3799 83.322C69.9935 83.3518 69.7037 83.389 69.4956 83.4336L69.2503 83.4856V82.8387L88.5648 78.6973L89.4863 84.653L89.0181 84.1994C88.706 83.8871 88.2824 83.5154 87.7473 83.0841C87.2123 82.6603 86.6103 82.2439 85.934 81.8424C85.2578 81.4409 84.5592 81.1286 83.8384 80.913C83.1101 80.6974 82.4041 80.6602 81.7055 80.8163L77.477 81.7234V93.2779L81.8987 92.3262C82.3372 92.2296 82.6642 92.0065 82.8723 91.6496C83.0803 91.2927 83.2141 90.9135 83.2736 90.5194C83.333 90.1254 83.3627 89.8205 83.3627 89.6123L83.3479 89.3893L83.9424 89.2629V95.1739L83.3479 95.3003L83.3627 95.0698C83.3627 94.8617 83.333 94.5642 83.2736 94.1925C83.2141 93.8133 83.0803 93.4936 82.8723 93.2333C82.6642 92.9731 82.3372 92.8839 81.8987 92.9805L77.477 93.9322V104.074C77.477 104.505 77.6331 104.788 77.9526 104.922C78.2722 105.055 78.6215 105.108 79.0079 105.078C79.3943 105.048 79.6916 105.011 79.9145 104.959L80.1598 104.907V105.531L80.1523 105.524Z" fill="#2C2C2C"/>
<path d="M107.054 99.6352C106.512 99.7542 105.932 99.7988 105.33 99.7765C104.81 99.7616 104.334 99.5534 103.903 99.1594C103.539 98.7802 103.361 98.163 103.361 97.308V96.1257C103.026 97.0775 102.529 98.0292 101.86 98.9735C100.886 100.371 99.7195 101.212 98.3744 101.501C96.9327 101.814 95.7808 101.799 94.9187 101.457C94.0567 101.122 93.3953 100.572 92.9345 99.8062C92.4738 99.0478 92.1691 98.1556 92.013 97.137C91.857 96.1183 91.7752 95.0848 91.7752 94.0216V88.8986C91.7158 88.5417 91.5374 88.3038 91.2401 88.1848C90.9429 88.0659 90.6159 88.0287 90.2592 88.0584C89.9025 88.0882 89.6126 88.1253 89.4046 88.17L89.1222 88.2294V87.5826L91.7678 87.0175C92.6744 86.8242 93.477 86.5565 94.183 86.2145C94.889 85.8724 95.4835 85.523 95.9666 85.1661C96.457 84.8092 96.8212 84.5118 97.0664 84.259L97.4529 83.8798V92.8542C97.4529 95.0997 97.6312 96.7726 97.9954 97.8805C98.3521 98.9883 99.0283 99.4345 100.017 99.2263C100.559 99.1073 101.065 98.7727 101.533 98.2151C101.994 97.6574 102.387 96.9808 102.7 96.1927C103.012 95.4045 103.235 94.5866 103.361 93.7316V86.4152C103.279 86.0583 103.086 85.8278 102.789 85.7089C102.484 85.5973 102.157 85.5527 101.793 85.5825C101.436 85.6122 101.146 85.6494 100.938 85.694L100.656 85.7535V85.1066L103.353 84.5266C104.26 84.3333 105.063 84.0657 105.754 83.7236C106.452 83.3816 107.039 83.0321 107.523 82.6827C108.006 82.3258 108.37 82.0284 108.608 81.7756L108.972 81.4038V96.6016C109.016 96.9139 109.143 97.1593 109.336 97.3228C109.529 97.4864 109.759 97.6054 110.005 97.6574C110.257 97.7169 110.473 97.7392 110.659 97.7318H110.934L110.413 98.1184C110.079 98.3638 109.611 98.6389 109.016 98.9363C108.422 99.2412 107.76 99.4642 107.032 99.6204L107.054 99.6352Z" fill="#2C2C2C"/>
<path d="M133.681 93.9099L122.675 96.2669V95.6423L122.906 95.5903C123.129 95.5457 123.433 95.449 123.82 95.3152C124.206 95.1814 124.556 94.9806 124.868 94.7055C125.172 94.4378 125.343 94.0809 125.366 93.6497V86.7348C125.366 84.4894 125.187 82.8238 124.823 81.716C124.466 80.6156 123.798 80.1694 122.817 80.3776C122.259 80.4966 121.754 80.8386 121.293 81.3963C120.832 81.9539 120.453 82.6231 120.141 83.4038C119.837 84.1845 119.614 85.0024 119.487 85.85V94.9285C119.51 95.3449 119.673 95.62 119.978 95.7539C120.282 95.8877 120.624 95.9472 121.003 95.9174C121.382 95.8877 121.687 95.8505 121.91 95.7985L122.17 95.739V96.3636L111.142 98.728V98.1034L111.365 98.0514C111.588 98.0068 111.885 97.9101 112.271 97.7763C112.658 97.6424 113 97.4417 113.312 97.1815C113.616 96.9212 113.795 96.5718 113.839 96.1405V84.1696C113.772 83.7979 113.579 83.5599 113.267 83.441C112.955 83.322 112.613 83.2774 112.249 83.3071C111.885 83.3369 111.595 83.3741 111.387 83.4261L111.179 83.4707V82.861L113.847 82.2885C114.753 82.0952 115.556 81.8275 116.255 81.478C116.953 81.1286 117.54 80.7791 118.023 80.4297C118.506 80.0802 118.87 79.7754 119.131 79.5226L119.495 79.1508V83.441C119.807 82.5116 120.305 81.5747 120.974 80.6156C121.947 79.2326 123.114 78.3998 124.459 78.1098C125.886 77.805 127.03 77.8199 127.9 78.1545C128.762 78.489 129.423 79.0393 129.884 79.7902C130.345 80.5486 130.649 81.4334 130.798 82.4521C130.947 83.4707 131.021 84.5042 131.021 85.5526V92.6459C131.103 92.9879 131.296 93.2184 131.593 93.3225C131.898 93.434 132.225 93.4712 132.574 93.4415C132.931 93.4117 133.213 93.3746 133.421 93.33L133.681 93.2705V93.895V93.9099Z" fill="#2C2C2C"/>
<path d="M70.8704 134.284L59.9684 136.618V135.994L60.2137 135.942C60.4217 135.897 60.719 135.808 61.098 135.674C61.4844 135.54 61.8263 135.339 62.1384 135.072C62.4431 134.804 62.5992 134.455 62.5992 134.023V113.093C62.5992 112.662 62.4431 112.379 62.1384 112.245C61.8337 112.112 61.4844 112.052 61.098 112.082C60.7116 112.112 60.4217 112.149 60.2137 112.193L59.9684 112.245V111.599L79.2829 107.457L80.2044 113.413L79.7362 112.959C79.4241 112.639 79.0005 112.275 78.4654 111.844C77.9303 111.42 77.3284 111.004 76.6521 110.602C75.9759 110.201 75.2773 109.888 74.5564 109.673C73.8282 109.457 73.1222 109.42 72.4236 109.576L68.1876 110.483V122.038L72.6094 121.086C73.0478 120.989 73.3748 120.766 73.5829 120.409C73.791 120.052 73.9248 119.673 73.9842 119.279C74.0437 118.885 74.0734 118.58 74.0734 118.372L74.0585 118.149L74.653 118.023V123.934L74.0585 124.06L74.0734 123.83C74.0734 123.621 74.0437 123.324 73.9842 122.952C73.9248 122.573 73.791 122.253 73.5829 121.993C73.3748 121.733 73.0478 121.644 72.6094 121.74L68.1876 122.692V132.834C68.1876 133.265 68.3437 133.548 68.6707 133.681C68.9903 133.815 69.3395 133.867 69.726 133.838C70.1124 133.808 70.4097 133.771 70.6326 133.719L70.8778 133.667V134.291L70.8704 134.284Z" fill="#2C2C2C"/>
<path d="M91.7455 129.703C90.3261 130.008 89.2931 129.875 88.6243 129.309C87.6284 130.231 86.484 130.834 85.2132 131.101C84.4032 131.272 83.6377 131.317 82.9243 131.235C82.2109 131.153 81.6089 130.982 81.1185 130.744C80.4125 130.388 79.8625 129.956 79.4761 129.466C79.0897 128.975 78.8221 128.469 78.6735 127.956C78.5249 127.443 78.458 126.99 78.458 126.588C78.458 126.172 78.5249 125.636 78.6661 124.989C78.8073 124.343 79.0748 123.673 79.4761 122.967C79.8774 122.268 80.457 121.606 81.2299 120.989C82.4487 120.067 83.7715 119.45 85.1983 119.145C85.5551 119.071 85.9118 119.019 86.261 118.989C87.1082 118.937 87.6805 118.989 87.9852 119.145C87.9183 116.848 87.5244 115.279 86.8184 114.431C86.4022 114.082 85.9043 113.963 85.3247 114.089C84.8491 114.201 84.4329 114.394 84.0911 114.669C83.3925 115.227 83.0432 116.022 83.0432 117.071C83.0432 117.22 83.0432 117.368 83.0581 117.51C83.0729 117.651 83.1027 117.822 83.1547 118.015C83.2067 118.208 83.2587 118.387 83.3182 118.565V118.603C83.3182 118.722 83.1993 118.878 82.954 119.071C82.7088 119.272 82.3967 119.406 82.0102 119.487C81.6387 119.569 81.2299 119.539 80.7915 119.398C80.1895 119.153 79.8848 118.669 79.8848 117.933C79.8848 117.643 79.9294 117.346 80.026 117.034C80.3753 115.985 81.059 115.153 82.0845 114.535C83.1398 113.926 84.1951 113.509 85.2355 113.286L85.6888 113.205C87.1974 112.952 88.5499 113.115 89.739 113.703C90.928 114.29 91.8718 115.182 92.5778 116.379C93.2838 117.576 93.6331 118.937 93.6331 120.461V126.506C93.6331 126.811 93.7 127.049 93.8337 127.228C93.9675 127.406 94.131 127.54 94.3317 127.629C94.5323 127.718 94.7255 127.77 94.9113 127.8C95.0971 127.83 95.2606 127.845 95.3944 127.837H95.6024L95.0971 128.194C94.7627 128.439 94.3019 128.715 93.7223 129.012C93.1426 129.309 92.4886 129.54 91.7529 129.696L91.7455 129.703ZM86.6772 129.748C87.2346 129.629 87.7771 129.332 88.2973 128.863C88.0966 128.521 88 128.038 88 127.413V120.023L87.8811 119.978C87.7548 119.904 87.5987 119.837 87.4129 119.785C87.2271 119.733 86.9968 119.733 86.7144 119.792C85.9564 119.956 85.3767 120.447 84.9754 121.264C84.6633 121.904 84.4403 122.603 84.3066 123.361C84.1728 124.12 84.1059 124.781 84.1059 125.339C84.1059 125.941 84.1431 126.566 84.2174 127.213C84.2917 127.86 84.4701 128.417 84.7376 128.886C85.0126 129.354 85.4362 129.651 86.0158 129.77C86.2388 129.808 86.4543 129.8 86.6772 129.748Z" fill="#2C2C2C"/>
<path d="M104.788 126.871C103.309 127.191 101.897 127.094 100.544 126.596C99.1918 126.098 98.0845 125.265 97.2299 124.112C96.3679 122.952 95.9443 121.547 95.9443 119.882C95.9443 118.328 96.2787 116.855 96.9475 115.487C97.6164 114.112 98.523 112.907 99.6675 111.866C100.812 110.825 102.127 110.015 103.614 109.428C104.379 109.123 105.182 108.885 106.014 108.706C106.98 108.498 107.857 108.372 108.645 108.32C109.269 108.268 109.878 108.29 110.473 108.401C110.882 108.476 111.246 108.617 111.573 108.81C112.026 109.1 112.353 109.494 112.546 110.015C112.635 110.283 112.687 110.565 112.687 110.855C112.687 111.182 112.621 111.502 112.479 111.822C112.338 112.141 112.108 112.439 111.781 112.707C111.342 113.034 110.926 113.234 110.54 113.324C110.168 113.405 109.863 113.398 109.618 113.309C109.373 113.22 109.254 113.123 109.254 113.004V112.967C109.314 112.766 109.366 112.565 109.41 112.35C109.455 112.134 109.492 111.948 109.514 111.792V111.584C109.514 110.959 109.328 110.483 108.964 110.156C108.6 109.836 108.169 109.628 107.686 109.532C107.196 109.442 106.75 109.435 106.348 109.524C105.932 109.613 105.479 109.792 104.988 110.052C104.498 110.312 104.052 110.692 103.651 111.182C102.952 112.119 102.417 113.205 102.046 114.439C101.674 115.666 101.488 116.855 101.488 118.008C101.488 118.32 101.503 118.625 101.54 118.922V118.96C101.54 118.96 101.54 118.989 101.555 119.012C101.555 119.079 101.555 119.168 101.562 119.264C101.562 119.361 101.577 119.458 101.585 119.547C101.815 121.019 102.298 122.127 103.019 122.878C103.747 123.629 104.609 124.097 105.605 124.276C106.267 124.358 106.913 124.328 107.537 124.194C108.667 123.956 109.7 123.458 110.636 122.707C111.58 121.956 112.323 121.153 112.866 120.276V120.692C112.702 121.153 112.427 121.681 112.041 122.268C111.654 122.856 111.127 123.451 110.473 124.06C109.819 124.663 109.016 125.22 108.08 125.726C107.136 126.231 106.044 126.618 104.788 126.886V126.871Z" fill="#2C2C2C"/>
<path d="M121.494 123.361C119.301 123.83 117.644 123.398 116.53 122.053C115.928 121.324 115.623 120.253 115.623 118.848V118.55H115.608V107.42L112.94 107.992V107.368C114.218 107.093 115.318 106.632 116.247 105.977C117.176 105.323 117.964 104.602 118.61 103.799C119.257 102.996 119.77 102.223 120.164 101.479C120.55 100.735 120.832 100.118 121.011 99.6276L121.256 98.8989V105.591L126.443 104.475V105.1L121.256 106.215V115.346C121.256 116.052 121.271 116.751 121.308 117.435C121.345 118.119 121.449 118.721 121.62 119.242C121.791 119.762 122.081 120.157 122.49 120.417C122.988 120.67 123.515 120.736 124.073 120.618C124.697 120.484 125.291 120.179 125.856 119.703C126.421 119.227 126.822 118.721 127.067 118.179V118.58C127.023 118.907 126.8 119.368 126.413 119.963C126.027 120.565 125.47 121.168 124.756 121.77C124.043 122.372 123.173 122.848 122.155 123.183C121.932 123.25 121.717 123.309 121.494 123.361Z" fill="#2C2C2C"/>
<path d="M134.187 120.588C132.983 120.848 132.113 120.989 131.593 121.004C129.49 121.19 128.182 120.633 127.677 119.331C127.58 119.064 127.536 118.781 127.536 118.491C127.536 117.748 127.84 117.123 128.442 116.625C128.881 116.313 129.289 116.112 129.661 116.03C130.047 115.948 130.36 115.956 130.612 116.045C130.865 116.134 130.984 116.238 130.984 116.342V116.38C130.805 116.93 130.709 117.413 130.687 117.837C130.687 118.908 131.17 119.554 132.136 119.777C132.73 119.926 133.347 119.934 134.001 119.792C134.543 119.673 135.093 119.48 135.636 119.205C136.178 118.93 136.632 118.603 136.974 118.231C137.509 117.614 137.776 116.997 137.776 116.372L137.761 116.186C137.665 115.591 137.204 115.123 136.364 114.788C135.532 114.454 134.529 114.141 133.369 113.874C131.244 113.391 129.758 112.855 128.91 112.283C127.996 111.666 127.536 110.714 127.536 109.42C127.536 108.126 128.026 106.907 129.014 105.806C130.003 104.713 131.333 103.844 133.005 103.212L133.042 103.189C133.771 102.914 134.491 102.706 135.183 102.557C137.345 102.096 138.883 102.171 139.812 102.78C140.266 103.055 140.593 103.449 140.786 103.963C140.875 104.23 140.927 104.513 140.927 104.803C140.927 105.546 140.622 106.171 140.02 106.669C139.582 106.996 139.173 107.197 138.802 107.279C138.415 107.36 138.103 107.353 137.85 107.264C137.598 107.175 137.479 107.07 137.479 106.952V106.914C137.538 106.714 137.59 106.513 137.642 106.297C137.694 106.082 137.724 105.903 137.739 105.762C137.746 105.621 137.761 105.487 137.776 105.353C137.776 103.658 136.847 103.011 134.989 103.405C134.261 103.576 133.652 103.918 133.161 104.438C132.73 104.892 132.515 105.375 132.515 105.881C132.515 106.639 133.02 107.219 134.031 107.628C134.714 107.896 135.532 108.163 136.483 108.424C137.85 108.781 139.248 109.279 140.66 109.918C141.053 110.104 141.425 110.32 141.774 110.587C142.562 111.205 142.956 112.067 142.956 113.175C142.956 114.729 142.272 116.186 140.897 117.539C139.716 118.714 137.962 119.606 135.658 120.216C135.168 120.357 134.677 120.476 134.179 120.588H134.187Z" fill="#2C2C2C"/>
</svg>
