<svg width="202" height="205" viewBox="0 0 202 205" fill="none" xmlns="http://www.w3.org/2000/svg">
<g clip-path="url(#clip0_147_1258)">
<path d="M2.02369 132.812H2.63325C2.60887 130.142 2.7064 127.46 2.90146 124.765C2.69421 124.753 2.49915 124.729 2.30409 124.668C2.09684 127.399 1.99931 130.117 2.02369 132.812Z" fill="#70A9A1"/>
<path d="M6.55892 101.371C1.06066 81.2429 1.21915 61.4686 7.35136 44.3521C14.0444 25.6873 27.1378 12.2037 45.2174 5.35222C53.7026 2.13373 62.7973 0.597629 72.148 0.597629C80.5843 0.597629 89.2279 1.85333 97.8715 4.21844C98.5543 4.19405 99.237 4.16967 99.9197 4.16967C80.9379 -1.38955 61.8219 -1.58461 45.0102 4.77923C26.7477 11.7039 13.5323 25.3093 6.77837 44.1448C0.499861 61.6515 0.438904 81.9012 6.24195 102.48C6.33948 102.114 6.4492 101.749 6.55892 101.383C6.55892 101.407 6.57111 101.444 6.58331 101.468C6.58331 101.407 6.58331 101.346 6.58331 101.273C6.58331 101.298 6.55892 101.334 6.55892 101.358V101.371Z" fill="#70A9A1"/>
<path d="M156.499 5.35234C171.068 10.875 182.577 21.0669 189.928 34.5504C190.086 34.4285 190.269 34.331 190.464 34.2456C183.04 20.6524 171.422 10.3629 156.719 4.77935C139.919 -1.5845 120.791 -1.37724 101.822 4.16978C102.504 4.16978 103.175 4.20636 103.857 4.21855C122.096 -0.779872 140.383 -0.767681 156.499 5.35234Z" fill="#70A9A1"/>
<path d="M2.9259 118.585C2.98686 118.572 3.03562 118.572 3.09658 118.572C3.25507 118.572 3.40136 118.585 3.54766 118.609C4.1938 113.635 5.20567 108.637 6.5589 103.626C6.44918 103.248 6.33946 102.87 6.24193 102.492C4.73021 107.869 3.62081 113.245 2.9259 118.585Z" fill="#70A9A1"/>
<path d="M197.962 58.4453L198.571 58.3477C197.499 51.7401 195.694 45.5347 193.183 39.817C193.012 39.9145 192.817 39.9877 192.622 40.0486C195.109 45.7176 196.901 51.8864 197.962 58.4453Z" fill="#70A9A1"/>
<path d="M45.2174 199.584C22.3465 190.916 7.13183 170.91 3.48664 144.698L2.87708 144.784C6.55884 171.215 21.9198 191.391 44.9979 200.144C53.544 203.387 62.6996 204.923 72.1235 204.923C81.5473 204.923 90.703 203.448 100.09 200.693C99.4076 200.693 98.737 200.656 98.0543 200.644C79.7552 205.691 61.3952 205.716 45.2174 199.584Z" fill="#70A9A1"/>
<path d="M195.133 103.699C195.133 103.699 195.158 103.626 195.158 103.589C195.158 103.565 195.146 103.529 195.133 103.504C195.133 103.565 195.133 103.638 195.133 103.699Z" fill="#70A9A1"/>
<path d="M195.487 102.443C198.864 90.3984 200.254 78.39 199.51 66.7961L198.901 66.8327C199.62 78.0487 198.328 89.667 195.158 101.322C195.158 101.322 195.158 101.334 195.158 101.346C195.268 101.712 195.365 102.078 195.475 102.443H195.487Z" fill="#70A9A1"/>
<path d="M195.158 101.322C195.158 101.322 195.146 101.273 195.133 101.249C195.133 101.298 195.133 101.346 195.133 101.395C195.133 101.371 195.146 101.346 195.158 101.322Z" fill="#70A9A1"/>
<path d="M6.55896 103.626C6.55896 103.626 6.58334 103.699 6.59553 103.724C6.59553 103.663 6.59553 103.59 6.59553 103.529C6.59553 103.565 6.58334 103.59 6.57115 103.626H6.55896Z" fill="#70A9A1"/>
<path d="M195.487 102.443C195.377 102.833 195.28 103.211 195.17 103.602C200.668 123.729 200.498 143.491 194.365 160.596C191.671 168.106 187.941 174.762 183.271 180.504L184.893 179.236L181.845 183.113C181.845 183.113 181.857 183.101 181.869 183.089H181.882C187.477 176.822 191.878 169.349 194.951 160.803C201.229 143.296 201.302 123.034 195.511 102.48C195.511 102.468 195.511 102.456 195.511 102.443H195.487Z" fill="#70A9A1"/>
<path d="M173.86 189.794C168.752 193.854 162.961 197.133 156.499 199.584C140.322 205.728 121.937 205.704 103.626 200.656C102.955 200.681 102.297 200.705 101.626 200.705C111.002 203.485 120.425 204.935 129.569 204.935C138.712 204.935 148.161 203.399 156.707 200.157C162.412 197.986 167.642 195.17 172.324 191.732L172.348 191.708L173.86 189.782H173.848L173.86 189.794Z" fill="#70A9A1"/>
<path d="M2.3529 124.059C1.34102 123.729 0.609548 122.779 0.609548 121.669C0.609548 120.389 1.59704 119.328 2.84055 119.194C2.84055 119.097 2.85274 118.999 2.87712 118.889C2.87712 118.792 2.90151 118.682 2.9137 118.585C1.28007 118.67 -0.012207 120.023 -0.012207 121.669C-0.012207 123.095 0.963095 124.315 2.29194 124.668C2.29194 124.558 2.30413 124.461 2.31633 124.363C2.31633 124.254 2.32852 124.156 2.34071 124.059H2.3529Z" fill="#70A9A1"/>
<path d="M3.46229 119.207C4.66922 119.389 5.59576 120.426 5.59576 121.669C5.59576 123.047 4.47416 124.168 3.09655 124.168C3.04778 124.168 2.99902 124.168 2.95025 124.156C2.93806 124.254 2.93806 124.351 2.92587 124.461C2.91368 124.558 2.91368 124.656 2.90149 124.766C2.96245 124.778 3.03559 124.778 3.09655 124.778C4.80333 124.778 6.20532 123.376 6.20532 121.669C6.20532 120.121 5.04715 118.829 3.54763 118.609C3.52324 118.707 3.51105 118.804 3.49886 118.914C3.48667 119.011 3.47448 119.109 3.46229 119.207Z" fill="#70A9A1"/>
<path d="M192.366 39.4878C192.159 39.5487 191.952 39.5731 191.732 39.5731C190.354 39.5731 189.245 38.4515 189.245 37.0739C189.245 36.2693 189.623 35.5622 190.22 35.0989C190.184 35.0014 190.135 34.9038 190.086 34.8185C190.025 34.721 189.989 34.6356 189.928 34.5503C189.148 35.1233 188.635 36.0376 188.635 37.0739C188.635 38.7807 190.025 40.1827 191.732 40.1827C192.037 40.1827 192.342 40.1339 192.622 40.0486C192.585 39.951 192.549 39.8535 192.5 39.7682C192.464 39.6706 192.415 39.5731 192.366 39.4878Z" fill="#70A9A1"/>
<path d="M190.757 34.7819C191.062 34.66 191.391 34.5869 191.732 34.5869C193.11 34.5869 194.219 35.7085 194.219 37.0739C194.219 38.0126 193.707 38.8294 192.939 39.2561C193 39.3536 193.037 39.439 193.061 39.5365C193.122 39.634 193.159 39.7194 193.183 39.8169C194.158 39.2927 194.829 38.2564 194.829 37.0739C194.829 35.3671 193.439 33.9773 191.732 33.9773C191.281 33.9773 190.854 34.0748 190.464 34.2455C190.513 34.3308 190.562 34.4162 190.611 34.5137C190.659 34.599 190.708 34.6966 190.757 34.7819Z" fill="#70A9A1"/>
<path d="M179.346 183.601L178.517 176.591L177.688 183.601L178.517 184.259L179.346 183.601Z" fill="#70A9A1"/>
<path d="M177.688 187.612L178.517 194.622L179.346 187.612L178.517 186.966L177.688 187.612Z" fill="#70A9A1"/>
<path d="M176.505 184.783L169.507 185.612L176.505 186.441L177.163 185.612L176.505 184.783Z" fill="#70A9A1"/>
<path d="M180.516 186.441L187.526 185.612L180.516 184.783L179.87 185.612L180.516 186.441Z" fill="#70A9A1"/>
<path d="M179.468 184.649H179.553C180.845 183.333 182.077 181.955 183.247 180.516L179.321 183.589L179.443 184.637L179.468 184.649Z" fill="#70A9A1"/>
<path d="M176.505 186.441L173.872 189.782C175.14 188.782 176.371 187.722 177.542 186.612V186.576L176.481 186.454L176.505 186.441Z" fill="#70A9A1"/>
<path d="M180.309 184.747L180.516 184.771L181.833 183.101C181.345 183.662 180.833 184.198 180.321 184.735L180.309 184.747Z" fill="#70A9A1"/>
<path d="M179.346 187.612L184.893 191.976L180.516 186.441L179.468 186.563L179.346 187.612Z" fill="#70A9A1"/>
<path d="M177.688 183.601L172.141 179.236L176.505 184.783L177.554 184.649L177.688 183.601Z" fill="#70A9A1"/>
<path d="M177.651 187.368C175.969 188.916 174.213 190.343 172.36 191.708L172.141 191.988L177.688 187.624L177.663 187.368H177.651Z" fill="#70A9A1"/>
<path d="M177.651 187.368C178.566 186.514 179.443 185.661 180.309 184.759L179.553 184.673C178.895 185.344 178.249 185.99 177.554 186.612L177.639 187.38L177.651 187.368Z" fill="#70A9A1"/>
<path d="M4.85217 138.493C4.85217 137.237 3.84029 136.225 2.58459 136.225C1.32889 136.225 0.317017 137.237 0.317017 138.493C0.317017 139.749 1.32889 140.76 2.58459 140.76C3.84029 140.76 4.85217 139.749 4.85217 138.493Z" fill="#70A9A1"/>
<path d="M198.974 60.1642C197.718 60.1642 196.706 61.1761 196.706 62.4318C196.706 63.6875 197.718 64.6993 198.974 64.6993C200.229 64.6993 201.241 63.6875 201.241 62.4318C201.241 61.1761 200.229 60.1642 198.974 60.1642Z" fill="#70A9A1"/>
<path d="M195.133 103.699C192.22 113.672 187.953 123.644 182.357 133.422C163.46 166.436 132.982 190.452 101.87 200.169C102.455 200.339 103.04 200.486 103.626 200.656C154.024 199.145 194.499 156.439 195.133 103.699Z" fill="#70A9A1"/>
<path d="M19.884 133.129C38.8658 166.301 69.5756 190.355 100.81 199.864C132.08 190.379 162.827 166.314 181.833 133.117C187.612 123.022 191.964 112.709 194.853 102.419C191.952 92.1907 187.599 81.8769 181.833 71.8069C162.839 38.6223 132.117 14.5567 100.858 5.05972C101.2 4.94999 101.529 4.85246 101.87 4.75493C101.541 4.64521 101.212 4.53549 100.871 4.42577C101.188 4.32824 101.505 4.25509 101.822 4.15756C101.505 4.15756 101.188 4.13318 100.871 4.13318C100.554 4.13318 100.237 4.15756 99.9197 4.15756C100.237 4.25509 100.554 4.32824 100.858 4.42577C100.517 4.53549 100.176 4.64521 99.8344 4.75493C100.176 4.85246 100.505 4.94999 100.846 5.05972C83.108 10.4483 65.5281 20.5426 50.1793 34.331L50.1428 34.3675C50.1428 34.3675 50.1427 34.3675 50.1306 34.3675L47.6679 37.4885L54.6779 38.3175L47.6679 39.1465L52.0324 44.6935L46.4854 40.3291L45.6564 47.339L44.8274 40.3291L40.792 43.511C32.9043 51.9352 25.8334 61.4322 19.884 71.8069C14.1297 81.8525 9.76526 92.1785 6.86374 102.505C6.7784 102.151 6.66868 101.81 6.58334 101.456C6.58334 101.785 6.55896 102.102 6.55896 102.419C6.55896 102.785 6.58334 103.151 6.58334 103.516C6.66868 103.187 6.76621 102.846 6.86374 102.517C9.76526 112.745 14.1175 123.035 19.884 133.117V133.129Z" fill="#70A9A1"/>
<path d="M99.8343 200.169C68.7222 190.465 38.2562 166.436 19.3597 133.422C13.7761 123.656 9.50917 113.66 6.59546 103.724C7.25379 156.426 47.6922 199.108 98.0666 200.644C98.6639 200.486 99.2613 200.339 99.8587 200.157L99.8343 200.169Z" fill="#70A9A1"/>
<path d="M182.357 71.5141C187.965 81.2915 192.244 91.3127 195.146 101.249C194.548 48.5579 154.171 5.85189 103.857 4.21826C103.199 4.40113 102.541 4.57181 101.882 4.76687C132.994 14.4711 163.473 38.5001 182.357 71.5141Z" fill="#70A9A1"/>
<path d="M100.834 200.486C100.59 200.559 100.346 200.632 100.103 200.705C100.359 200.705 100.615 200.729 100.871 200.729C101.127 200.729 101.383 200.717 101.639 200.705C101.383 200.632 101.127 200.559 100.858 200.486C100.858 200.498 100.846 200.498 100.834 200.486Z" fill="#70A9A1"/>
<path d="M6.58337 101.273C9.49709 91.252 13.7762 81.2429 19.3598 71.5021C25.5896 60.6031 33.0994 50.6794 41.4626 41.9383L41.5357 41.8529L43.657 39.1587L36.647 38.3297L43.657 37.5006L39.2926 31.9536L44.8396 36.3181L45.6686 29.3081L46.4976 36.3181L51.3253 32.5144L51.3741 32.4656C66.1621 19.5551 82.9007 10.0215 99.8344 4.7427C99.1761 4.54764 98.5177 4.37696 97.8716 4.19409C47.546 5.8643 7.16856 48.5703 6.58337 101.273Z" fill="#70A9A1"/>
<path d="M100.858 199.876H100.846C100.846 199.876 100.822 199.876 100.81 199.876C100.48 199.974 100.164 200.083 99.8344 200.181C100.164 200.303 100.493 200.4 100.822 200.498C101.175 200.388 101.517 200.29 101.87 200.181C101.529 200.083 101.2 199.986 100.858 199.888V199.876Z" fill="#70A9A1"/>
<path d="M194.865 102.468C194.951 102.809 195.048 103.163 195.146 103.504C195.146 103.151 195.17 102.797 195.17 102.431C195.17 102.066 195.146 101.736 195.146 101.395C195.048 101.736 194.951 102.09 194.853 102.431C194.853 102.431 194.853 102.443 194.853 102.456L194.865 102.468Z" fill="#70A9A1"/>
<path d="M51.3251 32.5264L51.2276 32.5995C49.6427 33.9771 48.0944 35.3913 46.5583 36.8543L46.6193 37.3785L46.8631 37.4029C47.936 36.3666 49.021 35.3669 50.1304 34.3794L52.0444 31.9534L51.3251 32.5142V32.5264Z" fill="#70A9A1"/>
<path d="M44.7298 39.4756L44.7054 39.2928L44.1324 39.2196C43.2668 40.073 42.4134 40.9386 41.5601 41.8285L41.5357 41.8529L39.2925 44.6935L40.8042 43.5109H40.8164C42.1087 42.1211 43.4131 40.7801 44.7298 39.4634V39.4756Z" fill="#70A9A1"/>
<path d="M46.5584 36.8666L46.4974 36.3302L45.6684 36.9885L44.8394 36.3302L44.7175 37.3787L43.6691 37.5006L44.3274 38.3296L43.6691 39.1586L44.1445 39.2195C44.9492 38.4149 45.7538 37.6347 46.5706 36.8544L46.5584 36.8666Z" fill="#70A9A1"/>
<path d="M46.8632 37.4154C46.1439 38.0981 45.4368 38.7808 44.7297 39.4757L44.8395 40.3535L45.6685 39.6952L46.4975 40.3535L46.6194 39.3051L47.6678 39.1831L47.0095 38.3541L47.6678 37.5251L46.8632 37.4276V37.4154Z" fill="#70A9A1"/>
</g>
<path d="M36.2143 79.4923C34.3475 79.4923 32.657 79.0352 31.1426 78.1208C29.6282 77.2065 28.4281 75.9778 27.5423 74.4349C26.6566 72.8824 26.2137 71.1489 26.2137 69.2345C26.2137 67.3201 26.6566 65.5914 27.5423 64.0485C28.4281 62.5055 29.6282 61.2816 31.1426 60.3768C32.657 59.4625 34.3475 59.0053 36.2143 59.0053C37.2525 59.0053 38.1811 59.1339 39.0002 59.391C39.8289 59.6006 40.5956 59.8672 41.3004 60.1911C42.0147 60.5054 42.5909 60.7911 43.0291 61.0483L43.7005 61.434L44.4577 66.4772L43.9577 65.7629C43.6243 65.2866 43.1767 64.7057 42.6148 64.0199C42.0623 63.3246 41.429 62.6341 40.7146 61.9483C40.0098 61.2626 39.2669 60.6816 38.4859 60.2054C37.7144 59.7291 36.9572 59.491 36.2143 59.491C35.1666 59.491 34.2333 59.8958 33.4142 60.7054C32.5951 61.515 31.9474 62.5817 31.4712 63.9056C30.9949 65.2295 30.7568 66.6629 30.7568 68.2059L30.7997 69.2345C30.9807 71.4251 31.5378 73.2634 32.4712 74.7492C33.4046 76.235 34.6523 77.1684 36.2143 77.5494C36.7287 77.6351 37.2287 77.6779 37.7144 77.6779C38.9717 77.6779 40.1146 77.4398 41.1432 76.9636C42.1814 76.4874 43.0338 75.9016 43.7005 75.2063V75.9064C43.5958 76.154 43.3386 76.4731 42.9291 76.8636C42.5195 77.2541 41.9814 77.6494 41.3147 78.0494C40.648 78.4494 39.8812 78.7923 39.0145 79.078C38.1478 79.3542 37.2144 79.4923 36.2143 79.4923ZM52.7794 79.4066C51.4555 79.4066 50.2554 79.0828 49.1792 78.4351C48.1029 77.7875 47.2505 76.916 46.6219 75.8207C45.9933 74.7158 45.679 73.4824 45.679 72.1204C45.679 70.7584 45.9933 69.525 46.6219 68.4202C47.2505 67.3154 48.1029 66.4391 49.1792 65.7914C50.2554 65.1438 51.4555 64.82 52.7794 64.82C54.1128 64.82 55.3129 65.1438 56.3797 65.7914C57.4559 66.4391 58.3083 67.3154 58.937 68.4202C59.5751 69.525 59.8942 70.7584 59.8942 72.1204C59.8942 73.4824 59.5751 74.7158 58.937 75.8207C58.3083 76.916 57.4559 77.7875 56.3797 78.4351C55.3129 79.0828 54.1128 79.4066 52.7794 79.4066ZM52.7794 78.8923C53.1794 78.8923 53.5318 78.6828 53.8366 78.2637C54.1509 77.8351 54.4129 77.2827 54.6224 76.6064C54.8415 75.9207 55.0034 75.1825 55.1081 74.392C55.2224 73.6015 55.2796 72.8443 55.2796 72.1204C55.2796 70.9013 55.1843 69.7774 54.9938 68.7488C54.8129 67.7201 54.5367 66.8963 54.1652 66.2772C53.7938 65.6486 53.3318 65.3343 52.7794 65.3343C52.1984 65.3343 51.7222 65.6486 51.3508 66.2772C50.9888 66.8963 50.7221 67.7249 50.5507 68.7631C50.3793 69.7917 50.2935 70.9108 50.2935 72.1204C50.2935 72.8824 50.3412 73.6634 50.4364 74.4634C50.5412 75.2635 50.6983 75.9969 50.9079 76.6636C51.1174 77.3303 51.3746 77.8684 51.6793 78.278C51.9937 78.6875 52.3603 78.8923 52.7794 78.8923ZM69.8017 79.4066H60.7725V78.8923H60.9582C62.1297 78.8923 62.7964 78.5685 62.9584 77.9208V60.1768C62.9012 59.8625 62.7441 59.6291 62.4869 59.4767C62.0964 59.2482 61.5821 59.1339 60.9439 59.1339H60.7725V58.6195H62.9584C63.7013 58.6195 64.3585 58.5386 64.9299 58.3767C65.5014 58.2148 65.9824 58.0338 66.3729 57.8338C66.7729 57.6338 67.0777 57.4528 67.2872 57.2909L67.5872 57.048C67.5872 70.7822 67.592 77.6732 67.6015 77.7208C67.6015 78.0827 67.7301 78.3446 67.9873 78.5066C68.3873 78.7637 68.9207 78.8923 69.5874 78.8923H69.8017V79.4066ZM77.6233 79.4066C76.1947 79.4066 74.9327 79.0828 73.8374 78.4351C72.7516 77.7875 71.9039 76.916 71.2943 75.8207C70.6848 74.7158 70.38 73.4824 70.38 72.1204C70.38 70.7489 70.6943 69.5155 71.3229 68.4202C71.9515 67.3154 72.804 66.4391 73.8802 65.7914C74.9565 65.1438 76.1566 64.82 77.4805 64.82C79.0901 64.82 80.4997 65.2628 81.7093 66.1486C82.9284 67.0344 83.7761 68.2154 84.2523 69.6917L84.2952 69.8346C84.3333 69.9489 84.3619 70.0632 84.3809 70.1774L74.9946 72.8205C75.1374 74.0682 75.5184 75.0635 76.1375 75.8064C77.1661 77.0541 78.4138 77.6779 79.8806 77.6779C80.8045 77.6779 81.6522 77.4541 82.4236 77.0065C83.1951 76.5588 83.8047 76.0254 84.2523 75.4064V75.7492C84.119 76.1016 83.8904 76.4874 83.5666 76.9065C83.2523 77.316 82.8237 77.7113 82.2808 78.0922C81.7474 78.4732 81.095 78.7875 80.3235 79.0352C79.552 79.2828 78.652 79.4066 77.6233 79.4066ZM74.9517 72.3062L79.9378 70.9061C79.8806 69.8584 79.752 68.9202 79.552 68.0916C79.352 67.2534 79.0806 66.5867 78.7377 66.0915C78.3948 65.5867 77.9757 65.3343 77.4805 65.3343C77.09 65.3343 76.7328 65.5248 76.409 65.9057C76.0946 66.2867 75.8232 66.782 75.5946 67.3915C75.3756 67.9916 75.2041 68.6488 75.0803 69.3631C74.966 70.0679 74.9089 70.7584 74.9089 71.4347C74.9089 71.7299 74.9231 72.0204 74.9517 72.3062ZM93.0455 79.4066C91.8359 79.4066 90.6739 79.0828 89.5595 78.4351C88.4547 77.7875 87.5499 76.916 86.8451 75.8207C86.1403 74.7158 85.7879 73.4824 85.7879 72.1204C85.7879 70.8442 86.0593 69.7012 86.6022 68.6916C87.1546 67.682 87.8975 66.8534 88.8309 66.2058C89.7738 65.5486 90.8549 65.1104 92.074 64.8914C92.7026 64.7771 93.3598 64.7199 94.0455 64.7199C94.8361 64.7199 95.5552 64.7676 96.2028 64.8628C96.7171 64.9295 97.2172 65.0581 97.7029 65.2486C98.0363 65.3819 98.3363 65.5581 98.603 65.7772C98.9744 66.0915 99.2411 66.4772 99.403 66.9344C99.4792 67.1725 99.5173 67.4106 99.5173 67.6487C99.5173 67.9154 99.4602 68.1678 99.3459 68.4059C99.2316 68.644 99.0411 68.844 98.7744 69.0059C98.4125 69.1964 98.0744 69.2917 97.7601 69.2917C97.4553 69.2917 97.2029 69.2345 97.0029 69.1202C96.8029 69.0059 96.7029 68.9012 96.7029 68.8059V68.7774C96.7505 68.625 96.7933 68.4678 96.8314 68.3059C96.8695 68.1345 96.8981 67.9868 96.9172 67.863V67.6916C96.9172 67.1772 96.7648 66.7582 96.46 66.4343C96.1647 66.101 95.8171 65.8534 95.4171 65.6914C95.017 65.5295 94.6503 65.4486 94.317 65.4486C93.9741 65.4486 93.6027 65.5152 93.2026 65.6486C92.8026 65.7724 92.4359 66.001 92.1026 66.3343C91.5311 66.982 91.093 67.7773 90.7882 68.7202C90.4834 69.6631 90.331 70.606 90.331 71.549C90.331 71.8061 90.3453 72.0585 90.3739 72.3062V72.3347C90.3739 72.3443 90.3786 72.3585 90.3882 72.3776C90.3882 72.4347 90.3882 72.5062 90.3882 72.5919C90.3977 72.6681 90.4072 72.7443 90.4167 72.8205C90.6072 74.0682 90.9977 75.0635 91.5882 75.8064C92.1883 76.5493 92.8978 77.0827 93.7169 77.4065C94.2598 77.5875 94.7884 77.6779 95.3028 77.6779C96.2266 77.6779 97.0743 77.4541 97.8458 77.0065C98.6173 76.5588 99.2268 76.0254 99.6745 75.4064V75.7492C99.5411 76.1016 99.3125 76.4874 98.9887 76.9065C98.6744 77.316 98.2458 77.7113 97.7029 78.0922C97.1696 78.4732 96.5171 78.7875 95.7456 79.0352C94.9742 79.2828 94.0741 79.4066 93.0455 79.4066ZM108.31 79.4066C107.101 79.4066 105.939 79.0828 104.825 78.4351C103.72 77.7875 102.815 76.916 102.11 75.8207C101.405 74.7158 101.053 73.4824 101.053 72.1204C101.053 70.8442 101.324 69.7012 101.867 68.6916C102.42 67.682 103.163 66.8534 104.096 66.2058C105.039 65.5486 106.12 65.1104 107.339 64.8914C107.968 64.7771 108.625 64.7199 109.311 64.7199C110.101 64.7199 110.82 64.7676 111.468 64.8628C111.982 64.9295 112.482 65.0581 112.968 65.2486C113.301 65.3819 113.601 65.5581 113.868 65.7772C114.239 66.0915 114.506 66.4772 114.668 66.9344C114.744 67.1725 114.782 67.4106 114.782 67.6487C114.782 67.9154 114.725 68.1678 114.611 68.4059C114.497 68.644 114.306 68.844 114.039 69.0059C113.677 69.1964 113.339 69.2917 113.025 69.2917C112.72 69.2917 112.468 69.2345 112.268 69.1202C112.068 69.0059 111.968 68.9012 111.968 68.8059V68.7774C112.015 68.625 112.058 68.4678 112.096 68.3059C112.135 68.1345 112.163 67.9868 112.182 67.863V67.6916C112.182 67.1772 112.03 66.7582 111.725 66.4343C111.43 66.101 111.082 65.8534 110.682 65.6914C110.282 65.5295 109.915 65.4486 109.582 65.4486C109.239 65.4486 108.868 65.5152 108.468 65.6486C108.068 65.7724 107.701 66.001 107.368 66.3343C106.796 66.982 106.358 67.7773 106.053 68.7202C105.748 69.6631 105.596 70.606 105.596 71.549C105.596 71.8061 105.61 72.0585 105.639 72.3062V72.3347C105.639 72.3443 105.644 72.3585 105.653 72.3776C105.653 72.4347 105.653 72.5062 105.653 72.5919C105.663 72.6681 105.672 72.7443 105.682 72.8205C105.872 74.0682 106.263 75.0635 106.853 75.8064C107.453 76.5493 108.163 77.0827 108.982 77.4065C109.525 77.5875 110.053 77.6779 110.568 77.6779C111.492 77.6779 112.339 77.4541 113.111 77.0065C113.882 76.5588 114.492 76.0254 114.939 75.4064V75.7492C114.806 76.1016 114.578 76.4874 114.254 76.9065C113.939 77.316 113.511 77.7113 112.968 78.0922C112.435 78.4732 111.782 78.7875 111.011 79.0352C110.239 79.2828 109.339 79.4066 108.31 79.4066ZM120.704 62.8913L120.304 62.3912C119.961 61.9436 119.661 61.5959 119.404 61.3483C119.156 61.0911 118.813 60.7959 118.375 60.4625L117.889 60.0911L118.375 59.7053C118.813 59.372 119.161 59.0767 119.418 58.8196C119.675 58.5624 119.975 58.21 120.318 57.7623L120.704 57.2909L121.075 57.7623C121.418 58.21 121.718 58.5624 121.975 58.8196C122.233 59.0767 122.58 59.372 123.018 59.7053L123.504 60.0911L123.018 60.4625C122.58 60.8054 122.233 61.1054 121.975 61.3626C121.718 61.6197 121.418 61.9674 121.075 62.4055L120.704 62.8913ZM125.218 79.4209H116.175V78.9066H116.361C116.542 78.9066 116.789 78.8875 117.104 78.8494C117.418 78.8018 117.699 78.697 117.947 78.5351C118.204 78.3732 118.351 78.1208 118.389 77.7779V67.963C118.332 67.6487 118.175 67.4154 117.918 67.263C117.661 67.1106 117.38 67.0153 117.075 66.9772C116.78 66.9391 116.546 66.9201 116.375 66.9201H116.204V66.4201H118.389C119.132 66.4201 119.789 66.3391 120.361 66.1772C120.932 66.0153 121.413 65.8343 121.804 65.6343C122.194 65.4248 122.494 65.239 122.704 65.0771L123.004 64.8342V77.7637C123.023 78.1065 123.156 78.3637 123.404 78.5351C123.652 78.697 123.933 78.8018 124.247 78.8494C124.561 78.8875 124.814 78.9066 125.004 78.9066H125.218V79.4209ZM133.283 79.4066C131.959 79.4066 130.759 79.0828 129.683 78.4351C128.606 77.7875 127.754 76.916 127.125 75.8207C126.497 74.7158 126.182 73.4824 126.182 72.1204C126.182 70.7584 126.497 69.525 127.125 68.4202C127.754 67.3154 128.606 66.4391 129.683 65.7914C130.759 65.1438 131.959 64.82 133.283 64.82C134.616 64.82 135.816 65.1438 136.883 65.7914C137.959 66.4391 138.812 67.3154 139.44 68.4202C140.079 69.525 140.398 70.7584 140.398 72.1204C140.398 73.4824 140.079 74.7158 139.44 75.8207C138.812 76.916 137.959 77.7875 136.883 78.4351C135.816 79.0828 134.616 79.4066 133.283 79.4066ZM133.283 78.8923C133.683 78.8923 134.035 78.6828 134.34 78.2637C134.654 77.8351 134.916 77.2827 135.126 76.6064C135.345 75.9207 135.507 75.1825 135.612 74.392C135.726 73.6015 135.783 72.8443 135.783 72.1204C135.783 70.9013 135.688 69.7774 135.497 68.7488C135.316 67.7201 135.04 66.8963 134.669 66.2772C134.297 65.6486 133.835 65.3343 133.283 65.3343C132.702 65.3343 132.226 65.6486 131.854 66.2772C131.492 66.8963 131.226 67.7249 131.054 68.7631C130.883 69.7917 130.797 70.9108 130.797 72.1204C130.797 72.8824 130.845 73.6634 130.94 74.4634C131.045 75.2635 131.202 75.9969 131.411 76.6636C131.621 77.3303 131.878 77.8684 132.183 78.278C132.497 78.6875 132.864 78.8923 133.283 78.8923ZM159.877 79.4066H150.848V78.8923H151.034C151.215 78.8923 151.462 78.8732 151.777 78.8352C152.101 78.7875 152.386 78.6828 152.634 78.5208C152.891 78.3494 153.029 78.0875 153.048 77.7351V72.0633C153.048 70.2251 152.901 68.825 152.605 67.863C152.31 66.8915 151.762 66.4058 150.962 66.4058C150.505 66.4058 150.086 66.5963 149.705 66.9772C149.334 67.3487 149.019 67.8297 148.762 68.4202C148.515 69.0012 148.338 69.6298 148.234 70.306V77.7494C148.253 78.0922 148.386 78.3494 148.634 78.5208C148.881 78.6828 149.162 78.7875 149.477 78.8352C149.791 78.8732 150.039 78.8923 150.219 78.8923H150.434V79.4066H141.39V78.8923H141.576C141.757 78.8923 142.005 78.8732 142.319 78.8352C142.633 78.7875 142.914 78.6828 143.162 78.5208C143.419 78.3589 143.567 78.1065 143.605 77.7637V67.9487C143.548 67.6344 143.39 67.4011 143.133 67.2487C142.876 67.0963 142.595 67.001 142.29 66.9629C141.995 66.9249 141.762 66.9058 141.59 66.9058H141.419V66.4058H143.605C144.348 66.4058 145.005 66.3248 145.576 66.1629C146.148 66.001 146.629 65.82 147.019 65.62C147.419 65.4105 147.724 65.2247 147.934 65.0628L148.234 64.82V68.3345C148.491 67.6297 148.896 66.9439 149.448 66.2772C150.248 65.3152 151.2 64.8342 152.305 64.8342C153.477 64.8342 154.415 65.0485 155.12 65.4771C155.834 65.9057 156.377 66.4724 156.748 67.1772C157.129 67.8725 157.382 68.6535 157.506 69.5203C157.629 70.3775 157.691 71.2347 157.691 72.0919V77.9065C157.758 78.2018 157.915 78.4208 158.163 78.5637C158.41 78.7066 158.677 78.7971 158.963 78.8352C159.258 78.8732 159.492 78.8923 159.663 78.8923H159.877V79.4066ZM167.556 79.4066C166.232 79.4066 165.032 79.0828 163.956 78.4351C162.88 77.7875 162.027 76.916 161.398 75.8207C160.77 74.7158 160.456 73.4824 160.456 72.1204C160.456 70.7584 160.77 69.525 161.398 68.4202C162.027 67.3154 162.88 66.4391 163.956 65.7914C165.032 65.1438 166.232 64.82 167.556 64.82C168.889 64.82 170.09 65.1438 171.156 65.7914C172.233 66.4391 173.085 67.3154 173.714 68.4202C174.352 69.525 174.671 70.7584 174.671 72.1204C174.671 73.4824 174.352 74.7158 173.714 75.8207C173.085 76.916 172.233 77.7875 171.156 78.4351C170.09 79.0828 168.889 79.4066 167.556 79.4066ZM167.556 78.8923C167.956 78.8923 168.308 78.6828 168.613 78.2637C168.928 77.8351 169.189 77.2827 169.399 76.6064C169.618 75.9207 169.78 75.1825 169.885 74.392C169.999 73.6015 170.056 72.8443 170.056 72.1204C170.056 70.9013 169.961 69.7774 169.77 68.7488C169.589 67.7201 169.313 66.8963 168.942 66.2772C168.57 65.6486 168.108 65.3343 167.556 65.3343C166.975 65.3343 166.499 65.6486 166.127 66.2772C165.765 66.8963 165.499 67.7249 165.327 68.7631C165.156 69.7917 165.07 70.9108 165.07 72.1204C165.07 72.8824 165.118 73.6634 165.213 74.4634C165.318 75.2635 165.475 75.9969 165.684 76.6636C165.894 77.3303 166.151 77.8684 166.456 78.278C166.77 78.6875 167.137 78.8923 167.556 78.8923ZM67.0123 113.407H57.9832V112.892H58.1689C58.3499 112.892 58.5975 112.873 58.9118 112.835C59.2356 112.788 59.5214 112.683 59.769 112.521C60.0262 112.349 60.1643 112.087 60.1833 111.735V106.063C60.1833 104.225 60.0357 102.825 59.7404 101.863C59.4452 100.892 58.8975 100.406 58.0975 100.406C57.5832 100.406 57.1212 100.639 56.7117 101.106C56.3021 101.573 55.9735 102.158 55.7259 102.863C55.4783 103.568 55.3354 104.296 55.2973 105.049C55.3068 105.401 55.3116 107.687 55.3116 111.907C55.3783 112.202 55.5354 112.421 55.783 112.564C56.164 112.783 56.6641 112.892 57.2831 112.892H57.4974V113.407H48.4683V112.892H48.654C48.835 112.892 49.0826 112.873 49.3969 112.835C49.7207 112.788 50.0065 112.683 50.2541 112.521C50.5113 112.349 50.6494 112.087 50.6684 111.735V106.063C50.6684 104.225 50.5208 102.825 50.2255 101.863C49.9303 100.892 49.3826 100.406 48.5826 100.406C48.1254 100.406 47.7063 100.596 47.3253 100.977C46.9539 101.349 46.6396 101.83 46.3824 102.42C46.1348 103.001 45.9586 103.63 45.8538 104.306V111.749C45.8729 112.092 46.0062 112.349 46.2538 112.521C46.5015 112.683 46.7825 112.788 47.0968 112.835C47.4111 112.873 47.6587 112.892 47.8397 112.892H48.054V113.407H39.0248V112.892H39.2105C39.3915 112.892 39.6391 112.873 39.9534 112.835C40.2677 112.788 40.5487 112.683 40.7964 112.521C41.0535 112.359 41.1964 112.107 41.225 111.764V101.949C41.1678 101.634 41.0107 101.401 40.7535 101.249C40.4963 101.096 40.2154 101.001 39.9106 100.963C39.6153 100.925 39.382 100.906 39.2105 100.906H39.0391V100.406H41.225C41.9679 100.406 42.625 100.325 43.1965 100.163C43.768 100.001 44.249 99.82 44.6395 99.62C45.0395 99.4105 45.3443 99.2247 45.5538 99.0628L45.8538 98.82V102.334C46.111 101.63 46.5158 100.944 47.0682 100.277C47.8682 99.3152 48.8207 98.8342 49.9255 98.8342C51.0304 98.8342 51.9256 99.0247 52.6114 99.4057C53.3067 99.7867 53.8448 100.296 54.2258 100.934C54.6163 101.573 54.8925 102.282 55.0544 103.063C55.102 102.873 55.2211 102.558 55.4116 102.12C55.6021 101.673 55.8735 101.196 56.2259 100.692C56.5783 100.187 57.0165 99.7533 57.5403 99.3914C58.0737 99.02 58.707 98.8342 59.4404 98.8342C60.6119 98.8342 61.5501 99.0485 62.2549 99.4771C62.9692 99.9057 63.5121 100.472 63.8836 101.177C64.2645 101.873 64.5169 102.654 64.6408 103.52C64.7646 104.377 64.8265 105.235 64.8265 106.092V111.907C64.8932 112.202 65.0503 112.421 65.2979 112.564C65.5456 112.707 65.8123 112.797 66.098 112.835C66.3933 112.873 66.6266 112.892 66.798 112.892H67.0123V113.407ZM74.7054 113.407C73.3815 113.407 72.1814 113.083 71.1052 112.435C70.0289 111.787 69.1765 110.916 68.5479 109.821C67.9193 108.716 67.605 107.482 67.605 106.12C67.605 104.758 67.9193 103.525 68.5479 102.42C69.1765 101.315 70.0289 100.439 71.1052 99.7914C72.1814 99.1438 73.3815 98.82 74.7054 98.82C76.0388 98.82 77.2389 99.1438 78.3057 99.7914C79.3819 100.439 80.2343 101.315 80.863 102.42C81.5011 103.525 81.8202 104.758 81.8202 106.12C81.8202 107.482 81.5011 108.716 80.863 109.821C80.2343 110.916 79.3819 111.787 78.3057 112.435C77.2389 113.083 76.0388 113.407 74.7054 113.407ZM74.7054 112.892C75.1054 112.892 75.4578 112.683 75.7626 112.264C76.0769 111.835 76.3389 111.283 76.5484 110.606C76.7675 109.921 76.9294 109.183 77.0341 108.392C77.1484 107.601 77.2056 106.844 77.2056 106.12C77.2056 104.901 77.1103 103.777 76.9198 102.749C76.7389 101.72 76.4627 100.896 76.0912 100.277C75.7198 99.6486 75.2578 99.3343 74.7054 99.3343C74.1244 99.3343 73.6482 99.6486 73.2768 100.277C72.9148 100.896 72.6481 101.725 72.4767 102.763C72.3053 103.792 72.2195 104.911 72.2195 106.12C72.2195 106.882 72.2672 107.663 72.3624 108.463C72.4672 109.263 72.6243 109.997 72.8339 110.664C73.0434 111.33 73.3006 111.868 73.6053 112.278C73.9197 112.688 74.2863 112.892 74.7054 112.892ZM101.3 113.407H92.2706V112.892H92.4563C92.6373 112.892 92.8849 112.873 93.1992 112.835C93.523 112.788 93.8088 112.683 94.0564 112.521C94.3136 112.349 94.4517 112.087 94.4707 111.735V106.063C94.4707 104.225 94.3231 102.825 94.0278 101.863C93.7326 100.892 93.1849 100.406 92.3849 100.406C91.9277 100.406 91.5086 100.596 91.1276 100.977C90.7562 101.349 90.4419 101.83 90.1847 102.42C89.9371 103.001 89.7609 103.63 89.6561 104.306V111.749C89.6752 112.092 89.8085 112.349 90.0561 112.521C90.3038 112.683 90.5847 112.788 90.899 112.835C91.2134 112.873 91.461 112.892 91.642 112.892H91.8563V113.407H82.8128V112.892H82.9985C83.1795 112.892 83.4271 112.873 83.7414 112.835C84.0557 112.788 84.3367 112.683 84.5843 112.521C84.8415 112.359 84.9891 112.107 85.0272 111.764V101.949C84.9701 101.634 84.8129 101.401 84.5558 101.249C84.2986 101.096 84.0176 101.001 83.7129 100.963C83.4176 100.925 83.1843 100.906 83.0128 100.906H82.8414V100.406H85.0272C85.7701 100.406 86.4273 100.325 86.9988 100.163C87.5703 100.001 88.0512 99.82 88.4417 99.62C88.8418 99.4105 89.1466 99.2247 89.3561 99.0628L89.6561 98.82V102.334C89.9133 101.63 90.3181 100.944 90.8705 100.277C91.6705 99.3152 92.623 98.8342 93.7278 98.8342C94.8993 98.8342 95.8375 99.0485 96.5423 99.4771C97.2566 99.9057 97.7995 100.472 98.1709 101.177C98.5519 101.873 98.8043 102.654 98.9281 103.52C99.052 104.377 99.1139 105.235 99.1139 106.092V111.907C99.1805 112.202 99.3377 112.421 99.5853 112.564C99.833 112.707 100.1 112.797 100.385 112.835C100.681 112.873 100.914 112.892 101.085 112.892H101.3V113.407ZM109.121 113.407C107.693 113.407 106.431 113.083 105.335 112.435C104.25 111.787 103.402 110.916 102.792 109.821C102.183 108.716 101.878 107.482 101.878 106.12C101.878 104.749 102.192 103.515 102.821 102.42C103.45 101.315 104.302 100.439 105.378 99.7914C106.455 99.1438 107.655 98.82 108.979 98.82C110.588 98.82 111.998 99.2628 113.207 100.149C114.426 101.034 115.274 102.215 115.75 103.692L115.793 103.835C115.831 103.949 115.86 104.063 115.879 104.177L106.493 106.82C106.635 108.068 107.016 109.063 107.636 109.806C108.664 111.054 109.912 111.678 111.379 111.678C112.303 111.678 113.15 111.454 113.922 111.006C114.693 110.559 115.303 110.025 115.75 109.406V109.749C115.617 110.102 115.388 110.487 115.065 110.906C114.75 111.316 114.322 111.711 113.779 112.092C113.245 112.473 112.593 112.788 111.822 113.035C111.05 113.283 110.15 113.407 109.121 113.407ZM106.45 106.306L111.436 104.906C111.379 103.858 111.25 102.92 111.05 102.092C110.85 101.253 110.579 100.587 110.236 100.091C109.893 99.5867 109.474 99.3343 108.979 99.3343C108.588 99.3343 108.231 99.5248 107.907 99.9057C107.593 100.287 107.321 100.782 107.093 101.392C106.874 101.992 106.702 102.649 106.578 103.363C106.464 104.068 106.407 104.758 106.407 105.435C106.407 105.73 106.421 106.02 106.45 106.306ZM132.901 113.435H126.086V112.707C125.725 113.164 125.101 113.397 124.215 113.407C122.948 113.407 121.786 113.083 120.729 112.435C119.681 111.778 118.843 110.902 118.215 109.806C117.595 108.711 117.286 107.492 117.286 106.149C117.286 104.787 117.6 103.554 118.229 102.449C118.857 101.334 119.71 100.453 120.786 99.8057C121.862 99.1485 123.062 98.82 124.386 98.82C124.986 98.82 125.553 98.8961 126.086 99.0485V94.2054C126.039 93.8911 125.886 93.6577 125.629 93.5053C125.372 93.3529 125.091 93.2577 124.786 93.2196C124.491 93.1815 124.258 93.1624 124.086 93.1624H123.915V92.6481H126.086C126.829 92.6481 127.487 92.5672 128.058 92.4052C128.639 92.2433 129.125 92.0624 129.515 91.8624C129.906 91.6623 130.206 91.4814 130.415 91.3195L130.715 91.0766V111.892C130.772 112.207 130.93 112.44 131.187 112.592C131.444 112.745 131.72 112.84 132.015 112.878C132.32 112.916 132.558 112.935 132.73 112.935H132.901V113.435ZM124.558 112.935C124.891 112.935 125.196 112.835 125.472 112.635C125.758 112.435 125.963 112.216 126.086 111.978V100.949C125.963 100.615 125.806 100.325 125.615 100.077C125.282 99.601 124.872 99.3628 124.386 99.3628C123.805 99.3628 123.329 99.6772 122.958 100.306C122.596 100.925 122.329 101.749 122.158 102.777C121.986 103.806 121.9 104.93 121.9 106.149C121.9 107.168 121.991 108.187 122.172 109.206C122.353 110.216 122.629 111.064 123.001 111.749C123.401 112.492 123.92 112.888 124.558 112.935ZM144.509 113.435C143.347 113.435 142.494 113.145 141.952 112.564C141.132 113.145 140.199 113.435 139.151 113.435C138.485 113.435 137.856 113.34 137.265 113.149C136.684 112.949 136.194 112.707 135.794 112.421C135.213 112.002 134.761 111.559 134.437 111.092C134.122 110.616 133.903 110.154 133.78 109.706C133.665 109.259 133.608 108.873 133.608 108.549C133.608 108.206 133.665 107.782 133.78 107.278C133.894 106.773 134.113 106.268 134.437 105.763C134.77 105.258 135.251 104.82 135.88 104.449C136.88 103.906 137.966 103.635 139.137 103.635C139.432 103.635 139.723 103.654 140.009 103.692C140.704 103.796 141.175 103.939 141.423 104.12C141.366 102.225 141.047 100.868 140.466 100.049C140.123 99.6867 139.713 99.5057 139.237 99.5057C138.847 99.5152 138.508 99.601 138.223 99.7629C137.651 100.096 137.365 100.692 137.365 101.549C137.365 101.673 137.37 101.796 137.38 101.92C137.389 102.034 137.413 102.177 137.451 102.349C137.499 102.511 137.546 102.668 137.594 102.82V102.849C137.594 102.944 137.494 103.054 137.294 103.177C137.094 103.292 136.837 103.349 136.523 103.349C136.218 103.349 135.884 103.254 135.523 103.063C135.027 102.758 134.78 102.306 134.78 101.706C134.78 101.468 134.818 101.23 134.894 100.992C135.18 100.191 135.742 99.6295 136.58 99.3057C137.446 98.9914 138.308 98.8342 139.166 98.8342L139.537 98.8485C140.775 98.9057 141.88 99.2819 142.852 99.9772C143.833 100.663 144.609 101.558 145.18 102.663C145.761 103.768 146.052 104.944 146.052 106.192V111.149C146.052 111.397 146.104 111.606 146.209 111.778C146.323 111.949 146.461 112.087 146.623 112.192C146.785 112.297 146.942 112.378 147.095 112.435C147.257 112.492 147.39 112.53 147.495 112.549L147.666 112.578L147.252 112.792C146.976 112.935 146.599 113.078 146.123 113.221C145.647 113.364 145.109 113.435 144.509 113.435ZM140.351 112.578C140.809 112.578 141.251 112.43 141.68 112.135C141.518 111.821 141.437 111.406 141.437 110.892V104.835L141.337 104.777C141.232 104.692 141.104 104.611 140.951 104.535C140.799 104.458 140.609 104.42 140.38 104.42C139.761 104.42 139.285 104.72 138.951 105.32C138.694 105.787 138.508 106.32 138.394 106.92C138.289 107.521 138.237 108.049 138.237 108.506C138.237 109.002 138.266 109.521 138.323 110.064C138.389 110.606 138.532 111.097 138.751 111.535C138.98 111.964 139.332 112.278 139.809 112.478C139.989 112.545 140.17 112.578 140.351 112.578ZM154.673 113.421C153.683 113.421 152.973 113.383 152.545 113.307C150.821 113.088 149.749 112.402 149.33 111.249C149.254 111.011 149.216 110.773 149.216 110.535C149.216 109.925 149.464 109.468 149.959 109.163C150.321 108.983 150.654 108.892 150.959 108.892C151.273 108.892 151.53 108.954 151.73 109.078C151.94 109.192 152.045 109.292 152.045 109.378V109.406C151.902 109.825 151.821 110.206 151.802 110.549C151.802 111.426 152.197 112.04 152.988 112.392C153.473 112.621 153.983 112.735 154.516 112.735C154.964 112.735 155.412 112.673 155.859 112.549C156.307 112.416 156.674 112.226 156.959 111.978C157.397 111.568 157.617 111.106 157.617 110.592L157.602 110.435C157.526 109.93 157.145 109.468 156.459 109.049C155.774 108.621 154.954 108.192 154.002 107.763C152.259 106.992 151.04 106.297 150.345 105.678C149.592 105.011 149.216 104.149 149.216 103.092C149.216 102.015 149.621 101.115 150.43 100.391C151.24 99.6676 152.33 99.1914 153.702 98.9628L153.731 98.9485C154.331 98.8533 154.916 98.8057 155.488 98.8057C157.259 98.8057 158.526 99.139 159.288 99.8057C159.66 100.111 159.926 100.491 160.088 100.949C160.164 101.187 160.202 101.425 160.202 101.663C160.202 102.273 159.955 102.73 159.46 103.035C159.098 103.225 158.764 103.32 158.459 103.32C158.145 103.32 157.883 103.263 157.674 103.149C157.474 103.025 157.374 102.915 157.374 102.82V102.792C157.421 102.639 157.464 102.482 157.502 102.32C157.55 102.149 157.578 102.006 157.588 101.892C157.597 101.777 157.607 101.668 157.617 101.563C157.617 100.172 156.855 99.4771 155.331 99.4771C154.731 99.4867 154.231 99.6629 153.831 100.006C153.478 100.301 153.302 100.658 153.302 101.077C153.302 101.696 153.716 102.263 154.545 102.777C155.107 103.12 155.778 103.482 156.559 103.863C157.683 104.397 158.826 105.049 159.988 105.82C160.312 106.039 160.617 106.287 160.902 106.563C161.55 107.211 161.874 107.987 161.874 108.892C161.874 110.168 161.312 111.24 160.188 112.107C159.217 112.859 157.783 113.283 155.888 113.378C155.488 113.407 155.083 113.421 154.673 113.421ZM41.1644 147.407C39.7357 147.407 38.4737 147.083 37.3784 146.435C36.2926 145.787 35.445 144.916 34.8354 143.821C34.2258 142.716 33.921 141.482 33.921 140.12C33.921 138.749 34.2353 137.515 34.864 136.42C35.4926 135.315 36.345 134.439 37.4213 133.791C38.4975 133.144 39.6976 132.82 41.0215 132.82C42.6311 132.82 44.0408 133.263 45.2504 134.149C46.4695 135.034 47.3172 136.215 47.7934 137.692L47.8362 137.835C47.8743 137.949 47.9029 138.063 47.922 138.177L38.5356 140.82C38.6785 142.068 39.0595 143.063 39.6786 143.806C40.7072 145.054 41.9549 145.678 43.4217 145.678C44.3455 145.678 45.1932 145.454 45.9647 145.006C46.7362 144.559 47.3457 144.025 47.7934 143.406V143.749C47.66 144.102 47.4314 144.487 47.1076 144.906C46.7933 145.316 46.3647 145.711 45.8218 146.092C45.2885 146.473 44.636 146.788 43.8645 147.035C43.0931 147.283 42.193 147.407 41.1644 147.407ZM38.4928 140.306L43.4788 138.906C43.4217 137.858 43.2931 136.92 43.0931 136.092C42.8931 135.253 42.6216 134.587 42.2787 134.091C41.9359 133.587 41.5168 133.334 41.0215 133.334C40.631 133.334 40.2738 133.525 39.95 133.906C39.6357 134.287 39.3643 134.782 39.1357 135.392C38.9166 135.992 38.7452 136.649 38.6213 137.363C38.5071 138.068 38.4499 138.758 38.4499 139.435C38.4499 139.73 38.4642 140.02 38.4928 140.306ZM57.8152 147.407H48.786V146.892H48.9717C50.1432 146.892 50.81 146.568 50.9719 145.921V128.177C50.9147 127.862 50.7576 127.629 50.5004 127.477C50.1099 127.248 49.5956 127.134 48.9575 127.134H48.786V126.62H50.9719C51.7148 126.62 52.372 126.539 52.9434 126.377C53.5149 126.215 53.9959 126.034 54.3864 125.834C54.7864 125.634 55.0912 125.453 55.3007 125.291L55.6007 125.048C55.6007 138.782 55.6055 145.673 55.615 145.721C55.615 146.083 55.7436 146.345 56.0008 146.507C56.4008 146.764 56.9342 146.892 57.6009 146.892H57.8152V147.407ZM65.494 147.407C64.1701 147.407 62.97 147.083 61.8937 146.435C60.8175 145.787 59.965 144.916 59.3364 143.821C58.7078 142.716 58.3935 141.482 58.3935 140.12C58.3935 138.758 58.7078 137.525 59.3364 136.42C59.965 135.315 60.8175 134.439 61.8937 133.791C62.97 133.144 64.1701 132.82 65.494 132.82C66.8274 132.82 68.0275 133.144 69.0942 133.791C70.1705 134.439 71.0229 135.315 71.6515 136.42C72.2896 137.525 72.6087 138.758 72.6087 140.12C72.6087 141.482 72.2896 142.716 71.6515 143.821C71.0229 144.916 70.1705 145.787 69.0942 146.435C68.0275 147.083 66.8274 147.407 65.494 147.407ZM65.494 146.892C65.894 146.892 66.2464 146.683 66.5512 146.264C66.8655 145.835 67.1274 145.283 67.3369 144.606C67.556 143.921 67.7179 143.183 67.8227 142.392C67.937 141.601 67.9941 140.844 67.9941 140.12C67.9941 138.901 67.8989 137.777 67.7084 136.749C67.5274 135.72 67.2512 134.896 66.8798 134.277C66.5083 133.649 66.0464 133.334 65.494 133.334C64.913 133.334 64.4367 133.649 64.0653 134.277C63.7034 134.896 63.4367 135.725 63.2652 136.763C63.0938 137.792 63.0081 138.911 63.0081 140.12C63.0081 140.882 63.0557 141.663 63.1509 142.463C63.2557 143.263 63.4129 143.997 63.6224 144.664C63.8319 145.33 64.0891 145.868 64.3939 146.278C64.7082 146.688 65.0749 146.892 65.494 146.892ZM92.0883 147.407H83.0591V146.892H83.2448C83.4258 146.892 83.6734 146.873 83.9877 146.835C84.3116 146.788 84.5973 146.683 84.8449 146.521C85.1021 146.349 85.2402 146.087 85.2592 145.735V140.063C85.2592 138.225 85.1116 136.825 84.8164 135.863C84.5211 134.892 83.9734 134.406 83.1734 134.406C82.7162 134.406 82.2971 134.596 81.9162 134.977C81.5447 135.349 81.2304 135.83 80.9732 136.42C80.7256 137.001 80.5494 137.63 80.4446 138.306V145.749C80.4637 146.092 80.597 146.349 80.8447 146.521C81.0923 146.683 81.3733 146.788 81.6876 146.835C82.0019 146.873 82.2495 146.892 82.4305 146.892H82.6448V147.407H73.6013V146.892H73.7871C73.968 146.892 74.2157 146.873 74.53 146.835C74.8443 146.788 75.1253 146.683 75.3729 146.521C75.63 146.359 75.7777 146.107 75.8158 145.764V135.949C75.7586 135.634 75.6015 135.401 75.3443 135.249C75.0872 135.096 74.8062 135.001 74.5014 134.963C74.2061 134.925 73.9728 134.906 73.8014 134.906H73.6299V134.406H75.8158C76.5587 134.406 77.2159 134.325 77.7873 134.163C78.3588 134.001 78.8398 133.82 79.2303 133.62C79.6303 133.41 79.9351 133.225 80.1446 133.063L80.4446 132.82V136.334C80.7018 135.63 81.1066 134.944 81.659 134.277C82.4591 133.315 83.4115 132.834 84.5163 132.834C85.6878 132.834 86.626 133.049 87.3308 133.477C88.0451 133.906 88.588 134.472 88.9595 135.177C89.3405 135.873 89.5929 136.654 89.7167 137.52C89.8405 138.377 89.9024 139.235 89.9024 140.092V145.907C89.9691 146.202 90.1262 146.421 90.3739 146.564C90.6215 146.707 90.8882 146.797 91.1739 146.835C91.4692 146.873 91.7025 146.892 91.874 146.892H92.0883V147.407ZM99.6528 154.721C99.3099 154.721 98.967 154.664 98.6241 154.55C98.1765 154.407 97.786 154.145 97.4526 153.764C97.1288 153.393 96.9669 152.978 96.9669 152.521C96.9669 152.216 97.0764 151.912 97.2955 151.607C97.524 151.331 97.7717 151.135 98.0384 151.021C98.305 150.907 98.5479 150.85 98.767 150.85C98.9194 150.85 99.0432 150.869 99.1384 150.907C99.2432 150.954 99.3003 151.012 99.3099 151.078C99.3384 151.412 99.3813 151.721 99.4385 152.007C99.5813 152.626 99.8623 153.064 100.281 153.321C100.7 153.588 101.129 153.721 101.567 153.721C102.139 153.721 102.61 153.536 102.982 153.164C103.258 152.888 103.415 152.531 103.453 152.093C103.453 151.15 102.848 150.559 101.639 150.321C101.029 150.207 100.305 150.112 99.467 150.035C98.5146 149.959 97.4812 149.826 96.3668 149.635C95.9668 149.588 95.5144 149.454 95.0096 149.235C94.5143 149.026 94.1333 148.616 93.8667 148.007C93.7333 147.645 93.6666 147.297 93.6666 146.964C93.6666 145.773 94.4905 144.702 96.1382 143.749C95.4334 143.187 94.8763 142.492 94.4667 141.663C94.0572 140.825 93.8524 139.916 93.8524 138.935C93.8524 137.792 94.1191 136.763 94.6524 135.849C95.1953 134.925 95.9239 134.191 96.8383 133.649C97.7622 133.106 98.7908 132.834 99.9242 132.834C100.458 132.834 101.058 132.925 101.724 133.106C101.724 133.029 101.734 132.953 101.753 132.877C101.829 132.353 101.958 131.834 102.139 131.32C102.462 130.482 103.02 129.92 103.81 129.634C104.048 129.558 104.291 129.52 104.539 129.52C105.139 129.52 105.591 129.767 105.896 130.263C106.087 130.625 106.182 130.958 106.182 131.263C106.182 131.577 106.12 131.834 105.996 132.034C105.882 132.234 105.777 132.334 105.682 132.334H105.653C105.501 132.287 105.339 132.244 105.167 132.206C105.005 132.158 104.863 132.129 104.739 132.12C104.625 132.11 104.51 132.106 104.396 132.106C103.815 132.106 103.367 132.225 103.053 132.463C102.739 132.701 102.529 133.001 102.424 133.363C103.501 133.849 104.363 134.587 105.01 135.577C105.658 136.558 105.982 137.677 105.982 138.935C105.982 140.078 105.71 141.111 105.167 142.035C104.634 142.949 103.91 143.678 102.996 144.221C102.081 144.764 101.058 145.035 99.9242 145.035C98.667 145.035 97.5479 144.706 96.5668 144.049C96.3668 144.183 96.2621 144.321 96.2525 144.464C96.2525 144.721 96.5192 144.93 97.0526 145.092C97.5955 145.254 98.2479 145.387 99.0099 145.492C99.7813 145.587 100.534 145.673 101.267 145.749C102.001 145.816 102.586 145.883 103.024 145.949C103.767 146.073 104.415 146.368 104.967 146.835C105.529 147.302 105.901 147.897 106.082 148.621C106.148 148.916 106.182 149.211 106.182 149.507C106.182 150.402 105.872 151.254 105.253 152.064C104.634 152.874 103.696 153.559 102.439 154.121C101.486 154.521 100.558 154.721 99.6528 154.721ZM99.9242 144.492C100.724 144.492 101.291 143.778 101.624 142.349C101.843 141.359 101.953 140.22 101.953 138.935C101.953 138.458 101.91 137.792 101.824 136.935C101.748 136.068 101.61 135.339 101.41 134.749C101.058 133.844 100.562 133.391 99.9242 133.391C99.1622 133.391 98.6098 134.106 98.2669 135.534C98.0098 136.582 97.8812 137.716 97.8812 138.935C97.8812 140.154 98.0098 141.292 98.2669 142.349C98.6098 143.778 99.1622 144.492 99.9242 144.492ZM118.661 147.435C117.499 147.435 116.646 147.145 116.104 146.564C115.284 147.145 114.351 147.435 113.303 147.435C112.637 147.435 112.008 147.34 111.418 147.149C110.837 146.949 110.346 146.707 109.946 146.421C109.365 146.002 108.913 145.559 108.589 145.092C108.274 144.616 108.055 144.154 107.932 143.706C107.817 143.259 107.76 142.873 107.76 142.549C107.76 142.206 107.817 141.782 107.932 141.278C108.046 140.773 108.265 140.268 108.589 139.763C108.922 139.258 109.403 138.82 110.032 138.449C111.032 137.906 112.118 137.635 113.289 137.635C113.584 137.635 113.875 137.654 114.161 137.692C114.856 137.796 115.327 137.939 115.575 138.12C115.518 136.225 115.199 134.868 114.618 134.049C114.275 133.687 113.865 133.506 113.389 133.506C112.999 133.515 112.66 133.601 112.375 133.763C111.803 134.096 111.518 134.692 111.518 135.549C111.518 135.673 111.522 135.796 111.532 135.92C111.541 136.034 111.565 136.177 111.603 136.349C111.651 136.511 111.698 136.668 111.746 136.82V136.849C111.746 136.944 111.646 137.054 111.446 137.177C111.246 137.292 110.989 137.349 110.675 137.349C110.37 137.349 110.036 137.254 109.675 137.063C109.179 136.758 108.932 136.306 108.932 135.706C108.932 135.468 108.97 135.23 109.046 134.992C109.332 134.191 109.894 133.63 110.732 133.306C111.598 132.991 112.46 132.834 113.318 132.834L113.689 132.849C114.927 132.906 116.032 133.282 117.004 133.977C117.985 134.663 118.761 135.558 119.332 136.663C119.913 137.768 120.204 138.944 120.204 140.192V145.149C120.204 145.397 120.256 145.606 120.361 145.778C120.475 145.949 120.613 146.087 120.775 146.192C120.937 146.297 121.094 146.378 121.247 146.435C121.409 146.492 121.542 146.53 121.647 146.549L121.818 146.578L121.404 146.792C121.128 146.935 120.751 147.078 120.275 147.221C119.799 147.364 119.261 147.435 118.661 147.435ZM114.503 146.578C114.961 146.578 115.403 146.43 115.832 146.135C115.67 145.821 115.589 145.406 115.589 144.892V138.835L115.489 138.777C115.384 138.692 115.256 138.611 115.103 138.535C114.951 138.458 114.761 138.42 114.532 138.42C113.913 138.42 113.437 138.72 113.103 139.32C112.846 139.787 112.66 140.32 112.546 140.92C112.441 141.521 112.389 142.049 112.389 142.506C112.389 143.002 112.418 143.521 112.475 144.064C112.541 144.606 112.684 145.097 112.903 145.535C113.132 145.964 113.484 146.278 113.961 146.478C114.142 146.545 114.322 146.578 114.503 146.578ZM138.298 147.435H131.483V146.707C131.121 147.164 130.497 147.397 129.611 147.407C128.345 147.407 127.183 147.083 126.125 146.435C125.078 145.778 124.239 144.902 123.611 143.806C122.992 142.711 122.682 141.492 122.682 140.149C122.682 138.787 122.997 137.554 123.625 136.449C124.254 135.334 125.106 134.453 126.182 133.806C127.259 133.149 128.459 132.82 129.783 132.82C130.383 132.82 130.949 132.896 131.483 133.049V128.205C131.435 127.891 131.283 127.658 131.026 127.505C130.768 127.353 130.488 127.258 130.183 127.22C129.887 127.181 129.654 127.162 129.483 127.162H129.311V126.648H131.483C132.226 126.648 132.883 126.567 133.454 126.405C134.035 126.243 134.521 126.062 134.912 125.862C135.302 125.662 135.602 125.481 135.812 125.319L136.112 125.077V145.892C136.169 146.207 136.326 146.44 136.583 146.592C136.84 146.745 137.117 146.84 137.412 146.878C137.717 146.916 137.955 146.935 138.126 146.935H138.298V147.435ZM129.954 146.935C130.288 146.935 130.592 146.835 130.868 146.635C131.154 146.435 131.359 146.216 131.483 145.978V134.949C131.359 134.615 131.202 134.325 131.011 134.077C130.678 133.601 130.268 133.363 129.783 133.363C129.202 133.363 128.726 133.677 128.354 134.306C127.992 134.925 127.725 135.749 127.554 136.777C127.383 137.806 127.297 138.93 127.297 140.149C127.297 141.168 127.387 142.187 127.568 143.206C127.749 144.216 128.025 145.064 128.397 145.749C128.797 146.492 129.316 146.888 129.954 146.935ZM149.905 147.435C148.743 147.435 147.891 147.145 147.348 146.564C146.529 147.145 145.595 147.435 144.548 147.435C143.881 147.435 143.252 147.34 142.662 147.149C142.081 146.949 141.59 146.707 141.19 146.421C140.609 146.002 140.157 145.559 139.833 145.092C139.519 144.616 139.3 144.154 139.176 143.706C139.062 143.259 139.004 142.873 139.004 142.549C139.004 142.206 139.062 141.782 139.176 141.278C139.29 140.773 139.509 140.268 139.833 139.763C140.166 139.258 140.647 138.82 141.276 138.449C142.276 137.906 143.362 137.635 144.533 137.635C144.829 137.635 145.119 137.654 145.405 137.692C146.1 137.796 146.572 137.939 146.819 138.12C146.762 136.225 146.443 134.868 145.862 134.049C145.519 133.687 145.11 133.506 144.633 133.506C144.243 133.515 143.905 133.601 143.619 133.763C143.048 134.096 142.762 134.692 142.762 135.549C142.762 135.673 142.767 135.796 142.776 135.92C142.786 136.034 142.809 136.177 142.848 136.349C142.895 136.511 142.943 136.668 142.99 136.82V136.849C142.99 136.944 142.89 137.054 142.69 137.177C142.49 137.292 142.233 137.349 141.919 137.349C141.614 137.349 141.281 137.254 140.919 137.063C140.424 136.758 140.176 136.306 140.176 135.706C140.176 135.468 140.214 135.23 140.29 134.992C140.576 134.191 141.138 133.63 141.976 133.306C142.843 132.991 143.705 132.834 144.562 132.834L144.933 132.849C146.172 132.906 147.276 133.282 148.248 133.977C149.229 134.663 150.005 135.558 150.577 136.663C151.158 137.768 151.448 138.944 151.448 140.192V145.149C151.448 145.397 151.501 145.606 151.605 145.778C151.72 145.949 151.858 146.087 152.02 146.192C152.182 146.297 152.339 146.378 152.491 146.435C152.653 146.492 152.786 146.53 152.891 146.549L153.063 146.578L152.648 146.792C152.372 146.935 151.996 147.078 151.52 147.221C151.043 147.364 150.505 147.435 149.905 147.435ZM145.748 146.578C146.205 146.578 146.648 146.43 147.076 146.135C146.914 145.821 146.834 145.406 146.834 144.892V138.835L146.734 138.777C146.629 138.692 146.5 138.611 146.348 138.535C146.195 138.458 146.005 138.42 145.776 138.42C145.157 138.42 144.681 138.72 144.348 139.32C144.091 139.787 143.905 140.32 143.79 140.92C143.686 141.521 143.633 142.049 143.633 142.506C143.633 143.002 143.662 143.521 143.719 144.064C143.786 144.606 143.929 145.097 144.148 145.535C144.376 145.964 144.729 146.278 145.205 146.478C145.386 146.545 145.567 146.578 145.748 146.578ZM160.07 147.421C159.079 147.421 158.37 147.383 157.941 147.307C156.217 147.088 155.146 146.402 154.727 145.249C154.65 145.011 154.612 144.773 154.612 144.535C154.612 143.925 154.86 143.468 155.355 143.163C155.717 142.983 156.051 142.892 156.355 142.892C156.67 142.892 156.927 142.954 157.127 143.078C157.336 143.192 157.441 143.292 157.441 143.378V143.406C157.298 143.825 157.217 144.206 157.198 144.549C157.198 145.426 157.593 146.04 158.384 146.392C158.87 146.621 159.379 146.735 159.913 146.735C160.36 146.735 160.808 146.673 161.256 146.549C161.703 146.416 162.07 146.226 162.356 145.978C162.794 145.568 163.013 145.106 163.013 144.592L162.999 144.435C162.922 143.93 162.541 143.468 161.856 143.049C161.17 142.621 160.351 142.192 159.398 141.763C157.655 140.992 156.436 140.297 155.741 139.678C154.989 139.011 154.612 138.149 154.612 137.092C154.612 136.015 155.017 135.115 155.827 134.391C156.636 133.668 157.727 133.191 159.098 132.963L159.127 132.949C159.727 132.853 160.313 132.806 160.884 132.806C162.656 132.806 163.922 133.139 164.684 133.806C165.056 134.111 165.323 134.491 165.484 134.949C165.561 135.187 165.599 135.425 165.599 135.663C165.599 136.273 165.351 136.73 164.856 137.035C164.494 137.225 164.161 137.32 163.856 137.32C163.541 137.32 163.28 137.263 163.07 137.149C162.87 137.025 162.77 136.915 162.77 136.82V136.792C162.818 136.639 162.86 136.482 162.899 136.32C162.946 136.149 162.975 136.006 162.984 135.892C162.994 135.777 163.003 135.668 163.013 135.563C163.013 134.172 162.251 133.477 160.727 133.477C160.127 133.487 159.627 133.663 159.227 134.006C158.875 134.301 158.698 134.658 158.698 135.077C158.698 135.696 159.113 136.263 159.941 136.777C160.503 137.12 161.175 137.482 161.956 137.863C163.08 138.397 164.222 139.049 165.384 139.82C165.708 140.039 166.013 140.287 166.299 140.563C166.946 141.211 167.27 141.987 167.27 142.892C167.27 144.168 166.708 145.24 165.584 146.107C164.613 146.859 163.18 147.283 161.284 147.378C160.884 147.407 160.479 147.421 160.07 147.421Z" fill="#2C2C2C"/>
<defs>
<clipPath id="clip0_147_1258">
<rect width="201.253" height="204.935" fill="white"/>
</clipPath>
</defs>
</svg>
