<svg width="202" height="205" viewBox="0 0 202 205" fill="none" xmlns="http://www.w3.org/2000/svg">
<g clip-path="url(#clip0_147_1164)">
<path d="M2.6161 132.812H3.22566C3.20128 130.142 3.29881 127.46 3.49387 124.765C3.28662 124.753 3.09156 124.729 2.8965 124.668C2.68924 127.399 2.59171 130.117 2.6161 132.812Z" fill="#D5AFF6"/>
<path d="M7.15133 101.37C1.65307 81.2425 1.81155 61.4683 7.94376 44.3517C14.6368 25.6869 27.7302 12.2034 45.8098 5.35186C54.295 2.13336 63.3897 0.597263 72.7404 0.597263C81.1767 0.597263 89.8203 1.85296 98.464 4.21807C99.1467 4.19369 99.8294 4.16931 100.512 4.16931C81.5303 -1.38991 62.4144 -1.58497 45.6026 4.77887C27.3401 11.7035 14.1247 25.309 7.37077 44.1445C1.09227 61.6511 1.03131 81.9008 6.83436 102.48C6.93189 102.114 7.04161 101.748 7.15133 101.383C7.15133 101.407 7.16352 101.443 7.17571 101.468C7.17571 101.407 7.17571 101.346 7.17571 101.273C7.17571 101.297 7.15133 101.334 7.15133 101.358V101.37Z" fill="#D5AFF6"/>
<path d="M157.092 5.35185C171.66 10.8745 183.169 21.0664 190.52 34.5499C190.679 34.428 190.862 34.3305 191.057 34.2452C183.632 20.6519 172.014 10.3625 157.311 4.77886C140.512 -1.58498 121.384 -1.37773 102.414 4.1693C103.097 4.1693 103.767 4.20587 104.45 4.21806C122.688 -0.78036 140.975 -0.76817 157.092 5.35185Z" fill="#D5AFF6"/>
<path d="M3.51831 118.584C3.57927 118.572 3.62803 118.572 3.68899 118.572C3.84747 118.572 3.99377 118.584 4.14007 118.609C4.7862 113.635 5.79808 108.636 7.15131 103.626C7.04159 103.248 6.93187 102.87 6.83434 102.492C5.32262 107.868 4.21321 113.245 3.51831 118.584Z" fill="#D5AFF6"/>
<path d="M198.554 58.4448L199.164 58.3473C198.091 51.7396 196.287 45.5342 193.775 39.8165C193.605 39.9141 193.41 39.9872 193.214 40.0482C195.701 45.7171 197.494 51.8859 198.554 58.4448Z" fill="#D5AFF6"/>
<path d="M45.8098 199.583C22.9389 190.915 7.72424 170.909 4.07905 144.698L3.46948 144.783C7.15125 171.214 22.5122 191.391 45.5903 200.144C54.1364 203.387 63.292 204.923 72.7159 204.923C82.1397 204.923 91.2954 203.448 100.683 200.693C100 200.693 99.3294 200.656 98.6467 200.644C80.3476 205.691 61.9876 205.715 45.8098 199.583Z" fill="#D5AFF6"/>
<path d="M195.726 103.699C195.726 103.699 195.75 103.626 195.75 103.589C195.75 103.565 195.738 103.528 195.726 103.504C195.726 103.565 195.726 103.638 195.726 103.699Z" fill="#D5AFF6"/>
<path d="M196.079 102.443C199.456 90.3982 200.846 78.3898 200.103 66.7959L199.493 66.8325C200.212 78.0484 198.92 89.6667 195.75 101.322C195.75 101.322 195.75 101.334 195.75 101.346C195.86 101.712 195.957 102.077 196.067 102.443H196.079Z" fill="#D5AFF6"/>
<path d="M195.75 101.322C195.75 101.322 195.738 101.273 195.726 101.248C195.726 101.297 195.726 101.346 195.726 101.395C195.726 101.37 195.738 101.346 195.75 101.322Z" fill="#D5AFF6"/>
<path d="M7.15137 103.626C7.15137 103.626 7.17575 103.699 7.18794 103.723C7.18794 103.662 7.18794 103.589 7.18794 103.528C7.18794 103.565 7.17575 103.589 7.16356 103.626H7.15137Z" fill="#D5AFF6"/>
<path d="M196.08 102.443C195.97 102.833 195.872 103.211 195.763 103.601C201.261 123.729 201.09 143.491 194.958 160.595C192.264 168.105 188.533 174.762 183.864 180.504L185.485 179.236L182.438 183.113C182.438 183.113 182.45 183.101 182.462 183.088H182.474C188.07 176.822 192.471 169.349 195.543 160.803C201.822 143.296 201.895 123.034 196.104 102.48C196.104 102.467 196.104 102.455 196.104 102.443H196.08Z" fill="#D5AFF6"/>
<path d="M174.452 189.794C169.344 193.853 163.553 197.133 157.092 199.583C140.914 205.728 122.53 205.703 104.218 200.656C103.548 200.68 102.889 200.705 102.219 200.705C111.594 203.484 121.018 204.935 130.161 204.935C139.305 204.935 148.753 203.399 157.299 200.156C163.005 197.986 168.235 195.17 172.916 191.732L172.94 191.708L174.452 189.781H174.44L174.452 189.794Z" fill="#D5AFF6"/>
<path d="M2.94531 124.058C1.93343 123.729 1.20195 122.778 1.20195 121.669C1.20195 120.389 2.18945 119.328 3.43296 119.194C3.43296 119.096 3.44515 118.999 3.46953 118.889C3.46953 118.792 3.49391 118.682 3.50611 118.584C1.87247 118.67 0.5802 120.023 0.5802 121.669C0.5802 123.095 1.5555 124.314 2.88435 124.668C2.88435 124.558 2.89654 124.461 2.90873 124.363C2.90873 124.253 2.92092 124.156 2.93312 124.058H2.94531Z" fill="#D5AFF6"/>
<path d="M4.05469 119.206C5.26163 119.389 6.18817 120.425 6.18817 121.669C6.18817 123.046 5.06657 124.168 3.68896 124.168C3.64019 124.168 3.59143 124.168 3.54266 124.156C3.53047 124.253 3.53047 124.351 3.51828 124.461C3.50609 124.558 3.50609 124.656 3.4939 124.765C3.55485 124.778 3.628 124.778 3.68896 124.778C5.39573 124.778 6.79773 123.376 6.79773 121.669C6.79773 120.12 5.63956 118.828 4.14003 118.609C4.11565 118.706 4.10346 118.804 4.09127 118.914C4.07908 119.011 4.06689 119.109 4.05469 119.206Z" fill="#D5AFF6"/>
<path d="M192.958 39.4875C192.751 39.5485 192.544 39.5729 192.324 39.5729C190.947 39.5729 189.837 38.4513 189.837 37.0736C189.837 36.269 190.215 35.5619 190.813 35.0987C190.776 35.0011 190.727 34.9036 190.679 34.8183C190.618 34.7207 190.581 34.6354 190.52 34.55C189.74 35.123 189.228 36.0374 189.228 37.0736C189.228 38.7804 190.618 40.1824 192.324 40.1824C192.629 40.1824 192.934 40.1336 193.214 40.0483C193.178 39.9508 193.141 39.8533 193.093 39.7679C193.056 39.6704 193.007 39.5729 192.958 39.4875Z" fill="#D5AFF6"/>
<path d="M191.349 34.7817C191.654 34.6598 191.983 34.5866 192.325 34.5866C193.702 34.5866 194.812 35.7082 194.812 37.0736C194.812 38.0124 194.3 38.8292 193.531 39.2559C193.592 39.3534 193.629 39.4387 193.653 39.5363C193.714 39.6338 193.751 39.7191 193.775 39.8167C194.751 39.2924 195.421 38.2562 195.421 37.0736C195.421 35.3669 194.031 33.9771 192.325 33.9771C191.873 33.9771 191.447 34.0746 191.057 34.2453C191.105 34.3306 191.154 34.4159 191.203 34.5135C191.252 34.5988 191.3 34.6963 191.349 34.7817Z" fill="#D5AFF6"/>
<path d="M179.938 183.601L179.109 176.591L178.28 183.601L179.109 184.259L179.938 183.601Z" fill="#D5AFF6"/>
<path d="M178.28 187.611L179.109 194.621L179.938 187.611L179.109 186.965L178.28 187.611Z" fill="#D5AFF6"/>
<path d="M177.098 184.783L170.1 185.612L177.098 186.441L177.756 185.612L177.098 184.783Z" fill="#D5AFF6"/>
<path d="M181.108 186.441L188.118 185.612L181.108 184.783L180.462 185.612L181.108 186.441Z" fill="#D5AFF6"/>
<path d="M180.06 184.649H180.145C181.438 183.332 182.669 181.955 183.839 180.516L179.914 183.588L180.036 184.637L180.06 184.649Z" fill="#D5AFF6"/>
<path d="M177.098 186.441L174.464 189.781C175.732 188.782 176.964 187.721 178.134 186.612V186.575L177.073 186.453L177.098 186.441Z" fill="#D5AFF6"/>
<path d="M180.901 184.746L181.109 184.771L182.425 183.101C181.938 183.661 181.426 184.198 180.914 184.734L180.901 184.746Z" fill="#D5AFF6"/>
<path d="M179.938 187.611L185.485 191.976L181.109 186.441L180.06 186.563L179.938 187.611Z" fill="#D5AFF6"/>
<path d="M178.28 183.601L172.733 179.236L177.098 184.783L178.146 184.649L178.28 183.601Z" fill="#D5AFF6"/>
<path d="M178.244 187.368C176.561 188.916 174.806 190.342 172.953 191.708L172.733 191.988L178.28 187.624L178.256 187.368H178.244Z" fill="#D5AFF6"/>
<path d="M178.244 187.368C179.158 186.514 180.036 185.661 180.901 184.759L180.145 184.673C179.487 185.344 178.841 185.99 178.146 186.612L178.231 187.38L178.244 187.368Z" fill="#D5AFF6"/>
<path d="M5.44458 138.493C5.44458 137.237 4.4327 136.225 3.177 136.225C1.9213 136.225 0.909424 137.237 0.909424 138.493C0.909424 139.748 1.9213 140.76 3.177 140.76C4.4327 140.76 5.44458 139.748 5.44458 138.493Z" fill="#D5AFF6"/>
<path d="M199.566 60.1639C198.31 60.1639 197.299 61.1758 197.299 62.4315C197.299 63.6872 198.31 64.6991 199.566 64.6991C200.822 64.6991 201.834 63.6872 201.834 62.4315C201.834 61.1758 200.822 60.1639 199.566 60.1639Z" fill="#D5AFF6"/>
<path d="M195.726 103.699C192.812 113.671 188.545 123.644 182.949 133.421C164.053 166.435 133.575 190.452 102.463 200.168C103.048 200.339 103.633 200.485 104.218 200.656C154.617 199.144 195.092 156.438 195.726 103.699Z" fill="#D5AFF6"/>
<path d="M20.4764 133.129C39.4582 166.301 70.168 190.354 101.402 199.864C132.673 190.379 163.419 166.313 182.425 133.116C188.204 123.022 192.556 112.708 195.446 102.419C192.544 92.1902 188.192 81.8764 182.425 71.8064C163.431 38.6218 132.709 14.5562 101.451 5.05923C101.792 4.94951 102.121 4.85198 102.463 4.75445C102.134 4.64472 101.804 4.535 101.463 4.42528C101.78 4.32775 102.097 4.2546 102.414 4.15707C102.097 4.15707 101.78 4.13269 101.463 4.13269C101.146 4.13269 100.829 4.15707 100.512 4.15707C100.829 4.2546 101.146 4.32775 101.451 4.42528C101.109 4.535 100.768 4.64472 100.427 4.75445C100.768 4.85198 101.097 4.94951 101.439 5.05923C83.7004 10.4478 66.1205 20.5421 50.7717 34.3305L50.7352 34.367C50.7352 34.367 50.7352 34.367 50.723 34.367L48.2603 37.488L55.2703 38.317L48.2603 39.146L52.6248 44.693L47.0778 40.3286L46.2488 47.3386L45.4198 40.3286L41.3845 43.5105C33.4967 51.9347 26.4258 61.4317 20.4764 71.8064C14.7221 81.852 10.3577 92.178 7.45615 102.504C7.37081 102.151 7.26109 101.809 7.17575 101.456C7.17575 101.785 7.15137 102.102 7.15137 102.419C7.15137 102.784 7.17575 103.15 7.17575 103.516C7.26109 103.187 7.35862 102.845 7.45615 102.516C10.3577 112.745 14.71 123.034 20.4764 133.116V133.129Z" fill="#D5AFF6"/>
<path d="M100.427 200.168C69.3146 190.464 38.8486 166.435 19.9521 133.421C14.3685 123.656 10.1016 113.659 7.18787 103.723C7.84619 156.426 48.2846 199.108 98.659 200.644C99.2563 200.485 99.8537 200.339 100.451 200.156L100.427 200.168Z" fill="#D5AFF6"/>
<path d="M182.949 71.514C188.557 81.2914 192.837 91.3126 195.738 101.248C195.141 48.5578 154.763 5.85177 104.45 4.21814C103.792 4.40101 103.133 4.57169 102.475 4.76675C133.587 14.471 164.065 38.5 182.949 71.514Z" fill="#D5AFF6"/>
<path d="M101.426 200.485C101.183 200.558 100.939 200.632 100.695 200.705C100.951 200.705 101.207 200.729 101.463 200.729C101.719 200.729 101.975 200.717 102.231 200.705C101.975 200.632 101.719 200.558 101.451 200.485C101.451 200.498 101.439 200.498 101.426 200.485Z" fill="#D5AFF6"/>
<path d="M7.17578 101.273C10.0895 91.2516 14.3686 81.2426 19.9522 71.5017C26.182 60.6027 33.6918 50.679 42.055 41.9379L42.1282 41.8526L44.2494 39.1583L37.2395 38.3293L44.2494 37.5003L39.885 31.9532L45.432 36.3177L46.261 29.3077L47.09 36.3177L51.9177 32.514L51.9665 32.4653C66.7545 19.5547 83.4931 10.0212 100.427 4.74233C99.7685 4.54727 99.1102 4.37659 98.464 4.19373C48.1384 5.86393 7.76096 48.5699 7.17578 101.273Z" fill="#D5AFF6"/>
<path d="M101.451 199.876H101.439C101.439 199.876 101.414 199.876 101.402 199.876C101.073 199.973 100.756 200.083 100.427 200.181C100.756 200.303 101.085 200.4 101.414 200.498C101.768 200.388 102.109 200.29 102.463 200.181C102.121 200.083 101.792 199.986 101.451 199.888V199.876Z" fill="#D5AFF6"/>
<path d="M195.458 102.467C195.543 102.809 195.641 103.162 195.738 103.504C195.738 103.15 195.762 102.797 195.762 102.431C195.762 102.065 195.738 101.736 195.738 101.395C195.641 101.736 195.543 102.09 195.445 102.431C195.445 102.431 195.445 102.443 195.445 102.455L195.458 102.467Z" fill="#D5AFF6"/>
<path d="M51.9175 32.5262L51.82 32.5994C50.2352 33.977 48.6869 35.3912 47.1508 36.8541L47.2117 37.3784L47.4555 37.4027C48.5284 36.3665 49.6134 35.3668 50.7228 34.3793L52.6368 31.9532L51.9175 32.514V32.5262Z" fill="#D5AFF6"/>
<path d="M45.3222 39.4753L45.2978 39.2924L44.7248 39.2192C43.8592 40.0726 43.0059 40.9382 42.1525 41.8282L42.1281 41.8526L39.8849 44.6931L41.3966 43.5106H41.4088C42.7011 42.1208 44.0055 40.7797 45.3222 39.4631V39.4753Z" fill="#D5AFF6"/>
<path d="M47.1508 36.8664L47.0898 36.33L46.2608 36.9883L45.4318 36.33L45.3099 37.3784L44.2615 37.5003L44.9198 38.3293L44.2615 39.1583L44.7369 39.2193C45.5416 38.4147 46.3462 37.6344 47.163 36.8542L47.1508 36.8664Z" fill="#D5AFF6"/>
<path d="M47.4556 37.4149C46.7363 38.0976 46.0292 38.7803 45.3221 39.4752L45.4319 40.353L46.2609 39.6947L47.0899 40.353L47.2118 39.3046L48.2602 39.1826L47.6019 38.3536L48.2602 37.5246L47.4556 37.4271V37.4149Z" fill="#D5AFF6"/>
</g>
<path d="M60.5117 79.4638H51.6683V78.9494L52.054 78.9637C52.8541 78.9637 53.2541 78.697 53.2541 78.1637L53.197 77.7922L48.5252 61.9769L41.8962 79.0923L35.1815 62.0055L30.5955 77.7922L30.5383 78.078C30.5383 78.3446 30.6431 78.5399 30.8526 78.6637C31.0717 78.7875 31.3098 78.8685 31.567 78.9066C31.8241 78.9352 32.0146 78.9494 32.1384 78.9494H32.267V79.4638H27.381V78.9494H27.681C28.9192 78.9494 29.7002 78.597 30.024 77.8922L34.8815 61.2197L34.6529 60.634C34.491 60.253 34.2291 59.9768 33.8671 59.8053C33.5052 59.6339 33.148 59.5291 32.7956 59.491C32.4527 59.4529 32.248 59.4339 32.1813 59.4339H32.1527V58.9481H38.9817L44.0964 72.0347L48.3109 61.1911L47.6395 58.9481H54.6542V59.4339H54.5685C54.4637 59.4339 54.278 59.4529 54.0113 59.491C53.7446 59.5196 53.497 59.6006 53.2684 59.7339C53.0398 59.8577 52.9255 60.0577 52.9255 60.3339C52.9255 60.3816 54.6209 66.2248 58.0116 77.8637C58.1449 78.1875 58.3687 78.4304 58.683 78.5923C59.1592 78.8304 59.7212 78.9494 60.3689 78.9494H60.5117V79.4638ZM68.7191 79.4066C67.2904 79.4066 66.0285 79.0828 64.9331 78.4351C63.8474 77.7875 62.9997 76.916 62.3901 75.8207C61.7806 74.7158 61.4758 73.4824 61.4758 72.1204C61.4758 70.7489 61.7901 69.5155 62.4187 68.4202C63.0473 67.3154 63.8997 66.4391 64.976 65.7914C66.0523 65.1438 67.2523 64.82 68.5762 64.82C70.1859 64.82 71.5955 65.2628 72.8051 66.1486C74.0242 67.0344 74.8719 68.2154 75.3481 69.6917L75.391 69.8346C75.4291 69.9489 75.4576 70.0632 75.4767 70.1774L66.0904 72.8205C66.2332 74.0682 66.6142 75.0635 67.2333 75.8064C68.2619 77.0541 69.5096 77.6779 70.9764 77.6779C71.9003 77.6779 72.7479 77.4541 73.5194 77.0065C74.2909 76.5588 74.9005 76.0254 75.3481 75.4064V75.7492C75.2148 76.1016 74.9862 76.4874 74.6624 76.9065C74.348 77.316 73.9194 77.7113 73.3766 78.0922C72.8432 78.4732 72.1908 78.7875 71.4193 79.0352C70.6478 79.2828 69.7477 79.4066 68.7191 79.4066ZM66.0475 72.3062L71.0335 70.9061C70.9764 69.8584 70.8478 68.9202 70.6478 68.0916C70.4478 67.2534 70.1763 66.5867 69.8335 66.0915C69.4906 65.5867 69.0715 65.3343 68.5762 65.3343C68.1857 65.3343 67.8286 65.5248 67.5047 65.9057C67.1904 66.2867 66.919 66.782 66.6904 67.3915C66.4713 67.9916 66.2999 68.6488 66.1761 69.3631C66.0618 70.0679 66.0046 70.7584 66.0046 71.4347C66.0046 71.7299 66.0189 72.0204 66.0475 72.3062ZM89.3056 86.7214C88.9627 86.7214 88.6198 86.6642 88.277 86.5499C87.8293 86.4071 87.4388 86.1452 87.1054 85.7642C86.7816 85.3927 86.6197 84.9784 86.6197 84.5212C86.6197 84.2165 86.7292 83.9117 86.9483 83.6069C87.1769 83.3307 87.4245 83.1354 87.6912 83.0211C87.9579 82.9068 88.2008 82.8497 88.4198 82.8497C88.5722 82.8497 88.696 82.8687 88.7913 82.9068C88.896 82.9545 88.9532 83.0116 88.9627 83.0783C88.9913 83.4116 89.0341 83.7212 89.0913 84.0069C89.2342 84.626 89.5151 85.0641 89.9342 85.3213C90.3533 85.588 90.7819 85.7213 91.22 85.7213C91.7915 85.7213 92.2629 85.5356 92.6344 85.1641C92.9106 84.8879 93.0677 84.5308 93.1058 84.0926C93.1058 83.1497 92.501 82.5592 91.2914 82.3211C90.6819 82.2068 89.958 82.1116 89.1199 82.0354C88.1674 81.9592 87.134 81.8258 86.0197 81.6353C85.6196 81.5877 85.1672 81.4544 84.6624 81.2353C84.1672 81.0258 83.7862 80.6162 83.5195 80.0067C83.3862 79.6447 83.3195 79.2971 83.3195 78.9637C83.3195 77.7732 84.1434 76.7017 85.7911 75.7492C85.0863 75.1873 84.5291 74.492 84.1195 73.6634C83.71 72.8252 83.5052 71.9157 83.5052 70.9346C83.5052 69.7917 83.7719 68.7631 84.3053 67.8487C84.8482 66.9249 85.5768 66.1915 86.4911 65.6486C87.415 65.1057 88.4436 64.8342 89.577 64.8342C90.1104 64.8342 90.7104 64.9247 91.3772 65.1057C91.3772 65.0295 91.3867 64.9533 91.4057 64.8771C91.4819 64.3533 91.6105 63.8342 91.7915 63.3199C92.1153 62.4817 92.6725 61.9198 93.463 61.634C93.7011 61.5578 93.944 61.5197 94.1916 61.5197C94.7917 61.5197 95.2441 61.7674 95.5489 62.2626C95.7393 62.6246 95.8346 62.9579 95.8346 63.2627C95.8346 63.577 95.7727 63.8342 95.6489 64.0342C95.5346 64.2342 95.4298 64.3342 95.3346 64.3342H95.306C95.1536 64.2866 94.9917 64.2437 94.8202 64.2056C94.6583 64.158 94.5155 64.1294 94.3916 64.1199C94.2773 64.1104 94.1631 64.1056 94.0488 64.1056C93.4678 64.1056 93.0201 64.2247 92.7058 64.4628C92.3915 64.7009 92.182 65.0009 92.0772 65.3628C93.1535 65.8486 94.0154 66.5867 94.6631 67.5773C95.3107 68.5583 95.6346 69.6774 95.6346 70.9346C95.6346 72.0776 95.3631 73.111 94.8202 74.0348C94.2869 74.9492 93.563 75.6778 92.6487 76.2207C91.7343 76.7636 90.7104 77.035 89.577 77.035C88.3198 77.035 87.2007 76.7064 86.2197 76.0493C86.0197 76.1826 85.9149 76.3207 85.9054 76.4636C85.9054 76.7207 86.1721 76.9303 86.7054 77.0922C87.2483 77.2541 87.9007 77.3874 88.6627 77.4922C89.4342 77.5875 90.1866 77.6732 90.92 77.7494C91.6534 77.816 92.2391 77.8827 92.6772 77.9494C93.4201 78.0732 94.0678 78.3685 94.6202 78.8352C95.1822 79.3018 95.5536 79.8971 95.7346 80.621C95.8013 80.9162 95.8346 81.2115 95.8346 81.5068C95.8346 82.402 95.525 83.2545 94.906 84.0641C94.2869 84.8736 93.3487 85.5594 92.0915 86.1213C91.139 86.5214 90.2104 86.7214 89.3056 86.7214ZM89.577 76.4921C90.3771 76.4921 90.9438 75.7778 91.2771 74.3491C91.4962 73.3586 91.6057 72.2204 91.6057 70.9346C91.6057 70.4584 91.5629 69.7917 91.4772 68.9345C91.401 68.0678 91.2629 67.3392 91.0628 66.7486C90.7104 65.8438 90.2152 65.3914 89.577 65.3914C88.8151 65.3914 88.2627 66.1057 87.9198 67.5344C87.6626 68.5821 87.534 69.7155 87.534 70.9346C87.534 72.1538 87.6626 73.2919 87.9198 74.3491C88.2627 75.7778 88.8151 76.4921 89.577 76.4921ZM111.114 79.4209C110.666 79.4209 110.195 79.359 109.699 79.2352C109.271 79.1304 108.88 78.878 108.528 78.478C108.233 78.1065 108.085 77.5684 108.085 76.8636V75.8921C107.809 76.616 107.399 77.3065 106.856 77.9637C106.056 78.9352 105.104 79.4209 103.999 79.4209C102.818 79.4209 101.87 79.2066 101.156 78.778C100.451 78.3494 99.9084 77.7827 99.5274 77.0779C99.1559 76.3731 98.9035 75.5921 98.7702 74.7349C98.6464 73.8682 98.5845 73.0014 98.5845 72.1347V67.9344C98.5369 67.6297 98.3892 67.4058 98.1416 67.263C97.9035 67.1106 97.6368 67.0153 97.3415 66.9772C97.0463 66.9391 96.8129 66.9201 96.6415 66.9201H96.4129V66.3915H98.5845C99.3274 66.3915 99.9846 66.3153 100.556 66.1629C101.137 66.001 101.628 65.82 102.028 65.62C102.428 65.4105 102.728 65.2247 102.928 65.0628L103.242 64.82V72.1776C103.242 74.0158 103.39 75.4206 103.685 76.3921C103.98 77.3636 104.532 77.8494 105.342 77.8494C105.79 77.8494 106.204 77.6636 106.585 77.2922C106.966 76.9112 107.285 76.4255 107.542 75.835C107.799 75.2444 107.98 74.6111 108.085 73.9348V67.9344C108.018 67.6297 107.861 67.4058 107.614 67.263C107.366 67.1106 107.095 67.0153 106.799 66.9772C106.504 66.9391 106.271 66.9201 106.099 66.9201H105.871V66.3915H108.085C108.828 66.3915 109.485 66.3153 110.057 66.1629C110.628 66.001 111.109 65.82 111.5 65.62C111.9 65.4105 112.2 65.2247 112.4 65.0628L112.7 64.82V77.2779C112.738 77.5446 112.838 77.7637 113 77.9351C113.162 78.1065 113.343 78.2399 113.543 78.3351C113.752 78.4208 113.933 78.478 114.085 78.5066L114.314 78.5494L113.885 78.778C113.609 78.9209 113.228 79.0637 112.743 79.2066C112.257 79.3495 111.714 79.4209 111.114 79.4209ZM121.05 79.4209C120.059 79.4209 119.35 79.3828 118.921 79.3066C117.197 79.0875 116.126 78.4018 115.707 77.2493C115.631 77.0112 115.592 76.7731 115.592 76.535C115.592 75.9254 115.84 75.4683 116.335 75.1635C116.697 74.9825 117.031 74.892 117.335 74.892C117.65 74.892 117.907 74.9539 118.107 75.0778C118.316 75.1921 118.421 75.2921 118.421 75.3778V75.4064C118.278 75.8254 118.197 76.2064 118.178 76.5493C118.178 77.4255 118.574 78.0399 119.364 78.3923C119.85 78.6209 120.359 78.7351 120.893 78.7351C121.34 78.7351 121.788 78.6732 122.236 78.5494C122.683 78.4161 123.05 78.2256 123.336 77.978C123.774 77.5684 123.993 77.1065 123.993 76.5921L123.979 76.435C123.903 75.9302 123.522 75.4683 122.836 75.0492C122.15 74.6206 121.331 74.192 120.378 73.7634C118.636 72.9919 117.416 72.2966 116.721 71.6775C115.969 71.0108 115.592 70.1489 115.592 69.0917C115.592 68.0154 115.997 67.1153 116.807 66.3915C117.616 65.6676 118.707 65.1914 120.078 64.9628L120.107 64.9485C120.707 64.8533 121.293 64.8057 121.864 64.8057C123.636 64.8057 124.903 65.139 125.665 65.8057C126.036 66.1105 126.303 66.4915 126.465 66.9487C126.541 67.1868 126.579 67.4249 126.579 67.663C126.579 68.2726 126.331 68.7297 125.836 69.0345C125.474 69.225 125.141 69.3202 124.836 69.3202C124.522 69.3202 124.26 69.2631 124.05 69.1488C123.85 69.025 123.75 68.9155 123.75 68.8202V68.7916C123.798 68.6392 123.841 68.4821 123.879 68.3202C123.926 68.1487 123.955 68.0059 123.964 67.8916C123.974 67.7773 123.983 67.6678 123.993 67.563C123.993 66.1724 123.231 65.4771 121.707 65.4771C121.107 65.4867 120.607 65.6629 120.207 66.0057C119.855 66.301 119.678 66.6582 119.678 67.0772C119.678 67.6963 120.093 68.263 120.921 68.7774C121.483 69.1202 122.155 69.4822 122.936 69.8631C124.06 70.3965 125.203 71.0489 126.365 71.8204C126.688 72.0395 126.993 72.2871 127.279 72.5633C127.927 73.211 128.25 73.9872 128.25 74.892C128.25 76.1683 127.688 77.2398 126.565 78.1065C125.593 78.859 124.16 79.2828 122.264 79.378C121.864 79.4066 121.459 79.4209 121.05 79.4209ZM135.843 79.4638C134.043 79.4638 132.686 78.8161 131.772 77.5208C131.277 76.816 131.029 75.8873 131.029 74.7349V74.492H131.015V65.3628H128.829V64.8485C129.876 64.8485 130.781 64.6628 131.543 64.2913C132.305 63.9199 132.948 63.4627 133.472 62.9198C134.005 62.3769 134.429 61.834 134.743 61.2912C135.067 60.7483 135.301 60.2911 135.443 59.9196L135.643 59.3625V64.8485H139.901V65.3628H135.643V72.849C135.643 73.43 135.658 74.0063 135.686 74.5777C135.715 75.1397 135.801 75.6492 135.943 76.1064C136.086 76.5636 136.324 76.935 136.658 77.2208C137.067 77.516 137.501 77.6636 137.958 77.6636C138.472 77.6636 138.958 77.5208 139.415 77.235C139.882 76.9398 140.215 76.5921 140.415 76.1921V76.5207C140.377 76.7779 140.196 77.1208 139.872 77.5494C139.558 77.9684 139.106 78.3637 138.515 78.7351C137.934 79.1066 137.225 79.3399 136.386 79.4352C136.205 79.4542 136.024 79.4638 135.843 79.4638ZM152.48 79.4352C151.318 79.4352 150.466 79.1447 149.923 78.5637C149.104 79.1447 148.17 79.4352 147.123 79.4352C146.456 79.4352 145.827 79.3399 145.237 79.1495C144.656 78.9494 144.165 78.7066 143.765 78.4208C143.184 78.0018 142.732 77.5589 142.408 77.0922C142.094 76.616 141.875 76.154 141.751 75.7064C141.636 75.2587 141.579 74.873 141.579 74.5492C141.579 74.2063 141.636 73.7824 141.751 73.2776C141.865 72.7729 142.084 72.2681 142.408 71.7633C142.741 71.2585 143.222 70.8203 143.851 70.4489C144.851 69.906 145.937 69.6346 147.108 69.6346C147.403 69.6346 147.694 69.6536 147.98 69.6917C148.675 69.7965 149.146 69.9393 149.394 70.1203C149.337 68.2249 149.018 66.8677 148.437 66.0486C148.094 65.6867 147.684 65.5057 147.208 65.5057C146.818 65.5152 146.48 65.601 146.194 65.7629C145.622 66.0962 145.337 66.6915 145.337 67.5487C145.337 67.6725 145.341 67.7963 145.351 67.9202C145.36 68.0344 145.384 68.1773 145.422 68.3488C145.47 68.5107 145.518 68.6678 145.565 68.8202V68.8488C145.565 68.944 145.465 69.0536 145.265 69.1774C145.065 69.2917 144.808 69.3488 144.494 69.3488C144.189 69.3488 143.856 69.2536 143.494 69.0631C142.998 68.7583 142.751 68.3059 142.751 67.7059C142.751 67.4677 142.789 67.2296 142.865 66.9915C143.151 66.1915 143.713 65.6295 144.551 65.3057C145.418 64.9914 146.28 64.8342 147.137 64.8342L147.508 64.8485C148.746 64.9057 149.851 65.2819 150.823 65.9772C151.804 66.6629 152.58 67.5582 153.151 68.6631C153.732 69.7679 154.023 70.9442 154.023 72.1919V77.1493C154.023 77.397 154.075 77.6065 154.18 77.7779C154.294 77.9494 154.433 78.0875 154.594 78.1923C154.756 78.297 154.913 78.378 155.066 78.4351C155.228 78.4923 155.361 78.5304 155.466 78.5494L155.637 78.578L155.223 78.7923C154.947 78.9352 154.571 79.078 154.094 79.2209C153.618 79.3638 153.08 79.4352 152.48 79.4352ZM148.323 78.578C148.78 78.578 149.223 78.4304 149.651 78.1351C149.489 77.8208 149.408 77.4065 149.408 76.8922V70.8346L149.308 70.7775C149.204 70.6918 149.075 70.6108 148.923 70.5346C148.77 70.4584 148.58 70.4203 148.351 70.4203C147.732 70.4203 147.256 70.7203 146.922 71.3204C146.665 71.7871 146.48 72.3204 146.365 72.9205C146.261 73.5205 146.208 74.0491 146.208 74.5063C146.208 75.0016 146.237 75.5206 146.294 76.0635C146.361 76.6064 146.503 77.0969 146.722 77.5351C146.951 77.9637 147.303 78.278 147.78 78.478C147.961 78.5447 148.142 78.578 148.323 78.578ZM174.703 79.4066H165.673V78.8923H165.859C166.04 78.8923 166.288 78.8732 166.602 78.8352C166.926 78.7875 167.212 78.6828 167.459 78.5208C167.716 78.3494 167.855 78.0875 167.874 77.7351V72.0633C167.874 70.2251 167.726 68.825 167.431 67.863C167.135 66.8915 166.588 66.4058 165.788 66.4058C165.331 66.4058 164.911 66.5963 164.53 66.9772C164.159 67.3487 163.845 67.8297 163.588 68.4202C163.34 69.0012 163.164 69.6298 163.059 70.306V77.7494C163.078 78.0922 163.211 78.3494 163.459 78.5208C163.707 78.6828 163.988 78.7875 164.302 78.8352C164.616 78.8732 164.864 78.8923 165.045 78.8923H165.259V79.4066H156.216V78.8923H156.401C156.582 78.8923 156.83 78.8732 157.144 78.8352C157.459 78.7875 157.74 78.6828 157.987 78.5208C158.244 78.3589 158.392 78.1065 158.43 77.7637V67.9487C158.373 67.6344 158.216 67.4011 157.959 67.2487C157.701 67.0963 157.421 67.001 157.116 66.9629C156.82 66.9249 156.587 66.9058 156.416 66.9058H156.244V66.4058H158.43C159.173 66.4058 159.83 66.3248 160.402 66.1629C160.973 66.001 161.454 65.82 161.845 65.62C162.245 65.4105 162.549 65.2247 162.759 65.0628L163.059 64.82V68.3345C163.316 67.6297 163.721 66.9439 164.273 66.2772C165.073 65.3152 166.026 64.8342 167.131 64.8342C168.302 64.8342 169.24 65.0485 169.945 65.4771C170.659 65.9057 171.202 66.4724 171.574 67.1772C171.955 67.8725 172.207 68.6535 172.331 69.5203C172.455 70.3775 172.517 71.2347 172.517 72.0919V77.9065C172.583 78.2018 172.741 78.4208 172.988 78.5637C173.236 78.7066 173.503 78.7971 173.788 78.8352C174.083 78.8732 174.317 78.8923 174.488 78.8923H174.703V79.4066ZM39.3355 113.407H30.3063V112.892H30.492C31.6636 112.892 32.3303 112.568 32.4922 111.921V94.1768C32.435 93.8625 32.2779 93.6291 32.0207 93.4767C31.6302 93.2482 31.1159 93.1339 30.4778 93.1339H30.3063V92.6195H32.4922C33.2351 92.6195 33.8923 92.5386 34.4637 92.3767C35.0352 92.2148 35.5162 92.0338 35.9067 91.8338C36.3067 91.6338 36.6115 91.4528 36.821 91.2909L37.121 91.048C37.121 104.782 37.1258 111.673 37.1353 111.721C37.1353 112.083 37.2639 112.345 37.5211 112.507C37.9211 112.764 38.4545 112.892 39.1212 112.892H39.3355V113.407ZM47.0143 113.407C45.6904 113.407 44.4903 113.083 43.414 112.435C42.3378 111.787 41.4853 110.916 40.8567 109.821C40.2281 108.716 39.9138 107.482 39.9138 106.12C39.9138 104.758 40.2281 103.525 40.8567 102.42C41.4853 101.315 42.3378 100.439 43.414 99.7914C44.4903 99.1438 45.6904 98.82 47.0143 98.82C48.3477 98.82 49.5478 99.1438 50.6145 99.7914C51.6908 100.439 52.5432 101.315 53.1718 102.42C53.8099 103.525 54.129 104.758 54.129 106.12C54.129 107.482 53.8099 108.716 53.1718 109.821C52.5432 110.916 51.6908 111.787 50.6145 112.435C49.5478 113.083 48.3477 113.407 47.0143 113.407ZM47.0143 112.892C47.4143 112.892 47.7667 112.683 48.0715 112.264C48.3858 111.835 48.6477 111.283 48.8572 110.606C49.0763 109.921 49.2382 109.183 49.343 108.392C49.4573 107.601 49.5144 106.844 49.5144 106.12C49.5144 104.901 49.4192 103.777 49.2287 102.749C49.0477 101.72 48.7715 100.896 48.4001 100.277C48.0286 99.6486 47.5667 99.3343 47.0143 99.3343C46.4333 99.3343 45.9571 99.6486 45.5856 100.277C45.2237 100.896 44.957 101.725 44.7855 102.763C44.6141 103.792 44.5284 104.911 44.5284 106.12C44.5284 106.882 44.576 107.663 44.6713 108.463C44.776 109.263 44.9332 109.997 45.1427 110.664C45.3523 111.33 45.6094 111.868 45.9142 112.278C46.2285 112.688 46.5952 112.892 47.0143 112.892ZM61.2363 113.421C60.2458 113.421 59.5362 113.383 59.1076 113.307C57.3837 113.088 56.3122 112.402 55.8931 111.249C55.8169 111.011 55.7788 110.773 55.7788 110.535C55.7788 109.925 56.0265 109.468 56.5217 109.163C56.8837 108.983 57.217 108.892 57.5218 108.892C57.8361 108.892 58.0933 108.954 58.2933 109.078C58.5028 109.192 58.6076 109.292 58.6076 109.378V109.406C58.4647 109.825 58.3838 110.206 58.3647 110.549C58.3647 111.426 58.76 112.04 59.5505 112.392C60.0363 112.621 60.5458 112.735 61.0792 112.735C61.5268 112.735 61.9745 112.673 62.4221 112.549C62.8698 112.416 63.2365 112.226 63.5222 111.978C63.9603 111.568 64.1794 111.106 64.1794 110.592L64.1651 110.435C64.0889 109.93 63.7079 109.468 63.0222 109.049C62.3364 108.621 61.5173 108.192 60.5649 107.763C58.8219 106.992 57.6028 106.297 56.9075 105.678C56.1551 105.011 55.7788 104.149 55.7788 103.092C55.7788 102.015 56.1836 101.115 56.9932 100.391C57.8028 99.6676 58.8933 99.1914 60.2648 98.9628L60.2934 98.9485C60.8935 98.8533 61.4792 98.8057 62.0507 98.8057C63.8222 98.8057 65.089 99.139 65.8509 99.8057C66.2224 100.111 66.4891 100.491 66.651 100.949C66.7272 101.187 66.7653 101.425 66.7653 101.663C66.7653 102.273 66.5176 102.73 66.0224 103.035C65.6604 103.225 65.3271 103.32 65.0223 103.32C64.708 103.32 64.4461 103.263 64.2365 103.149C64.0365 103.025 63.9365 102.915 63.9365 102.82V102.792C63.9841 102.639 64.027 102.482 64.0651 102.32C64.1127 102.149 64.1413 102.006 64.1508 101.892C64.1603 101.777 64.1699 101.668 64.1794 101.563C64.1794 100.172 63.4174 99.4771 61.8935 99.4771C61.2935 99.4867 60.7935 99.6629 60.3934 100.006C60.041 100.301 59.8648 100.658 59.8648 101.077C59.8648 101.696 60.2791 102.263 61.1078 102.777C61.6697 103.12 62.3412 103.482 63.1222 103.863C64.2461 104.397 65.389 105.049 66.551 105.82C66.8748 106.039 67.1796 106.287 67.4653 106.563C68.113 107.211 68.4368 107.987 68.4368 108.892C68.4368 110.168 67.8749 111.24 66.751 112.107C65.7795 112.859 64.3461 113.283 62.4507 113.378C62.0507 113.407 61.6459 113.421 61.2363 113.421ZM85.2802 121.25H76.2796V120.736H76.451C77.6702 120.736 78.3416 120.388 78.4655 119.693V102.006C78.4083 101.692 78.2512 101.458 77.994 101.306C77.6035 101.077 77.0892 100.963 76.451 100.963H76.2796V100.463H78.4655C79.2084 100.463 79.8655 100.382 80.437 100.22C81.0085 100.058 81.4895 99.8772 81.88 99.6772C82.28 99.4676 82.5848 99.2819 82.7943 99.12L83.0943 98.8771V99.0771C83.6467 98.9247 84.2135 98.8485 84.7944 98.8485C86.1279 98.8485 87.3279 99.1771 88.3947 99.8343C89.4709 100.482 90.3234 101.363 90.952 102.477C91.5806 103.582 91.8949 104.816 91.8949 106.178C91.8949 107.521 91.5806 108.74 90.952 109.835C90.3329 110.93 89.4947 111.807 88.4375 112.464C87.3898 113.111 86.2326 113.435 84.9659 113.435C84.0896 113.426 83.4658 113.192 83.0943 112.735V119.693C83.1515 120.007 83.3086 120.24 83.5658 120.393C83.823 120.545 84.0992 120.64 84.3944 120.679C84.6992 120.717 84.9373 120.736 85.1087 120.736H85.2802V121.25ZM84.623 112.964L84.7944 112.949C85.3564 112.854 85.8183 112.464 86.1802 111.778C86.5517 111.092 86.8279 110.245 87.0089 109.235C87.1898 108.216 87.2803 107.197 87.2803 106.178C87.2803 104.958 87.1946 103.835 87.0232 102.806C86.8517 101.777 86.585 100.953 86.2231 100.334C85.8612 99.7057 85.385 99.3914 84.7944 99.3914C84.3087 99.3914 83.8991 99.6295 83.5658 100.106C83.3848 100.353 83.2277 100.644 83.0943 100.977V112.007C83.2181 112.245 83.4182 112.464 83.6944 112.664C83.9801 112.864 84.2896 112.964 84.623 112.964ZM104.388 113.435C103.226 113.435 102.374 113.145 101.831 112.564C101.012 113.145 100.078 113.435 99.0308 113.435C98.3641 113.435 97.7355 113.34 97.145 113.149C96.564 112.949 96.0735 112.707 95.6734 112.421C95.0924 112.002 94.64 111.559 94.3162 111.092C94.0019 110.616 93.7828 110.154 93.659 109.706C93.5447 109.259 93.4876 108.873 93.4876 108.549C93.4876 108.206 93.5447 107.782 93.659 107.278C93.7733 106.773 93.9924 106.268 94.3162 105.763C94.6496 105.258 95.1305 104.82 95.7592 104.449C96.7592 103.906 97.845 103.635 99.0165 103.635C99.3118 103.635 99.6023 103.654 99.888 103.692C100.583 103.796 101.055 103.939 101.302 104.12C101.245 102.225 100.926 100.868 100.345 100.049C100.002 99.6867 99.5927 99.5057 99.1165 99.5057C98.726 99.5152 98.3879 99.601 98.1022 99.7629C97.5307 100.096 97.245 100.692 97.245 101.549C97.245 101.673 97.2497 101.796 97.2593 101.92C97.2688 102.034 97.2926 102.177 97.3307 102.349C97.3783 102.511 97.4259 102.668 97.4736 102.82V102.849C97.4736 102.944 97.3735 103.054 97.1735 103.177C96.9735 103.292 96.7164 103.349 96.4021 103.349C96.0973 103.349 95.7639 103.254 95.402 103.063C94.9067 102.758 94.6591 102.306 94.6591 101.706C94.6591 101.468 94.6972 101.23 94.7734 100.992C95.0591 100.191 95.6211 99.6295 96.4592 99.3057C97.3259 98.9914 98.1879 98.8342 99.0451 98.8342L99.4165 98.8485C100.655 98.9057 101.76 99.2819 102.731 99.9772C103.712 100.663 104.488 101.558 105.06 102.663C105.641 103.768 105.931 104.944 105.931 106.192V111.149C105.931 111.397 105.984 111.606 106.088 111.778C106.203 111.949 106.341 112.087 106.503 112.192C106.665 112.297 106.822 112.378 106.974 112.435C107.136 112.492 107.269 112.53 107.374 112.549L107.546 112.578L107.131 112.792C106.855 112.935 106.479 113.078 106.003 113.221C105.526 113.364 104.988 113.435 104.388 113.435ZM100.231 112.578C100.688 112.578 101.131 112.43 101.56 112.135C101.398 111.821 101.317 111.406 101.317 110.892V104.835L101.217 104.777C101.112 104.692 100.983 104.611 100.831 104.535C100.679 104.458 100.488 104.42 100.259 104.42C99.6404 104.42 99.1641 104.72 98.8308 105.32C98.5736 105.787 98.3879 106.32 98.2736 106.92C98.1688 107.521 98.1165 108.049 98.1165 108.506C98.1165 109.002 98.145 109.521 98.2022 110.064C98.2688 110.606 98.4117 111.097 98.6308 111.535C98.8594 111.964 99.2118 112.278 99.688 112.478C99.8689 112.545 100.05 112.578 100.231 112.578ZM126.611 113.407H117.582V112.892H117.767C117.948 112.892 118.196 112.873 118.51 112.835C118.834 112.788 119.12 112.683 119.368 112.521C119.625 112.349 119.763 112.087 119.782 111.735V106.063C119.782 104.225 119.634 102.825 119.339 101.863C119.044 100.892 118.496 100.406 117.696 100.406C117.239 100.406 116.82 100.596 116.439 100.977C116.067 101.349 115.753 101.83 115.496 102.42C115.248 103.001 115.072 103.63 114.967 104.306V111.749C114.986 112.092 115.12 112.349 115.367 112.521C115.615 112.683 115.896 112.788 116.21 112.835C116.525 112.873 116.772 112.892 116.953 112.892H117.167V113.407H108.124V112.892H108.31C108.491 112.892 108.738 112.873 109.053 112.835C109.367 112.788 109.648 112.683 109.896 112.521C110.153 112.359 110.3 112.107 110.338 111.764V101.949C110.281 101.634 110.124 101.401 109.867 101.249C109.61 101.096 109.329 101.001 109.024 100.963C108.729 100.925 108.495 100.906 108.324 100.906H108.153V100.406H110.338C111.081 100.406 111.738 100.325 112.31 100.163C112.881 100.001 113.362 99.82 113.753 99.62C114.153 99.4105 114.458 99.2247 114.667 99.0628L114.967 98.82V102.334C115.224 101.63 115.629 100.944 116.182 100.277C116.982 99.3152 117.934 98.8342 119.039 98.8342C120.21 98.8342 121.149 99.0485 121.853 99.4771C122.568 99.9057 123.111 100.472 123.482 101.177C123.863 101.873 124.115 102.654 124.239 103.52C124.363 104.377 124.425 105.235 124.425 106.092V111.907C124.492 112.202 124.649 112.421 124.896 112.564C125.144 112.707 125.411 112.797 125.697 112.835C125.992 112.873 126.225 112.892 126.397 112.892H126.611V113.407ZM142.805 113.435H135.99V112.707C135.628 113.164 135.004 113.397 134.118 113.407C132.851 113.407 131.689 113.083 130.632 112.435C129.585 111.778 128.746 110.902 128.118 109.806C127.499 108.711 127.189 107.492 127.189 106.149C127.189 104.787 127.504 103.554 128.132 102.449C128.761 101.334 129.613 100.453 130.689 99.8057C131.766 99.1485 132.966 98.82 134.29 98.82C134.89 98.82 135.456 98.8961 135.99 99.0485V94.2054C135.942 93.8911 135.79 93.6577 135.533 93.5053C135.275 93.3529 134.994 93.2577 134.69 93.2196C134.394 93.1815 134.161 93.1624 133.99 93.1624H133.818V92.6481H135.99C136.733 92.6481 137.39 92.5672 137.961 92.4052C138.542 92.2433 139.028 92.0624 139.419 91.8624C139.809 91.6623 140.109 91.4814 140.319 91.3195L140.619 91.0766V111.892C140.676 112.207 140.833 112.44 141.09 112.592C141.347 112.745 141.623 112.84 141.919 112.878C142.224 112.916 142.462 112.935 142.633 112.935H142.805V113.435ZM134.461 112.935C134.794 112.935 135.099 112.835 135.375 112.635C135.661 112.435 135.866 112.216 135.99 111.978V100.949C135.866 100.615 135.709 100.325 135.518 100.077C135.185 99.601 134.775 99.3628 134.29 99.3628C133.709 99.3628 133.232 99.6772 132.861 100.306C132.499 100.925 132.232 101.749 132.061 102.777C131.89 103.806 131.804 104.93 131.804 106.149C131.804 107.168 131.894 108.187 132.075 109.206C132.256 110.216 132.532 111.064 132.904 111.749C133.304 112.492 133.823 112.888 134.461 112.935ZM154.412 113.435C153.25 113.435 152.398 113.145 151.855 112.564C151.036 113.145 150.102 113.435 149.055 113.435C148.388 113.435 147.759 113.34 147.169 113.149C146.588 112.949 146.097 112.707 145.697 112.421C145.116 112.002 144.664 111.559 144.34 111.092C144.026 110.616 143.807 110.154 143.683 109.706C143.569 109.259 143.511 108.873 143.511 108.549C143.511 108.206 143.569 107.782 143.683 107.278C143.797 106.773 144.016 106.268 144.34 105.763C144.673 105.258 145.154 104.82 145.783 104.449C146.783 103.906 147.869 103.635 149.04 103.635C149.336 103.635 149.626 103.654 149.912 103.692C150.607 103.796 151.079 103.939 151.326 104.12C151.269 102.225 150.95 100.868 150.369 100.049C150.026 99.6867 149.617 99.5057 149.14 99.5057C148.75 99.5152 148.412 99.601 148.126 99.7629C147.555 100.096 147.269 100.692 147.269 101.549C147.269 101.673 147.274 101.796 147.283 101.92C147.293 102.034 147.316 102.177 147.355 102.349C147.402 102.511 147.45 102.668 147.497 102.82V102.849C147.497 102.944 147.397 103.054 147.197 103.177C146.997 103.292 146.74 103.349 146.426 103.349C146.121 103.349 145.788 103.254 145.426 103.063C144.931 102.758 144.683 102.306 144.683 101.706C144.683 101.468 144.721 101.23 144.797 100.992C145.083 100.191 145.645 99.6295 146.483 99.3057C147.35 98.9914 148.212 98.8342 149.069 98.8342L149.44 98.8485C150.679 98.9057 151.783 99.2819 152.755 99.9772C153.736 100.663 154.512 101.558 155.084 102.663C155.665 103.768 155.955 104.944 155.955 106.192V111.149C155.955 111.397 156.007 111.606 156.112 111.778C156.227 111.949 156.365 112.087 156.527 112.192C156.688 112.297 156.846 112.378 156.998 112.435C157.16 112.492 157.293 112.53 157.398 112.549L157.569 112.578L157.155 112.792C156.879 112.935 156.503 113.078 156.027 113.221C155.55 113.364 155.012 113.435 154.412 113.435ZM150.255 112.578C150.712 112.578 151.155 112.43 151.583 112.135C151.421 111.821 151.34 111.406 151.34 110.892V104.835L151.24 104.777C151.136 104.692 151.007 104.611 150.855 104.535C150.702 104.458 150.512 104.42 150.283 104.42C149.664 104.42 149.188 104.72 148.855 105.32C148.597 105.787 148.412 106.32 148.297 106.92C148.193 107.521 148.14 108.049 148.14 108.506C148.14 109.002 148.169 109.521 148.226 110.064C148.293 110.606 148.436 111.097 148.655 111.535C148.883 111.964 149.236 112.278 149.712 112.478C149.893 112.545 150.074 112.578 150.255 112.578ZM164.577 113.421C163.586 113.421 162.877 113.383 162.448 113.307C160.724 113.088 159.653 112.402 159.234 111.249C159.157 111.011 159.119 110.773 159.119 110.535C159.119 109.925 159.367 109.468 159.862 109.163C160.224 108.983 160.557 108.892 160.862 108.892C161.177 108.892 161.434 108.954 161.634 109.078C161.843 109.192 161.948 109.292 161.948 109.378V109.406C161.805 109.825 161.724 110.206 161.705 110.549C161.705 111.426 162.1 112.04 162.891 112.392C163.377 112.621 163.886 112.735 164.42 112.735C164.867 112.735 165.315 112.673 165.763 112.549C166.21 112.416 166.577 112.226 166.863 111.978C167.301 111.568 167.52 111.106 167.52 110.592L167.506 110.435C167.429 109.93 167.048 109.468 166.363 109.049C165.677 108.621 164.858 108.192 163.905 107.763C162.162 106.992 160.943 106.297 160.248 105.678C159.495 105.011 159.119 104.149 159.119 103.092C159.119 102.015 159.524 101.115 160.334 100.391C161.143 99.6676 162.234 99.1914 163.605 98.9628L163.634 98.9485C164.234 98.8533 164.82 98.8057 165.391 98.8057C167.163 98.8057 168.429 99.139 169.191 99.8057C169.563 100.111 169.829 100.491 169.991 100.949C170.068 101.187 170.106 101.425 170.106 101.663C170.106 102.273 169.858 102.73 169.363 103.035C169.001 103.225 168.668 103.32 168.363 103.32C168.048 103.32 167.787 103.263 167.577 103.149C167.377 103.025 167.277 102.915 167.277 102.82V102.792C167.325 102.639 167.367 102.482 167.406 102.32C167.453 102.149 167.482 102.006 167.491 101.892C167.501 101.777 167.51 101.668 167.52 101.563C167.52 100.172 166.758 99.4771 165.234 99.4771C164.634 99.4867 164.134 99.6629 163.734 100.006C163.381 100.301 163.205 100.658 163.205 101.077C163.205 101.696 163.62 102.263 164.448 102.777C165.01 103.12 165.682 103.482 166.463 103.863C167.586 104.397 168.729 105.049 169.891 105.82C170.215 106.039 170.52 106.287 170.806 106.563C171.453 107.211 171.777 107.987 171.777 108.892C171.777 110.168 171.215 111.24 170.091 112.107C169.12 112.859 167.687 113.283 165.791 113.378C165.391 113.407 164.986 113.421 164.577 113.421ZM75.9441 147.435H66.915V146.907H67.115C68.3818 146.907 69.0532 146.53 69.1294 145.778V135.949C69.0723 135.644 68.9246 135.42 68.6865 135.277C68.3056 135.049 67.8008 134.934 67.1721 134.934H66.9436V134.42H69.1294C69.8628 134.42 70.5152 134.339 71.0867 134.177C71.6677 134.015 72.1534 133.834 72.5439 133.634C72.9344 133.425 73.2297 133.239 73.4297 133.077L73.744 132.834V134.977C74.2488 134.549 74.7726 134.163 75.3155 133.82C76.2489 133.239 77.2776 132.915 78.4015 132.849C78.8967 132.849 79.3825 132.958 79.8587 133.177C80.2492 133.387 80.554 133.682 80.773 134.063C80.9921 134.444 81.1016 134.849 81.1016 135.277C81.1016 135.496 81.0731 135.711 81.0159 135.92C80.8826 136.282 80.6397 136.654 80.2873 137.035C79.9444 137.415 79.6158 137.62 79.3015 137.649C79.1967 137.649 79.0729 137.573 78.9301 137.42C78.7872 137.258 78.6396 137.082 78.4872 136.892C77.5443 135.701 76.5442 135.106 75.487 135.106C74.8965 135.106 74.3774 135.287 73.9297 135.649L73.744 135.806V145.778C73.7631 146.121 73.8964 146.373 74.144 146.535C74.4012 146.697 74.6869 146.802 75.0012 146.849C75.3155 146.888 75.5632 146.907 75.7441 146.907H75.9441V147.435ZM89.3662 147.407C88.0423 147.407 86.8422 147.083 85.7659 146.435C84.6897 145.787 83.8372 144.916 83.2086 143.821C82.58 142.716 82.2657 141.482 82.2657 140.12C82.2657 138.758 82.58 137.525 83.2086 136.42C83.8372 135.315 84.6897 134.439 85.7659 133.791C86.8422 133.144 88.0423 132.82 89.3662 132.82C90.6996 132.82 91.8997 133.144 92.9664 133.791C94.0427 134.439 94.8951 135.315 95.5237 136.42C96.1618 137.525 96.4809 138.758 96.4809 140.12C96.4809 141.482 96.1618 142.716 95.5237 143.821C94.8951 144.916 94.0427 145.787 92.9664 146.435C91.8997 147.083 90.6996 147.407 89.3662 147.407ZM89.3662 146.892C89.7662 146.892 90.1186 146.683 90.4234 146.264C90.7377 145.835 90.9996 145.283 91.2091 144.606C91.4282 143.921 91.5901 143.183 91.6949 142.392C91.8092 141.601 91.8663 140.844 91.8663 140.12C91.8663 138.901 91.7711 137.777 91.5806 136.749C91.3996 135.72 91.1234 134.896 90.752 134.277C90.3805 133.649 89.9186 133.334 89.3662 133.334C88.7852 133.334 88.309 133.649 87.9375 134.277C87.5756 134.896 87.3089 135.725 87.1374 136.763C86.966 137.792 86.8803 138.911 86.8803 140.12C86.8803 140.882 86.9279 141.663 87.0232 142.463C87.1279 143.263 87.2851 143.997 87.4946 144.664C87.7042 145.33 87.9613 145.868 88.2661 146.278C88.5804 146.688 88.9471 146.892 89.3662 146.892ZM97.9307 154.721C97.0259 154.721 96.1592 154.569 95.3306 154.264C94.5019 153.931 93.94 153.369 93.6447 152.578C93.5685 152.34 93.5304 152.102 93.5304 151.864C93.5304 151.254 93.7781 150.797 94.2733 150.493C94.6353 150.302 94.9686 150.207 95.2734 150.207C95.5877 150.207 95.8449 150.264 96.0449 150.378C96.2449 150.502 96.3449 150.612 96.3449 150.707V150.735C96.2973 150.888 96.2544 151.045 96.2163 151.207C96.1782 151.378 96.1544 151.521 96.1449 151.635C96.1354 151.75 96.1258 151.864 96.1163 151.978C96.1163 152.855 96.4021 153.455 96.9735 153.778C97.2593 153.95 97.6021 154.045 98.0022 154.064C98.5546 154.064 99.007 153.812 99.3594 153.307C99.3689 153.297 99.3737 153.288 99.3737 153.278C99.3832 153.269 99.3927 153.264 99.4023 153.264C99.7642 152.578 99.988 151.74 100.074 150.75C100.159 149.769 100.202 148.897 100.202 148.135V136.092C100.202 135.73 100.069 135.463 99.8023 135.292C99.5451 135.12 99.2546 135.015 98.9308 134.977C98.607 134.93 98.3593 134.906 98.1879 134.906H98.0022V134.406H100.202C100.936 134.406 101.588 134.325 102.16 134.163C102.731 134.001 103.212 133.82 103.603 133.62C104.003 133.41 104.303 133.225 104.503 133.063L104.817 132.82V147.435C104.76 149.788 104.126 151.574 102.917 152.793C101.707 154.021 100.169 154.659 98.3022 154.707L97.9307 154.721ZM102.517 130.877L102.117 130.377C101.774 129.929 101.474 129.582 101.217 129.334C100.969 129.077 100.626 128.782 100.188 128.448L99.7166 128.077L100.188 127.691C100.636 127.358 100.988 127.062 101.245 126.805C101.502 126.548 101.798 126.196 102.131 125.748L102.517 125.277L102.888 125.748C103.231 126.196 103.531 126.548 103.788 126.805C104.045 127.062 104.393 127.358 104.831 127.691L105.317 128.077L104.831 128.448C104.393 128.791 104.045 129.091 103.788 129.348C103.531 129.605 103.231 129.953 102.888 130.391L102.517 130.877ZM114.039 147.407C112.715 147.407 111.515 147.083 110.438 146.435C109.362 145.787 108.51 144.916 107.881 143.821C107.252 142.716 106.938 141.482 106.938 140.12C106.938 138.758 107.252 137.525 107.881 136.42C108.51 135.315 109.362 134.439 110.438 133.791C111.515 133.144 112.715 132.82 114.039 132.82C115.372 132.82 116.572 133.144 117.639 133.791C118.715 134.439 119.568 135.315 120.196 136.42C120.834 137.525 121.153 138.758 121.153 140.12C121.153 141.482 120.834 142.716 120.196 143.821C119.568 144.916 118.715 145.787 117.639 146.435C116.572 147.083 115.372 147.407 114.039 147.407ZM114.039 146.892C114.439 146.892 114.791 146.683 115.096 146.264C115.41 145.835 115.672 145.283 115.882 144.606C116.101 143.921 116.263 143.183 116.367 142.392C116.482 141.601 116.539 140.844 116.539 140.12C116.539 138.901 116.444 137.777 116.253 136.749C116.072 135.72 115.796 134.896 115.424 134.277C115.053 133.649 114.591 133.334 114.039 133.334C113.458 133.334 112.981 133.649 112.61 134.277C112.248 134.896 111.981 135.725 111.81 136.763C111.638 137.792 111.553 138.911 111.553 140.12C111.553 140.882 111.6 141.663 111.696 142.463C111.8 143.263 111.958 143.997 112.167 144.664C112.377 145.33 112.634 145.868 112.939 146.278C113.253 146.688 113.62 146.892 114.039 146.892ZM128.261 147.421C127.27 147.421 126.561 147.383 126.132 147.307C124.408 147.088 123.337 146.402 122.917 145.249C122.841 145.011 122.803 144.773 122.803 144.535C122.803 143.925 123.051 143.468 123.546 143.163C123.908 142.983 124.241 142.892 124.546 142.892C124.86 142.892 125.118 142.954 125.318 143.078C125.527 143.192 125.632 143.292 125.632 143.378V143.406C125.489 143.825 125.408 144.206 125.389 144.549C125.389 145.426 125.784 146.04 126.575 146.392C127.061 146.621 127.57 146.735 128.104 146.735C128.551 146.735 128.999 146.673 129.446 146.549C129.894 146.416 130.261 146.226 130.547 145.978C130.985 145.568 131.204 145.106 131.204 144.592L131.189 144.435C131.113 143.93 130.732 143.468 130.047 143.049C129.361 142.621 128.542 142.192 127.589 141.763C125.846 140.992 124.627 140.297 123.932 139.678C123.179 139.011 122.803 138.149 122.803 137.092C122.803 136.015 123.208 135.115 124.018 134.391C124.827 133.668 125.918 133.191 127.289 132.963L127.318 132.949C127.918 132.853 128.504 132.806 129.075 132.806C130.847 132.806 132.113 133.139 132.875 133.806C133.247 134.111 133.513 134.491 133.675 134.949C133.752 135.187 133.79 135.425 133.79 135.663C133.79 136.273 133.542 136.73 133.047 137.035C132.685 137.225 132.351 137.32 132.047 137.32C131.732 137.32 131.47 137.263 131.261 137.149C131.061 137.025 130.961 136.915 130.961 136.82V136.792C131.008 136.639 131.051 136.482 131.089 136.32C131.137 136.149 131.166 136.006 131.175 135.892C131.185 135.777 131.194 135.668 131.204 135.563C131.204 134.172 130.442 133.477 128.918 133.477C128.318 133.487 127.818 133.663 127.418 134.006C127.065 134.301 126.889 134.658 126.889 135.077C126.889 135.696 127.303 136.263 128.132 136.777C128.694 137.12 129.366 137.482 130.147 137.863C131.27 138.397 132.413 139.049 133.575 139.82C133.899 140.039 134.204 140.287 134.49 140.563C135.137 141.211 135.461 141.987 135.461 142.892C135.461 144.168 134.899 145.24 133.775 146.107C132.804 146.859 131.37 147.283 129.475 147.378C129.075 147.407 128.67 147.421 128.261 147.421Z" fill="#2C2C2C"/>
<defs>
<clipPath id="clip0_147_1164">
<rect width="201.253" height="204.935" fill="white" transform="translate(0.592407)"/>
</clipPath>
</defs>
</svg>
