<svg width="202" height="205" viewBox="0 0 202 205" fill="none" xmlns="http://www.w3.org/2000/svg">
<g clip-path="url(#clip0_147_1211)">
<path d="M2.02369 132.812H2.63325C2.60887 130.142 2.7064 127.46 2.90146 124.765C2.69421 124.753 2.49915 124.729 2.30409 124.668C2.09684 127.399 1.99931 130.117 2.02369 132.812Z" fill="#D5AFF6"/>
<path d="M6.55892 101.37C1.06066 81.2426 1.21915 61.4684 7.35136 44.3519C14.0444 25.687 27.1378 12.2035 45.2174 5.35198C53.7026 2.13348 62.7973 0.597385 72.148 0.597385C80.5843 0.597385 89.2279 1.85309 97.8715 4.21819C98.5543 4.19381 99.237 4.16943 99.9197 4.16943C80.9379 -1.38979 61.8219 -1.58485 45.0102 4.77899C26.7477 11.7036 13.5323 25.3091 6.77837 44.1446C0.499861 61.6513 0.438904 81.901 6.24195 102.48C6.33948 102.114 6.4492 101.748 6.55892 101.383C6.55892 101.407 6.57111 101.444 6.58331 101.468C6.58331 101.407 6.58331 101.346 6.58331 101.273C6.58331 101.297 6.55892 101.334 6.55892 101.358V101.37Z" fill="#D5AFF6"/>
<path d="M156.499 5.35221C171.068 10.8749 182.577 21.0668 189.928 34.5503C190.086 34.4284 190.269 34.3309 190.464 34.2455C183.04 20.6523 171.422 10.3628 156.719 4.77922C139.919 -1.58462 120.791 -1.37737 101.822 4.16966C102.504 4.16966 103.175 4.20624 103.857 4.21843C122.096 -0.779994 140.383 -0.767804 156.499 5.35221Z" fill="#D5AFF6"/>
<path d="M2.9259 118.585C2.98686 118.572 3.03562 118.572 3.09658 118.572C3.25507 118.572 3.40136 118.585 3.54766 118.609C4.1938 113.635 5.20567 108.637 6.5589 103.626C6.44918 103.248 6.33946 102.87 6.24193 102.492C4.73021 107.869 3.62081 113.245 2.9259 118.585Z" fill="#D5AFF6"/>
<path d="M197.962 58.4452L198.571 58.3476C197.499 51.74 195.694 45.5346 193.183 39.8169C193.012 39.9144 192.817 39.9876 192.622 40.0485C195.109 45.7175 196.901 51.8863 197.962 58.4452Z" fill="#D5AFF6"/>
<path d="M45.2174 199.584C22.3465 190.916 7.13183 170.91 3.48664 144.698L2.87708 144.784C6.55884 171.215 21.9198 191.391 44.9979 200.144C53.544 203.387 62.6996 204.923 72.1235 204.923C81.5473 204.923 90.703 203.448 100.09 200.693C99.4076 200.693 98.737 200.656 98.0543 200.644C79.7552 205.691 61.3952 205.716 45.2174 199.584Z" fill="#D5AFF6"/>
<path d="M195.133 103.699C195.133 103.699 195.158 103.626 195.158 103.589C195.158 103.565 195.146 103.529 195.133 103.504C195.133 103.565 195.133 103.638 195.133 103.699Z" fill="#D5AFF6"/>
<path d="M195.487 102.443C198.864 90.3982 200.254 78.3898 199.51 66.7959L198.901 66.8325C199.62 78.0484 198.328 89.6667 195.158 101.322C195.158 101.322 195.158 101.334 195.158 101.346C195.268 101.712 195.365 102.077 195.475 102.443H195.487Z" fill="#D5AFF6"/>
<path d="M195.158 101.322C195.158 101.322 195.146 101.273 195.133 101.249C195.133 101.297 195.133 101.346 195.133 101.395C195.133 101.37 195.146 101.346 195.158 101.322Z" fill="#D5AFF6"/>
<path d="M6.55896 103.626C6.55896 103.626 6.58334 103.699 6.59553 103.724C6.59553 103.663 6.59553 103.59 6.59553 103.529C6.59553 103.565 6.58334 103.59 6.57115 103.626H6.55896Z" fill="#D5AFF6"/>
<path d="M195.487 102.443C195.377 102.833 195.28 103.211 195.17 103.602C200.668 123.729 200.498 143.491 194.365 160.596C191.671 168.106 187.941 174.762 183.271 180.504L184.893 179.236L181.845 183.113C181.845 183.113 181.857 183.101 181.869 183.089H181.882C187.477 176.822 191.878 169.349 194.951 160.803C201.229 143.296 201.302 123.034 195.511 102.48C195.511 102.468 195.511 102.456 195.511 102.443H195.487Z" fill="#D5AFF6"/>
<path d="M173.86 189.794C168.752 193.854 162.961 197.133 156.499 199.584C140.322 205.728 121.937 205.704 103.626 200.656C102.955 200.681 102.297 200.705 101.626 200.705C111.002 203.485 120.425 204.935 129.569 204.935C138.712 204.935 148.161 203.399 156.707 200.157C162.412 197.986 167.642 195.17 172.324 191.732L172.348 191.708L173.86 189.782H173.848L173.86 189.794Z" fill="#D5AFF6"/>
<path d="M2.3529 124.058C1.34102 123.729 0.609548 122.778 0.609548 121.669C0.609548 120.389 1.59704 119.328 2.84055 119.194C2.84055 119.097 2.85274 118.999 2.87712 118.889C2.87712 118.792 2.90151 118.682 2.9137 118.584C1.28007 118.67 -0.012207 120.023 -0.012207 121.669C-0.012207 123.095 0.963095 124.314 2.29194 124.668C2.29194 124.558 2.30413 124.461 2.31633 124.363C2.31633 124.253 2.32852 124.156 2.34071 124.058H2.3529Z" fill="#D5AFF6"/>
<path d="M3.46229 119.206C4.66922 119.389 5.59576 120.425 5.59576 121.669C5.59576 123.047 4.47416 124.168 3.09655 124.168C3.04778 124.168 2.99902 124.168 2.95025 124.156C2.93806 124.253 2.93806 124.351 2.92587 124.461C2.91368 124.558 2.91368 124.656 2.90149 124.765C2.96245 124.778 3.03559 124.778 3.09655 124.778C4.80333 124.778 6.20532 123.376 6.20532 121.669C6.20532 120.121 5.04715 118.828 3.54763 118.609C3.52324 118.706 3.51105 118.804 3.49886 118.914C3.48667 119.011 3.47448 119.109 3.46229 119.206Z" fill="#D5AFF6"/>
<path d="M192.366 39.4875C192.159 39.5485 191.952 39.5729 191.732 39.5729C190.354 39.5729 189.245 38.4513 189.245 37.0736C189.245 36.269 189.623 35.5619 190.22 35.0987C190.184 35.0011 190.135 34.9036 190.086 34.8183C190.025 34.7207 189.989 34.6354 189.928 34.55C189.148 35.123 188.635 36.0374 188.635 37.0736C188.635 38.7804 190.025 40.1824 191.732 40.1824C192.037 40.1824 192.342 40.1336 192.622 40.0483C192.585 39.9508 192.549 39.8533 192.5 39.7679C192.464 39.6704 192.415 39.5729 192.366 39.4875Z" fill="#D5AFF6"/>
<path d="M190.757 34.7819C191.062 34.66 191.391 34.5869 191.732 34.5869C193.11 34.5869 194.219 35.7085 194.219 37.0739C194.219 38.0126 193.707 38.8294 192.939 39.2561C193 39.3536 193.037 39.439 193.061 39.5365C193.122 39.634 193.159 39.7194 193.183 39.8169C194.158 39.2927 194.829 38.2564 194.829 37.0739C194.829 35.3671 193.439 33.9773 191.732 33.9773C191.281 33.9773 190.854 34.0748 190.464 34.2455C190.513 34.3308 190.562 34.4162 190.611 34.5137C190.659 34.599 190.708 34.6966 190.757 34.7819Z" fill="#D5AFF6"/>
<path d="M179.346 183.601L178.517 176.591L177.688 183.601L178.517 184.259L179.346 183.601Z" fill="#D5AFF6"/>
<path d="M177.688 187.611L178.517 194.621L179.346 187.611L178.517 186.965L177.688 187.611Z" fill="#D5AFF6"/>
<path d="M176.505 184.783L169.507 185.612L176.505 186.441L177.164 185.612L176.505 184.783Z" fill="#D5AFF6"/>
<path d="M180.516 186.441L187.526 185.612L180.516 184.783L179.87 185.612L180.516 186.441Z" fill="#D5AFF6"/>
<path d="M179.468 184.649H179.553C180.845 183.332 182.077 181.955 183.247 180.516L179.321 183.588L179.443 184.637L179.468 184.649Z" fill="#D5AFF6"/>
<path d="M176.505 186.441L173.872 189.782C175.14 188.782 176.371 187.722 177.542 186.612V186.576L176.481 186.454L176.505 186.441Z" fill="#D5AFF6"/>
<path d="M180.309 184.747L180.516 184.771L181.833 183.101C181.345 183.662 180.833 184.198 180.321 184.734L180.309 184.747Z" fill="#D5AFF6"/>
<path d="M179.346 187.612L184.893 191.976L180.516 186.441L179.468 186.563L179.346 187.612Z" fill="#D5AFF6"/>
<path d="M177.688 183.601L172.141 179.236L176.505 184.783L177.554 184.649L177.688 183.601Z" fill="#D5AFF6"/>
<path d="M177.651 187.368C175.969 188.916 174.213 190.343 172.36 191.708L172.141 191.988L177.688 187.624L177.663 187.368H177.651Z" fill="#D5AFF6"/>
<path d="M177.651 187.368C178.566 186.514 179.443 185.661 180.309 184.759L179.553 184.673C178.895 185.344 178.249 185.99 177.554 186.612L177.639 187.38L177.651 187.368Z" fill="#D5AFF6"/>
<path d="M4.85217 138.493C4.85217 137.237 3.84029 136.225 2.58459 136.225C1.32889 136.225 0.317017 137.237 0.317017 138.493C0.317017 139.749 1.32889 140.76 2.58459 140.76C3.84029 140.76 4.85217 139.749 4.85217 138.493Z" fill="#D5AFF6"/>
<path d="M198.974 60.1641C197.718 60.1641 196.706 61.1759 196.706 62.4316C196.706 63.6873 197.718 64.6992 198.974 64.6992C200.229 64.6992 201.241 63.6873 201.241 62.4316C201.241 61.1759 200.229 60.1641 198.974 60.1641Z" fill="#D5AFF6"/>
<path d="M195.133 103.699C192.22 113.671 187.953 123.644 182.357 133.421C163.46 166.435 132.982 190.452 101.87 200.169C102.455 200.339 103.04 200.485 103.626 200.656C154.024 199.144 194.499 156.438 195.133 103.699Z" fill="#D5AFF6"/>
<path d="M19.884 133.129C38.8658 166.301 69.5756 190.355 100.81 199.864C132.08 190.379 162.827 166.314 181.833 133.117C187.612 123.022 191.964 112.709 194.853 102.419C191.952 92.1906 187.599 81.8768 181.833 71.8068C162.839 38.6222 132.117 14.5566 100.858 5.05959C101.2 4.94987 101.529 4.85234 101.87 4.75481C101.541 4.64509 101.212 4.53537 100.871 4.42565C101.188 4.32812 101.505 4.25497 101.822 4.15744C101.505 4.15744 101.188 4.13306 100.871 4.13306C100.554 4.13306 100.237 4.15744 99.9197 4.15744C100.237 4.25497 100.554 4.32812 100.858 4.42565C100.517 4.53537 100.176 4.64509 99.8344 4.75481C100.176 4.85234 100.505 4.94987 100.846 5.05959C83.108 10.4481 65.5281 20.5425 50.1793 34.3308L50.1428 34.3674C50.1428 34.3674 50.1427 34.3674 50.1306 34.3674L47.6679 37.4884L54.6779 38.3174L47.6679 39.1464L52.0324 44.6934L46.4854 40.3289L45.6564 47.3389L44.8274 40.3289L40.792 43.5109C32.9043 51.935 25.8334 61.432 19.884 71.8068C14.1297 81.8524 9.76526 92.1784 6.86374 102.504C6.7784 102.151 6.66868 101.81 6.58334 101.456C6.58334 101.785 6.55896 102.102 6.55896 102.419C6.55896 102.785 6.58334 103.151 6.58334 103.516C6.66868 103.187 6.76621 102.846 6.86374 102.517C9.76526 112.745 14.1175 123.035 19.884 133.117V133.129Z" fill="#D5AFF6"/>
<path d="M99.8343 200.169C68.7222 190.464 38.2562 166.435 19.3597 133.421C13.7761 123.656 9.50917 113.659 6.59546 103.723C7.25379 156.426 47.6922 199.108 98.0666 200.644C98.6639 200.486 99.2613 200.339 99.8587 200.156L99.8343 200.169Z" fill="#D5AFF6"/>
<path d="M182.357 71.5138C187.965 81.2912 192.244 91.3125 195.146 101.248C194.548 48.5577 154.171 5.85165 103.857 4.21802C103.199 4.40089 102.541 4.57156 101.882 4.76662C132.994 14.4709 163.473 38.4999 182.357 71.5138Z" fill="#D5AFF6"/>
<path d="M100.834 200.485C100.59 200.558 100.346 200.632 100.103 200.705C100.359 200.705 100.615 200.729 100.871 200.729C101.127 200.729 101.383 200.717 101.639 200.705C101.383 200.632 101.127 200.558 100.858 200.485C100.858 200.498 100.846 200.498 100.834 200.485Z" fill="#D5AFF6"/>
<path d="M6.58337 101.273C9.49709 91.252 13.7762 81.2429 19.3598 71.5021C25.5896 60.6031 33.0994 50.6794 41.4626 41.9383L41.5357 41.8529L43.657 39.1587L36.647 38.3297L43.657 37.5006L39.2926 31.9536L44.8396 36.3181L45.6686 29.3081L46.4976 36.3181L51.3253 32.5144L51.3741 32.4656C66.1621 19.5551 82.9007 10.0215 99.8344 4.7427C99.1761 4.54764 98.5177 4.37696 97.8716 4.19409C47.546 5.8643 7.16856 48.5703 6.58337 101.273Z" fill="#D5AFF6"/>
<path d="M100.858 199.876H100.846C100.846 199.876 100.822 199.876 100.81 199.876C100.48 199.973 100.164 200.083 99.8344 200.181C100.164 200.302 100.493 200.4 100.822 200.497C101.175 200.388 101.517 200.29 101.87 200.181C101.529 200.083 101.2 199.985 100.858 199.888V199.876Z" fill="#D5AFF6"/>
<path d="M194.865 102.468C194.951 102.809 195.048 103.163 195.146 103.504C195.146 103.151 195.17 102.797 195.17 102.431C195.17 102.066 195.146 101.736 195.146 101.395C195.048 101.736 194.951 102.09 194.853 102.431C194.853 102.431 194.853 102.443 194.853 102.456L194.865 102.468Z" fill="#D5AFF6"/>
<path d="M51.3251 32.5264L51.2276 32.5995C49.6427 33.9771 48.0944 35.3913 46.5583 36.8543L46.6193 37.3785L46.8631 37.4029C47.936 36.3666 49.021 35.3669 50.1304 34.3794L52.0444 31.9534L51.3251 32.5142V32.5264Z" fill="#D5AFF6"/>
<path d="M44.7298 39.4755L44.7054 39.2926L44.1324 39.2195C43.2668 40.0729 42.4134 40.9385 41.5601 41.8284L41.5357 41.8528L39.2925 44.6934L40.8042 43.5108H40.8164C42.1087 42.121 43.4131 40.78 44.7298 39.4633V39.4755Z" fill="#D5AFF6"/>
<path d="M46.5584 36.8665L46.4974 36.3301L45.6684 36.9884L44.8394 36.3301L44.7175 37.3785L43.6691 37.5004L44.3274 38.3294L43.6691 39.1585L44.1445 39.2194C44.9492 38.4148 45.7538 37.6345 46.5706 36.8543L46.5584 36.8665Z" fill="#D5AFF6"/>
<path d="M46.8632 37.4153C46.1439 38.098 45.4368 38.7807 44.7297 39.4756L44.8395 40.3534L45.6685 39.6951L46.4975 40.3534L46.6194 39.3049L47.6678 39.183L47.0095 38.354L47.6678 37.525L46.8632 37.4275V37.4153Z" fill="#D5AFF6"/>
</g>
<path d="M80.5629 62.4925H71.6052V62.0067L71.8767 62.021C72.0291 62.021 72.21 62.0067 72.4196 61.9781C72.6386 61.94 72.8291 61.8638 72.991 61.7496C73.1529 61.6353 73.2339 61.4638 73.2339 61.2352L73.2053 60.9924L71.3481 56.2921H64.1476L62.3189 60.9924L62.3046 61.1638C62.3046 61.44 62.4237 61.6353 62.6618 61.7496C62.8999 61.8638 63.1475 61.9353 63.4047 61.9639C63.6714 61.9924 63.838 62.0067 63.9047 62.0067H63.919V62.4925H59.033V62.0067H59.2044C60.4712 62.0067 61.3236 61.6829 61.7617 61.0352L69.1479 42.0054H70.748L78.0628 60.8066C78.2342 61.1876 78.5009 61.4638 78.8628 61.6353C79.3867 61.8829 79.9439 62.0067 80.5344 62.0067H80.5629V62.4925ZM71.1623 55.8063L67.7335 47.0629L64.3476 55.8063H71.1623ZM96.4851 62.4353H89.6704V61.7067C89.3085 62.1639 88.6846 62.3972 87.7988 62.4067C86.5321 62.4067 85.3701 62.0829 84.3129 61.4352C83.2652 60.7781 82.4271 59.9018 81.7985 58.8065C81.1794 57.7112 80.8698 56.4921 80.8698 55.1491C80.8698 53.7871 81.1841 52.5537 81.8127 51.4489C82.4414 50.3345 83.2938 49.4535 84.37 48.8059C85.4463 48.1487 86.6464 47.8201 87.9703 47.8201C88.5703 47.8201 89.137 47.8963 89.6704 48.0487V43.2055C89.6228 42.8912 89.4704 42.6578 89.2132 42.5054C88.9561 42.3531 88.6751 42.2578 88.3703 42.2197C88.0751 42.1816 87.8417 42.1626 87.6703 42.1626H87.4988V41.6482H89.6704C90.4133 41.6482 91.0705 41.5673 91.6419 41.4054C92.2229 41.2435 92.7087 41.0625 93.0992 40.8625C93.4897 40.6625 93.7897 40.4815 93.9992 40.3196L94.2993 40.0767V60.8924C94.3564 61.2067 94.5136 61.44 94.7707 61.5924C95.0279 61.7448 95.3041 61.84 95.5994 61.8781C95.9041 61.9162 96.1422 61.9353 96.3137 61.9353H96.4851V62.4353ZM88.1417 61.9353C88.4751 61.9353 88.7799 61.8353 89.0561 61.6353C89.3418 61.4352 89.5466 61.2162 89.6704 60.9781V49.9488C89.5466 49.6154 89.3894 49.3249 89.1989 49.0773C88.8656 48.6011 88.456 48.363 87.9703 48.363C87.3893 48.363 86.9131 48.6773 86.5416 49.3059C86.1797 49.925 85.913 50.7488 85.7416 51.7775C85.5701 52.8061 85.4844 53.93 85.4844 55.1491C85.4844 56.1682 85.5749 57.1874 85.7559 58.2065C85.9368 59.2161 86.213 60.0637 86.5845 60.7495C86.9845 61.4924 87.5036 61.8877 88.1417 61.9353ZM104.178 62.4067C102.854 62.4067 101.654 62.0829 100.578 61.4352C99.5017 60.7876 98.6493 59.9161 98.0206 58.8208C97.392 57.716 97.0777 56.4825 97.0777 55.1205C97.0777 53.7586 97.392 52.5251 98.0206 51.4203C98.6493 50.3155 99.5017 49.4392 100.578 48.7916C101.654 48.1439 102.854 47.8201 104.178 47.8201C105.512 47.8201 106.712 48.1439 107.778 48.7916C108.855 49.4392 109.707 50.3155 110.336 51.4203C110.974 52.5251 111.293 53.7586 111.293 55.1205C111.293 56.4825 110.974 57.716 110.336 58.8208C109.707 59.9161 108.855 60.7876 107.778 61.4352C106.712 62.0829 105.512 62.4067 104.178 62.4067ZM104.178 61.8924C104.578 61.8924 104.931 61.6829 105.235 61.2638C105.55 60.8352 105.812 60.2828 106.021 59.6066C106.24 58.9208 106.402 58.1827 106.507 57.3921C106.621 56.6016 106.678 55.8444 106.678 55.1205C106.678 53.9014 106.583 52.7775 106.393 51.7489C106.212 50.7203 105.935 49.8964 105.564 49.2773C105.193 48.6487 104.731 48.3344 104.178 48.3344C103.597 48.3344 103.121 48.6487 102.75 49.2773C102.388 49.8964 102.121 50.725 101.949 51.7632C101.778 52.7918 101.692 53.9109 101.692 55.1205C101.692 55.8825 101.74 56.6635 101.835 57.4636C101.94 58.2636 102.097 58.997 102.307 59.6637C102.516 60.3304 102.773 60.8685 103.078 61.2781C103.392 61.6876 103.759 61.8924 104.178 61.8924ZM121.315 62.4353H112.286V61.9067H112.486C113.752 61.9067 114.424 61.5305 114.5 60.7781V50.9488C114.443 50.6441 114.295 50.4202 114.057 50.2774C113.676 50.0488 113.171 49.9345 112.543 49.9345H112.314V49.4202H114.5C115.233 49.4202 115.886 49.3392 116.457 49.1773C117.038 49.0154 117.524 48.8344 117.915 48.6344C118.305 48.4249 118.6 48.2391 118.8 48.0772L119.115 47.8344V49.9774C119.619 49.5488 120.143 49.163 120.686 48.8201C121.62 48.2391 122.648 47.9153 123.772 47.8486C124.267 47.8486 124.753 47.9582 125.229 48.1772C125.62 48.3868 125.925 48.682 126.144 49.063C126.363 49.444 126.472 49.8488 126.472 50.2774C126.472 50.4964 126.444 50.7107 126.387 50.9203C126.253 51.2822 126.01 51.6537 125.658 52.0346C125.315 52.4156 124.986 52.6204 124.672 52.649C124.567 52.649 124.444 52.5728 124.301 52.4204C124.158 52.2585 124.01 52.0823 123.858 51.8918C122.915 50.7012 121.915 50.1059 120.858 50.1059C120.267 50.1059 119.748 50.2869 119.3 50.6488L119.115 50.806V60.7781C119.134 61.1209 119.267 61.3733 119.515 61.5353C119.772 61.6972 120.058 61.8019 120.372 61.8496C120.686 61.8877 120.934 61.9067 121.115 61.9067H121.315V62.4353ZM134.737 62.4067C133.413 62.4067 132.213 62.0829 131.137 61.4352C130.06 60.7876 129.208 59.9161 128.579 58.8208C127.951 57.716 127.636 56.4825 127.636 55.1205C127.636 53.7586 127.951 52.5251 128.579 51.4203C129.208 50.3155 130.06 49.4392 131.137 48.7916C132.213 48.1439 133.413 47.8201 134.737 47.8201C136.07 47.8201 137.27 48.1439 138.337 48.7916C139.413 49.4392 140.266 50.3155 140.894 51.4203C141.532 52.5251 141.852 53.7586 141.852 55.1205C141.852 56.4825 141.532 57.716 140.894 58.8208C140.266 59.9161 139.413 60.7876 138.337 61.4352C137.27 62.0829 136.07 62.4067 134.737 62.4067ZM134.737 61.8924C135.137 61.8924 135.489 61.6829 135.794 61.2638C136.108 60.8352 136.37 60.2828 136.58 59.6066C136.799 58.9208 136.961 58.1827 137.065 57.3921C137.18 56.6016 137.237 55.8444 137.237 55.1205C137.237 53.9014 137.142 52.7775 136.951 51.7489C136.77 50.7203 136.494 49.8964 136.123 49.2773C135.751 48.6487 135.289 48.3344 134.737 48.3344C134.156 48.3344 133.68 48.6487 133.308 49.2773C132.946 49.8964 132.679 50.725 132.508 51.7632C132.337 52.7918 132.251 53.9109 132.251 55.1205C132.251 55.8825 132.298 56.6635 132.394 57.4636C132.499 58.2636 132.656 58.997 132.865 59.6637C133.075 60.3304 133.332 60.8685 133.637 61.2781C133.951 61.6876 134.318 61.8924 134.737 61.8924ZM63.5333 96.4067C62.3237 96.4067 61.1617 96.0829 60.0473 95.4352C58.9425 94.7876 58.0377 93.9161 57.3329 92.8208C56.628 91.716 56.2756 90.4825 56.2756 89.1205C56.2756 87.8443 56.5471 86.7013 57.09 85.6918C57.6424 84.6822 58.3853 83.8535 59.3187 83.2059C60.2616 82.5487 61.3426 82.1106 62.5618 81.8915C63.1904 81.7772 63.8476 81.7201 64.5333 81.7201C65.3239 81.7201 66.0429 81.7677 66.6906 81.8629C67.2049 81.9296 67.705 82.0582 68.1907 82.2487C68.5241 82.382 68.8241 82.5582 69.0908 82.7773C69.4622 83.0916 69.7289 83.4773 69.8908 83.9345C69.967 84.1726 70.0051 84.4107 70.0051 84.6488C70.0051 84.9155 69.948 85.1679 69.8337 85.406C69.7194 85.6441 69.5289 85.8441 69.2622 86.0061C68.9003 86.1965 68.5622 86.2918 68.2479 86.2918C67.9431 86.2918 67.6907 86.2346 67.4907 86.1204C67.2906 86.0061 67.1906 85.9013 67.1906 85.806V85.7775C67.2383 85.6251 67.2811 85.4679 67.3192 85.306C67.3573 85.1346 67.3859 84.9869 67.4049 84.8631V84.6917C67.4049 84.1774 67.2525 83.7583 66.9478 83.4345C66.6525 83.1011 66.3049 82.8535 65.9048 82.6916C65.5048 82.5296 65.1381 82.4487 64.8048 82.4487C64.4619 82.4487 64.0904 82.5154 63.6904 82.6487C63.2904 82.7725 62.9237 83.0011 62.5903 83.3345C62.0189 83.9821 61.5807 84.7774 61.276 85.7203C60.9712 86.6632 60.8188 87.6062 60.8188 88.5491C60.8188 88.8062 60.8331 89.0586 60.8617 89.3063V89.3348C60.8617 89.3444 60.8664 89.3587 60.8759 89.3777C60.8759 89.4349 60.8759 89.5063 60.8759 89.592C60.8855 89.6682 60.895 89.7444 60.9045 89.8206C61.095 91.0683 61.4855 92.0636 62.076 92.8065C62.6761 93.5494 63.3856 94.0828 64.2047 94.4066C64.7476 94.5876 65.2762 94.6781 65.7905 94.6781C66.7144 94.6781 67.5621 94.4542 68.3336 94.0066C69.105 93.5589 69.7146 93.0256 70.1623 92.4065V92.7494C70.0289 93.1018 69.8003 93.4875 69.4765 93.9066C69.1622 94.3161 68.7336 94.7114 68.1907 95.0924C67.6573 95.4733 67.0049 95.7877 66.2334 96.0353C65.462 96.2829 64.5619 96.4067 63.5333 96.4067ZM78.6411 96.4067C77.3172 96.4067 76.1171 96.0829 75.0409 95.4352C73.9646 94.7876 73.1122 93.9161 72.4836 92.8208C71.8549 91.716 71.5406 90.4825 71.5406 89.1205C71.5406 87.7586 71.8549 86.5251 72.4836 85.4203C73.1122 84.3155 73.9646 83.4392 75.0409 82.7916C76.1171 82.1439 77.3172 81.8201 78.6411 81.8201C79.9745 81.8201 81.1746 82.1439 82.2413 82.7916C83.3176 83.4392 84.17 84.3155 84.7986 85.4203C85.4368 86.5251 85.7558 87.7586 85.7558 89.1205C85.7558 90.4825 85.4368 91.716 84.7986 92.8208C84.17 93.9161 83.3176 94.7876 82.2413 95.4352C81.1746 96.0829 79.9745 96.4067 78.6411 96.4067ZM78.6411 95.8924C79.0411 95.8924 79.3935 95.6829 79.6983 95.2638C80.0126 94.8352 80.2745 94.2828 80.4841 93.6066C80.7031 92.9208 80.8651 92.1827 80.9698 91.3921C81.0841 90.6016 81.1413 89.8444 81.1413 89.1205C81.1413 87.9014 81.046 86.7775 80.8555 85.7489C80.6746 84.7203 80.3984 83.8964 80.0269 83.2773C79.6554 82.6487 79.1935 82.3344 78.6411 82.3344C78.0601 82.3344 77.5839 82.6487 77.2124 83.2773C76.8505 83.8964 76.5838 84.725 76.4124 85.7632C76.2409 86.7918 76.1552 87.9109 76.1552 89.1205C76.1552 89.8825 76.2028 90.6635 76.2981 91.4636C76.4029 92.2636 76.56 92.997 76.7695 93.6637C76.9791 94.3304 77.2362 94.8685 77.541 95.2781C77.8553 95.6876 78.222 95.8924 78.6411 95.8924ZM114.736 96.4067H105.707V95.8924H105.893C106.074 95.8924 106.321 95.8734 106.635 95.8353C106.959 95.7877 107.245 95.6829 107.493 95.521C107.75 95.3495 107.888 95.0876 107.907 94.7352V89.0634C107.907 87.2252 107.759 85.8251 107.464 84.8631C107.169 83.8916 106.621 83.4059 105.821 83.4059C105.307 83.4059 104.845 83.6392 104.435 84.1059C104.026 84.5726 103.697 85.1584 103.45 85.8632C103.202 86.568 103.059 87.2966 103.021 88.0491C103.03 88.4015 103.035 90.6873 103.035 94.9066C103.102 95.2019 103.259 95.421 103.507 95.5638C103.888 95.7829 104.388 95.8924 105.007 95.8924H105.221V96.4067H96.192V95.8924H96.3777C96.5586 95.8924 96.8063 95.8734 97.1206 95.8353C97.4444 95.7877 97.7301 95.6829 97.9778 95.521C98.2349 95.3495 98.373 95.0876 98.3921 94.7352V89.0634C98.3921 87.2252 98.2445 85.8251 97.9492 84.8631C97.654 83.8916 97.1063 83.4059 96.3062 83.4059C95.8491 83.4059 95.43 83.5964 95.049 83.9774C94.6776 84.3488 94.3633 84.8298 94.1061 85.4203C93.8585 86.0013 93.6823 86.6299 93.5775 87.3061V94.7495C93.5965 95.0924 93.7299 95.3495 93.9775 95.521C94.2252 95.6829 94.5061 95.7877 94.8204 95.8353C95.1347 95.8734 95.3824 95.8924 95.5633 95.8924H95.7776V96.4067H86.7485V95.8924H86.9342C87.1152 95.8924 87.3628 95.8734 87.6771 95.8353C87.9914 95.7877 88.2724 95.6829 88.52 95.521C88.7772 95.3591 88.9201 95.1067 88.9486 94.7638V84.9488C88.8915 84.6345 88.7343 84.4012 88.4772 84.2488C88.22 84.0964 87.939 84.0012 87.6343 83.9631C87.339 83.925 87.1056 83.9059 86.9342 83.9059H86.7628V83.4059H88.9486C89.6915 83.4059 90.3487 83.3249 90.9202 83.163C91.4916 83.0011 91.9726 82.8201 92.3631 82.6201C92.7632 82.4106 93.0679 82.2249 93.2775 82.0629L93.5775 81.8201V85.3346C93.8347 84.6298 94.2394 83.944 94.7919 83.2773C95.5919 82.3153 96.5444 81.8344 97.6492 81.8344C98.754 81.8344 99.6493 82.0248 100.335 82.4058C101.03 82.7868 101.568 83.2964 101.949 83.9345C102.34 84.5726 102.616 85.2822 102.778 86.0632C102.826 85.8727 102.945 85.5584 103.135 85.1203C103.326 84.6726 103.597 84.1964 103.95 83.6916C104.302 83.1868 104.74 82.7535 105.264 82.3915C105.797 82.0201 106.431 81.8344 107.164 81.8344C108.336 81.8344 109.274 82.0487 109.979 82.4773C110.693 82.9059 111.236 83.4726 111.607 84.1774C111.988 84.8727 112.241 85.6537 112.364 86.5204C112.488 87.3776 112.55 88.2348 112.55 89.092V94.9066C112.617 95.2019 112.774 95.421 113.022 95.5638C113.269 95.7067 113.536 95.7972 113.822 95.8353C114.117 95.8734 114.35 95.8924 114.522 95.8924H114.736V96.4067ZM122.572 96.4067C121.143 96.4067 119.881 96.0829 118.786 95.4352C117.7 94.7876 116.853 93.9161 116.243 92.8208C115.633 91.716 115.329 90.4825 115.329 89.1205C115.329 87.749 115.643 86.5156 116.272 85.4203C116.9 84.3155 117.753 83.4392 118.829 82.7916C119.905 82.1439 121.105 81.8201 122.429 81.8201C124.039 81.8201 125.448 82.263 126.658 83.1487C127.877 84.0345 128.725 85.2155 129.201 86.6918L129.244 86.8347C129.282 86.949 129.31 87.0633 129.33 87.1776L119.943 89.8206C120.086 91.0683 120.467 92.0636 121.086 92.8065C122.115 94.0542 123.362 94.6781 124.829 94.6781C125.753 94.6781 126.601 94.4542 127.372 94.0066C128.144 93.5589 128.753 93.0256 129.201 92.4065V92.7494C129.068 93.1018 128.839 93.4875 128.515 93.9066C128.201 94.3161 127.772 94.7114 127.229 95.0924C126.696 95.4733 126.044 95.7877 125.272 96.0353C124.501 96.2829 123.601 96.4067 122.572 96.4067ZM119.9 89.3063L124.886 87.9062C124.829 86.8585 124.701 85.9203 124.501 85.0917C124.301 84.2536 124.029 83.5869 123.686 83.0916C123.343 82.5868 122.924 82.3344 122.429 82.3344C122.039 82.3344 121.681 82.5249 121.358 82.9059C121.043 83.2868 120.772 83.7821 120.543 84.3917C120.324 84.9917 120.153 85.6489 120.029 86.3632C119.915 87.068 119.857 87.7586 119.857 88.4348C119.857 88.73 119.872 89.0205 119.9 89.3063ZM139.451 96.4353H130.422V95.9067H130.622C131.889 95.9067 132.56 95.5305 132.637 94.7781V84.9488C132.579 84.6441 132.432 84.4202 132.194 84.2774C131.813 84.0488 131.308 83.9345 130.679 83.9345H130.451V83.4202H132.637C133.37 83.4202 134.022 83.3392 134.594 83.1773C135.175 83.0154 135.661 82.8344 136.051 82.6344C136.442 82.4249 136.737 82.2391 136.937 82.0772L137.251 81.8344V83.9774C137.756 83.5488 138.28 83.163 138.823 82.8201C139.756 82.2391 140.785 81.9153 141.909 81.8486C142.404 81.8486 142.89 81.9582 143.366 82.1772C143.756 82.3868 144.061 82.682 144.28 83.063C144.499 83.444 144.609 83.8488 144.609 84.2774C144.609 84.4964 144.58 84.7107 144.523 84.9203C144.39 85.2822 144.147 85.6537 143.794 86.0346C143.452 86.4156 143.123 86.6204 142.809 86.649C142.704 86.649 142.58 86.5728 142.437 86.4204C142.294 86.2585 142.147 86.0823 141.994 85.8918C141.051 84.7012 140.051 84.1059 138.994 84.1059C138.404 84.1059 137.885 84.2869 137.437 84.6488L137.251 84.806V94.7781C137.27 95.1209 137.404 95.3733 137.651 95.5353C137.908 95.6972 138.194 95.8019 138.508 95.8496C138.823 95.8877 139.07 95.9067 139.251 95.9067H139.451V96.4353ZM52.4114 138.25H43.4108V137.736H43.5822C44.8014 137.736 45.4728 137.388 45.5967 136.693V119.006C45.5395 118.692 45.3824 118.458 45.1252 118.306C44.7347 118.077 44.2204 117.963 43.5822 117.963H43.4108V117.463H45.5967C46.3396 117.463 46.9968 117.382 47.5682 117.22C48.1397 117.058 48.6207 116.877 49.0112 116.677C49.4112 116.468 49.716 116.282 49.9255 116.12L50.2255 115.877V116.077C50.778 115.925 51.3447 115.849 51.9256 115.849C53.2591 115.849 54.4591 116.177 55.5259 116.834C56.6021 117.482 57.4546 118.363 58.0832 119.477C58.7118 120.582 59.0261 121.816 59.0261 123.178C59.0261 124.521 58.7118 125.74 58.0832 126.835C57.4641 127.93 56.626 128.807 55.5687 129.464C54.5211 130.111 53.3638 130.435 52.0971 130.435C51.2208 130.426 50.597 130.192 50.2255 129.735V136.693C50.2827 137.007 50.4398 137.241 50.697 137.393C50.9542 137.545 51.2304 137.641 51.5256 137.679C51.8304 137.717 52.0685 137.736 52.24 137.736H52.4114V138.25ZM51.7542 129.964L51.9256 129.95C52.4876 129.854 52.9495 129.464 53.3114 128.778C53.6829 128.092 53.9591 127.245 54.1401 126.235C54.321 125.216 54.4115 124.197 54.4115 123.178C54.4115 121.959 54.3258 120.835 54.1544 119.806C53.9829 118.777 53.7162 117.954 53.3543 117.334C52.9924 116.706 52.5162 116.392 51.9256 116.392C51.4399 116.392 51.0303 116.63 50.697 117.106C50.516 117.354 50.3589 117.644 50.2255 117.977V129.007C50.3494 129.245 50.5494 129.464 50.8256 129.664C51.1113 129.864 51.4209 129.964 51.7542 129.964ZM74.5768 130.421C74.1292 130.421 73.6577 130.359 73.1625 130.235C72.7339 130.131 72.3434 129.878 71.991 129.478C71.6957 129.107 71.5481 128.569 71.5481 127.864V126.892C71.2719 127.616 70.8623 128.307 70.3194 128.964C69.5194 129.935 68.5669 130.421 67.4621 130.421C66.2811 130.421 65.3334 130.207 64.619 129.778C63.9142 129.35 63.3713 128.783 62.9904 128.078C62.6189 127.373 62.3665 126.592 62.2332 125.735C62.1094 124.868 62.0474 124.002 62.0474 123.135V118.935C61.9998 118.63 61.8522 118.406 61.6046 118.263C61.3665 118.111 61.0998 118.015 60.8045 117.977C60.5093 117.939 60.2759 117.92 60.1045 117.92H59.8759V117.392H62.0474C62.7904 117.392 63.4475 117.315 64.019 117.163C64.6 117.001 65.0905 116.82 65.4905 116.62C65.8906 116.411 66.1906 116.225 66.3906 116.063L66.7049 115.82V123.178C66.7049 125.016 66.8525 126.421 67.1478 127.392C67.443 128.364 67.9955 128.849 68.805 128.849C69.2527 128.849 69.667 128.664 70.048 128.292C70.4289 127.911 70.748 127.426 71.0052 126.835C71.2623 126.245 71.4433 125.611 71.5481 124.935V118.935C71.4814 118.63 71.3242 118.406 71.0766 118.263C70.829 118.111 70.5575 118.015 70.2623 117.977C69.967 117.939 69.7337 117.92 69.5622 117.92H69.3336V117.392H71.5481C72.291 117.392 72.9482 117.315 73.5196 117.163C74.0911 117.001 74.5721 116.82 74.9626 116.62C75.3626 116.411 75.6626 116.225 75.8626 116.063L76.1627 115.82V128.278C76.2008 128.545 76.3008 128.764 76.4627 128.935C76.6246 129.107 76.8056 129.24 77.0056 129.335C77.2151 129.421 77.3961 129.478 77.5485 129.507L77.777 129.55L77.3484 129.778C77.0722 129.921 76.6913 130.064 76.2055 130.207C75.7198 130.35 75.1769 130.421 74.5768 130.421ZM86.1702 130.407C84.9606 130.407 83.7986 130.083 82.6842 129.435C81.5794 128.788 80.6746 127.916 79.9698 126.821C79.2649 125.716 78.9125 124.483 78.9125 123.121C78.9125 121.844 79.184 120.701 79.7269 119.692C80.2793 118.682 81.0222 117.854 81.9556 117.206C82.8985 116.549 83.9795 116.111 85.1987 115.892C85.8273 115.777 86.4845 115.72 87.1702 115.72C87.9608 115.72 88.6798 115.768 89.3275 115.863C89.8418 115.93 90.3419 116.058 90.8276 116.249C91.161 116.382 91.461 116.558 91.7277 116.777C92.0991 117.092 92.3658 117.477 92.5277 117.934C92.6039 118.173 92.642 118.411 92.642 118.649C92.642 118.916 92.5849 119.168 92.4706 119.406C92.3563 119.644 92.1658 119.844 91.8991 120.006C91.5372 120.197 91.1991 120.292 90.8848 120.292C90.58 120.292 90.3276 120.235 90.1276 120.12C89.9275 120.006 89.8275 119.901 89.8275 119.806V119.777C89.8752 119.625 89.918 119.468 89.9561 119.306C89.9942 119.135 90.0228 118.987 90.0418 118.863V118.692C90.0418 118.177 89.8894 117.758 89.5847 117.434C89.2894 117.101 88.9418 116.853 88.5417 116.692C88.1417 116.53 87.775 116.449 87.4417 116.449C87.0988 116.449 86.7273 116.515 86.3273 116.649C85.9273 116.773 85.5606 117.001 85.2272 117.334C84.6558 117.982 84.2177 118.777 83.9129 119.72C83.6081 120.663 83.4557 121.606 83.4557 122.549C83.4557 122.806 83.47 123.059 83.4986 123.306V123.335C83.4986 123.344 83.5033 123.359 83.5128 123.378C83.5128 123.435 83.5128 123.506 83.5128 123.592C83.5224 123.668 83.5319 123.744 83.5414 123.821C83.7319 125.068 84.1224 126.064 84.7129 126.807C85.313 127.549 86.0225 128.083 86.8416 128.407C87.3845 128.588 87.9131 128.678 88.4274 128.678C89.3513 128.678 90.199 128.454 90.9705 128.007C91.742 127.559 92.3515 127.026 92.7992 126.406V126.749C92.6658 127.102 92.4372 127.488 92.1134 127.907C91.7991 128.316 91.3705 128.711 90.8276 129.092C90.2942 129.473 89.6418 129.788 88.8703 130.035C88.0989 130.283 87.1988 130.407 86.1702 130.407ZM112.222 130.421H103.192V129.907H103.378C103.559 129.907 103.807 129.888 104.121 129.85C104.445 129.802 104.731 129.697 104.978 129.535C105.235 129.364 105.374 129.102 105.393 128.749V123.078C105.393 121.239 105.245 119.839 104.95 118.877C104.654 117.906 104.107 117.42 103.307 117.42C102.84 117.42 102.416 117.615 102.035 118.006C101.654 118.396 101.335 118.896 101.078 119.506C100.821 120.116 100.645 120.763 100.549 121.449V128.664C100.549 128.673 100.554 128.683 100.564 128.692C100.573 128.702 100.578 128.716 100.578 128.735C100.578 129.097 100.707 129.359 100.964 129.521C101.364 129.778 101.897 129.907 102.564 129.907H102.778V130.421H93.7489V129.907H93.9347C95.1062 129.907 95.7729 129.583 95.9348 128.935V111.191C95.8776 110.877 95.7205 110.644 95.4633 110.491C95.0728 110.263 94.5585 110.148 93.9204 110.148H93.7489V109.634H95.9348C96.6777 109.634 97.3349 109.553 97.9064 109.391C98.4778 109.229 98.9588 109.048 99.3493 108.848C99.7398 108.648 100.04 108.467 100.249 108.305L100.549 108.062V119.392C100.807 118.696 101.211 118.011 101.764 117.334C102.573 116.344 103.535 115.849 104.65 115.849C105.821 115.849 106.759 116.063 107.464 116.492C108.178 116.92 108.721 117.487 109.093 118.192C109.474 118.887 109.726 119.668 109.85 120.535C109.974 121.392 110.036 122.249 110.036 123.106V128.921C110.102 129.216 110.26 129.435 110.507 129.578C110.755 129.721 111.021 129.811 111.307 129.85C111.602 129.888 111.836 129.907 112.007 129.907H112.222V130.421ZM120.058 130.407C118.629 130.407 117.367 130.083 116.272 129.435C115.186 128.788 114.338 127.916 113.729 126.821C113.119 125.716 112.814 124.483 112.814 123.121C112.814 121.749 113.128 120.516 113.757 119.42C114.386 118.315 115.238 117.439 116.314 116.792C117.391 116.144 118.591 115.82 119.915 115.82C121.524 115.82 122.934 116.263 124.143 117.149C125.363 118.035 126.21 119.216 126.687 120.692L126.729 120.835C126.767 120.949 126.796 121.063 126.815 121.178L117.429 123.821C117.572 125.068 117.953 126.064 118.572 126.807C119.6 128.054 120.848 128.678 122.315 128.678C123.239 128.678 124.086 128.454 124.858 128.007C125.629 127.559 126.239 127.026 126.687 126.406V126.749C126.553 127.102 126.325 127.488 126.001 127.907C125.686 128.316 125.258 128.711 124.715 129.092C124.182 129.473 123.529 129.788 122.758 130.035C121.986 130.283 121.086 130.407 120.058 130.407ZM117.386 123.306L122.372 121.906C122.315 120.858 122.186 119.92 121.986 119.092C121.786 118.254 121.515 117.587 121.172 117.092C120.829 116.587 120.41 116.334 119.915 116.334C119.524 116.334 119.167 116.525 118.843 116.906C118.529 117.287 118.257 117.782 118.029 118.392C117.81 118.992 117.638 119.649 117.514 120.363C117.4 121.068 117.343 121.759 117.343 122.435C117.343 122.73 117.357 123.021 117.386 123.306ZM136.937 130.435H127.908V129.907H128.108C129.374 129.907 130.046 129.53 130.122 128.778V118.949C130.065 118.644 129.917 118.42 129.679 118.277C129.298 118.049 128.794 117.934 128.165 117.934H127.936V117.42H130.122C130.856 117.42 131.508 117.339 132.079 117.177C132.66 117.015 133.146 116.834 133.537 116.634C133.927 116.425 134.222 116.239 134.422 116.077L134.737 115.834V117.977C135.242 117.549 135.765 117.163 136.308 116.82C137.242 116.239 138.27 115.915 139.394 115.849C139.889 115.849 140.375 115.958 140.851 116.177C141.242 116.387 141.547 116.682 141.766 117.063C141.985 117.444 142.094 117.849 142.094 118.277C142.094 118.496 142.066 118.711 142.009 118.92C141.875 119.282 141.632 119.654 141.28 120.035C140.937 120.416 140.609 120.62 140.294 120.649C140.189 120.649 140.066 120.573 139.923 120.42C139.78 120.258 139.632 120.082 139.48 119.892C138.537 118.701 137.537 118.106 136.48 118.106C135.889 118.106 135.37 118.287 134.922 118.649L134.737 118.806V128.778C134.756 129.121 134.889 129.373 135.137 129.535C135.394 129.697 135.68 129.802 135.994 129.85C136.308 129.888 136.556 129.907 136.737 129.907H136.937V130.435ZM150.359 130.407C149.035 130.407 147.835 130.083 146.759 129.435C145.682 128.788 144.83 127.916 144.201 126.821C143.573 125.716 143.258 124.483 143.258 123.121C143.258 121.759 143.573 120.525 144.201 119.42C144.83 118.315 145.682 117.439 146.759 116.792C147.835 116.144 149.035 115.82 150.359 115.82C151.692 115.82 152.892 116.144 153.959 116.792C155.035 117.439 155.888 118.315 156.516 119.42C157.155 120.525 157.474 121.759 157.474 123.121C157.474 124.483 157.155 125.716 156.516 126.821C155.888 127.916 155.035 128.788 153.959 129.435C152.892 130.083 151.692 130.407 150.359 130.407ZM150.359 129.892C150.759 129.892 151.111 129.683 151.416 129.264C151.73 128.835 151.992 128.283 152.202 127.607C152.421 126.921 152.583 126.183 152.688 125.392C152.802 124.602 152.859 123.844 152.859 123.121C152.859 121.901 152.764 120.778 152.573 119.749C152.392 118.72 152.116 117.896 151.745 117.277C151.373 116.649 150.911 116.334 150.359 116.334C149.778 116.334 149.302 116.649 148.93 117.277C148.568 117.896 148.302 118.725 148.13 119.763C147.959 120.792 147.873 121.911 147.873 123.121C147.873 123.883 147.921 124.664 148.016 125.464C148.121 126.264 148.278 126.997 148.487 127.664C148.697 128.33 148.954 128.869 149.259 129.278C149.573 129.688 149.94 129.892 150.359 129.892ZM65.5477 164.435C64.3857 164.435 63.5333 164.145 62.9904 163.564C62.1713 164.145 61.2379 164.435 60.1902 164.435C59.5235 164.435 58.8949 164.34 58.3043 164.15C57.7234 163.95 57.2328 163.707 56.8328 163.421C56.2518 163.002 55.7994 162.559 55.4756 162.092C55.1613 161.616 54.9422 161.154 54.8184 160.706C54.7041 160.259 54.647 159.873 54.647 159.549C54.647 159.206 54.7041 158.783 54.8184 158.278C54.9327 157.773 55.1518 157.268 55.4756 156.763C55.8089 156.259 56.2899 155.82 56.9185 155.449C57.9186 154.906 59.0044 154.635 60.1759 154.635C60.4712 154.635 60.7616 154.654 61.0474 154.692C61.7427 154.797 62.2141 154.939 62.4618 155.12C62.4046 153.225 62.0855 151.868 61.5046 151.049C61.1617 150.687 60.7521 150.506 60.2759 150.506C59.8854 150.515 59.5473 150.601 59.2616 150.763C58.6901 151.096 58.4044 151.692 58.4044 152.549C58.4044 152.673 58.4091 152.796 58.4186 152.92C58.4282 153.035 58.452 153.177 58.4901 153.349C58.5377 153.511 58.5853 153.668 58.6329 153.82V153.849C58.6329 153.944 58.5329 154.054 58.3329 154.178C58.1329 154.292 57.8757 154.349 57.5614 154.349C57.2567 154.349 56.9233 154.254 56.5614 154.063C56.0661 153.758 55.8185 153.306 55.8185 152.706C55.8185 152.468 55.8566 152.23 55.9328 151.992C56.2185 151.192 56.7804 150.63 57.6186 150.306C58.4853 149.992 59.3473 149.834 60.2045 149.834L60.5759 149.849C61.8141 149.906 62.9189 150.282 63.8904 150.977C64.8714 151.663 65.6477 152.558 66.2191 153.663C66.8001 154.768 67.0906 155.944 67.0906 157.192V162.149C67.0906 162.397 67.143 162.607 67.2478 162.778C67.3621 162.95 67.5002 163.088 67.6621 163.192C67.824 163.297 67.9812 163.378 68.1336 163.435C68.2955 163.492 68.4288 163.53 68.5336 163.55L68.705 163.578L68.2907 163.792C68.0145 163.935 67.6383 164.078 67.1621 164.221C66.6858 164.364 66.1477 164.435 65.5477 164.435ZM61.3903 163.578C61.8474 163.578 62.2903 163.43 62.7189 163.135C62.557 162.821 62.476 162.407 62.476 161.892V155.835L62.376 155.778C62.2713 155.692 62.1427 155.611 61.9903 155.535C61.8379 155.459 61.6474 155.42 61.4188 155.42C60.7997 155.42 60.3235 155.72 59.9902 156.32C59.733 156.787 59.5473 157.321 59.433 157.921C59.3282 158.521 59.2758 159.049 59.2758 159.506C59.2758 160.002 59.3044 160.521 59.3616 161.064C59.4282 161.607 59.5711 162.097 59.7902 162.535C60.0187 162.964 60.3711 163.278 60.8474 163.478C61.0283 163.545 61.2093 163.578 61.3903 163.578ZM87.7703 164.407H78.7411V163.892H78.9268C79.1078 163.892 79.3554 163.873 79.6697 163.835C79.9936 163.788 80.2793 163.683 80.5269 163.521C80.7841 163.35 80.9222 163.088 80.9413 162.735V157.063C80.9413 155.225 80.7936 153.825 80.4984 152.863C80.2031 151.892 79.6555 151.406 78.8554 151.406C78.3982 151.406 77.9792 151.596 77.5982 151.977C77.2267 152.349 76.9124 152.83 76.6553 153.42C76.4076 154.001 76.2314 154.63 76.1267 155.306V162.749C76.1457 163.092 76.279 163.35 76.5267 163.521C76.7743 163.683 77.0553 163.788 77.3696 163.835C77.6839 163.873 77.9315 163.892 78.1125 163.892H78.3268V164.407H69.2833V163.892H69.4691C69.65 163.892 69.8977 163.873 70.212 163.835C70.5263 163.788 70.8073 163.683 71.0549 163.521C71.3121 163.359 71.4597 163.107 71.4978 162.764V152.949C71.4406 152.635 71.2835 152.401 71.0263 152.249C70.7692 152.096 70.4882 152.001 70.1834 151.963C69.8881 151.925 69.6548 151.906 69.4834 151.906H69.3119V151.406H71.4978C72.2407 151.406 72.8979 151.325 73.4693 151.163C74.0408 151.001 74.5218 150.82 74.9123 150.62C75.3123 150.411 75.6171 150.225 75.8266 150.063L76.1267 149.82V153.335C76.3838 152.63 76.7886 151.944 77.341 151.277C78.1411 150.315 79.0935 149.834 80.1983 149.834C81.3698 149.834 82.308 150.049 83.0128 150.477C83.7271 150.906 84.27 151.473 84.6415 152.177C85.0225 152.873 85.2749 153.654 85.3987 154.52C85.5225 155.378 85.5844 156.235 85.5844 157.092V162.907C85.6511 163.202 85.8082 163.421 86.0559 163.564C86.3035 163.707 86.5702 163.797 86.8559 163.835C87.1512 163.873 87.3845 163.892 87.556 163.892H87.7703V164.407ZM103.964 164.435H97.1492V163.707C96.7872 164.164 96.1634 164.397 95.2776 164.407C94.0109 164.407 92.8489 164.083 91.7917 163.435C90.744 162.778 89.9058 161.902 89.2772 160.807C88.6581 159.711 88.3486 158.492 88.3486 157.149C88.3486 155.787 88.6629 154.554 89.2915 153.449C89.9201 152.335 90.7726 151.454 91.8488 150.806C92.9251 150.149 94.1252 149.82 95.449 149.82C96.0491 149.82 96.6158 149.896 97.1492 150.049V145.205C97.1015 144.891 96.9491 144.658 96.692 144.505C96.4348 144.353 96.1539 144.258 95.8491 144.22C95.5538 144.182 95.3205 144.163 95.149 144.163H94.9776V143.648H97.1492C97.8921 143.648 98.5493 143.567 99.1207 143.405C99.7017 143.243 100.187 143.062 100.578 142.862C100.968 142.662 101.268 142.482 101.478 142.32L101.778 142.077V162.892C101.835 163.207 101.992 163.44 102.249 163.592C102.507 163.745 102.783 163.84 103.078 163.878C103.383 163.916 103.621 163.935 103.792 163.935H103.964V164.435ZM95.6205 163.935C95.9538 163.935 96.2586 163.835 96.5348 163.635C96.8206 163.435 97.0253 163.216 97.1492 162.978V151.949C97.0253 151.615 96.8682 151.325 96.6777 151.077C96.3443 150.601 95.9348 150.363 95.449 150.363C94.8681 150.363 94.3918 150.677 94.0204 151.306C93.6585 151.925 93.3918 152.749 93.2203 153.777C93.0489 154.806 92.9632 155.93 92.9632 157.149C92.9632 158.168 93.0537 159.187 93.2346 160.206C93.4156 161.216 93.6918 162.064 94.0632 162.749C94.4633 163.492 94.9824 163.888 95.6205 163.935ZM115.572 164.435C114.41 164.435 113.557 164.145 113.014 163.564C112.195 164.145 111.262 164.435 110.214 164.435C109.547 164.435 108.919 164.34 108.328 164.15C107.747 163.95 107.257 163.707 106.857 163.421C106.276 163.002 105.823 162.559 105.499 162.092C105.185 161.616 104.966 161.154 104.842 160.706C104.728 160.259 104.671 159.873 104.671 159.549C104.671 159.206 104.728 158.783 104.842 158.278C104.957 157.773 105.176 157.268 105.499 156.763C105.833 156.259 106.314 155.82 106.942 155.449C107.942 154.906 109.028 154.635 110.2 154.635C110.495 154.635 110.785 154.654 111.071 154.692C111.766 154.797 112.238 154.939 112.486 155.12C112.428 153.225 112.109 151.868 111.528 151.049C111.186 150.687 110.776 150.506 110.3 150.506C109.909 150.515 109.571 150.601 109.285 150.763C108.714 151.096 108.428 151.692 108.428 152.549C108.428 152.673 108.433 152.796 108.442 152.92C108.452 153.035 108.476 153.177 108.514 153.349C108.562 153.511 108.609 153.668 108.657 153.82V153.849C108.657 153.944 108.557 154.054 108.357 154.178C108.157 154.292 107.9 154.349 107.585 154.349C107.28 154.349 106.947 154.254 106.585 154.063C106.09 153.758 105.842 153.306 105.842 152.706C105.842 152.468 105.88 152.23 105.957 151.992C106.242 151.192 106.804 150.63 107.642 150.306C108.509 149.992 109.371 149.834 110.228 149.834L110.6 149.849C111.838 149.906 112.943 150.282 113.914 150.977C114.895 151.663 115.672 152.558 116.243 153.663C116.824 154.768 117.114 155.944 117.114 157.192V162.149C117.114 162.397 117.167 162.607 117.272 162.778C117.386 162.95 117.524 163.088 117.686 163.192C117.848 163.297 118.005 163.378 118.157 163.435C118.319 163.492 118.453 163.53 118.557 163.55L118.729 163.578L118.315 163.792C118.038 163.935 117.662 164.078 117.186 164.221C116.71 164.364 116.172 164.435 115.572 164.435ZM111.414 163.578C111.871 163.578 112.314 163.43 112.743 163.135C112.581 162.821 112.5 162.407 112.5 161.892V155.835L112.4 155.778C112.295 155.692 112.167 155.611 112.014 155.535C111.862 155.459 111.671 155.42 111.443 155.42C110.824 155.42 110.347 155.72 110.014 156.32C109.757 156.787 109.571 157.321 109.457 157.921C109.352 158.521 109.3 159.049 109.3 159.506C109.3 160.002 109.328 160.521 109.385 161.064C109.452 161.607 109.595 162.097 109.814 162.535C110.043 162.964 110.395 163.278 110.871 163.478C111.052 163.545 111.233 163.578 111.414 163.578ZM128.336 164.407H119.307V163.892H119.493C120.664 163.892 121.331 163.569 121.493 162.921V145.177C121.436 144.863 121.279 144.629 121.022 144.477C120.631 144.248 120.117 144.134 119.479 144.134H119.307V143.62H121.493C122.236 143.62 122.893 143.539 123.465 143.377C124.036 143.215 124.517 143.034 124.908 142.834C125.308 142.634 125.612 142.453 125.822 142.291L126.122 142.048C126.122 155.782 126.127 162.673 126.136 162.721C126.136 163.083 126.265 163.345 126.522 163.507C126.922 163.764 127.455 163.892 128.122 163.892H128.336V164.407ZM143.33 164.421C142.882 164.421 142.411 164.359 141.916 164.235C141.487 164.131 141.096 163.878 140.744 163.478C140.449 163.107 140.301 162.569 140.301 161.864V160.892C140.025 161.616 139.615 162.307 139.072 162.964C138.272 163.935 137.32 164.421 136.215 164.421C135.034 164.421 134.086 164.207 133.372 163.778C132.667 163.35 132.124 162.783 131.743 162.078C131.372 161.373 131.12 160.592 130.986 159.735C130.862 158.868 130.8 158.002 130.8 157.135V152.935C130.753 152.63 130.605 152.406 130.358 152.263C130.12 152.111 129.853 152.015 129.558 151.977C129.262 151.939 129.029 151.92 128.858 151.92H128.629V151.392H130.8C131.543 151.392 132.201 151.315 132.772 151.163C133.353 151.001 133.844 150.82 134.244 150.62C134.644 150.411 134.944 150.225 135.144 150.063L135.458 149.82V157.178C135.458 159.016 135.606 160.421 135.901 161.392C136.196 162.364 136.749 162.849 137.558 162.849C138.006 162.849 138.42 162.664 138.801 162.292C139.182 161.911 139.501 161.426 139.758 160.835C140.015 160.245 140.196 159.611 140.301 158.935V152.935C140.234 152.63 140.077 152.406 139.83 152.263C139.582 152.111 139.311 152.015 139.015 151.977C138.72 151.939 138.487 151.92 138.315 151.92H138.087V151.392H140.301C141.044 151.392 141.701 151.315 142.273 151.163C142.844 151.001 143.325 150.82 143.716 150.62C144.116 150.411 144.416 150.225 144.616 150.063L144.916 149.82V162.278C144.954 162.545 145.054 162.764 145.216 162.935C145.378 163.107 145.559 163.24 145.759 163.335C145.968 163.421 146.149 163.478 146.302 163.507L146.53 163.55L146.101 163.778C145.825 163.921 145.444 164.064 144.959 164.207C144.473 164.35 143.93 164.421 143.33 164.421ZM136.787 148.991L141.33 143.92L142.387 144.934L136.787 148.991Z" fill="#2C2C2C"/>
<defs>
<clipPath id="clip0_147_1211">
<rect width="201.253" height="204.935" fill="white"/>
</clipPath>
</defs>
</svg>
