<svg width="202" height="205" viewBox="0 0 202 205" fill="none" xmlns="http://www.w3.org/2000/svg">
<g clip-path="url(#clip0_147_1117)">
<path d="M2.02369 132.812H2.63325C2.60887 130.142 2.7064 127.46 2.90146 124.765C2.69421 124.753 2.49915 124.729 2.30409 124.668C2.09684 127.399 1.99931 130.117 2.02369 132.812Z" fill="#70A9A1"/>
<path d="M6.55892 101.37C1.06066 81.2425 1.21915 61.4683 7.35136 44.3517C14.0444 25.6869 27.1378 12.2034 45.2174 5.35186C53.7026 2.13336 62.7973 0.597263 72.148 0.597263C80.5843 0.597263 89.2279 1.85296 97.8715 4.21807C98.5543 4.19369 99.237 4.16931 99.9197 4.16931C80.9379 -1.38991 61.8219 -1.58497 45.0102 4.77887C26.7477 11.7035 13.5323 25.309 6.77837 44.1445C0.499861 61.6511 0.438904 81.9008 6.24195 102.48C6.33948 102.114 6.4492 101.748 6.55892 101.383C6.55892 101.407 6.57111 101.443 6.58331 101.468C6.58331 101.407 6.58331 101.346 6.58331 101.273C6.58331 101.297 6.55892 101.334 6.55892 101.358V101.37Z" fill="#70A9A1"/>
<path d="M156.499 5.35185C171.068 10.8745 182.577 21.0664 189.928 34.5499C190.086 34.428 190.269 34.3305 190.464 34.2452C183.04 20.6519 171.422 10.3625 156.719 4.77886C139.919 -1.58498 120.791 -1.37773 101.822 4.1693C102.504 4.1693 103.175 4.20587 103.857 4.21806C122.096 -0.78036 140.383 -0.76817 156.499 5.35185Z" fill="#70A9A1"/>
<path d="M2.9259 118.584C2.98686 118.572 3.03562 118.572 3.09658 118.572C3.25507 118.572 3.40136 118.584 3.54766 118.609C4.1938 113.635 5.20567 108.636 6.5589 103.626C6.44918 103.248 6.33946 102.87 6.24193 102.492C4.73021 107.868 3.62081 113.245 2.9259 118.584Z" fill="#70A9A1"/>
<path d="M197.962 58.4448L198.571 58.3473C197.499 51.7396 195.694 45.5342 193.183 39.8165C193.012 39.9141 192.817 39.9872 192.622 40.0482C195.109 45.7171 196.901 51.8859 197.962 58.4448Z" fill="#70A9A1"/>
<path d="M45.2174 199.583C22.3465 190.915 7.13183 170.909 3.48664 144.698L2.87708 144.783C6.55884 171.214 21.9198 191.391 44.9979 200.144C53.544 203.387 62.6996 204.923 72.1235 204.923C81.5473 204.923 90.703 203.448 100.09 200.693C99.4076 200.693 98.737 200.656 98.0543 200.644C79.7552 205.691 61.3952 205.715 45.2174 199.583Z" fill="#70A9A1"/>
<path d="M195.133 103.699C195.133 103.699 195.158 103.626 195.158 103.589C195.158 103.565 195.146 103.528 195.133 103.504C195.133 103.565 195.133 103.638 195.133 103.699Z" fill="#70A9A1"/>
<path d="M195.487 102.443C198.864 90.3982 200.254 78.3898 199.51 66.7959L198.901 66.8325C199.62 78.0484 198.328 89.6667 195.158 101.322C195.158 101.322 195.158 101.334 195.158 101.346C195.268 101.712 195.365 102.077 195.475 102.443H195.487Z" fill="#70A9A1"/>
<path d="M195.158 101.322C195.158 101.322 195.146 101.273 195.133 101.248C195.133 101.297 195.133 101.346 195.133 101.395C195.133 101.37 195.146 101.346 195.158 101.322Z" fill="#70A9A1"/>
<path d="M6.55896 103.626C6.55896 103.626 6.58334 103.699 6.59553 103.723C6.59553 103.662 6.59553 103.589 6.59553 103.528C6.59553 103.565 6.58334 103.589 6.57115 103.626H6.55896Z" fill="#70A9A1"/>
<path d="M195.487 102.443C195.377 102.833 195.28 103.211 195.17 103.601C200.668 123.729 200.498 143.491 194.365 160.595C191.671 168.105 187.941 174.762 183.271 180.504L184.893 179.236L181.845 183.113C181.845 183.113 181.857 183.101 181.869 183.088H181.882C187.477 176.822 191.878 169.349 194.951 160.803C201.229 143.296 201.302 123.034 195.511 102.48C195.511 102.467 195.511 102.455 195.511 102.443H195.487Z" fill="#70A9A1"/>
<path d="M173.86 189.794C168.752 193.853 162.961 197.133 156.499 199.583C140.322 205.728 121.937 205.703 103.626 200.656C102.955 200.68 102.297 200.705 101.626 200.705C111.002 203.484 120.425 204.935 129.569 204.935C138.712 204.935 148.161 203.399 156.707 200.156C162.412 197.986 167.642 195.17 172.324 191.732L172.348 191.708L173.86 189.781H173.848L173.86 189.794Z" fill="#70A9A1"/>
<path d="M2.3529 124.058C1.34102 123.729 0.609548 122.778 0.609548 121.669C0.609548 120.389 1.59704 119.328 2.84055 119.194C2.84055 119.096 2.85274 118.999 2.87712 118.889C2.87712 118.792 2.90151 118.682 2.9137 118.584C1.28007 118.67 -0.012207 120.023 -0.012207 121.669C-0.012207 123.095 0.963095 124.314 2.29194 124.668C2.29194 124.558 2.30413 124.461 2.31633 124.363C2.31633 124.253 2.32852 124.156 2.34071 124.058H2.3529Z" fill="#70A9A1"/>
<path d="M3.46229 119.206C4.66922 119.389 5.59576 120.425 5.59576 121.669C5.59576 123.046 4.47416 124.168 3.09655 124.168C3.04778 124.168 2.99902 124.168 2.95025 124.156C2.93806 124.253 2.93806 124.351 2.92587 124.461C2.91368 124.558 2.91368 124.656 2.90149 124.765C2.96245 124.778 3.03559 124.778 3.09655 124.778C4.80333 124.778 6.20532 123.376 6.20532 121.669C6.20532 120.12 5.04715 118.828 3.54763 118.609C3.52324 118.706 3.51105 118.804 3.49886 118.914C3.48667 119.011 3.47448 119.109 3.46229 119.206Z" fill="#70A9A1"/>
<path d="M192.366 39.4875C192.159 39.5485 191.952 39.5729 191.732 39.5729C190.354 39.5729 189.245 38.4513 189.245 37.0736C189.245 36.269 189.623 35.5619 190.22 35.0987C190.184 35.0011 190.135 34.9036 190.086 34.8183C190.025 34.7207 189.989 34.6354 189.928 34.55C189.148 35.123 188.635 36.0374 188.635 37.0736C188.635 38.7804 190.025 40.1824 191.732 40.1824C192.037 40.1824 192.342 40.1336 192.622 40.0483C192.585 39.9508 192.549 39.8533 192.5 39.7679C192.464 39.6704 192.415 39.5729 192.366 39.4875Z" fill="#70A9A1"/>
<path d="M190.757 34.7817C191.062 34.6598 191.391 34.5866 191.732 34.5866C193.11 34.5866 194.219 35.7082 194.219 37.0736C194.219 38.0124 193.707 38.8292 192.939 39.2559C193 39.3534 193.037 39.4387 193.061 39.5363C193.122 39.6338 193.159 39.7191 193.183 39.8167C194.158 39.2924 194.829 38.2562 194.829 37.0736C194.829 35.3669 193.439 33.9771 191.732 33.9771C191.281 33.9771 190.854 34.0746 190.464 34.2453C190.513 34.3306 190.562 34.4159 190.611 34.5135C190.659 34.5988 190.708 34.6963 190.757 34.7817Z" fill="#70A9A1"/>
<path d="M179.346 183.601L178.517 176.591L177.688 183.601L178.517 184.259L179.346 183.601Z" fill="#70A9A1"/>
<path d="M177.688 187.611L178.517 194.621L179.346 187.611L178.517 186.965L177.688 187.611Z" fill="#70A9A1"/>
<path d="M176.505 184.783L169.507 185.612L176.505 186.441L177.164 185.612L176.505 184.783Z" fill="#70A9A1"/>
<path d="M180.516 186.441L187.526 185.612L180.516 184.783L179.87 185.612L180.516 186.441Z" fill="#70A9A1"/>
<path d="M179.468 184.649H179.553C180.845 183.332 182.077 181.955 183.247 180.516L179.321 183.588L179.443 184.637L179.468 184.649Z" fill="#70A9A1"/>
<path d="M176.505 186.441L173.872 189.781C175.14 188.782 176.371 187.721 177.542 186.612V186.575L176.481 186.453L176.505 186.441Z" fill="#70A9A1"/>
<path d="M180.309 184.746L180.516 184.771L181.833 183.101C181.345 183.661 180.833 184.198 180.321 184.734L180.309 184.746Z" fill="#70A9A1"/>
<path d="M179.346 187.611L184.893 191.976L180.516 186.441L179.468 186.563L179.346 187.611Z" fill="#70A9A1"/>
<path d="M177.688 183.601L172.141 179.236L176.505 184.783L177.554 184.649L177.688 183.601Z" fill="#70A9A1"/>
<path d="M177.651 187.368C175.969 188.916 174.213 190.342 172.36 191.708L172.141 191.988L177.688 187.624L177.663 187.368H177.651Z" fill="#70A9A1"/>
<path d="M177.651 187.368C178.566 186.514 179.443 185.661 180.309 184.759L179.553 184.673C178.895 185.344 178.249 185.99 177.554 186.612L177.639 187.38L177.651 187.368Z" fill="#70A9A1"/>
<path d="M4.85217 138.493C4.85217 137.237 3.84029 136.225 2.58459 136.225C1.32889 136.225 0.317017 137.237 0.317017 138.493C0.317017 139.748 1.32889 140.76 2.58459 140.76C3.84029 140.76 4.85217 139.748 4.85217 138.493Z" fill="#70A9A1"/>
<path d="M198.974 60.1639C197.718 60.1639 196.706 61.1758 196.706 62.4315C196.706 63.6872 197.718 64.6991 198.974 64.6991C200.229 64.6991 201.241 63.6872 201.241 62.4315C201.241 61.1758 200.229 60.1639 198.974 60.1639Z" fill="#70A9A1"/>
<path d="M195.133 103.699C192.22 113.671 187.953 123.644 182.357 133.421C163.46 166.435 132.982 190.452 101.87 200.168C102.455 200.339 103.04 200.485 103.626 200.656C154.024 199.144 194.499 156.438 195.133 103.699Z" fill="#70A9A1"/>
<path d="M19.884 133.129C38.8658 166.301 69.5756 190.354 100.81 199.864C132.08 190.379 162.827 166.313 181.833 133.116C187.612 123.022 191.964 112.708 194.853 102.419C191.952 92.1902 187.599 81.8764 181.833 71.8064C162.839 38.6218 132.117 14.5562 100.858 5.05923C101.2 4.94951 101.529 4.85198 101.87 4.75445C101.541 4.64472 101.212 4.535 100.871 4.42528C101.188 4.32775 101.505 4.2546 101.822 4.15707C101.505 4.15707 101.188 4.13269 100.871 4.13269C100.554 4.13269 100.237 4.15707 99.9197 4.15707C100.237 4.2546 100.554 4.32775 100.858 4.42528C100.517 4.535 100.176 4.64472 99.8344 4.75445C100.176 4.85198 100.505 4.94951 100.846 5.05923C83.108 10.4478 65.5281 20.5421 50.1793 34.3305L50.1428 34.367C50.1428 34.367 50.1427 34.367 50.1306 34.367L47.6679 37.488L54.6779 38.317L47.6679 39.146L52.0324 44.693L46.4854 40.3286L45.6564 47.3386L44.8274 40.3286L40.792 43.5105C32.9043 51.9347 25.8334 61.4317 19.884 71.8064C14.1297 81.852 9.76526 92.178 6.86374 102.504C6.7784 102.151 6.66868 101.809 6.58334 101.456C6.58334 101.785 6.55896 102.102 6.55896 102.419C6.55896 102.784 6.58334 103.15 6.58334 103.516C6.66868 103.187 6.76621 102.845 6.86374 102.516C9.76526 112.745 14.1175 123.034 19.884 133.116V133.129Z" fill="#70A9A1"/>
<path d="M99.8343 200.168C68.7222 190.464 38.2562 166.435 19.3597 133.421C13.7761 123.656 9.50917 113.659 6.59546 103.723C7.25379 156.426 47.6922 199.108 98.0666 200.644C98.6639 200.485 99.2613 200.339 99.8587 200.156L99.8343 200.168Z" fill="#70A9A1"/>
<path d="M182.357 71.514C187.965 81.2914 192.244 91.3126 195.146 101.248C194.548 48.5578 154.171 5.85177 103.857 4.21814C103.199 4.40101 102.541 4.57169 101.882 4.76675C132.994 14.471 163.473 38.5 182.357 71.514Z" fill="#70A9A1"/>
<path d="M100.834 200.485C100.59 200.558 100.346 200.632 100.103 200.705C100.359 200.705 100.615 200.729 100.871 200.729C101.127 200.729 101.383 200.717 101.639 200.705C101.383 200.632 101.127 200.558 100.858 200.485C100.858 200.498 100.846 200.498 100.834 200.485Z" fill="#70A9A1"/>
<path d="M6.58337 101.273C9.49709 91.2516 13.7762 81.2426 19.3598 71.5017C25.5896 60.6027 33.0994 50.679 41.4626 41.9379L41.5357 41.8526L43.657 39.1583L36.647 38.3293L43.657 37.5003L39.2926 31.9532L44.8396 36.3177L45.6686 29.3077L46.4976 36.3177L51.3253 32.514L51.3741 32.4653C66.1621 19.5547 82.9007 10.0212 99.8344 4.74233C99.1761 4.54727 98.5177 4.37659 97.8716 4.19373C47.546 5.86393 7.16856 48.5699 6.58337 101.273Z" fill="#70A9A1"/>
<path d="M100.858 199.876H100.846C100.846 199.876 100.822 199.876 100.81 199.876C100.48 199.973 100.164 200.083 99.8344 200.181C100.164 200.303 100.493 200.4 100.822 200.498C101.175 200.388 101.517 200.29 101.87 200.181C101.529 200.083 101.2 199.986 100.858 199.888V199.876Z" fill="#70A9A1"/>
<path d="M194.865 102.467C194.951 102.809 195.048 103.162 195.146 103.504C195.146 103.15 195.17 102.797 195.17 102.431C195.17 102.065 195.146 101.736 195.146 101.395C195.048 101.736 194.951 102.09 194.853 102.431C194.853 102.431 194.853 102.443 194.853 102.455L194.865 102.467Z" fill="#70A9A1"/>
<path d="M51.3251 32.5262L51.2276 32.5994C49.6427 33.977 48.0944 35.3912 46.5583 36.8541L46.6193 37.3784L46.8631 37.4027C47.936 36.3665 49.021 35.3668 50.1304 34.3793L52.0444 31.9532L51.3251 32.514V32.5262Z" fill="#70A9A1"/>
<path d="M44.7298 39.4753L44.7054 39.2924L44.1324 39.2192C43.2668 40.0726 42.4134 40.9382 41.5601 41.8282L41.5357 41.8526L39.2925 44.6931L40.8042 43.5106H40.8164C42.1087 42.1208 43.4131 40.7797 44.7298 39.4631V39.4753Z" fill="#70A9A1"/>
<path d="M46.5584 36.8664L46.4974 36.33L45.6684 36.9883L44.8394 36.33L44.7175 37.3784L43.6691 37.5003L44.3274 38.3293L43.6691 39.1583L44.1445 39.2193C44.9492 38.4147 45.7538 37.6344 46.5706 36.8542L46.5584 36.8664Z" fill="#70A9A1"/>
<path d="M46.8632 37.4149C46.1439 38.0976 45.4368 38.7803 44.7297 39.4752L44.8395 40.353L45.6685 39.6947L46.4975 40.353L46.6194 39.3046L47.6678 39.1826L47.0095 38.3536L47.6678 37.5246L46.8632 37.4271V37.4149Z" fill="#70A9A1"/>
</g>
<path d="M69.5982 79.4638H60.7548V78.9494L61.1405 78.9637C61.9406 78.9637 62.3406 78.697 62.3406 78.1637L62.2835 77.7922L57.6117 61.9769L50.9827 79.0923L44.268 62.0055L39.682 77.7922L39.6248 78.078C39.6248 78.3446 39.7296 78.5399 39.9392 78.6637C40.1582 78.7875 40.3963 78.8685 40.6535 78.9066C40.9106 78.9352 41.1011 78.9494 41.225 78.9494H41.3535V79.4638H36.4675V78.9494H36.7675C38.0057 78.9494 38.7867 78.597 39.1105 77.8922L43.968 61.2197L43.7394 60.634C43.5775 60.253 43.3156 59.9768 42.9536 59.8053C42.5917 59.6339 42.2345 59.5291 41.8821 59.491C41.5393 59.4529 41.3345 59.4339 41.2678 59.4339H41.2392V58.9481H48.0683L53.1829 72.0347L57.3974 61.1911L56.726 58.9481H63.7407V59.4339H63.655C63.5502 59.4339 63.3645 59.4529 63.0978 59.491C62.8311 59.5196 62.5835 59.6006 62.3549 59.7339C62.1263 59.8577 62.012 60.0577 62.012 60.3339C62.012 60.3816 63.7074 66.2248 67.0981 77.8637C67.2314 78.1875 67.4552 78.4304 67.7695 78.5923C68.2458 78.8304 68.8077 78.9494 69.4554 78.9494H69.5982V79.4638ZM77.8056 79.4066C76.377 79.4066 75.115 79.0828 74.0197 78.4351C72.9339 77.7875 72.0862 76.916 71.4766 75.8207C70.8671 74.7158 70.5623 73.4824 70.5623 72.1204C70.5623 70.7489 70.8766 69.5155 71.5052 68.4202C72.1338 67.3154 72.9863 66.4391 74.0625 65.7914C75.1388 65.1438 76.3389 64.82 77.6628 64.82C79.2724 64.82 80.682 65.2628 81.8916 66.1486C83.1107 67.0344 83.9584 68.2154 84.4346 69.6917L84.4775 69.8346C84.5156 69.9489 84.5442 70.0632 84.5632 70.1774L75.1769 72.8205C75.3197 74.0682 75.7007 75.0635 76.3198 75.8064C77.3484 77.0541 78.5961 77.6779 80.0629 77.6779C80.9868 77.6779 81.8345 77.4541 82.6059 77.0065C83.3774 76.5588 83.987 76.0254 84.4346 75.4064V75.7492C84.3013 76.1016 84.0727 76.4874 83.7489 76.9065C83.4346 77.316 83.006 77.7113 82.4631 78.0922C81.9297 78.4732 81.2773 78.7875 80.5058 79.0352C79.7343 79.2828 78.8343 79.4066 77.8056 79.4066ZM75.134 72.3062L80.1201 70.9061C80.0629 69.8584 79.9343 68.9202 79.7343 68.0916C79.5343 67.2534 79.2629 66.5867 78.92 66.0915C78.5771 65.5867 78.158 65.3343 77.6628 65.3343C77.2723 65.3343 76.9151 65.5248 76.5913 65.9057C76.2769 66.2867 76.0055 66.782 75.7769 67.3915C75.5579 67.9916 75.3864 68.6488 75.2626 69.3631C75.1483 70.0679 75.0912 70.7584 75.0912 71.4347C75.0912 71.7299 75.1054 72.0204 75.134 72.3062ZM98.3921 86.7214C98.0492 86.7214 97.7063 86.6642 97.3635 86.5499C96.9158 86.4071 96.5253 86.1452 96.192 85.7642C95.8681 85.3927 95.7062 84.9784 95.7062 84.5212C95.7062 84.2165 95.8157 83.9117 96.0348 83.6069C96.2634 83.3307 96.511 83.1354 96.7777 83.0211C97.0444 82.9068 97.2873 82.8497 97.5063 82.8497C97.6587 82.8497 97.7825 82.8687 97.8778 82.9068C97.9826 82.9545 98.0397 83.0116 98.0492 83.0783C98.0778 83.4116 98.1207 83.7212 98.1778 84.0069C98.3207 84.626 98.6016 85.0641 99.0207 85.3213C99.4398 85.588 99.8684 85.7213 100.307 85.7213C100.878 85.7213 101.349 85.5356 101.721 85.1641C101.997 84.8879 102.154 84.5308 102.192 84.0926C102.192 83.1497 101.588 82.5592 100.378 82.3211C99.7684 82.2068 99.0445 82.1116 98.2064 82.0354C97.2539 81.9592 96.2205 81.8258 95.1062 81.6353C94.7061 81.5877 94.2537 81.4544 93.7489 81.2353C93.2537 81.0258 92.8727 80.6162 92.606 80.0067C92.4727 79.6447 92.406 79.2971 92.406 78.9637C92.406 77.7732 93.2299 76.7017 94.8776 75.7492C94.1728 75.1873 93.6156 74.492 93.2061 73.6634C92.7965 72.8252 92.5917 71.9157 92.5917 70.9346C92.5917 69.7917 92.8584 68.7631 93.3918 67.8487C93.9347 66.9249 94.6633 66.1915 95.5776 65.6486C96.5015 65.1057 97.5301 64.8342 98.6635 64.8342C99.1969 64.8342 99.797 64.9247 100.464 65.1057C100.464 65.0295 100.473 64.9533 100.492 64.8771C100.568 64.3533 100.697 63.8342 100.878 63.3199C101.202 62.4817 101.759 61.9198 102.55 61.634C102.788 61.5578 103.03 61.5197 103.278 61.5197C103.878 61.5197 104.331 61.7674 104.635 62.2626C104.826 62.6246 104.921 62.9579 104.921 63.2627C104.921 63.577 104.859 63.8342 104.735 64.0342C104.621 64.2342 104.516 64.3342 104.421 64.3342H104.392C104.24 64.2866 104.078 64.2437 103.907 64.2056C103.745 64.158 103.602 64.1294 103.478 64.1199C103.364 64.1104 103.25 64.1056 103.135 64.1056C102.554 64.1056 102.107 64.2247 101.792 64.4628C101.478 64.7009 101.268 65.0009 101.164 65.3628C102.24 65.8486 103.102 66.5867 103.75 67.5773C104.397 68.5583 104.721 69.6774 104.721 70.9346C104.721 72.0776 104.45 73.111 103.907 74.0348C103.373 74.9492 102.65 75.6778 101.735 76.2207C100.821 76.7636 99.797 77.035 98.6635 77.035C97.4063 77.035 96.2872 76.7064 95.3062 76.0493C95.1062 76.1826 95.0014 76.3207 94.9919 76.4636C94.9919 76.7207 95.2586 76.9303 95.7919 77.0922C96.3348 77.2541 96.9872 77.3874 97.7492 77.4922C98.5207 77.5875 99.2731 77.6732 100.006 77.7494C100.74 77.816 101.326 77.8827 101.764 77.9494C102.507 78.0732 103.154 78.3685 103.707 78.8352C104.269 79.3018 104.64 79.8971 104.821 80.621C104.888 80.9162 104.921 81.2115 104.921 81.5068C104.921 82.402 104.612 83.2545 103.992 84.0641C103.373 84.8736 102.435 85.5594 101.178 86.1213C100.226 86.5214 99.2969 86.7214 98.3921 86.7214ZM98.6635 76.4921C99.4636 76.4921 100.03 75.7778 100.364 74.3491C100.583 73.3586 100.692 72.2204 100.692 70.9346C100.692 70.4584 100.649 69.7917 100.564 68.9345C100.487 68.0678 100.349 67.3392 100.149 66.7486C99.797 65.8438 99.3017 65.3914 98.6635 65.3914C97.9016 65.3914 97.3492 66.1057 97.0063 67.5344C96.7491 68.5821 96.6206 69.7155 96.6206 70.9346C96.6206 72.1538 96.7491 73.2919 97.0063 74.3491C97.3492 75.7778 97.9016 76.4921 98.6635 76.4921ZM120.2 79.4209C119.753 79.4209 119.281 79.359 118.786 79.2352C118.357 79.1304 117.967 78.878 117.614 78.478C117.319 78.1065 117.172 77.5684 117.172 76.8636V75.8921C116.895 76.616 116.486 77.3065 115.943 77.9637C115.143 78.9352 114.19 79.4209 113.086 79.4209C111.905 79.4209 110.957 79.2066 110.243 78.778C109.538 78.3494 108.995 77.7827 108.614 77.0779C108.242 76.3731 107.99 75.5921 107.857 74.7349C107.733 73.8682 107.671 73.0014 107.671 72.1347V67.9344C107.623 67.6297 107.476 67.4058 107.228 67.263C106.99 67.1106 106.723 67.0153 106.428 66.9772C106.133 66.9391 105.899 66.9201 105.728 66.9201H105.499V66.3915H107.671C108.414 66.3915 109.071 66.3153 109.643 66.1629C110.224 66.001 110.714 65.82 111.114 65.62C111.514 65.4105 111.814 65.2247 112.014 65.0628L112.328 64.82V72.1776C112.328 74.0158 112.476 75.4206 112.771 76.3921C113.067 77.3636 113.619 77.8494 114.429 77.8494C114.876 77.8494 115.291 77.6636 115.672 77.2922C116.052 76.9112 116.372 76.4255 116.629 75.835C116.886 75.2444 117.067 74.6111 117.172 73.9348V67.9344C117.105 67.6297 116.948 67.4058 116.7 67.263C116.453 67.1106 116.181 67.0153 115.886 66.9772C115.591 66.9391 115.357 66.9201 115.186 66.9201H114.957V66.3915H117.172C117.915 66.3915 118.572 66.3153 119.143 66.1629C119.715 66.001 120.196 65.82 120.586 65.62C120.986 65.4105 121.286 65.2247 121.486 65.0628L121.786 64.82V77.2779C121.824 77.5446 121.924 77.7637 122.086 77.9351C122.248 78.1065 122.429 78.2399 122.629 78.3351C122.839 78.4208 123.02 78.478 123.172 78.5066L123.401 78.5494L122.972 78.778C122.696 78.9209 122.315 79.0637 121.829 79.2066C121.343 79.3495 120.8 79.4209 120.2 79.4209ZM130.136 79.4209C129.146 79.4209 128.436 79.3828 128.008 79.3066C126.284 79.0875 125.212 78.4018 124.793 77.2493C124.717 77.0112 124.679 76.7731 124.679 76.535C124.679 75.9254 124.927 75.4683 125.422 75.1635C125.784 74.9825 126.117 74.892 126.422 74.892C126.736 74.892 126.993 74.9539 127.193 75.0778C127.403 75.1921 127.508 75.2921 127.508 75.3778V75.4064C127.365 75.8254 127.284 76.2064 127.265 76.5493C127.265 77.4255 127.66 78.0399 128.451 78.3923C128.936 78.6209 129.446 78.7351 129.979 78.7351C130.427 78.7351 130.875 78.6732 131.322 78.5494C131.77 78.4161 132.137 78.2256 132.422 77.978C132.86 77.5684 133.08 77.1065 133.08 76.5921L133.065 76.435C132.989 75.9302 132.608 75.4683 131.922 75.0492C131.237 74.6206 130.417 74.192 129.465 73.7634C127.722 72.9919 126.503 72.2966 125.808 71.6775C125.055 71.0108 124.679 70.1489 124.679 69.0917C124.679 68.0154 125.084 67.1153 125.893 66.3915C126.703 65.6676 127.793 65.1914 129.165 64.9628L129.194 64.9485C129.794 64.8533 130.379 64.8057 130.951 64.8057C132.722 64.8057 133.989 65.139 134.751 65.8057C135.122 66.1105 135.389 66.4915 135.551 66.9487C135.627 67.1868 135.665 67.4249 135.665 67.663C135.665 68.2726 135.418 68.7297 134.922 69.0345C134.561 69.225 134.227 69.3202 133.922 69.3202C133.608 69.3202 133.346 69.2631 133.137 69.1488C132.937 69.025 132.837 68.9155 132.837 68.8202V68.7916C132.884 68.6392 132.927 68.4821 132.965 68.3202C133.013 68.1487 133.041 68.0059 133.051 67.8916C133.06 67.7773 133.07 67.6678 133.08 67.563C133.08 66.1724 132.318 65.4771 130.794 65.4771C130.194 65.4867 129.694 65.6629 129.294 66.0057C128.941 66.301 128.765 66.6582 128.765 67.0772C128.765 67.6963 129.179 68.263 130.008 68.7774C130.57 69.1202 131.241 69.4822 132.022 69.8631C133.146 70.3965 134.289 71.0489 135.451 71.8204C135.775 72.0395 136.08 72.2871 136.365 72.5633C137.013 73.211 137.337 73.9872 137.337 74.892C137.337 76.1683 136.775 77.2398 135.651 78.1065C134.68 78.859 133.246 79.2828 131.351 79.378C130.951 79.4066 130.546 79.4209 130.136 79.4209ZM144.93 79.4638C143.13 79.4638 141.773 78.8161 140.858 77.5208C140.363 76.816 140.115 75.8873 140.115 74.7349V74.492H140.101V65.3628H137.915V64.8485C138.963 64.8485 139.868 64.6628 140.63 64.2913C141.392 63.9199 142.035 63.4627 142.558 62.9198C143.092 62.3769 143.516 61.834 143.83 61.2912C144.154 60.7483 144.387 60.2911 144.53 59.9196L144.73 59.3625V64.8485H148.987V65.3628H144.73V72.849C144.73 73.43 144.744 74.0063 144.773 74.5777C144.801 75.1397 144.887 75.6492 145.03 76.1064C145.173 76.5636 145.411 76.935 145.744 77.2208C146.154 77.516 146.587 77.6636 147.044 77.6636C147.559 77.6636 148.044 77.5208 148.502 77.235C148.968 76.9398 149.302 76.5921 149.502 76.1921V76.5207C149.464 76.7779 149.283 77.1208 148.959 77.5494C148.645 77.9684 148.192 78.3637 147.602 78.7351C147.021 79.1066 146.311 79.3399 145.473 79.4352C145.292 79.4542 145.111 79.4638 144.93 79.4638ZM161.567 79.4352C160.405 79.4352 159.552 79.1447 159.009 78.5637C158.19 79.1447 157.257 79.4352 156.209 79.4352C155.542 79.4352 154.914 79.3399 154.323 79.1495C153.742 78.9494 153.252 78.7066 152.852 78.4208C152.271 78.0018 151.818 77.5589 151.494 77.0922C151.18 76.616 150.961 76.154 150.837 75.7064C150.723 75.2587 150.666 74.873 150.666 74.5492C150.666 74.2063 150.723 73.7824 150.837 73.2776C150.952 72.7729 151.171 72.2681 151.494 71.7633C151.828 71.2585 152.309 70.8203 152.937 70.4489C153.937 69.906 155.023 69.6346 156.195 69.6346C156.49 69.6346 156.78 69.6536 157.066 69.6917C157.762 69.7965 158.233 69.9393 158.481 70.1203C158.423 68.2249 158.104 66.8677 157.523 66.0486C157.181 65.6867 156.771 65.5057 156.295 65.5057C155.904 65.5152 155.566 65.601 155.28 65.7629C154.709 66.0962 154.423 66.6915 154.423 67.5487C154.423 67.6725 154.428 67.7963 154.437 67.9202C154.447 68.0344 154.471 68.1773 154.509 68.3488C154.557 68.5107 154.604 68.6678 154.652 68.8202V68.8488C154.652 68.944 154.552 69.0536 154.352 69.1774C154.152 69.2917 153.895 69.3488 153.58 69.3488C153.275 69.3488 152.942 69.2536 152.58 69.0631C152.085 68.7583 151.837 68.3059 151.837 67.7059C151.837 67.4677 151.875 67.2296 151.952 66.9915C152.237 66.1915 152.799 65.6295 153.637 65.3057C154.504 64.9914 155.366 64.8342 156.223 64.8342L156.595 64.8485C157.833 64.9057 158.938 65.2819 159.909 65.9772C160.89 66.6629 161.667 67.5582 162.238 68.6631C162.819 69.7679 163.109 70.9442 163.109 72.1919V77.1493C163.109 77.397 163.162 77.6065 163.267 77.7779C163.381 77.9494 163.519 78.0875 163.681 78.1923C163.843 78.297 164 78.378 164.152 78.4351C164.314 78.4923 164.448 78.5304 164.552 78.5494L164.724 78.578L164.31 78.7923C164.033 78.9352 163.657 79.078 163.181 79.2209C162.705 79.3638 162.167 79.4352 161.567 79.4352ZM157.409 78.578C157.866 78.578 158.309 78.4304 158.738 78.1351C158.576 77.8208 158.495 77.4065 158.495 76.8922V70.8346L158.395 70.7775C158.29 70.6918 158.162 70.6108 158.009 70.5346C157.857 70.4584 157.666 70.4203 157.438 70.4203C156.819 70.4203 156.342 70.7203 156.009 71.3204C155.752 71.7871 155.566 72.3204 155.452 72.9205C155.347 73.5205 155.295 74.0491 155.295 74.5063C155.295 75.0016 155.323 75.5206 155.38 76.0635C155.447 76.6064 155.59 77.0969 155.809 77.5351C156.038 77.9637 156.39 78.278 156.866 78.478C157.047 78.5447 157.228 78.578 157.409 78.578ZM36.0286 113.407C34.6 113.407 33.338 113.083 32.2427 112.435C31.1569 111.787 30.3092 110.916 29.6996 109.821C29.0901 108.716 28.7853 107.482 28.7853 106.12C28.7853 104.749 29.0996 103.515 29.7282 102.42C30.3568 101.315 31.2093 100.439 32.2855 99.7914C33.3618 99.1438 34.5619 98.82 35.8857 98.82C37.4954 98.82 38.905 99.2628 40.1146 100.149C41.3337 101.034 42.1814 102.215 42.6576 103.692L42.7005 103.835C42.7386 103.949 42.7671 104.063 42.7862 104.177L33.3999 106.82C33.5427 108.068 33.9237 109.063 34.5428 109.806C35.5714 111.054 36.8191 111.678 38.2859 111.678C39.2098 111.678 40.0574 111.454 40.8289 111.006C41.6004 110.559 42.21 110.025 42.6576 109.406V109.749C42.5243 110.102 42.2957 110.487 41.9719 110.906C41.6576 111.316 41.229 111.711 40.6861 112.092C40.1527 112.473 39.5003 112.788 38.7288 113.035C37.9573 113.283 37.0573 113.407 36.0286 113.407ZM33.357 106.306L38.3431 104.906C38.2859 103.858 38.1573 102.92 37.9573 102.092C37.7573 101.253 37.4859 100.587 37.143 100.091C36.8001 99.5867 36.381 99.3343 35.8857 99.3343C35.4952 99.3343 35.1381 99.5248 34.8143 99.9057C34.4999 100.287 34.2285 100.782 33.9999 101.392C33.7808 101.992 33.6094 102.649 33.4856 103.363C33.3713 104.068 33.3142 104.758 33.3142 105.435C33.3142 105.73 33.3284 106.02 33.357 106.306ZM52.6794 113.407H43.6503V112.892H43.836C45.0075 112.892 45.6742 112.568 45.8361 111.921V94.1768C45.779 93.8625 45.6218 93.6291 45.3647 93.4767C44.9741 93.2482 44.4598 93.1339 43.8217 93.1339H43.6503V92.6195H45.8361C46.579 92.6195 47.2362 92.5386 47.8077 92.3767C48.3791 92.2148 48.8601 92.0338 49.2506 91.8338C49.6506 91.6338 49.9554 91.4528 50.165 91.2909L50.465 91.048C50.465 104.782 50.4697 111.673 50.4793 111.721C50.4793 112.083 50.6078 112.345 50.865 112.507C51.265 112.764 51.7984 112.892 52.4651 112.892H52.6794V113.407ZM71.4229 113.435C70.2609 113.435 69.4085 113.145 68.8656 112.564C68.0465 113.145 67.1131 113.435 66.0654 113.435C65.3987 113.435 64.7701 113.34 64.1796 113.149C63.5986 112.949 63.1081 112.707 62.7081 112.421C62.1271 112.002 61.6747 111.559 61.3508 111.092C61.0365 110.616 60.8175 110.154 60.6936 109.706C60.5794 109.259 60.5222 108.873 60.5222 108.549C60.5222 108.206 60.5794 107.782 60.6936 107.278C60.8079 106.773 61.027 106.268 61.3508 105.763C61.6842 105.258 62.1652 104.82 62.7938 104.449C63.7939 103.906 64.8796 103.635 66.0511 103.635C66.3464 103.635 66.6369 103.654 66.9226 103.692C67.6179 103.796 68.0894 103.939 68.337 104.12C68.2799 102.225 67.9608 100.868 67.3798 100.049C67.0369 99.6867 66.6274 99.5057 66.1511 99.5057C65.7606 99.5152 65.4225 99.601 65.1368 99.7629C64.5653 100.096 64.2796 100.692 64.2796 101.549C64.2796 101.673 64.2844 101.796 64.2939 101.92C64.3034 102.034 64.3272 102.177 64.3653 102.349C64.4129 102.511 64.4606 102.668 64.5082 102.82V102.849C64.5082 102.944 64.4082 103.054 64.2082 103.177C64.0082 103.292 63.751 103.349 63.4367 103.349C63.1319 103.349 62.7985 103.254 62.4366 103.063C61.9413 102.758 61.6937 102.306 61.6937 101.706C61.6937 101.468 61.7318 101.23 61.808 100.992C62.0937 100.191 62.6557 99.6295 63.4938 99.3057C64.3606 98.9914 65.2225 98.8342 66.0797 98.8342L66.4512 98.8485C67.6893 98.9057 68.7942 99.2819 69.7657 99.9772C70.7467 100.663 71.5229 101.558 72.0944 102.663C72.6754 103.768 72.9659 104.944 72.9659 106.192V111.149C72.9659 111.397 73.0183 111.606 73.123 111.778C73.2373 111.949 73.3754 112.087 73.5373 112.192C73.6993 112.297 73.8564 112.378 74.0088 112.435C74.1707 112.492 74.3041 112.53 74.4088 112.549L74.5803 112.578L74.166 112.792C73.8897 112.935 73.5135 113.078 73.0373 113.221C72.5611 113.364 72.023 113.435 71.4229 113.435ZM67.2655 112.578C67.7227 112.578 68.1656 112.43 68.5942 112.135C68.4322 111.821 68.3513 111.406 68.3513 110.892V104.835L68.2513 104.777C68.1465 104.692 68.0179 104.611 67.8655 104.535C67.7132 104.458 67.5227 104.42 67.2941 104.42C66.675 104.42 66.1988 104.72 65.8654 105.32C65.6083 105.787 65.4225 106.32 65.3082 106.92C65.2035 107.521 65.1511 108.049 65.1511 108.506C65.1511 109.002 65.1797 109.521 65.2368 110.064C65.3035 110.606 65.4463 111.097 65.6654 111.535C65.894 111.964 66.2464 112.278 66.7226 112.478C66.9036 112.545 67.0845 112.578 67.2655 112.578ZM93.6455 113.407H84.6164V112.892H84.8021C84.983 112.892 85.2307 112.873 85.545 112.835C85.8688 112.788 86.1545 112.683 86.4022 112.521C86.6593 112.349 86.7974 112.087 86.8165 111.735V106.063C86.8165 104.225 86.6689 102.825 86.3736 101.863C86.0784 100.892 85.5307 100.406 84.7306 100.406C84.2735 100.406 83.8544 100.596 83.4734 100.977C83.102 101.349 82.7877 101.83 82.5305 102.42C82.2829 103.001 82.1067 103.63 82.0019 104.306V111.749C82.0209 112.092 82.1543 112.349 82.4019 112.521C82.6496 112.683 82.9305 112.788 83.2448 112.835C83.5591 112.873 83.8068 112.892 83.9877 112.892H84.202V113.407H75.1586V112.892H75.3443C75.5253 112.892 75.7729 112.873 76.0872 112.835C76.4015 112.788 76.6825 112.683 76.9301 112.521C77.1873 112.359 77.3349 112.107 77.373 111.764V101.949C77.3159 101.634 77.1587 101.401 76.9016 101.249C76.6444 101.096 76.3634 101.001 76.0587 100.963C75.7634 100.925 75.53 100.906 75.3586 100.906H75.1872V100.406H77.373C78.1159 100.406 78.7731 100.325 79.3446 100.163C79.916 100.001 80.397 99.82 80.7875 99.62C81.1876 99.4105 81.4923 99.2247 81.7019 99.0628L82.0019 98.82V102.334C82.2591 101.63 82.6638 100.944 83.2163 100.277C84.0163 99.3152 84.9688 98.8342 86.0736 98.8342C87.2451 98.8342 88.1833 99.0485 88.8881 99.4771C89.6024 99.9057 90.1453 100.472 90.5167 101.177C90.8977 101.873 91.1501 102.654 91.2739 103.52C91.3977 104.377 91.4597 105.235 91.4597 106.092V111.907C91.5263 112.202 91.6835 112.421 91.9311 112.564C92.1787 112.707 92.4454 112.797 92.7312 112.835C93.0264 112.873 93.2598 112.892 93.4312 112.892H93.6455V113.407ZM99.1813 96.8913L98.7813 96.3912C98.4384 95.9436 98.1384 95.5959 97.8812 95.3483C97.6336 95.0911 97.2907 94.7959 96.8526 94.4625L96.3668 94.0911L96.8526 93.7053C97.2907 93.372 97.6383 93.0767 97.8955 92.8196C98.1527 92.5624 98.4527 92.21 98.7956 91.7623L99.1813 91.2909L99.5528 91.7623C99.8956 92.21 100.196 92.5624 100.453 92.8196C100.71 93.0767 101.058 93.372 101.496 93.7053L101.981 94.0911L101.496 94.4625C101.058 94.8054 100.71 95.1054 100.453 95.3626C100.196 95.6197 99.8956 95.9674 99.5528 96.4055L99.1813 96.8913ZM103.696 113.421H94.6524V112.907H94.8382C95.0191 112.907 95.2668 112.888 95.5811 112.849C95.8954 112.802 96.1763 112.697 96.424 112.535C96.6811 112.373 96.8288 112.121 96.8669 111.778V101.963C96.8097 101.649 96.6526 101.415 96.3954 101.263C96.1382 101.111 95.8573 101.015 95.5525 100.977C95.2572 100.939 95.0239 100.92 94.8524 100.92H94.681V100.42H96.8669C97.6098 100.42 98.267 100.339 98.8384 100.177C99.4099 100.015 99.8909 99.8343 100.281 99.6343C100.672 99.4248 100.972 99.239 101.181 99.0771L101.481 98.8342V111.764C101.501 112.107 101.634 112.364 101.881 112.535C102.129 112.697 102.41 112.802 102.724 112.849C103.039 112.888 103.291 112.907 103.482 112.907H103.696V113.421ZM132.705 113.407H123.675V112.892H123.861C124.042 112.892 124.29 112.873 124.604 112.835C124.928 112.788 125.214 112.683 125.461 112.521C125.718 112.349 125.857 112.087 125.876 111.735V106.063C125.876 104.225 125.728 102.825 125.433 101.863C125.137 100.892 124.59 100.406 123.79 100.406C123.275 100.406 122.814 100.639 122.404 101.106C121.994 101.573 121.666 102.158 121.418 102.863C121.171 103.568 121.028 104.296 120.99 105.049C120.999 105.401 121.004 107.687 121.004 111.907C121.071 112.202 121.228 112.421 121.475 112.564C121.856 112.783 122.356 112.892 122.975 112.892H123.19V113.407H114.161V112.892H114.346C114.527 112.892 114.775 112.873 115.089 112.835C115.413 112.788 115.699 112.683 115.946 112.521C116.204 112.349 116.342 112.087 116.361 111.735V106.063C116.361 104.225 116.213 102.825 115.918 101.863C115.623 100.892 115.075 100.406 114.275 100.406C113.818 100.406 113.399 100.596 113.018 100.977C112.646 101.349 112.332 101.83 112.075 102.42C111.827 103.001 111.651 103.63 111.546 104.306V111.749C111.565 112.092 111.698 112.349 111.946 112.521C112.194 112.683 112.475 112.788 112.789 112.835C113.103 112.873 113.351 112.892 113.532 112.892H113.746V113.407H104.717V112.892H104.903C105.084 112.892 105.331 112.873 105.646 112.835C105.96 112.788 106.241 112.683 106.489 112.521C106.746 112.359 106.889 112.107 106.917 111.764V101.949C106.86 101.634 106.703 101.401 106.446 101.249C106.189 101.096 105.908 101.001 105.603 100.963C105.308 100.925 105.074 100.906 104.903 100.906H104.731V100.406H106.917C107.66 100.406 108.317 100.325 108.889 100.163C109.46 100.001 109.941 99.82 110.332 99.62C110.732 99.4105 111.037 99.2247 111.246 99.0628L111.546 98.82V102.334C111.803 101.63 112.208 100.944 112.76 100.277C113.561 99.3152 114.513 98.8342 115.618 98.8342C116.723 98.8342 117.618 99.0247 118.304 99.4057C118.999 99.7867 119.537 100.296 119.918 100.934C120.309 101.573 120.585 102.282 120.747 103.063C120.794 102.873 120.913 102.558 121.104 102.12C121.294 101.673 121.566 101.196 121.918 100.692C122.271 100.187 122.709 99.7533 123.233 99.3914C123.766 99.02 124.399 98.8342 125.133 98.8342C126.304 98.8342 127.242 99.0485 127.947 99.4771C128.662 99.9057 129.204 100.472 129.576 101.177C129.957 101.873 130.209 102.654 130.333 103.52C130.457 104.377 130.519 105.235 130.519 106.092V111.907C130.585 112.202 130.743 112.421 130.99 112.564C131.238 112.707 131.505 112.797 131.79 112.835C132.086 112.873 132.319 112.892 132.49 112.892H132.705V113.407ZM140.541 113.407C139.112 113.407 137.85 113.083 136.755 112.435C135.669 111.787 134.821 110.916 134.212 109.821C133.602 108.716 133.297 107.482 133.297 106.12C133.297 104.749 133.612 103.515 134.24 102.42C134.869 101.315 135.721 100.439 136.797 99.7914C137.874 99.1438 139.074 98.82 140.398 98.82C142.007 98.82 143.417 99.2628 144.627 100.149C145.846 101.034 146.693 102.215 147.17 103.692L147.212 103.835C147.251 103.949 147.279 104.063 147.298 104.177L137.912 106.82C138.055 108.068 138.436 109.063 139.055 109.806C140.083 111.054 141.331 111.678 142.798 111.678C143.722 111.678 144.569 111.454 145.341 111.006C146.112 110.559 146.722 110.025 147.17 109.406V109.749C147.036 110.102 146.808 110.487 146.484 110.906C146.17 111.316 145.741 111.711 145.198 112.092C144.665 112.473 144.012 112.788 143.241 113.035C142.469 113.283 141.569 113.407 140.541 113.407ZM137.869 106.306L142.855 104.906C142.798 103.858 142.669 102.92 142.469 102.092C142.269 101.253 141.998 100.587 141.655 100.091C141.312 99.5867 140.893 99.3343 140.398 99.3343C140.007 99.3343 139.65 99.5248 139.326 99.9057C139.012 100.287 138.74 100.782 138.512 101.392C138.293 101.992 138.121 102.649 137.998 103.363C137.883 104.068 137.826 104.758 137.826 105.435C137.826 105.73 137.84 106.02 137.869 106.306ZM157.713 121.193C156.912 121.193 156.274 120.907 155.798 120.336C155.446 119.907 155.27 119.417 155.27 118.864C155.298 118.369 155.47 117.959 155.784 117.635C156.098 117.312 156.465 117.15 156.884 117.15C157.16 117.15 157.436 117.235 157.713 117.407C158.522 117.95 159.303 118.221 160.056 118.221C160.513 118.221 160.918 118.126 161.27 117.935C161.632 117.745 161.927 117.488 162.156 117.164C162.327 116.907 162.556 116.416 162.841 115.692C163.137 114.969 163.418 114.207 163.684 113.407H162.67L157.613 100.377C157.432 100.044 157.17 99.8057 156.827 99.6629C156.484 99.5105 156.151 99.4152 155.827 99.3771C155.503 99.339 155.289 99.32 155.184 99.32H155.141V98.8057H164.156V99.32L163.87 99.3057C163.718 99.3057 163.532 99.3247 163.313 99.3628C163.103 99.3914 162.918 99.4629 162.756 99.5771C162.603 99.6819 162.527 99.8486 162.527 100.077C162.527 100.163 162.541 100.258 162.57 100.363L165.684 108.321L168.713 100.506C168.761 100.372 168.785 100.253 168.785 100.149C168.785 99.8819 168.67 99.6914 168.442 99.5771C168.223 99.4629 167.985 99.3914 167.727 99.3628C167.48 99.3343 167.318 99.32 167.242 99.32H167.199V98.8057H169.399V98.82H169.913V98.8057H172.099V99.32H171.885C170.561 99.32 169.704 99.6772 169.313 100.391L164.27 113.407H164.256L163.284 116.164C162.827 117.335 162.17 118.378 161.313 119.293C160.656 120.026 159.879 120.579 158.984 120.95C158.575 121.112 158.151 121.193 157.713 121.193ZM46.2538 147.407C44.8252 147.407 43.5632 147.083 42.4679 146.435C41.3821 145.787 40.5344 144.916 39.9249 143.821C39.3153 142.716 39.0105 141.482 39.0105 140.12C39.0105 138.749 39.3248 137.515 39.9534 136.42C40.5821 135.315 41.4345 134.439 42.5107 133.791C43.587 133.144 44.7871 132.82 46.111 132.82C47.7206 132.82 49.1302 133.263 50.3398 134.149C51.559 135.034 52.4066 136.215 52.8829 137.692L52.9257 137.835C52.9638 137.949 52.9924 138.063 53.0114 138.177L43.6251 140.82C43.768 142.068 44.149 143.063 44.768 143.806C45.7967 145.054 47.0444 145.678 48.5111 145.678C49.435 145.678 50.2827 145.454 51.0542 145.006C51.8256 144.559 52.4352 144.025 52.8829 143.406V143.749C52.7495 144.102 52.5209 144.487 52.1971 144.906C51.8828 145.316 51.4542 145.711 50.9113 146.092C50.3779 146.473 49.7255 146.788 48.954 147.035C48.1825 147.283 47.2825 147.407 46.2538 147.407ZM43.5822 140.306L48.5683 138.906C48.5111 137.858 48.3826 136.92 48.1825 136.092C47.9825 135.253 47.7111 134.587 47.3682 134.091C47.0253 133.587 46.6063 133.334 46.111 133.334C45.7205 133.334 45.3633 133.525 45.0395 133.906C44.7252 134.287 44.4537 134.782 44.2251 135.392C44.0061 135.992 43.8346 136.649 43.7108 137.363C43.5965 138.068 43.5394 138.758 43.5394 139.435C43.5394 139.73 43.5537 140.02 43.5822 140.306ZM62.9046 147.407H53.8755V146.892H54.0612C55.2327 146.892 55.8994 146.568 56.0613 145.921V128.177C56.0042 127.862 55.847 127.629 55.5899 127.477C55.1994 127.248 54.6851 127.134 54.0469 127.134H53.8755V126.62H56.0613C56.8043 126.62 57.4614 126.539 58.0329 126.377C58.6044 126.215 59.0854 126.034 59.4759 125.834C59.8759 125.634 60.1807 125.453 60.3902 125.291L60.6902 125.048C60.6902 138.782 60.695 145.673 60.7045 145.721C60.7045 146.083 60.8331 146.345 61.0902 146.507C61.4903 146.764 62.0236 146.892 62.6903 146.892H62.9046V147.407ZM98.735 147.407H89.7058V146.892H89.8915C90.0725 146.892 90.3201 146.873 90.6345 146.835C90.9583 146.788 91.244 146.683 91.4917 146.521C91.7488 146.349 91.8869 146.087 91.906 145.735V140.063C91.906 138.225 91.7583 136.825 91.4631 135.863C91.1678 134.892 90.6202 134.406 89.8201 134.406C89.3058 134.406 88.8439 134.639 88.4343 135.106C88.0248 135.573 87.6962 136.158 87.4485 136.863C87.2009 137.568 87.058 138.296 87.0199 139.049C87.0295 139.401 87.0342 141.687 87.0342 145.907C87.1009 146.202 87.258 146.421 87.5057 146.564C87.8867 146.783 88.3867 146.892 89.0058 146.892H89.2201V147.407H80.1909V146.892H80.3766C80.5576 146.892 80.8052 146.873 81.1195 146.835C81.4434 146.788 81.7291 146.683 81.9767 146.521C82.2339 146.349 82.372 146.087 82.3911 145.735V140.063C82.3911 138.225 82.2434 136.825 81.9482 135.863C81.6529 134.892 81.1053 134.406 80.3052 134.406C79.848 134.406 79.429 134.596 79.048 134.977C78.6765 135.349 78.3622 135.83 78.1051 136.42C77.8574 137.001 77.6812 137.63 77.5765 138.306V145.749C77.5955 146.092 77.7289 146.349 77.9765 146.521C78.2241 146.683 78.5051 146.788 78.8194 146.835C79.1337 146.873 79.3813 146.892 79.5623 146.892H79.7766V147.407H70.7474V146.892H70.9332C71.1141 146.892 71.3618 146.873 71.6761 146.835C71.9904 146.788 72.2714 146.683 72.519 146.521C72.7761 146.359 72.919 146.107 72.9476 145.764V135.949C72.8904 135.634 72.7333 135.401 72.4761 135.249C72.219 135.096 71.938 135.001 71.6332 134.963C71.338 134.925 71.1046 134.906 70.9332 134.906H70.7617V134.406H72.9476C73.6905 134.406 74.3477 134.325 74.9191 134.163C75.4906 134.001 75.9716 133.82 76.3621 133.62C76.7621 133.41 77.0669 133.225 77.2764 133.063L77.5765 132.82V136.334C77.8336 135.63 78.2384 134.944 78.7908 134.277C79.5909 133.315 80.5433 132.834 81.6482 132.834C82.753 132.834 83.6483 133.025 84.334 133.406C85.0293 133.787 85.5675 134.296 85.9484 134.934C86.3389 135.573 86.6151 136.282 86.7771 137.063C86.8247 136.873 86.9437 136.558 87.1342 136.12C87.3247 135.673 87.5962 135.196 87.9486 134.692C88.301 134.187 88.7391 133.753 89.2629 133.391C89.7963 133.02 90.4297 132.834 91.1631 132.834C92.3346 132.834 93.2727 133.049 93.9775 133.477C94.6919 133.906 95.2348 134.472 95.6062 135.177C95.9872 135.873 96.2396 136.654 96.3634 137.52C96.4872 138.377 96.5491 139.235 96.5491 140.092V145.907C96.6158 146.202 96.7729 146.421 97.0206 146.564C97.2682 146.707 97.5349 146.797 97.8206 146.835C98.1159 146.873 98.3492 146.892 98.5207 146.892H98.735V147.407ZM110.228 147.435C109.066 147.435 108.214 147.145 107.671 146.564C106.852 147.145 105.918 147.435 104.871 147.435C104.204 147.435 103.575 147.34 102.985 147.149C102.404 146.949 101.913 146.707 101.513 146.421C100.932 146.002 100.48 145.559 100.156 145.092C99.8419 144.616 99.6228 144.154 99.499 143.706C99.3847 143.259 99.3276 142.873 99.3276 142.549C99.3276 142.206 99.3847 141.782 99.499 141.278C99.6133 140.773 99.8324 140.268 100.156 139.763C100.49 139.258 100.971 138.82 101.599 138.449C102.599 137.906 103.685 137.635 104.857 137.635C105.152 137.635 105.442 137.654 105.728 137.692C106.423 137.796 106.895 137.939 107.142 138.12C107.085 136.225 106.766 134.868 106.185 134.049C105.842 133.687 105.433 133.506 104.957 133.506C104.566 133.515 104.228 133.601 103.942 133.763C103.371 134.096 103.085 134.692 103.085 135.549C103.085 135.673 103.09 135.796 103.099 135.92C103.109 136.034 103.133 136.177 103.171 136.349C103.218 136.511 103.266 136.668 103.314 136.82V136.849C103.314 136.944 103.214 137.054 103.014 137.177C102.814 137.292 102.556 137.349 102.242 137.349C101.937 137.349 101.604 137.254 101.242 137.063C100.747 136.758 100.499 136.306 100.499 135.706C100.499 135.468 100.537 135.23 100.613 134.992C100.899 134.191 101.461 133.63 102.299 133.306C103.166 132.991 104.028 132.834 104.885 132.834L105.257 132.849C106.495 132.906 107.6 133.282 108.571 133.977C109.552 134.663 110.328 135.558 110.9 136.663C111.481 137.768 111.771 138.944 111.771 140.192V145.149C111.771 145.397 111.824 145.606 111.928 145.778C112.043 145.949 112.181 146.087 112.343 146.192C112.505 146.297 112.662 146.378 112.814 146.435C112.976 146.492 113.109 146.53 113.214 146.549L113.386 146.578L112.971 146.792C112.695 146.935 112.319 147.078 111.843 147.221C111.366 147.364 110.828 147.435 110.228 147.435ZM106.071 146.578C106.528 146.578 106.971 146.43 107.4 146.135C107.238 145.821 107.157 145.406 107.157 144.892V138.835L107.057 138.777C106.952 138.692 106.823 138.611 106.671 138.535C106.519 138.458 106.328 138.42 106.099 138.42C105.48 138.42 105.004 138.72 104.671 139.32C104.414 139.787 104.228 140.32 104.114 140.92C104.009 141.521 103.956 142.049 103.956 142.506C103.956 143.002 103.985 143.521 104.042 144.064C104.109 144.606 104.252 145.097 104.471 145.535C104.699 145.964 105.052 146.278 105.528 146.478C105.709 146.545 105.89 146.578 106.071 146.578ZM132.451 147.407H123.422V146.892H123.607C123.788 146.892 124.036 146.873 124.35 146.835C124.674 146.788 124.96 146.683 125.208 146.521C125.465 146.349 125.603 146.087 125.622 145.735V140.063C125.622 138.225 125.474 136.825 125.179 135.863C124.884 134.892 124.336 134.406 123.536 134.406C123.079 134.406 122.66 134.596 122.279 134.977C121.907 135.349 121.593 135.83 121.336 136.42C121.088 137.001 120.912 137.63 120.807 138.306V145.749C120.826 146.092 120.96 146.349 121.207 146.521C121.455 146.683 121.736 146.788 122.05 146.835C122.365 146.873 122.612 146.892 122.793 146.892H123.007V147.407H113.964V146.892H114.15C114.331 146.892 114.578 146.873 114.893 146.835C115.207 146.788 115.488 146.683 115.736 146.521C115.993 146.359 116.14 146.107 116.178 145.764V135.949C116.121 135.634 115.964 135.401 115.707 135.249C115.45 135.096 115.169 135.001 114.864 134.963C114.569 134.925 114.335 134.906 114.164 134.906H113.993V134.406H116.178C116.921 134.406 117.578 134.325 118.15 134.163C118.721 134.001 119.202 133.82 119.593 133.62C119.993 133.41 120.298 133.225 120.507 133.063L120.807 132.82V136.334C121.064 135.63 121.469 134.944 122.022 134.277C122.822 133.315 123.774 132.834 124.879 132.834C126.05 132.834 126.989 133.049 127.693 133.477C128.408 133.906 128.951 134.472 129.322 135.177C129.703 135.873 129.955 136.654 130.079 137.52C130.203 138.377 130.265 139.235 130.265 140.092V145.907C130.332 146.202 130.489 146.421 130.736 146.564C130.984 146.707 131.251 146.797 131.537 146.835C131.832 146.873 132.065 146.892 132.237 146.892H132.451V147.407ZM140.015 154.721C139.673 154.721 139.33 154.664 138.987 154.55C138.539 154.407 138.149 154.145 137.815 153.764C137.491 153.393 137.329 152.978 137.329 152.521C137.329 152.216 137.439 151.912 137.658 151.607C137.887 151.331 138.134 151.135 138.401 151.021C138.668 150.907 138.911 150.85 139.13 150.85C139.282 150.85 139.406 150.869 139.501 150.907C139.606 150.954 139.663 151.012 139.673 151.078C139.701 151.412 139.744 151.721 139.801 152.007C139.944 152.626 140.225 153.064 140.644 153.321C141.063 153.588 141.492 153.721 141.93 153.721C142.501 153.721 142.973 153.536 143.344 153.164C143.62 152.888 143.778 152.531 143.816 152.093C143.816 151.15 143.211 150.559 142.001 150.321C141.392 150.207 140.668 150.112 139.83 150.035C138.877 149.959 137.844 149.826 136.729 149.635C136.329 149.588 135.877 149.454 135.372 149.235C134.877 149.026 134.496 148.616 134.229 148.007C134.096 147.645 134.029 147.297 134.029 146.964C134.029 145.773 134.853 144.702 136.501 143.749C135.796 143.187 135.239 142.492 134.829 141.663C134.42 140.825 134.215 139.916 134.215 138.935C134.215 137.792 134.482 136.763 135.015 135.849C135.558 134.925 136.287 134.191 137.201 133.649C138.125 133.106 139.153 132.834 140.287 132.834C140.82 132.834 141.42 132.925 142.087 133.106C142.087 133.029 142.096 132.953 142.116 132.877C142.192 132.353 142.32 131.834 142.501 131.32C142.825 130.482 143.382 129.92 144.173 129.634C144.411 129.558 144.654 129.52 144.901 129.52C145.501 129.52 145.954 129.767 146.259 130.263C146.449 130.625 146.544 130.958 146.544 131.263C146.544 131.577 146.482 131.834 146.359 132.034C146.244 132.234 146.14 132.334 146.044 132.334H146.016C145.863 132.287 145.701 132.244 145.53 132.206C145.368 132.158 145.225 132.129 145.101 132.12C144.987 132.11 144.873 132.106 144.759 132.106C144.178 132.106 143.73 132.225 143.416 132.463C143.101 132.701 142.892 133.001 142.787 133.363C143.863 133.849 144.725 134.587 145.373 135.577C146.021 136.558 146.344 137.677 146.344 138.935C146.344 140.078 146.073 141.111 145.53 142.035C144.997 142.949 144.273 143.678 143.358 144.221C142.444 144.764 141.42 145.035 140.287 145.035C139.03 145.035 137.91 144.706 136.929 144.049C136.729 144.183 136.625 144.321 136.615 144.464C136.615 144.721 136.882 144.93 137.415 145.092C137.958 145.254 138.611 145.387 139.372 145.492C140.144 145.587 140.896 145.673 141.63 145.749C142.363 145.816 142.949 145.883 143.387 145.949C144.13 146.073 144.778 146.368 145.33 146.835C145.892 147.302 146.263 147.897 146.444 148.621C146.511 148.916 146.544 149.211 146.544 149.507C146.544 150.402 146.235 151.254 145.616 152.064C144.997 152.874 144.059 153.559 142.801 154.121C141.849 154.521 140.92 154.721 140.015 154.721ZM140.287 144.492C141.087 144.492 141.654 143.778 141.987 142.349C142.206 141.359 142.316 140.22 142.316 138.935C142.316 138.458 142.273 137.792 142.187 136.935C142.111 136.068 141.973 135.339 141.773 134.749C141.42 133.844 140.925 133.391 140.287 133.391C139.525 133.391 138.972 134.106 138.63 135.534C138.372 136.582 138.244 137.716 138.244 138.935C138.244 140.154 138.372 141.292 138.63 142.349C138.972 143.778 139.525 144.492 140.287 144.492ZM159.023 147.435C157.862 147.435 157.009 147.145 156.466 146.564C155.647 147.145 154.714 147.435 153.666 147.435C152.999 147.435 152.371 147.34 151.78 147.149C151.199 146.949 150.709 146.707 150.309 146.421C149.728 146.002 149.275 145.559 148.951 145.092C148.637 144.616 148.418 144.154 148.294 143.706C148.18 143.259 148.123 142.873 148.123 142.549C148.123 142.206 148.18 141.782 148.294 141.278C148.409 140.773 148.628 140.268 148.951 139.763C149.285 139.258 149.766 138.82 150.394 138.449C151.394 137.906 152.48 137.635 153.652 137.635C153.947 137.635 154.237 137.654 154.523 137.692C155.218 137.796 155.69 137.939 155.938 138.12C155.88 136.225 155.561 134.868 154.98 134.049C154.637 133.687 154.228 133.506 153.752 133.506C153.361 133.515 153.023 133.601 152.737 133.763C152.166 134.096 151.88 134.692 151.88 135.549C151.88 135.673 151.885 135.796 151.894 135.92C151.904 136.034 151.928 136.177 151.966 136.349C152.014 136.511 152.061 136.668 152.109 136.82V136.849C152.109 136.944 152.009 137.054 151.809 137.177C151.609 137.292 151.352 137.349 151.037 137.349C150.732 137.349 150.399 137.254 150.037 137.063C149.542 136.758 149.294 136.306 149.294 135.706C149.294 135.468 149.332 135.23 149.409 134.992C149.694 134.191 150.256 133.63 151.094 133.306C151.961 132.991 152.823 132.834 153.68 132.834L154.052 132.849C155.29 132.906 156.395 133.282 157.366 133.977C158.347 134.663 159.123 135.558 159.695 136.663C160.276 137.768 160.566 138.944 160.566 140.192V145.149C160.566 145.397 160.619 145.606 160.724 145.778C160.838 145.949 160.976 146.087 161.138 146.192C161.3 146.297 161.457 146.378 161.609 146.435C161.771 146.492 161.905 146.53 162.009 146.549L162.181 146.578L161.767 146.792C161.49 146.935 161.114 147.078 160.638 147.221C160.162 147.364 159.624 147.435 159.023 147.435ZM154.866 146.578C155.323 146.578 155.766 146.43 156.195 146.135C156.033 145.821 155.952 145.406 155.952 144.892V138.835L155.852 138.777C155.747 138.692 155.618 138.611 155.466 138.535C155.314 138.458 155.123 138.42 154.895 138.42C154.276 138.42 153.799 138.72 153.466 139.32C153.209 139.787 153.023 140.32 152.909 140.92C152.804 141.521 152.752 142.049 152.752 142.506C152.752 143.002 152.78 143.521 152.837 144.064C152.904 144.606 153.047 145.097 153.266 145.535C153.495 145.964 153.847 146.278 154.323 146.478C154.504 146.545 154.685 146.578 154.866 146.578Z" fill="#2C2C2C"/>
<defs>
<clipPath id="clip0_147_1117">
<rect width="201.253" height="204.935" fill="white"/>
</clipPath>
</defs>
</svg>
