<svg width="202" height="205" viewBox="0 0 202 205" fill="none" xmlns="http://www.w3.org/2000/svg">
<g clip-path="url(#clip0_147_1305)">
<path d="M2.2085 132.812H2.81807C2.79368 130.142 2.89122 127.46 3.08628 124.765C2.87902 124.753 2.68396 124.729 2.4889 124.668C2.28165 127.399 2.18412 130.117 2.2085 132.812Z" fill="#70A9A1"/>
<path d="M6.74374 101.37C1.24547 81.2425 1.40396 61.4683 7.53617 44.3517C14.2292 25.6869 27.3226 12.2034 45.4023 5.35186C53.8874 2.13336 62.9821 0.597263 72.3328 0.597263C80.7691 0.597263 89.4127 1.85296 98.0564 4.21807C98.7391 4.19369 99.4218 4.16931 100.104 4.16931C81.1227 -1.38991 62.0068 -1.58497 45.195 4.77887C26.9325 11.7035 13.7171 25.309 6.96318 44.1445C0.684675 61.6511 0.623719 81.9008 6.42676 102.48C6.52429 102.114 6.63402 101.748 6.74374 101.383C6.74374 101.407 6.75593 101.443 6.76812 101.468C6.76812 101.407 6.76812 101.346 6.76812 101.273C6.76812 101.297 6.74374 101.334 6.74374 101.358V101.37Z" fill="#70A9A1"/>
<path d="M156.684 5.35185C171.253 10.8745 182.761 21.0664 190.113 34.5499C190.271 34.428 190.454 34.3305 190.649 34.2452C183.225 20.6519 171.606 10.3625 156.904 4.77886C140.104 -1.58498 120.976 -1.37773 102.006 4.1693C102.689 4.1693 103.36 4.20587 104.042 4.21806C122.28 -0.78036 140.567 -0.76817 156.684 5.35185Z" fill="#70A9A1"/>
<path d="M3.11072 118.584C3.17167 118.572 3.22044 118.572 3.2814 118.572C3.43988 118.572 3.58618 118.584 3.73247 118.609C4.37861 113.635 5.39049 108.636 6.74372 103.626C6.634 103.248 6.52427 102.87 6.42674 102.492C4.91503 107.868 3.80562 113.245 3.11072 118.584Z" fill="#70A9A1"/>
<path d="M198.147 58.4448L198.756 58.3473C197.683 51.7396 195.879 45.5342 193.368 39.8165C193.197 39.9141 193.002 39.9872 192.807 40.0482C195.294 45.7171 197.086 51.8859 198.147 58.4448Z" fill="#70A9A1"/>
<path d="M45.4022 199.583C22.5313 190.915 7.31664 170.909 3.67145 144.698L3.06189 144.783C6.74365 171.214 22.1047 191.391 45.1827 200.144C53.7288 203.387 62.8845 204.923 72.3083 204.923C81.7322 204.923 90.8878 203.448 100.275 200.693C99.5924 200.693 98.9219 200.656 98.2391 200.644C79.94 205.691 61.58 205.715 45.4022 199.583Z" fill="#70A9A1"/>
<path d="M195.318 103.699C195.318 103.699 195.343 103.626 195.343 103.589C195.343 103.565 195.33 103.528 195.318 103.504C195.318 103.565 195.318 103.638 195.318 103.699Z" fill="#70A9A1"/>
<path d="M195.672 102.443C199.049 90.3982 200.439 78.3898 199.695 66.7959L199.085 66.8325C199.805 78.0484 198.512 89.6667 195.343 101.322C195.343 101.322 195.343 101.334 195.343 101.346C195.452 101.712 195.55 102.077 195.66 102.443H195.672Z" fill="#70A9A1"/>
<path d="M195.343 101.322C195.343 101.322 195.33 101.273 195.318 101.248C195.318 101.297 195.318 101.346 195.318 101.395C195.318 101.37 195.33 101.346 195.343 101.322Z" fill="#70A9A1"/>
<path d="M6.74377 103.626C6.74377 103.626 6.76816 103.699 6.78035 103.723C6.78035 103.662 6.78035 103.589 6.78035 103.528C6.78035 103.565 6.76816 103.589 6.75597 103.626H6.74377Z" fill="#70A9A1"/>
<path d="M195.672 102.443C195.562 102.833 195.465 103.211 195.355 103.601C200.853 123.729 200.682 143.491 194.55 160.595C191.856 168.105 188.125 174.762 183.456 180.504L185.078 179.236L182.03 183.113C182.03 183.113 182.042 183.101 182.054 183.088H182.066C187.662 176.822 192.063 169.349 195.135 160.803C201.414 143.296 201.487 123.034 195.696 102.48C195.696 102.467 195.696 102.455 195.696 102.443H195.672Z" fill="#70A9A1"/>
<path d="M174.045 189.794C168.936 193.853 163.146 197.133 156.684 199.583C140.506 205.728 122.122 205.703 103.811 200.656C103.14 200.68 102.482 200.705 101.811 200.705C111.186 203.484 120.61 204.935 129.754 204.935C138.897 204.935 148.345 203.399 156.891 200.156C162.597 197.986 167.827 195.17 172.508 191.732L172.533 191.708L174.045 189.781H174.032L174.045 189.794Z" fill="#70A9A1"/>
<path d="M2.53771 124.058C1.52584 123.729 0.794362 122.778 0.794362 121.669C0.794362 120.389 1.78186 119.328 3.02536 119.194C3.02536 119.096 3.03756 118.999 3.06194 118.889C3.06194 118.792 3.08632 118.682 3.09851 118.584C1.46488 118.67 0.172607 120.023 0.172607 121.669C0.172607 123.095 1.14791 124.314 2.47676 124.668C2.47676 124.558 2.48895 124.461 2.50114 124.363C2.50114 124.253 2.51333 124.156 2.52552 124.058H2.53771Z" fill="#70A9A1"/>
<path d="M3.6471 119.206C4.85404 119.389 5.78057 120.425 5.78057 121.669C5.78057 123.046 4.65898 124.168 3.28136 124.168C3.2326 124.168 3.18383 124.168 3.13507 124.156C3.12288 124.253 3.12288 124.351 3.11069 124.461C3.09849 124.558 3.09849 124.656 3.0863 124.765C3.14726 124.778 3.22041 124.778 3.28136 124.778C4.98814 124.778 6.39014 123.376 6.39014 121.669C6.39014 120.12 5.23197 118.828 3.73244 118.609C3.70806 118.706 3.69587 118.804 3.68368 118.914C3.67148 119.011 3.65929 119.109 3.6471 119.206Z" fill="#70A9A1"/>
<path d="M192.551 39.4875C192.344 39.5485 192.136 39.5729 191.917 39.5729C190.539 39.5729 189.43 38.4513 189.43 37.0736C189.43 36.269 189.808 35.5619 190.405 35.0987C190.369 35.0011 190.32 34.9036 190.271 34.8183C190.21 34.7207 190.174 34.6354 190.113 34.55C189.332 35.123 188.82 36.0374 188.82 37.0736C188.82 38.7804 190.21 40.1824 191.917 40.1824C192.222 40.1824 192.526 40.1336 192.807 40.0483C192.77 39.9508 192.734 39.8533 192.685 39.7679C192.648 39.6704 192.6 39.5729 192.551 39.4875Z" fill="#70A9A1"/>
<path d="M190.942 34.7817C191.246 34.6598 191.576 34.5866 191.917 34.5866C193.295 34.5866 194.404 35.7082 194.404 37.0736C194.404 38.0124 193.892 38.8292 193.124 39.2559C193.185 39.3534 193.221 39.4387 193.246 39.5363C193.307 39.6338 193.343 39.7191 193.368 39.8167C194.343 39.2924 195.014 38.2562 195.014 37.0736C195.014 35.3669 193.624 33.9771 191.917 33.9771C191.466 33.9771 191.039 34.0746 190.649 34.2453C190.698 34.3306 190.747 34.4159 190.795 34.5135C190.844 34.5988 190.893 34.6963 190.942 34.7817Z" fill="#70A9A1"/>
<path d="M179.531 183.601L178.702 176.591L177.873 183.601L178.702 184.259L179.531 183.601Z" fill="#70A9A1"/>
<path d="M177.873 187.611L178.702 194.621L179.531 187.611L178.702 186.965L177.873 187.611Z" fill="#70A9A1"/>
<path d="M176.69 184.783L169.692 185.612L176.69 186.441L177.348 185.612L176.69 184.783Z" fill="#70A9A1"/>
<path d="M180.701 186.441L187.711 185.612L180.701 184.783L180.055 185.612L180.701 186.441Z" fill="#70A9A1"/>
<path d="M179.652 184.649H179.738C181.03 183.332 182.261 181.955 183.432 180.516L179.506 183.588L179.628 184.637L179.652 184.649Z" fill="#70A9A1"/>
<path d="M176.69 186.441L174.057 189.781C175.325 188.782 176.556 187.721 177.726 186.612V186.575L176.666 186.453L176.69 186.441Z" fill="#70A9A1"/>
<path d="M180.494 184.746L180.701 184.771L182.018 183.101C181.53 183.661 181.018 184.198 180.506 184.734L180.494 184.746Z" fill="#70A9A1"/>
<path d="M179.531 187.611L185.078 191.976L180.701 186.441L179.652 186.563L179.531 187.611Z" fill="#70A9A1"/>
<path d="M177.872 183.601L172.325 179.236L176.69 184.783L177.738 184.649L177.872 183.601Z" fill="#70A9A1"/>
<path d="M177.836 187.368C176.154 188.916 174.398 190.342 172.545 191.708L172.325 191.988L177.872 187.624L177.848 187.368H177.836Z" fill="#70A9A1"/>
<path d="M177.836 187.368C178.75 186.514 179.628 185.661 180.494 184.759L179.738 184.673C179.08 185.344 178.433 185.99 177.739 186.612L177.824 187.38L177.836 187.368Z" fill="#70A9A1"/>
<path d="M5.03698 138.493C5.03698 137.237 4.02511 136.225 2.76941 136.225C1.51371 136.225 0.501831 137.237 0.501831 138.493C0.501831 139.748 1.51371 140.76 2.76941 140.76C4.02511 140.76 5.03698 139.748 5.03698 138.493Z" fill="#70A9A1"/>
<path d="M199.158 60.1639C197.903 60.1639 196.891 61.1758 196.891 62.4315C196.891 63.6872 197.903 64.6991 199.158 64.6991C200.414 64.6991 201.426 63.6872 201.426 62.4315C201.426 61.1758 200.414 60.1639 199.158 60.1639Z" fill="#70A9A1"/>
<path d="M195.318 103.699C192.404 113.671 188.137 123.644 182.542 133.421C163.645 166.435 133.167 190.452 102.055 200.168C102.64 200.339 103.225 200.485 103.81 200.656C154.209 199.144 194.684 156.438 195.318 103.699Z" fill="#70A9A1"/>
<path d="M20.0688 133.129C39.0506 166.301 69.7605 190.354 100.994 199.864C132.265 190.379 163.011 166.313 182.018 133.116C187.796 123.022 192.149 112.708 195.038 102.419C192.136 92.1902 187.784 81.8764 182.018 71.8064C163.024 38.6218 132.302 14.5562 101.043 5.05923C101.385 4.94951 101.714 4.85198 102.055 4.75445C101.726 4.64472 101.397 4.535 101.055 4.42528C101.372 4.32775 101.689 4.2546 102.006 4.15707C101.689 4.15707 101.372 4.13269 101.055 4.13269C100.738 4.13269 100.422 4.15707 100.105 4.15707C100.422 4.2546 100.738 4.32775 101.043 4.42528C100.702 4.535 100.361 4.64472 100.019 4.75445C100.361 4.85198 100.69 4.94951 101.031 5.05923C83.2928 10.4478 65.7129 20.5421 50.3641 34.3305L50.3276 34.367C50.3276 34.367 50.3276 34.367 50.3154 34.367L47.8527 37.488L54.8627 38.317L47.8527 39.146L52.2172 44.693L46.6702 40.3286L45.8412 47.3386L45.0122 40.3286L40.9769 43.5105C33.0891 51.9347 26.0182 61.4317 20.0688 71.8064C14.3146 81.852 9.95008 92.178 7.04856 102.504C6.96322 102.151 6.8535 101.809 6.76816 101.456C6.76816 101.785 6.74377 102.102 6.74377 102.419C6.74377 102.784 6.76816 103.15 6.76816 103.516C6.8535 103.187 6.95103 102.845 7.04856 102.516C9.95008 112.745 14.3024 123.034 20.0688 133.116V133.129Z" fill="#70A9A1"/>
<path d="M100.019 200.168C68.907 190.464 38.441 166.435 19.5445 133.421C13.9609 123.656 9.69399 113.659 6.78027 103.723C7.4386 156.426 47.877 199.108 98.2514 200.644C98.8487 200.485 99.4461 200.339 100.043 200.156L100.019 200.168Z" fill="#70A9A1"/>
<path d="M182.542 71.514C188.15 81.2914 192.429 91.3126 195.33 101.248C194.733 48.5578 154.356 5.85177 104.042 4.21814C103.384 4.40101 102.725 4.57169 102.067 4.76675C133.179 14.471 163.657 38.5 182.542 71.514Z" fill="#70A9A1"/>
<path d="M101.019 200.485C100.775 200.558 100.531 200.632 100.287 200.705C100.543 200.705 100.799 200.729 101.055 200.729C101.311 200.729 101.567 200.717 101.823 200.705C101.567 200.632 101.311 200.558 101.043 200.485C101.043 200.498 101.031 200.498 101.019 200.485Z" fill="#70A9A1"/>
<path d="M6.76819 101.273C9.6819 91.2516 13.961 81.2426 19.5446 71.5017C25.7744 60.6027 33.2842 50.679 41.6474 41.9379L41.7206 41.8526L43.8418 39.1583L36.8319 38.3293L43.8418 37.5003L39.4774 31.9532L45.0244 36.3177L45.8534 29.3077L46.6824 36.3177L51.5101 32.514L51.5589 32.4653C66.3469 19.5547 83.0855 10.0212 100.019 4.74233C99.3609 4.54727 98.7026 4.37659 98.0564 4.19373C47.7309 5.86393 7.35337 48.5699 6.76819 101.273Z" fill="#70A9A1"/>
<path d="M101.043 199.876H101.031C101.031 199.876 101.007 199.876 100.994 199.876C100.665 199.973 100.348 200.083 100.019 200.181C100.348 200.303 100.677 200.4 101.007 200.498C101.36 200.388 101.702 200.29 102.055 200.181C101.714 200.083 101.385 199.986 101.043 199.888V199.876Z" fill="#70A9A1"/>
<path d="M195.05 102.467C195.135 102.809 195.233 103.162 195.33 103.504C195.33 103.15 195.355 102.797 195.355 102.431C195.355 102.065 195.33 101.736 195.33 101.395C195.233 101.736 195.135 102.09 195.038 102.431C195.038 102.431 195.038 102.443 195.038 102.455L195.05 102.467Z" fill="#70A9A1"/>
<path d="M51.51 32.5262L51.4124 32.5994C49.8276 33.977 48.2793 35.3912 46.7432 36.8541L46.8041 37.3784L47.0479 37.4027C48.1208 36.3665 49.2058 35.3668 50.3152 34.3793L52.2292 31.9532L51.51 32.514V32.5262Z" fill="#70A9A1"/>
<path d="M44.9146 39.4753L44.8902 39.2924L44.3172 39.2192C43.4517 40.0726 42.5983 40.9382 41.7449 41.8282L41.7205 41.8526L39.4773 44.6931L40.989 43.5106H41.0012C42.2935 42.1208 43.5979 40.7797 44.9146 39.4631V39.4753Z" fill="#70A9A1"/>
<path d="M46.7432 36.8664L46.6823 36.33L45.8532 36.9883L45.0242 36.33L44.9023 37.3784L43.8539 37.5003L44.5122 38.3293L43.8539 39.1583L44.3293 39.2193C45.134 38.4147 45.9386 37.6344 46.7554 36.8542L46.7432 36.8664Z" fill="#70A9A1"/>
<path d="M47.048 37.4149C46.3287 38.0976 45.6216 38.7803 44.9146 39.4752L45.0243 40.353L45.8533 39.6947L46.6823 40.353L46.8042 39.3046L47.8526 39.1826L47.1943 38.3536L47.8526 37.5246L47.048 37.4271V37.4149Z" fill="#70A9A1"/>
</g>
<path d="M51.6927 62.4352H42.735V61.9209H42.935C43.116 61.9209 43.3636 61.8971 43.6779 61.8494C43.9922 61.8018 44.2732 61.697 44.5208 61.5351C44.778 61.3732 44.9066 61.1161 44.9066 60.7637V42.4482H43.8208C43.2588 42.4482 42.6731 42.6006 42.0635 42.9053C41.4635 43.2101 40.8873 43.5863 40.3348 44.034C39.7824 44.4816 39.2871 44.9293 38.849 45.3769C38.4109 45.8151 38.0585 46.1865 37.7918 46.4913L37.4061 46.9628L38.149 41.9196H56.2787L57.0216 46.9628L56.6359 46.4913C56.3787 46.1865 56.0263 45.8151 55.5787 45.3769C55.1406 44.9293 54.6453 44.4816 54.0929 44.034C53.5405 43.5863 52.9642 43.2101 52.3642 42.9053C51.7642 42.6006 51.1784 42.4482 50.6069 42.4482H49.4926V60.7637C49.4926 61.1161 49.6212 61.3732 49.8783 61.5351C50.1355 61.697 50.4212 61.8018 50.7355 61.8494C51.0593 61.8971 51.3117 61.9209 51.4927 61.9209H51.6927V62.4352ZM62.8003 62.4066C61.3716 62.4066 60.1096 62.0828 59.0143 61.4351C57.9286 60.7875 57.0809 59.916 56.4713 58.8207C55.8618 57.7158 55.557 56.4824 55.557 55.1204C55.557 53.7489 55.8713 52.5155 56.4999 51.4202C57.1285 50.3154 57.9809 49.4391 59.0572 48.7914C60.1335 48.1438 61.3335 47.82 62.6574 47.82C64.2671 47.82 65.6767 48.2628 66.8863 49.1486C68.1054 50.0344 68.9531 51.2154 69.4293 52.6917L69.4722 52.8346C69.5103 52.9489 69.5388 53.0632 69.5579 53.1774L60.1716 55.8205C60.3144 57.0682 60.6954 58.0635 61.3145 58.8064C62.3431 60.0541 63.5908 60.6779 65.0576 60.6779C65.9815 60.6779 66.8291 60.4541 67.6006 60.0065C68.3721 59.5588 68.9817 59.0254 69.4293 58.4064V58.7492C69.296 59.1016 69.0674 59.4874 68.7435 59.9065C68.4292 60.316 68.0006 60.7113 67.4577 61.0922C66.9244 61.4732 66.272 61.7875 65.5005 62.0352C64.729 62.2828 63.8289 62.4066 62.8003 62.4066ZM60.1287 55.3062L65.1147 53.9061C65.0576 52.8584 64.929 51.9202 64.729 51.0916C64.529 50.2534 64.2575 49.5867 63.9147 49.0915C63.5718 48.5867 63.1527 48.3343 62.6574 48.3343C62.2669 48.3343 61.9098 48.5248 61.5859 48.9057C61.2716 49.2867 61.0002 49.782 60.7716 50.3915C60.5525 50.9916 60.3811 51.6488 60.2573 52.3631C60.143 53.0679 60.0858 53.7584 60.0858 54.4347C60.0858 54.7299 60.1001 55.0204 60.1287 55.3062ZM88.9089 62.4066H79.8797V61.8923H80.0654C80.2464 61.8923 80.494 61.8732 80.8083 61.8352C81.1322 61.7875 81.4179 61.6828 81.6655 61.5208C81.9227 61.3494 82.0608 61.0875 82.0798 60.7351V55.0633C82.0798 53.2251 81.9322 51.825 81.637 50.863C81.3417 49.8915 80.794 49.4058 79.994 49.4058C79.5368 49.4058 79.1177 49.5963 78.7368 49.9772C78.3653 50.3487 78.051 50.8297 77.7938 51.4202C77.5462 52.0012 77.37 52.6298 77.2652 53.306V60.7494C77.2843 61.0922 77.4176 61.3494 77.6653 61.5208C77.9129 61.6828 78.1939 61.7875 78.5082 61.8352C78.8225 61.8732 79.0701 61.8923 79.2511 61.8923H79.4654V62.4066H70.4219V61.8923H70.6077C70.7886 61.8923 71.0363 61.8732 71.3506 61.8352C71.6649 61.7875 71.9458 61.6828 72.1935 61.5208C72.4506 61.3589 72.5983 61.1065 72.6364 60.7637V50.9487C72.5792 50.6344 72.4221 50.4011 72.1649 50.2487C71.9078 50.0963 71.6268 50.001 71.322 49.9629C71.0267 49.9249 70.7934 49.9058 70.622 49.9058H70.4505V49.4058H72.6364C73.3793 49.4058 74.0365 49.3248 74.6079 49.1629C75.1794 49.001 75.6604 48.82 76.0509 48.62C76.4509 48.4105 76.7557 48.2247 76.9652 48.0628L77.2652 47.82V51.3345C77.5224 50.6297 77.9272 49.9439 78.4796 49.2772C79.2797 48.3152 80.2321 47.8342 81.3369 47.8342C82.5084 47.8342 83.4466 48.0485 84.1514 48.4771C84.8657 48.9057 85.4086 49.4724 85.7801 50.1772C86.1611 50.8725 86.4135 51.6535 86.5373 52.5203C86.6611 53.3775 86.723 54.2347 86.723 55.0919V60.9065C86.7897 61.2018 86.9468 61.4208 87.1945 61.5637C87.4421 61.7066 87.7088 61.7971 87.9945 61.8352C88.2898 61.8732 88.5231 61.8923 88.6946 61.8923H88.9089V62.4066ZM96.4733 69.7214C96.1305 69.7214 95.7876 69.6642 95.4447 69.5499C94.9971 69.4071 94.6066 69.1452 94.2732 68.7642C93.9494 68.3927 93.7875 67.9784 93.7875 67.5212C93.7875 67.2165 93.897 66.9117 94.1161 66.6069C94.3446 66.3307 94.5923 66.1354 94.859 66.0211C95.1256 65.9068 95.3685 65.8497 95.5876 65.8497C95.74 65.8497 95.8638 65.8687 95.959 65.9068C96.0638 65.9545 96.1209 66.0116 96.1305 66.0783C96.159 66.4116 96.2019 66.7212 96.259 67.0069C96.4019 67.626 96.6829 68.0641 97.102 68.3213C97.521 68.588 97.9496 68.7213 98.3878 68.7213C98.9592 68.7213 99.4307 68.5356 99.8021 68.1641C100.078 67.8879 100.235 67.5308 100.274 67.0926C100.274 66.1497 99.6688 65.5592 98.4592 65.3211C97.8496 65.2068 97.1258 65.1116 96.2876 65.0354C95.3352 64.9592 94.3018 64.8258 93.1874 64.6353C92.7874 64.5877 92.335 64.4544 91.8302 64.2353C91.3349 64.0258 90.9539 63.6162 90.6873 63.0067C90.5539 62.6447 90.4872 62.2971 90.4872 61.9637C90.4872 60.7732 91.3111 59.7017 92.9588 58.7492C92.254 58.1873 91.6968 57.492 91.2873 56.6634C90.8777 55.8252 90.673 54.9157 90.673 53.9346C90.673 52.7917 90.9397 51.7631 91.473 50.8487C92.0159 49.9249 92.7445 49.1915 93.6589 48.6486C94.5827 48.1057 95.6114 47.8342 96.7448 47.8342C97.2782 47.8342 97.8782 47.9247 98.5449 48.1057C98.5449 48.0295 98.5544 47.9533 98.5735 47.8771C98.6497 47.3533 98.7783 46.8342 98.9592 46.3199C99.2831 45.4817 99.8402 44.9198 100.631 44.634C100.869 44.5578 101.112 44.5197 101.359 44.5197C101.959 44.5197 102.412 44.7674 102.717 45.2626C102.907 45.6246 103.002 45.9579 103.002 46.2627C103.002 46.577 102.94 46.8342 102.817 47.0342C102.702 47.2342 102.598 47.3342 102.502 47.3342H102.474C102.321 47.2866 102.159 47.2437 101.988 47.2056C101.826 47.158 101.683 47.1294 101.559 47.1199C101.445 47.1104 101.331 47.1056 101.217 47.1056C100.636 47.1056 100.188 47.2247 99.8736 47.4628C99.5593 47.7009 99.3497 48.0009 99.245 48.3628C100.321 48.8486 101.183 49.5867 101.831 50.5773C102.479 51.5583 102.802 52.6774 102.802 53.9346C102.802 55.0776 102.531 56.111 101.988 57.0348C101.455 57.9492 100.731 58.6778 99.8164 59.2207C98.9021 59.7636 97.8782 60.035 96.7448 60.035C95.4876 60.035 94.3684 59.7064 93.3874 59.0493C93.1874 59.1826 93.0827 59.3207 93.0731 59.4636C93.0731 59.7207 93.3398 59.9303 93.8732 60.0922C94.4161 60.2541 95.0685 60.3874 95.8304 60.4922C96.6019 60.5875 97.3544 60.6732 98.0877 60.7494C98.8211 60.816 99.4069 60.8827 99.845 60.9494C100.588 61.0732 101.236 61.3685 101.788 61.8352C102.35 62.3018 102.721 62.8971 102.902 63.621C102.969 63.9162 103.002 64.2115 103.002 64.5068C103.002 65.402 102.693 66.2545 102.074 67.0641C101.455 67.8736 100.516 68.5594 99.2592 69.1213C98.3068 69.5214 97.3782 69.7214 96.4733 69.7214ZM96.7448 59.4921C97.5448 59.4921 98.1115 58.7778 98.4449 57.3491C98.664 56.3586 98.7735 55.2204 98.7735 53.9346C98.7735 53.4584 98.7306 52.7917 98.6449 51.9345C98.5687 51.0678 98.4306 50.3392 98.2306 49.7486C97.8782 48.8438 97.3829 48.3914 96.7448 48.3914C95.9828 48.3914 95.4304 49.1057 95.0875 50.5344C94.8304 51.5821 94.7018 52.7155 94.7018 53.9346C94.7018 55.1538 94.8304 56.2919 95.0875 57.3491C95.4304 58.7778 95.9828 59.4921 96.7448 59.4921ZM111.738 62.4066C110.414 62.4066 109.214 62.0828 108.138 61.4351C107.062 60.7875 106.209 59.916 105.581 58.8207C104.952 57.7158 104.638 56.4824 104.638 55.1204C104.638 53.7584 104.952 52.525 105.581 51.4202C106.209 50.3154 107.062 49.4391 108.138 48.7914C109.214 48.1438 110.414 47.82 111.738 47.82C113.072 47.82 114.272 48.1438 115.339 48.7914C116.415 49.4391 117.267 50.3154 117.896 51.4202C118.534 52.525 118.853 53.7584 118.853 55.1204C118.853 56.4824 118.534 57.7158 117.896 58.8207C117.267 59.916 116.415 60.7875 115.339 61.4351C114.272 62.0828 113.072 62.4066 111.738 62.4066ZM111.738 61.8923C112.138 61.8923 112.491 61.6828 112.796 61.2637C113.11 60.8351 113.372 60.2827 113.581 59.6064C113.8 58.9207 113.962 58.1825 114.067 57.392C114.181 56.6015 114.239 55.8443 114.239 55.1204C114.239 53.9013 114.143 52.7774 113.953 51.7488C113.772 50.7201 113.496 49.8963 113.124 49.2772C112.753 48.6486 112.291 48.3343 111.738 48.3343C111.157 48.3343 110.681 48.6486 110.31 49.2772C109.948 49.8963 109.681 50.7249 109.51 51.7631C109.338 52.7917 109.252 53.9108 109.252 55.1204C109.252 55.8824 109.3 56.6634 109.395 57.4634C109.5 58.2635 109.657 58.9969 109.867 59.6636C110.076 60.3303 110.333 60.8684 110.638 61.278C110.953 61.6875 111.319 61.8923 111.738 61.8923ZM141.411 62.4209C140.963 62.4209 140.492 62.359 139.997 62.2352C139.568 62.1304 139.178 61.878 138.825 61.478C138.53 61.1065 138.382 60.5684 138.382 59.8636V58.8921C138.106 59.616 137.697 60.3065 137.154 60.9637C136.354 61.9352 135.401 62.4209 134.296 62.4209C133.115 62.4209 132.168 62.2066 131.453 61.778C130.749 61.3494 130.206 60.7827 129.825 60.0779C129.453 59.3731 129.201 58.5921 129.067 57.7349C128.944 56.8682 128.882 56.0014 128.882 55.1347V50.9344C128.834 50.6297 128.686 50.4058 128.439 50.263C128.201 50.1106 127.934 50.0153 127.639 49.9772C127.344 49.9391 127.11 49.9201 126.939 49.9201H126.71V49.3915H128.882C129.625 49.3915 130.282 49.3153 130.853 49.1629C131.434 49.001 131.925 48.82 132.325 48.62C132.725 48.4105 133.025 48.2247 133.225 48.0628L133.539 47.82V55.1776C133.539 57.0158 133.687 58.4206 133.982 59.3921C134.277 60.3636 134.83 60.8494 135.639 60.8494C136.087 60.8494 136.501 60.6636 136.882 60.2922C137.263 59.9112 137.582 59.4255 137.839 58.835C138.097 58.2444 138.278 57.6111 138.382 56.9348V50.9344C138.316 50.6297 138.159 50.4058 137.911 50.263C137.663 50.1106 137.392 50.0153 137.097 49.9772C136.801 49.9391 136.568 49.9201 136.397 49.9201H136.168V49.3915H138.382C139.125 49.3915 139.782 49.3153 140.354 49.1629C140.925 49.001 141.406 48.82 141.797 48.62C142.197 48.4105 142.497 48.2247 142.697 48.0628L142.997 47.82V60.2779C143.035 60.5446 143.135 60.7637 143.297 60.9351C143.459 61.1065 143.64 61.2399 143.84 61.3351C144.049 61.4208 144.23 61.478 144.383 61.5066L144.611 61.5494L144.183 61.778C143.907 61.9209 143.526 62.0637 143.04 62.2066C142.554 62.3495 142.011 62.4209 141.411 62.4209ZM163.862 62.4066H154.833V61.8923H155.019C155.2 61.8923 155.447 61.8732 155.762 61.8352C156.086 61.7875 156.371 61.6828 156.619 61.5208C156.876 61.3494 157.014 61.0875 157.033 60.7351V55.0633C157.033 53.2251 156.886 51.825 156.59 50.863C156.295 49.8915 155.748 49.4058 154.947 49.4058C154.49 49.4058 154.071 49.5963 153.69 49.9772C153.319 50.3487 153.004 50.8297 152.747 51.4202C152.5 52.0012 152.323 52.6298 152.219 53.306V60.7494C152.238 61.0922 152.371 61.3494 152.619 61.5208C152.866 61.6828 153.147 61.7875 153.462 61.8352C153.776 61.8732 154.024 61.8923 154.205 61.8923H154.419V62.4066H145.375V61.8923H145.561C145.742 61.8923 145.99 61.8732 146.304 61.8352C146.618 61.7875 146.899 61.6828 147.147 61.5208C147.404 61.3589 147.552 61.1065 147.59 60.7637V50.9487C147.533 50.6344 147.376 50.4011 147.118 50.2487C146.861 50.0963 146.58 50.001 146.275 49.9629C145.98 49.9249 145.747 49.9058 145.575 49.9058H145.404V49.4058H147.59C148.333 49.4058 148.99 49.3248 149.561 49.1629C150.133 49.001 150.614 48.82 151.004 48.62C151.404 48.4105 151.709 48.2247 151.919 48.0628L152.219 47.82V51.3345C152.476 50.6297 152.881 49.9439 153.433 49.2772C154.233 48.3152 155.186 47.8342 156.29 47.8342C157.462 47.8342 158.4 48.0485 159.105 48.4771C159.819 48.9057 160.362 49.4724 160.734 50.1772C161.115 50.8725 161.367 51.6535 161.491 52.5203C161.615 53.3775 161.676 54.2347 161.676 55.0919V60.9065C161.743 61.2018 161.9 61.4208 162.148 61.5637C162.396 61.7066 162.662 61.7971 162.948 61.8352C163.243 61.8732 163.477 61.8923 163.648 61.8923H163.862V62.4066ZM34.699 96.4066C33.4894 96.4066 32.3275 96.0828 31.2131 95.4351C30.1083 94.7875 29.2034 93.916 28.4986 92.8207C27.7938 91.7158 27.4414 90.4824 27.4414 89.1204C27.4414 87.8442 27.7129 86.7012 28.2558 85.6916C28.8082 84.682 29.5511 83.8534 30.4845 83.2058C31.4274 82.5486 32.5084 82.1104 33.7275 81.8914C34.3562 81.7771 35.0133 81.7199 35.6991 81.7199C36.4896 81.7199 37.2087 81.7676 37.8564 81.8628C38.3707 81.9295 38.8707 82.0581 39.3565 82.2486C39.6898 82.3819 39.9899 82.5581 40.2565 82.7772C40.628 83.0915 40.8947 83.4772 41.0566 83.9344C41.1328 84.1725 41.1709 84.4106 41.1709 84.6487C41.1709 84.9154 41.1137 85.1678 40.9994 85.4059C40.8852 85.644 40.6947 85.844 40.428 86.0059C40.0661 86.1964 39.7279 86.2917 39.4136 86.2917C39.1088 86.2917 38.8565 86.2345 38.6564 86.1202C38.4564 86.0059 38.3564 85.9012 38.3564 85.8059V85.7774C38.404 85.625 38.4469 85.4678 38.485 85.3059C38.5231 85.1345 38.5517 84.9868 38.5707 84.863V84.6916C38.5707 84.1772 38.4183 83.7582 38.1135 83.4343C37.8183 83.101 37.4706 82.8534 37.0706 82.6914C36.6706 82.5295 36.3039 82.4486 35.9705 82.4486C35.6277 82.4486 35.2562 82.5152 34.8562 82.6486C34.4562 82.7724 34.0895 83.001 33.7561 83.3343C33.1847 83.982 32.7465 84.7773 32.4417 85.7202C32.137 86.6631 31.9846 87.606 31.9846 88.549C31.9846 88.8061 31.9989 89.0585 32.0274 89.3062V89.3347C32.0274 89.3443 32.0322 89.3585 32.0417 89.3776C32.0417 89.4347 32.0417 89.5062 32.0417 89.5919C32.0512 89.6681 32.0608 89.7443 32.0703 89.8205C32.2608 91.0682 32.6513 92.0635 33.2418 92.8064C33.8418 93.5493 34.5514 94.0827 35.3705 94.4065C35.9134 94.5875 36.442 94.6779 36.9563 94.6779C37.8802 94.6779 38.7279 94.4541 39.4993 94.0065C40.2708 93.5588 40.8804 93.0254 41.328 92.4064V92.7492C41.1947 93.1016 40.9661 93.4874 40.6423 93.9065C40.328 94.316 39.8994 94.7113 39.3565 95.0922C38.8231 95.4732 38.1707 95.7875 37.3992 96.0352C36.6277 96.2828 35.7277 96.4066 34.699 96.4066ZM53.8357 96.4352C52.6737 96.4352 51.8213 96.1447 51.2784 95.5637C50.4593 96.1447 49.5259 96.4352 48.4782 96.4352C47.8115 96.4352 47.1829 96.3399 46.5924 96.1495C46.0114 95.9494 45.5209 95.7066 45.1209 95.4208C44.5399 95.0018 44.0875 94.5589 43.7636 94.0922C43.4493 93.616 43.2303 93.154 43.1064 92.7064C42.9921 92.2587 42.935 91.873 42.935 91.5492C42.935 91.2063 42.9921 90.7824 43.1064 90.2776C43.2207 89.7729 43.4398 89.2681 43.7636 88.7633C44.097 88.2585 44.578 87.8203 45.2066 87.4489C46.2066 86.906 47.2924 86.6346 48.4639 86.6346C48.7592 86.6346 49.0497 86.6536 49.3354 86.6917C50.0307 86.7965 50.5022 86.9393 50.7498 87.1203C50.6926 85.2249 50.3736 83.8677 49.7926 83.0486C49.4497 82.6867 49.0402 82.5057 48.5639 82.5057C48.1734 82.5152 47.8353 82.601 47.5496 82.7629C46.9781 83.0962 46.6924 83.6915 46.6924 84.5487C46.6924 84.6725 46.6972 84.7963 46.7067 84.9202C46.7162 85.0344 46.74 85.1773 46.7781 85.3488C46.8257 85.5107 46.8734 85.6678 46.921 85.8202V85.8488C46.921 85.944 46.821 86.0536 46.621 86.1774C46.4209 86.2917 46.1638 86.3488 45.8495 86.3488C45.5447 86.3488 45.2113 86.2536 44.8494 86.0631C44.3541 85.7583 44.1065 85.3059 44.1065 84.7059C44.1065 84.4677 44.1446 84.2296 44.2208 83.9915C44.5065 83.1915 45.0685 82.6295 45.9066 82.3057C46.7733 81.9914 47.6353 81.8342 48.4925 81.8342L48.864 81.8485C50.1021 81.9057 51.207 82.2819 52.1785 82.9772C53.1595 83.6629 53.9357 84.5582 54.5072 85.6631C55.0882 86.7679 55.3787 87.9442 55.3787 89.1919V94.1493C55.3787 94.397 55.4311 94.6065 55.5358 94.7779C55.6501 94.9494 55.7882 95.0875 55.9501 95.1923C56.1121 95.297 56.2692 95.378 56.4216 95.4351C56.5835 95.4923 56.7169 95.5304 56.8216 95.5494L56.9931 95.578L56.5787 95.7923C56.3025 95.9352 55.9263 96.078 55.4501 96.2209C54.9739 96.3638 54.4358 96.4352 53.8357 96.4352ZM49.6783 95.578C50.1355 95.578 50.5784 95.4304 51.007 95.1351C50.845 94.8208 50.7641 94.4065 50.7641 93.8922V87.8346L50.6641 87.7775C50.5593 87.6918 50.4307 87.6108 50.2783 87.5346C50.1259 87.4584 49.9355 87.4203 49.7069 87.4203C49.0878 87.4203 48.6116 87.7203 48.2782 88.3204C48.021 88.7871 47.8353 89.3204 47.721 89.9205C47.6163 90.5205 47.5639 91.0491 47.5639 91.5063C47.5639 92.0016 47.5924 92.5206 47.6496 93.0635C47.7163 93.6064 47.8591 94.0969 48.0782 94.5351C48.3068 94.9637 48.6592 95.278 49.1354 95.478C49.3164 95.5447 49.4973 95.578 49.6783 95.578ZM65.1147 96.4066C63.9051 96.4066 62.7431 96.0828 61.6288 95.4351C60.524 94.7875 59.6191 93.916 58.9143 92.8207C58.2095 91.7158 57.8571 90.4824 57.8571 89.1204C57.8571 87.8442 58.1286 86.7012 58.6715 85.6916C59.2239 84.682 59.9668 83.8534 60.9002 83.2058C61.8431 82.5486 62.9241 82.1104 64.1432 81.8914C64.7719 81.7771 65.429 81.7199 66.1148 81.7199C66.9053 81.7199 67.6244 81.7676 68.2721 81.8628C68.7864 81.9295 69.2864 82.0581 69.7722 82.2486C70.1055 82.3819 70.4056 82.5581 70.6722 82.7772C71.0437 83.0915 71.3104 83.4772 71.4723 83.9344C71.5485 84.1725 71.5866 84.4106 71.5866 84.6487C71.5866 84.9154 71.5294 85.1678 71.4151 85.4059C71.3008 85.644 71.1104 85.844 70.8437 86.0059C70.4817 86.1964 70.1436 86.2917 69.8293 86.2917C69.5245 86.2917 69.2721 86.2345 69.0721 86.1202C68.8721 86.0059 68.7721 85.9012 68.7721 85.8059V85.7774C68.8197 85.625 68.8626 85.4678 68.9007 85.3059C68.9388 85.1345 68.9674 84.9868 68.9864 84.863V84.6916C68.9864 84.1772 68.834 83.7582 68.5292 83.4343C68.234 83.101 67.8863 82.8534 67.4863 82.6914C67.0863 82.5295 66.7196 82.4486 66.3862 82.4486C66.0434 82.4486 65.6719 82.5152 65.2719 82.6486C64.8719 82.7724 64.5052 83.001 64.1718 83.3343C63.6003 83.982 63.1622 84.7773 62.8574 85.7202C62.5527 86.6631 62.4003 87.606 62.4003 88.549C62.4003 88.8061 62.4146 89.0585 62.4431 89.3062V89.3347C62.4431 89.3443 62.4479 89.3585 62.4574 89.3776C62.4574 89.4347 62.4574 89.5062 62.4574 89.5919C62.4669 89.6681 62.4765 89.7443 62.486 89.8205C62.6765 91.0682 63.067 92.0635 63.6575 92.8064C64.2575 93.5493 64.9671 94.0827 65.7862 94.4065C66.3291 94.5875 66.8577 94.6779 67.372 94.6779C68.2959 94.6779 69.1436 94.4541 69.915 94.0065C70.6865 93.5588 71.2961 93.0254 71.7437 92.4064V92.7492C71.6104 93.1016 71.3818 93.4874 71.058 93.9065C70.7437 94.316 70.3151 94.7113 69.7722 95.0922C69.2388 95.4732 68.5864 95.7875 67.8149 96.0352C67.0434 96.2828 66.1434 96.4066 65.1147 96.4066ZM79.4225 96.4638C77.6224 96.4638 76.2652 95.8161 75.3508 94.5208C74.8556 93.816 74.6079 92.8873 74.6079 91.7349V91.492H74.5936V82.3628H72.4078V81.8485C73.4555 81.8485 74.3603 81.6628 75.1222 81.2913C75.8842 80.9199 76.5271 80.4627 77.0509 79.9198C77.5843 79.3769 78.0081 78.834 78.3225 78.2912C78.6463 77.7483 78.8796 77.2911 79.0225 76.9196L79.2225 76.3625V81.8485H83.4799V82.3628H79.2225V89.849C79.2225 90.43 79.2368 91.0063 79.2654 91.5777C79.2939 92.1397 79.3797 92.6492 79.5225 93.1064C79.6654 93.5636 79.9035 93.935 80.2369 94.2208C80.6464 94.516 81.0798 94.6636 81.5369 94.6636C82.0513 94.6636 82.537 94.5208 82.9942 94.235C83.4609 93.9398 83.7942 93.5921 83.9942 93.1921V93.5207C83.9562 93.7779 83.7752 94.1208 83.4514 94.5494C83.137 94.9684 82.6846 95.3637 82.0941 95.7351C81.5131 96.1066 80.8036 96.3399 79.9654 96.4352C79.7845 96.4542 79.6035 96.4638 79.4225 96.4638ZM99.3164 96.4209C98.8687 96.4209 98.3973 96.359 97.902 96.2352C97.4734 96.1304 97.0829 95.878 96.7305 95.478C96.4353 95.1065 96.2876 94.5684 96.2876 93.8636V92.8921C96.0114 93.616 95.6019 94.3065 95.059 94.9637C94.2589 95.9352 93.3065 96.4209 92.2016 96.4209C91.0206 96.4209 90.0729 96.2066 89.3586 95.778C88.6538 95.3494 88.1109 94.7827 87.7299 94.0779C87.3585 93.3731 87.1061 92.5921 86.9727 91.7349C86.8489 90.8682 86.787 90.0014 86.787 89.1347V84.9344C86.7394 84.6297 86.5918 84.4058 86.3441 84.263C86.106 84.1106 85.8393 84.0153 85.5441 83.9772C85.2488 83.9391 85.0155 83.9201 84.844 83.9201H84.6154V83.3915H86.787C87.5299 83.3915 88.1871 83.3153 88.7586 83.1629C89.3395 83.001 89.8301 82.82 90.2301 82.62C90.6301 82.4105 90.9301 82.2247 91.1301 82.0628L91.4444 81.82V89.1776C91.4444 91.0158 91.5921 92.4206 91.8873 93.3921C92.1826 94.3636 92.735 94.8494 93.5446 94.8494C93.9922 94.8494 94.4065 94.6636 94.7875 94.2922C95.1685 93.9112 95.4876 93.4255 95.7447 92.835C96.0019 92.2444 96.1829 91.6111 96.2876 90.9348V84.9344C96.221 84.6297 96.0638 84.4058 95.8162 84.263C95.5685 84.1106 95.2971 84.0153 95.0018 83.9772C94.7066 83.9391 94.4732 83.9201 94.3018 83.9201H94.0732V83.3915H96.2876C97.0305 83.3915 97.6877 83.3153 98.2592 83.1629C98.8306 83.001 99.3116 82.82 99.7021 82.62C100.102 82.4105 100.402 82.2247 100.602 82.0628L100.902 81.82V94.2779C100.94 94.5446 101.04 94.7637 101.202 94.9351C101.364 95.1065 101.545 95.2399 101.745 95.3351C101.955 95.4208 102.136 95.478 102.288 95.5066L102.517 95.5494L102.088 95.778C101.812 95.9209 101.431 96.0637 100.945 96.2066C100.459 96.3495 99.9164 96.4209 99.3164 96.4209ZM109.252 96.4209C108.262 96.4209 107.552 96.3828 107.124 96.3066C105.4 96.0875 104.328 95.4018 103.909 94.2493C103.833 94.0112 103.795 93.7731 103.795 93.535C103.795 92.9254 104.043 92.4683 104.538 92.1635C104.9 91.9825 105.233 91.892 105.538 91.892C105.852 91.892 106.109 91.9539 106.309 92.0778C106.519 92.1921 106.624 92.2921 106.624 92.3778V92.4064C106.481 92.8254 106.4 93.2064 106.381 93.5493C106.381 94.4255 106.776 95.0399 107.567 95.3923C108.052 95.6209 108.562 95.7351 109.095 95.7351C109.543 95.7351 109.991 95.6732 110.438 95.5494C110.886 95.4161 111.253 95.2256 111.538 94.978C111.976 94.5684 112.196 94.1065 112.196 93.5921L112.181 93.435C112.105 92.9302 111.724 92.4683 111.038 92.0492C110.353 91.6206 109.533 91.192 108.581 90.7634C106.838 89.9919 105.619 89.2966 104.924 88.6775C104.171 88.0108 103.795 87.1489 103.795 86.0917C103.795 85.0154 104.2 84.1153 105.009 83.3915C105.819 82.6676 106.909 82.1914 108.281 81.9628L108.31 81.9485C108.91 81.8533 109.495 81.8057 110.067 81.8057C111.838 81.8057 113.105 82.139 113.867 82.8057C114.239 83.1105 114.505 83.4915 114.667 83.9487C114.743 84.1868 114.781 84.4249 114.781 84.663C114.781 85.2726 114.534 85.7297 114.038 86.0345C113.677 86.225 113.343 86.3202 113.038 86.3202C112.724 86.3202 112.462 86.2631 112.253 86.1488C112.053 86.025 111.953 85.9155 111.953 85.8202V85.7916C112 85.6392 112.043 85.4821 112.081 85.3202C112.129 85.1487 112.157 85.0059 112.167 84.8916C112.176 84.7773 112.186 84.6678 112.196 84.563C112.196 83.1724 111.434 82.4771 109.91 82.4771C109.31 82.4867 108.81 82.6629 108.41 83.0057C108.057 83.301 107.881 83.6582 107.881 84.0772C107.881 84.6963 108.295 85.263 109.124 85.7774C109.686 86.1202 110.357 86.4822 111.138 86.8631C112.262 87.3965 113.405 88.0489 114.567 88.8204C114.891 89.0395 115.196 89.2871 115.481 89.5633C116.129 90.211 116.453 90.9872 116.453 91.892C116.453 93.1683 115.891 94.2398 114.767 95.1065C113.796 95.859 112.362 96.2828 110.467 96.378C110.067 96.4066 109.662 96.4209 109.252 96.4209ZM139.911 104.236H130.925V103.721H131.096C132.315 103.721 132.987 103.374 133.111 102.678V95.7209C132.73 96.178 132.106 96.4114 131.239 96.4209C129.963 96.4209 128.796 96.0971 127.739 95.4494C126.691 94.7922 125.853 93.916 125.224 92.8207C124.605 91.7254 124.296 90.5062 124.296 89.1633C124.296 87.8013 124.61 86.5679 125.239 85.463C125.877 84.3487 126.734 83.4677 127.81 82.82C128.887 82.1628 130.087 81.8342 131.41 81.8342C131.991 81.8342 132.587 82.0057 133.196 82.3486C133.939 82.7105 134.644 82.8915 135.311 82.8915C135.844 82.8915 136.292 82.8057 136.654 82.6343C137.016 82.4629 137.287 82.2914 137.468 82.12L137.739 81.8628V102.678C137.787 102.993 137.939 103.226 138.197 103.378C138.454 103.531 138.73 103.626 139.025 103.664C139.33 103.702 139.568 103.721 139.74 103.721H139.911V104.236ZM131.582 95.9494C131.906 95.9494 132.206 95.8494 132.482 95.6494C132.768 95.4494 132.977 95.2303 133.111 94.9922V83.9629C132.968 83.6296 132.811 83.3391 132.639 83.0915C132.296 82.6152 131.887 82.3771 131.41 82.3771C130.82 82.3771 130.339 82.6914 129.968 83.32C129.606 83.9391 129.339 84.763 129.167 85.7916C128.996 86.8203 128.91 87.9442 128.91 89.1633C128.91 90.1824 129.001 91.2015 129.182 92.2206C129.363 93.2302 129.639 94.0779 130.01 94.7637C130.41 95.5066 130.934 95.9018 131.582 95.9494ZM155.49 96.4209C155.043 96.4209 154.571 96.359 154.076 96.2352C153.647 96.1304 153.257 95.878 152.904 95.478C152.609 95.1065 152.462 94.5684 152.462 93.8636V92.8921C152.185 93.616 151.776 94.3065 151.233 94.9637C150.433 95.9352 149.48 96.4209 148.376 96.4209C147.195 96.4209 146.247 96.2066 145.533 95.778C144.828 95.3494 144.285 94.7827 143.904 94.0779C143.532 93.3731 143.28 92.5921 143.147 91.7349C143.023 90.8682 142.961 90.0014 142.961 89.1347V84.9344C142.913 84.6297 142.766 84.4058 142.518 84.263C142.28 84.1106 142.013 84.0153 141.718 83.9772C141.423 83.9391 141.189 83.9201 141.018 83.9201H140.789V83.3915H142.961C143.704 83.3915 144.361 83.3153 144.933 83.1629C145.513 83.001 146.004 82.82 146.404 82.62C146.804 82.4105 147.104 82.2247 147.304 82.0628L147.618 81.82V89.1776C147.618 91.0158 147.766 92.4206 148.061 93.3921C148.357 94.3636 148.909 94.8494 149.719 94.8494C150.166 94.8494 150.58 94.6636 150.961 94.2922C151.342 93.9112 151.662 93.4255 151.919 92.835C152.176 92.2444 152.357 91.6111 152.462 90.9348V84.9344C152.395 84.6297 152.238 84.4058 151.99 84.263C151.742 84.1106 151.471 84.0153 151.176 83.9772C150.881 83.9391 150.647 83.9201 150.476 83.9201H150.247V83.3915H152.462C153.204 83.3915 153.862 83.3153 154.433 83.1629C155.005 83.001 155.486 82.82 155.876 82.62C156.276 82.4105 156.576 82.2247 156.776 82.0628L157.076 81.82V94.2779C157.114 94.5446 157.214 94.7637 157.376 94.9351C157.538 95.1065 157.719 95.2399 157.919 95.3351C158.129 95.4208 158.31 95.478 158.462 95.5066L158.691 95.5494L158.262 95.778C157.986 95.9209 157.605 96.0637 157.119 96.2066C156.633 96.3495 156.09 96.4209 155.49 96.4209ZM167.069 96.4066C165.641 96.4066 164.379 96.0828 163.283 95.4351C162.198 94.7875 161.35 93.916 160.74 92.8207C160.131 91.7158 159.826 90.4824 159.826 89.1204C159.826 87.7489 160.14 86.5155 160.769 85.4202C161.398 84.3154 162.25 83.4391 163.326 82.7914C164.403 82.1438 165.603 81.82 166.927 81.82C168.536 81.82 169.946 82.2628 171.155 83.1486C172.374 84.0344 173.222 85.2154 173.698 86.6917L173.741 86.8346C173.779 86.9489 173.808 87.0632 173.827 87.1774L164.441 89.8205C164.584 91.0682 164.964 92.0635 165.584 92.8064C166.612 94.0541 167.86 94.6779 169.327 94.6779C170.251 94.6779 171.098 94.4541 171.87 94.0065C172.641 93.5588 173.251 93.0254 173.698 92.4064V92.7492C173.565 93.1016 173.336 93.4874 173.013 93.9065C172.698 94.316 172.27 94.7113 171.727 95.0922C171.193 95.4732 170.541 95.7875 169.77 96.0352C168.998 96.2828 168.098 96.4066 167.069 96.4066ZM164.398 89.3062L169.384 87.9061C169.327 86.8584 169.198 85.9202 168.998 85.0916C168.798 84.2534 168.527 83.5867 168.184 83.0915C167.841 82.5867 167.422 82.3343 166.927 82.3343C166.536 82.3343 166.179 82.5248 165.855 82.9057C165.541 83.2867 165.269 83.782 165.041 84.3915C164.822 84.9916 164.65 85.6488 164.526 86.3631C164.412 87.0679 164.355 87.7584 164.355 88.4347C164.355 88.7299 164.369 89.0204 164.398 89.3062ZM49.5783 130.421C48.5878 130.421 47.8782 130.383 47.4496 130.307C45.7257 130.088 44.6542 129.402 44.2351 128.249C44.1589 128.011 44.1208 127.773 44.1208 127.535C44.1208 126.925 44.3684 126.468 44.8637 126.163C45.2256 125.983 45.559 125.892 45.8638 125.892C46.1781 125.892 46.4352 125.954 46.6352 126.078C46.8448 126.192 46.9496 126.292 46.9496 126.378V126.406C46.8067 126.825 46.7257 127.206 46.7067 127.549C46.7067 128.426 47.1019 129.04 47.8925 129.392C48.3782 129.621 48.8878 129.735 49.4211 129.735C49.8688 129.735 50.3164 129.673 50.7641 129.549C51.2117 129.416 51.5784 129.226 51.8642 128.978C52.3023 128.568 52.5213 128.106 52.5213 127.592L52.5071 127.435C52.4309 126.93 52.0499 126.468 51.3641 126.049C50.6784 125.621 49.8593 125.192 48.9068 124.763C47.1639 123.992 45.9447 123.297 45.2494 122.678C44.497 122.011 44.1208 121.149 44.1208 120.092C44.1208 119.015 44.5256 118.115 45.3352 117.391C46.1447 116.668 47.2353 116.191 48.6068 115.963L48.6354 115.949C49.2354 115.853 49.8212 115.806 50.3926 115.806C52.1642 115.806 53.4309 116.139 54.1929 116.806C54.5643 117.111 54.831 117.491 54.9929 117.949C55.0691 118.187 55.1072 118.425 55.1072 118.663C55.1072 119.273 54.8596 119.73 54.3643 120.035C54.0024 120.225 53.669 120.32 53.3643 120.32C53.0499 120.32 52.788 120.263 52.5785 120.149C52.3785 120.025 52.2785 119.915 52.2785 119.82V119.792C52.3261 119.639 52.369 119.482 52.4071 119.32C52.4547 119.149 52.4832 119.006 52.4928 118.892C52.5023 118.777 52.5118 118.668 52.5213 118.563C52.5213 117.172 51.7594 116.477 50.2355 116.477C49.6354 116.487 49.1354 116.663 48.7354 117.006C48.383 117.301 48.2068 117.658 48.2068 118.077C48.2068 118.696 48.6211 119.263 49.4497 119.777C50.0117 120.12 50.6831 120.482 51.4641 120.863C52.588 121.397 53.7309 122.049 54.8929 122.82C55.2168 123.039 55.5215 123.287 55.8073 123.563C56.4549 124.211 56.7788 124.987 56.7788 125.892C56.7788 127.168 56.2168 128.24 55.0929 129.107C54.1214 129.859 52.688 130.283 50.7927 130.378C50.3926 130.407 49.9878 130.421 49.5783 130.421ZM65.6291 130.407C64.2004 130.407 62.9384 130.083 61.8431 129.435C60.7573 128.787 59.9096 127.916 59.3001 126.821C58.6905 125.716 58.3857 124.482 58.3857 123.12C58.3857 121.749 58.7 120.515 59.3286 119.42C59.9573 118.315 60.8097 117.439 61.886 116.791C62.9622 116.144 64.1623 115.82 65.4862 115.82C67.0958 115.82 68.5054 116.263 69.715 117.149C70.9342 118.034 71.7818 119.215 72.2581 120.692L72.3009 120.835C72.339 120.949 72.3676 121.063 72.3866 121.177L63.0003 123.82C63.1432 125.068 63.5242 126.063 64.1432 126.806C65.1719 128.054 66.4196 128.678 67.8863 128.678C68.8102 128.678 69.6579 128.454 70.4294 128.006C71.2008 127.559 71.8104 127.025 72.2581 126.406V126.749C72.1247 127.102 71.8961 127.487 71.5723 127.906C71.258 128.316 70.8294 128.711 70.2865 129.092C69.7531 129.473 69.1007 129.788 68.3292 130.035C67.5578 130.283 66.6577 130.407 65.6291 130.407ZM62.9575 123.306L67.9435 121.906C67.8863 120.858 67.7578 119.92 67.5578 119.092C67.3577 118.253 67.0863 117.587 66.7434 117.091C66.4005 116.587 65.9815 116.334 65.4862 116.334C65.0957 116.334 64.7385 116.525 64.4147 116.906C64.1004 117.287 63.8289 117.782 63.6004 118.392C63.3813 118.992 63.2099 119.649 63.086 120.363C62.9717 121.068 62.9146 121.758 62.9146 122.435C62.9146 122.73 62.9289 123.02 62.9575 123.306ZM89.2586 130.407H80.2294V129.892H80.4152C81.5867 129.892 82.2534 129.568 82.4153 128.921V111.177C82.3581 110.862 82.201 110.629 81.9438 110.477C81.5533 110.248 81.039 110.134 80.4009 110.134H80.2294V109.62H82.4153C83.1582 109.62 83.8154 109.539 84.3868 109.377C84.9583 109.215 85.4393 109.034 85.8298 108.834C86.2298 108.634 86.5346 108.453 86.7441 108.291L87.0442 108.048C87.0442 121.782 87.0489 128.673 87.0584 128.721C87.0584 129.083 87.187 129.345 87.4442 129.507C87.8442 129.764 88.3776 129.892 89.0443 129.892H89.2586V130.407ZM99.1804 130.407H90.1512V129.892H90.3369C91.5085 129.892 92.1752 129.568 92.3371 128.921V111.177C92.2799 110.862 92.1228 110.629 91.8656 110.477C91.4751 110.248 90.9608 110.134 90.3227 110.134H90.1512V109.62H92.3371C93.08 109.62 93.7372 109.539 94.3086 109.377C94.8801 109.215 95.3611 109.034 95.7516 108.834C96.1516 108.634 96.4564 108.453 96.6659 108.291L96.966 108.048C96.966 121.782 96.9707 128.673 96.9802 128.721C96.9802 129.083 97.1088 129.345 97.366 129.507C97.766 129.764 98.2994 129.892 98.9661 129.892H99.1804V130.407ZM110.774 130.435C109.612 130.435 108.759 130.145 108.216 129.564C107.397 130.145 106.464 130.435 105.416 130.435C104.75 130.435 104.121 130.34 103.53 130.149C102.949 129.949 102.459 129.707 102.059 129.421C101.478 129.002 101.025 128.559 100.702 128.092C100.387 127.616 100.168 127.154 100.044 126.706C99.9301 126.259 99.873 125.873 99.873 125.549C99.873 125.206 99.9301 124.782 100.044 124.278C100.159 123.773 100.378 123.268 100.702 122.763C101.035 122.258 101.516 121.82 102.145 121.449C103.145 120.906 104.23 120.635 105.402 120.635C105.697 120.635 105.988 120.654 106.273 120.692C106.969 120.796 107.44 120.939 107.688 121.12C107.631 119.225 107.312 117.868 106.731 117.049C106.388 116.687 105.978 116.506 105.502 116.506C105.111 116.515 104.773 116.601 104.488 116.763C103.916 117.096 103.63 117.692 103.63 118.549C103.63 118.673 103.635 118.796 103.645 118.92C103.654 119.034 103.678 119.177 103.716 119.349C103.764 119.511 103.811 119.668 103.859 119.82V119.849C103.859 119.944 103.759 120.054 103.559 120.177C103.359 120.292 103.102 120.349 102.787 120.349C102.483 120.349 102.149 120.254 101.787 120.063C101.292 119.758 101.045 119.306 101.045 118.706C101.045 118.468 101.083 118.23 101.159 117.992C101.445 117.191 102.006 116.63 102.845 116.306C103.711 115.991 104.573 115.834 105.431 115.834L105.802 115.849C107.04 115.906 108.145 116.282 109.116 116.977C110.097 117.663 110.874 118.558 111.445 119.663C112.026 120.768 112.317 121.944 112.317 123.192V128.149C112.317 128.397 112.369 128.606 112.474 128.778C112.588 128.949 112.726 129.087 112.888 129.192C113.05 129.297 113.207 129.378 113.36 129.435C113.522 129.492 113.655 129.53 113.76 129.549L113.931 129.578L113.517 129.792C113.241 129.935 112.864 130.078 112.388 130.221C111.912 130.364 111.374 130.435 110.774 130.435ZM106.616 129.578C107.073 129.578 107.516 129.43 107.945 129.135C107.783 128.821 107.702 128.406 107.702 127.892V121.835L107.602 121.777C107.497 121.692 107.369 121.611 107.216 121.535C107.064 121.458 106.873 121.42 106.645 121.42C106.026 121.42 105.55 121.72 105.216 122.32C104.959 122.787 104.773 123.32 104.659 123.92C104.554 124.521 104.502 125.049 104.502 125.506C104.502 126.002 104.53 126.521 104.588 127.064C104.654 127.606 104.797 128.097 105.016 128.535C105.245 128.964 105.597 129.278 106.073 129.478C106.254 129.545 106.435 129.578 106.616 129.578ZM142.497 130.407H133.468V129.892H133.653C133.834 129.892 134.082 129.873 134.396 129.835C134.72 129.788 135.006 129.683 135.254 129.521C135.511 129.349 135.649 129.087 135.668 128.735V123.063C135.668 121.225 135.52 119.825 135.225 118.863C134.93 117.892 134.382 117.406 133.582 117.406C133.068 117.406 132.606 117.639 132.196 118.106C131.787 118.573 131.458 119.158 131.21 119.863C130.963 120.568 130.82 121.296 130.782 122.049C130.791 122.401 130.796 124.687 130.796 128.907C130.863 129.202 131.02 129.421 131.268 129.564C131.649 129.783 132.149 129.892 132.768 129.892H132.982V130.407H123.953V129.892H124.139C124.32 129.892 124.567 129.873 124.881 129.835C125.205 129.788 125.491 129.683 125.739 129.521C125.996 129.349 126.134 129.087 126.153 128.735V123.063C126.153 121.225 126.005 119.825 125.71 118.863C125.415 117.892 124.867 117.406 124.067 117.406C123.61 117.406 123.191 117.596 122.81 117.977C122.438 118.349 122.124 118.83 121.867 119.42C121.619 120.001 121.443 120.63 121.338 121.306V128.749C121.357 129.092 121.491 129.349 121.738 129.521C121.986 129.683 122.267 129.788 122.581 129.835C122.896 129.873 123.143 129.892 123.324 129.892H123.539V130.407H114.509V129.892H114.695C114.876 129.892 115.124 129.873 115.438 129.835C115.752 129.788 116.033 129.683 116.281 129.521C116.538 129.359 116.681 129.107 116.71 128.764V118.949C116.652 118.634 116.495 118.401 116.238 118.249C115.981 118.096 115.7 118.001 115.395 117.963C115.1 117.925 114.867 117.906 114.695 117.906H114.524V117.406H116.71C117.452 117.406 118.11 117.325 118.681 117.163C119.253 117.001 119.734 116.82 120.124 116.62C120.524 116.41 120.829 116.225 121.038 116.063L121.338 115.82V119.334C121.596 118.63 122 117.944 122.553 117.277C123.353 116.315 124.305 115.834 125.41 115.834C126.515 115.834 127.41 116.025 128.096 116.406C128.791 116.787 129.329 117.296 129.71 117.934C130.101 118.573 130.377 119.282 130.539 120.063C130.587 119.873 130.706 119.558 130.896 119.12C131.087 118.673 131.358 118.196 131.711 117.692C132.063 117.187 132.501 116.753 133.025 116.391C133.558 116.02 134.192 115.834 134.925 115.834C136.097 115.834 137.035 116.049 137.739 116.477C138.454 116.906 138.997 117.472 139.368 118.177C139.749 118.873 140.002 119.654 140.125 120.52C140.249 121.377 140.311 122.235 140.311 123.092V128.907C140.378 129.202 140.535 129.421 140.783 129.564C141.03 129.707 141.297 129.797 141.583 129.835C141.878 129.873 142.111 129.892 142.283 129.892H142.497V130.407ZM153.99 130.435C152.828 130.435 151.976 130.145 151.433 129.564C150.614 130.145 149.68 130.435 148.633 130.435C147.966 130.435 147.337 130.34 146.747 130.149C146.166 129.949 145.675 129.707 145.275 129.421C144.694 129.002 144.242 128.559 143.918 128.092C143.604 127.616 143.385 127.154 143.261 126.706C143.147 126.259 143.09 125.873 143.09 125.549C143.09 125.206 143.147 124.782 143.261 124.278C143.375 123.773 143.594 123.268 143.918 122.763C144.252 122.258 144.732 121.82 145.361 121.449C146.361 120.906 147.447 120.635 148.618 120.635C148.914 120.635 149.204 120.654 149.49 120.692C150.185 120.796 150.657 120.939 150.904 121.12C150.847 119.225 150.528 117.868 149.947 117.049C149.604 116.687 149.195 116.506 148.718 116.506C148.328 116.515 147.99 116.601 147.704 116.763C147.133 117.096 146.847 117.692 146.847 118.549C146.847 118.673 146.852 118.796 146.861 118.92C146.871 119.034 146.895 119.177 146.933 119.349C146.98 119.511 147.028 119.668 147.076 119.82V119.849C147.076 119.944 146.975 120.054 146.775 120.177C146.575 120.292 146.318 120.349 146.004 120.349C145.699 120.349 145.366 120.254 145.004 120.063C144.509 119.758 144.261 119.306 144.261 118.706C144.261 118.468 144.299 118.23 144.375 117.992C144.661 117.191 145.223 116.63 146.061 116.306C146.928 115.991 147.79 115.834 148.647 115.834L149.018 115.849C150.257 115.906 151.361 116.282 152.333 116.977C153.314 117.663 154.09 118.558 154.662 119.663C155.243 120.768 155.533 121.944 155.533 123.192V128.149C155.533 128.397 155.586 128.606 155.69 128.778C155.805 128.949 155.943 129.087 156.105 129.192C156.267 129.297 156.424 129.378 156.576 129.435C156.738 129.492 156.871 129.53 156.976 129.549L157.148 129.578L156.733 129.792C156.457 129.935 156.081 130.078 155.605 130.221C155.128 130.364 154.59 130.435 153.99 130.435ZM149.833 129.578C150.29 129.578 150.733 129.43 151.161 129.135C151 128.821 150.919 128.406 150.919 127.892V121.835L150.819 121.777C150.714 121.692 150.585 121.611 150.433 121.535C150.28 121.458 150.09 121.42 149.861 121.42C149.242 121.42 148.766 121.72 148.433 122.32C148.176 122.787 147.99 123.32 147.876 123.92C147.771 124.521 147.718 125.049 147.718 125.506C147.718 126.002 147.747 126.521 147.804 127.064C147.871 127.606 148.014 128.097 148.233 128.535C148.461 128.964 148.814 129.278 149.29 129.478C149.471 129.545 149.652 129.578 149.833 129.578ZM76.0652 164.507C75.608 164.507 75.046 164.464 74.3793 164.378C73.0078 164.207 71.9935 163.635 71.3363 162.664C71.0029 162.178 70.7029 161.368 70.4362 160.235C70.1124 158.844 69.6695 157.72 69.1076 156.863C68.3932 155.758 67.4551 155.206 66.2931 155.206H64.8073V162.735C64.8359 162.735 64.8501 162.759 64.8501 162.807C64.8501 163.178 64.9787 163.449 65.2359 163.621C65.6454 163.878 66.1836 164.007 66.8503 164.007H67.0503V164.492H58.0497V164.007H58.2069C59.3593 164.007 60.0308 163.683 60.2213 163.035V145.463C60.1356 145.167 59.9641 144.953 59.707 144.82C59.3069 144.601 58.8069 144.491 58.2069 144.491H58.0497V144.005C62.4024 144.005 65.293 144.001 66.7217 143.991C68.2551 143.991 69.4076 144.024 70.1791 144.091C71.2363 144.196 72.1887 144.51 73.0364 145.034C73.8936 145.558 74.5746 146.229 75.0794 147.048C75.5937 147.858 75.8509 148.734 75.8509 149.677C75.8509 151.001 75.3842 152.168 74.4508 153.177C73.5269 154.177 72.3411 154.801 70.8934 155.049C73.0173 155.497 74.2984 156.482 74.7365 158.006C75.2318 159.749 75.727 161.364 76.2223 162.849C76.3652 163.211 76.5842 163.473 76.8795 163.635C77.3176 163.883 77.7986 164.007 78.3225 164.007H78.3796V164.492L76.0652 164.507ZM65.5359 154.677C66.7646 154.677 67.6551 154.63 68.2075 154.535C68.9599 154.382 69.56 154.044 70.0076 153.52C70.4553 152.996 70.7743 152.387 70.9648 151.692C71.1648 150.987 71.2648 150.315 71.2648 149.677C71.2648 148.62 71.0172 147.591 70.5219 146.591C70.0362 145.591 69.3647 144.953 68.5075 144.677C68.0218 144.562 67.2122 144.505 66.0788 144.505L64.8073 144.534V154.677H65.5359ZM86.4727 164.407C85.1488 164.407 83.9487 164.083 82.8725 163.435C81.7962 162.787 80.9438 161.916 80.3152 160.821C79.6865 159.716 79.3722 158.482 79.3722 157.12C79.3722 155.758 79.6865 154.525 80.3152 153.42C80.9438 152.315 81.7962 151.439 82.8725 150.791C83.9487 150.144 85.1488 149.82 86.4727 149.82C87.8061 149.82 89.0062 150.144 90.0729 150.791C91.1492 151.439 92.0016 152.315 92.6302 153.42C93.2684 154.525 93.5874 155.758 93.5874 157.12C93.5874 158.482 93.2684 159.716 92.6302 160.821C92.0016 161.916 91.1492 162.787 90.0729 163.435C89.0062 164.083 87.8061 164.407 86.4727 164.407ZM86.4727 163.892C86.8727 163.892 87.2251 163.683 87.5299 163.264C87.8442 162.835 88.1061 162.283 88.3157 161.606C88.5347 160.921 88.6967 160.183 88.8014 159.392C88.9157 158.601 88.9729 157.844 88.9729 157.12C88.9729 155.901 88.8776 154.777 88.6871 153.749C88.5062 152.72 88.23 151.896 87.8585 151.277C87.487 150.649 87.0251 150.334 86.4727 150.334C85.8917 150.334 85.4155 150.649 85.044 151.277C84.6821 151.896 84.4154 152.725 84.244 153.763C84.0725 154.792 83.9868 155.911 83.9868 157.12C83.9868 157.882 84.0344 158.663 84.1297 159.463C84.2345 160.263 84.3916 160.997 84.6011 161.664C84.8107 162.33 85.0678 162.868 85.3726 163.278C85.6869 163.688 86.0536 163.892 86.4727 163.892ZM113.067 164.407H104.038V163.892H104.224C104.405 163.892 104.652 163.873 104.966 163.835C105.29 163.788 105.576 163.683 105.824 163.521C106.081 163.349 106.219 163.087 106.238 162.735V157.063C106.238 155.225 106.09 153.825 105.795 152.863C105.5 151.892 104.952 151.406 104.152 151.406C103.695 151.406 103.276 151.596 102.895 151.977C102.523 152.349 102.209 152.83 101.952 153.42C101.704 154.001 101.528 154.63 101.423 155.306V162.749C101.442 163.092 101.576 163.349 101.823 163.521C102.071 163.683 102.352 163.788 102.666 163.835C102.981 163.873 103.228 163.892 103.409 163.892H103.624V164.407H94.5801V163.892H94.7658C94.9468 163.892 95.1944 163.873 95.5087 163.835C95.823 163.788 96.104 163.683 96.3516 163.521C96.6088 163.359 96.7564 163.107 96.7945 162.764V152.949C96.7374 152.634 96.5802 152.401 96.323 152.249C96.0659 152.096 95.7849 152.001 95.4801 151.963C95.1849 151.925 94.9515 151.906 94.7801 151.906H94.6087V151.406H96.7945C97.5374 151.406 98.1946 151.325 98.7661 151.163C99.3375 151.001 99.8185 150.82 100.209 150.62C100.609 150.41 100.914 150.225 101.123 150.063L101.423 149.82V153.334C101.681 152.63 102.085 151.944 102.638 151.277C103.438 150.315 104.39 149.834 105.495 149.834C106.667 149.834 107.605 150.049 108.31 150.477C109.024 150.906 109.567 151.472 109.938 152.177C110.319 152.873 110.572 153.654 110.695 154.52C110.819 155.377 110.881 156.235 110.881 157.092V162.907C110.948 163.202 111.105 163.421 111.353 163.564C111.6 163.707 111.867 163.797 112.153 163.835C112.448 163.873 112.681 163.892 112.853 163.892H113.067V164.407ZM120.746 164.407C119.422 164.407 118.222 164.083 117.146 163.435C116.069 162.787 115.217 161.916 114.588 160.821C113.96 159.716 113.645 158.482 113.645 157.12C113.645 155.758 113.96 154.525 114.588 153.42C115.217 152.315 116.069 151.439 117.146 150.791C118.222 150.144 119.422 149.82 120.746 149.82C122.079 149.82 123.279 150.144 124.346 150.791C125.422 151.439 126.275 152.315 126.903 153.42C127.541 154.525 127.861 155.758 127.861 157.12C127.861 158.482 127.541 159.716 126.903 160.821C126.275 161.916 125.422 162.787 124.346 163.435C123.279 164.083 122.079 164.407 120.746 164.407ZM120.746 163.892C121.146 163.892 121.498 163.683 121.803 163.264C122.117 162.835 122.379 162.283 122.589 161.606C122.808 160.921 122.97 160.183 123.075 159.392C123.189 158.601 123.246 157.844 123.246 157.12C123.246 155.901 123.151 154.777 122.96 153.749C122.779 152.72 122.503 151.896 122.132 151.277C121.76 150.649 121.298 150.334 120.746 150.334C120.165 150.334 119.689 150.649 119.317 151.277C118.955 151.896 118.689 152.725 118.517 153.763C118.346 154.792 118.26 155.911 118.26 157.12C118.26 157.882 118.308 158.663 118.403 159.463C118.508 160.263 118.665 160.997 118.874 161.664C119.084 162.33 119.341 162.868 119.646 163.278C119.96 163.688 120.327 163.892 120.746 163.892ZM140.354 164.435C139.192 164.435 138.34 164.145 137.797 163.564C136.978 164.145 136.044 164.435 134.996 164.435C134.33 164.435 133.701 164.34 133.111 164.149C132.53 163.949 132.039 163.707 131.639 163.421C131.058 163.002 130.606 162.559 130.282 162.092C129.968 161.616 129.748 161.154 129.625 160.706C129.51 160.259 129.453 159.873 129.453 159.549C129.453 159.206 129.51 158.782 129.625 158.278C129.739 157.773 129.958 157.268 130.282 156.763C130.615 156.258 131.096 155.82 131.725 155.449C132.725 154.906 133.811 154.635 134.982 154.635C135.277 154.635 135.568 154.654 135.854 154.692C136.549 154.796 137.02 154.939 137.268 155.12C137.211 153.225 136.892 151.868 136.311 151.049C135.968 150.687 135.558 150.506 135.082 150.506C134.692 150.515 134.354 150.601 134.068 150.763C133.496 151.096 133.211 151.692 133.211 152.549C133.211 152.673 133.215 152.796 133.225 152.92C133.234 153.034 133.258 153.177 133.296 153.349C133.344 153.511 133.392 153.668 133.439 153.82V153.849C133.439 153.944 133.339 154.054 133.139 154.177C132.939 154.292 132.682 154.349 132.368 154.349C132.063 154.349 131.73 154.254 131.368 154.063C130.872 153.758 130.625 153.306 130.625 152.706C130.625 152.468 130.663 152.23 130.739 151.992C131.025 151.191 131.587 150.63 132.425 150.306C133.292 149.991 134.154 149.834 135.011 149.834L135.382 149.849C136.62 149.906 137.725 150.282 138.697 150.977C139.678 151.663 140.454 152.558 141.025 153.663C141.606 154.768 141.897 155.944 141.897 157.192V162.149C141.897 162.397 141.949 162.606 142.054 162.778C142.168 162.949 142.306 163.087 142.468 163.192C142.63 163.297 142.787 163.378 142.94 163.435C143.102 163.492 143.235 163.53 143.34 163.549L143.511 163.578L143.097 163.792C142.821 163.935 142.445 164.078 141.968 164.221C141.492 164.364 140.954 164.435 140.354 164.435ZM136.197 163.578C136.654 163.578 137.097 163.43 137.525 163.135C137.363 162.821 137.282 162.406 137.282 161.892V155.835L137.182 155.777C137.078 155.692 136.949 155.611 136.797 155.535C136.644 155.458 136.454 155.42 136.225 155.42C135.606 155.42 135.13 155.72 134.796 156.32C134.539 156.787 134.354 157.32 134.239 157.92C134.134 158.521 134.082 159.049 134.082 159.506C134.082 160.002 134.111 160.521 134.168 161.064C134.234 161.606 134.377 162.097 134.596 162.535C134.825 162.964 135.177 163.278 135.654 163.478C135.835 163.545 136.016 163.578 136.197 163.578Z" fill="#2C2C2C"/>
<defs>
<clipPath id="clip0_147_1305">
<rect width="201.253" height="204.935" fill="white" transform="translate(0.184814)"/>
</clipPath>
</defs>
</svg>
