<svg width="202" height="205" viewBox="0 0 202 205" fill="none" xmlns="http://www.w3.org/2000/svg">
<g clip-path="url(#clip0_147_1352)">
<path d="M2.02369 132.812H2.63325C2.60887 130.142 2.7064 127.46 2.90146 124.765C2.69421 124.753 2.49915 124.729 2.30409 124.668C2.09684 127.399 1.99931 130.117 2.02369 132.812Z" fill="#D5AFF6"/>
<path d="M6.55892 101.37C1.06066 81.2426 1.21915 61.4684 7.35136 44.3519C14.0444 25.687 27.1378 12.2035 45.2174 5.35198C53.7026 2.13348 62.7973 0.597385 72.148 0.597385C80.5843 0.597385 89.2279 1.85309 97.8715 4.21819C98.5543 4.19381 99.237 4.16943 99.9197 4.16943C80.9379 -1.38979 61.8219 -1.58485 45.0102 4.77899C26.7477 11.7036 13.5323 25.3091 6.77837 44.1446C0.499861 61.6513 0.438904 81.901 6.24195 102.48C6.33948 102.114 6.4492 101.748 6.55892 101.383C6.55892 101.407 6.57111 101.444 6.58331 101.468C6.58331 101.407 6.58331 101.346 6.58331 101.273C6.58331 101.297 6.55892 101.334 6.55892 101.358V101.37Z" fill="#D5AFF6"/>
<path d="M156.499 5.35221C171.068 10.8749 182.577 21.0668 189.928 34.5503C190.086 34.4284 190.269 34.3309 190.464 34.2455C183.04 20.6523 171.422 10.3628 156.719 4.77922C139.919 -1.58462 120.791 -1.37737 101.822 4.16966C102.504 4.16966 103.175 4.20624 103.857 4.21843C122.096 -0.779994 140.383 -0.767804 156.499 5.35221Z" fill="#D5AFF6"/>
<path d="M2.9259 118.585C2.98686 118.572 3.03562 118.572 3.09658 118.572C3.25507 118.572 3.40136 118.585 3.54766 118.609C4.1938 113.635 5.20567 108.637 6.5589 103.626C6.44918 103.248 6.33946 102.87 6.24193 102.492C4.73021 107.869 3.62081 113.245 2.9259 118.585Z" fill="#D5AFF6"/>
<path d="M197.962 58.4452L198.571 58.3476C197.499 51.74 195.694 45.5346 193.183 39.8169C193.012 39.9144 192.817 39.9876 192.622 40.0485C195.109 45.7175 196.901 51.8863 197.962 58.4452Z" fill="#D5AFF6"/>
<path d="M45.2174 199.584C22.3465 190.916 7.13183 170.91 3.48664 144.698L2.87708 144.784C6.55884 171.215 21.9198 191.391 44.9979 200.144C53.544 203.387 62.6996 204.923 72.1235 204.923C81.5473 204.923 90.703 203.448 100.09 200.693C99.4076 200.693 98.737 200.656 98.0543 200.644C79.7552 205.691 61.3952 205.716 45.2174 199.584Z" fill="#D5AFF6"/>
<path d="M195.133 103.699C195.133 103.699 195.158 103.626 195.158 103.589C195.158 103.565 195.146 103.529 195.133 103.504C195.133 103.565 195.133 103.638 195.133 103.699Z" fill="#D5AFF6"/>
<path d="M195.487 102.443C198.864 90.3982 200.254 78.3898 199.51 66.7959L198.901 66.8325C199.62 78.0484 198.328 89.6667 195.158 101.322C195.158 101.322 195.158 101.334 195.158 101.346C195.268 101.712 195.365 102.077 195.475 102.443H195.487Z" fill="#D5AFF6"/>
<path d="M195.158 101.322C195.158 101.322 195.146 101.273 195.133 101.249C195.133 101.297 195.133 101.346 195.133 101.395C195.133 101.37 195.146 101.346 195.158 101.322Z" fill="#D5AFF6"/>
<path d="M6.55896 103.626C6.55896 103.626 6.58334 103.699 6.59553 103.724C6.59553 103.663 6.59553 103.59 6.59553 103.529C6.59553 103.565 6.58334 103.59 6.57115 103.626H6.55896Z" fill="#D5AFF6"/>
<path d="M195.487 102.443C195.377 102.833 195.28 103.211 195.17 103.602C200.668 123.729 200.498 143.491 194.365 160.596C191.671 168.106 187.941 174.762 183.271 180.504L184.893 179.236L181.845 183.113C181.845 183.113 181.857 183.101 181.869 183.089H181.882C187.477 176.822 191.878 169.349 194.951 160.803C201.229 143.296 201.302 123.034 195.511 102.48C195.511 102.468 195.511 102.456 195.511 102.443H195.487Z" fill="#D5AFF6"/>
<path d="M173.86 189.794C168.752 193.854 162.961 197.133 156.499 199.584C140.322 205.728 121.937 205.704 103.626 200.656C102.955 200.681 102.297 200.705 101.626 200.705C111.002 203.485 120.425 204.935 129.569 204.935C138.712 204.935 148.161 203.399 156.707 200.157C162.412 197.986 167.642 195.17 172.324 191.732L172.348 191.708L173.86 189.782H173.848L173.86 189.794Z" fill="#D5AFF6"/>
<path d="M2.3529 124.058C1.34102 123.729 0.609548 122.778 0.609548 121.669C0.609548 120.389 1.59704 119.328 2.84055 119.194C2.84055 119.097 2.85274 118.999 2.87712 118.889C2.87712 118.792 2.90151 118.682 2.9137 118.584C1.28007 118.67 -0.012207 120.023 -0.012207 121.669C-0.012207 123.095 0.963095 124.314 2.29194 124.668C2.29194 124.558 2.30413 124.461 2.31633 124.363C2.31633 124.253 2.32852 124.156 2.34071 124.058H2.3529Z" fill="#D5AFF6"/>
<path d="M3.46229 119.206C4.66922 119.389 5.59576 120.425 5.59576 121.669C5.59576 123.047 4.47416 124.168 3.09655 124.168C3.04778 124.168 2.99902 124.168 2.95025 124.156C2.93806 124.253 2.93806 124.351 2.92587 124.461C2.91368 124.558 2.91368 124.656 2.90149 124.765C2.96245 124.778 3.03559 124.778 3.09655 124.778C4.80333 124.778 6.20532 123.376 6.20532 121.669C6.20532 120.121 5.04715 118.828 3.54763 118.609C3.52324 118.706 3.51105 118.804 3.49886 118.914C3.48667 119.011 3.47448 119.109 3.46229 119.206Z" fill="#D5AFF6"/>
<path d="M192.366 39.4875C192.159 39.5485 191.952 39.5729 191.732 39.5729C190.354 39.5729 189.245 38.4513 189.245 37.0736C189.245 36.269 189.623 35.5619 190.22 35.0987C190.184 35.0011 190.135 34.9036 190.086 34.8183C190.025 34.7207 189.989 34.6354 189.928 34.55C189.148 35.123 188.635 36.0374 188.635 37.0736C188.635 38.7804 190.025 40.1824 191.732 40.1824C192.037 40.1824 192.342 40.1336 192.622 40.0483C192.585 39.9508 192.549 39.8533 192.5 39.7679C192.464 39.6704 192.415 39.5729 192.366 39.4875Z" fill="#D5AFF6"/>
<path d="M190.757 34.7819C191.062 34.66 191.391 34.5869 191.732 34.5869C193.11 34.5869 194.219 35.7085 194.219 37.0739C194.219 38.0126 193.707 38.8294 192.939 39.2561C193 39.3536 193.037 39.439 193.061 39.5365C193.122 39.634 193.159 39.7194 193.183 39.8169C194.158 39.2927 194.829 38.2564 194.829 37.0739C194.829 35.3671 193.439 33.9773 191.732 33.9773C191.281 33.9773 190.854 34.0748 190.464 34.2455C190.513 34.3308 190.562 34.4162 190.611 34.5137C190.659 34.599 190.708 34.6966 190.757 34.7819Z" fill="#D5AFF6"/>
<path d="M179.346 183.601L178.517 176.591L177.688 183.601L178.517 184.259L179.346 183.601Z" fill="#D5AFF6"/>
<path d="M177.688 187.611L178.517 194.621L179.346 187.611L178.517 186.965L177.688 187.611Z" fill="#D5AFF6"/>
<path d="M176.505 184.783L169.507 185.612L176.505 186.441L177.164 185.612L176.505 184.783Z" fill="#D5AFF6"/>
<path d="M180.516 186.441L187.526 185.612L180.516 184.783L179.87 185.612L180.516 186.441Z" fill="#D5AFF6"/>
<path d="M179.468 184.649H179.553C180.845 183.332 182.077 181.955 183.247 180.516L179.321 183.588L179.443 184.637L179.468 184.649Z" fill="#D5AFF6"/>
<path d="M176.505 186.441L173.872 189.782C175.14 188.782 176.371 187.722 177.542 186.612V186.576L176.481 186.454L176.505 186.441Z" fill="#D5AFF6"/>
<path d="M180.309 184.747L180.516 184.771L181.833 183.101C181.345 183.662 180.833 184.198 180.321 184.734L180.309 184.747Z" fill="#D5AFF6"/>
<path d="M179.346 187.612L184.893 191.976L180.516 186.441L179.468 186.563L179.346 187.612Z" fill="#D5AFF6"/>
<path d="M177.688 183.601L172.141 179.236L176.505 184.783L177.554 184.649L177.688 183.601Z" fill="#D5AFF6"/>
<path d="M177.651 187.368C175.969 188.916 174.213 190.343 172.36 191.708L172.141 191.988L177.688 187.624L177.663 187.368H177.651Z" fill="#D5AFF6"/>
<path d="M177.651 187.368C178.566 186.514 179.443 185.661 180.309 184.759L179.553 184.673C178.895 185.344 178.249 185.99 177.554 186.612L177.639 187.38L177.651 187.368Z" fill="#D5AFF6"/>
<path d="M4.85217 138.493C4.85217 137.237 3.84029 136.225 2.58459 136.225C1.32889 136.225 0.317017 137.237 0.317017 138.493C0.317017 139.749 1.32889 140.76 2.58459 140.76C3.84029 140.76 4.85217 139.749 4.85217 138.493Z" fill="#D5AFF6"/>
<path d="M198.974 60.1641C197.718 60.1641 196.706 61.1759 196.706 62.4316C196.706 63.6873 197.718 64.6992 198.974 64.6992C200.229 64.6992 201.241 63.6873 201.241 62.4316C201.241 61.1759 200.229 60.1641 198.974 60.1641Z" fill="#D5AFF6"/>
<path d="M195.133 103.699C192.22 113.671 187.953 123.644 182.357 133.421C163.46 166.435 132.982 190.452 101.87 200.169C102.455 200.339 103.04 200.485 103.626 200.656C154.024 199.144 194.499 156.438 195.133 103.699Z" fill="#D5AFF6"/>
<path d="M19.884 133.129C38.8658 166.301 69.5756 190.355 100.81 199.864C132.08 190.379 162.827 166.314 181.833 133.117C187.612 123.022 191.964 112.709 194.853 102.419C191.952 92.1906 187.599 81.8768 181.833 71.8068C162.839 38.6222 132.117 14.5566 100.858 5.05959C101.2 4.94987 101.529 4.85234 101.87 4.75481C101.541 4.64509 101.212 4.53537 100.871 4.42565C101.188 4.32812 101.505 4.25497 101.822 4.15744C101.505 4.15744 101.188 4.13306 100.871 4.13306C100.554 4.13306 100.237 4.15744 99.9197 4.15744C100.237 4.25497 100.554 4.32812 100.858 4.42565C100.517 4.53537 100.176 4.64509 99.8344 4.75481C100.176 4.85234 100.505 4.94987 100.846 5.05959C83.108 10.4481 65.5281 20.5425 50.1793 34.3308L50.1428 34.3674C50.1428 34.3674 50.1427 34.3674 50.1306 34.3674L47.6679 37.4884L54.6779 38.3174L47.6679 39.1464L52.0324 44.6934L46.4854 40.3289L45.6564 47.3389L44.8274 40.3289L40.792 43.5109C32.9043 51.935 25.8334 61.432 19.884 71.8068C14.1297 81.8524 9.76526 92.1784 6.86374 102.504C6.7784 102.151 6.66868 101.81 6.58334 101.456C6.58334 101.785 6.55896 102.102 6.55896 102.419C6.55896 102.785 6.58334 103.151 6.58334 103.516C6.66868 103.187 6.76621 102.846 6.86374 102.517C9.76526 112.745 14.1175 123.035 19.884 133.117V133.129Z" fill="#D5AFF6"/>
<path d="M99.8343 200.169C68.7222 190.464 38.2562 166.435 19.3597 133.421C13.7761 123.656 9.50917 113.659 6.59546 103.723C7.25379 156.426 47.6922 199.108 98.0666 200.644C98.6639 200.486 99.2613 200.339 99.8587 200.156L99.8343 200.169Z" fill="#D5AFF6"/>
<path d="M182.357 71.5138C187.965 81.2912 192.244 91.3125 195.146 101.248C194.548 48.5577 154.171 5.85165 103.857 4.21802C103.199 4.40089 102.541 4.57156 101.882 4.76662C132.994 14.4709 163.473 38.4999 182.357 71.5138Z" fill="#D5AFF6"/>
<path d="M100.834 200.485C100.59 200.558 100.346 200.632 100.103 200.705C100.359 200.705 100.615 200.729 100.871 200.729C101.127 200.729 101.383 200.717 101.639 200.705C101.383 200.632 101.127 200.558 100.858 200.485C100.858 200.498 100.846 200.498 100.834 200.485Z" fill="#D5AFF6"/>
<path d="M6.58337 101.273C9.49709 91.252 13.7762 81.2429 19.3598 71.5021C25.5896 60.6031 33.0994 50.6794 41.4626 41.9383L41.5357 41.8529L43.657 39.1587L36.647 38.3297L43.657 37.5006L39.2926 31.9536L44.8396 36.3181L45.6686 29.3081L46.4976 36.3181L51.3253 32.5144L51.3741 32.4656C66.1621 19.5551 82.9007 10.0215 99.8344 4.7427C99.1761 4.54764 98.5177 4.37696 97.8716 4.19409C47.546 5.8643 7.16856 48.5703 6.58337 101.273Z" fill="#D5AFF6"/>
<path d="M100.858 199.876H100.846C100.846 199.876 100.822 199.876 100.81 199.876C100.48 199.973 100.164 200.083 99.8344 200.181C100.164 200.302 100.493 200.4 100.822 200.497C101.175 200.388 101.517 200.29 101.87 200.181C101.529 200.083 101.2 199.985 100.858 199.888V199.876Z" fill="#D5AFF6"/>
<path d="M194.865 102.468C194.951 102.809 195.048 103.163 195.146 103.504C195.146 103.151 195.17 102.797 195.17 102.431C195.17 102.066 195.146 101.736 195.146 101.395C195.048 101.736 194.951 102.09 194.853 102.431C194.853 102.431 194.853 102.443 194.853 102.456L194.865 102.468Z" fill="#D5AFF6"/>
<path d="M51.3251 32.5264L51.2276 32.5995C49.6427 33.9771 48.0944 35.3913 46.5583 36.8543L46.6193 37.3785L46.8631 37.4029C47.936 36.3666 49.021 35.3669 50.1304 34.3794L52.0444 31.9534L51.3251 32.5142V32.5264Z" fill="#D5AFF6"/>
<path d="M44.7298 39.4755L44.7054 39.2926L44.1324 39.2195C43.2668 40.0729 42.4134 40.9385 41.5601 41.8284L41.5357 41.8528L39.2925 44.6934L40.8042 43.5108H40.8164C42.1087 42.121 43.4131 40.78 44.7298 39.4633V39.4755Z" fill="#D5AFF6"/>
<path d="M46.5584 36.8665L46.4974 36.3301L45.6684 36.9884L44.8394 36.3301L44.7175 37.3785L43.6691 37.5004L44.3274 38.3294L43.6691 39.1585L44.1445 39.2194C44.9492 38.4148 45.7538 37.6345 46.5706 36.8543L46.5584 36.8665Z" fill="#D5AFF6"/>
<path d="M46.8632 37.4153C46.1439 38.098 45.4368 38.7807 44.7297 39.4756L44.8395 40.3534L45.6685 39.6951L46.4975 40.3534L46.6194 39.3049L47.6678 39.183L47.0095 38.354L47.6678 37.525L46.8632 37.4275V37.4153Z" fill="#D5AFF6"/>
</g>
<path d="M55.355 62.4639H46.5116V61.9496L46.8973 61.9639C47.6974 61.9639 48.0974 61.6972 48.0974 61.1638L48.0402 60.7923L43.3685 44.977L36.7395 62.0924L30.0248 45.0056L25.4388 60.7923L25.3816 61.0781C25.3816 61.3448 25.4864 61.54 25.6959 61.6638C25.915 61.7877 26.1531 61.8686 26.4103 61.9067C26.6674 61.9353 26.8579 61.9496 26.9817 61.9496H27.1103V62.4639H22.2243V61.9496H22.5243C23.7625 61.9496 24.5435 61.5972 24.8673 60.8924L29.7248 44.2198L29.4962 43.6341C29.3343 43.2531 29.0723 42.9769 28.7104 42.8055C28.3485 42.634 27.9913 42.5293 27.6389 42.4912C27.296 42.4531 27.0913 42.434 27.0246 42.434H26.996V41.9483H33.825L38.9397 55.0348L43.1542 44.1913L42.4827 41.9483H49.4975V42.434H49.4118C49.307 42.434 49.1213 42.4531 48.8546 42.4912C48.5879 42.5197 48.3403 42.6007 48.1117 42.734C47.8831 42.8578 47.7688 43.0579 47.7688 43.3341C47.7688 43.3817 49.4642 49.2249 52.8548 60.8638C52.9882 61.1876 53.212 61.4305 53.5263 61.5924C54.0025 61.8305 54.5645 61.9496 55.2121 61.9496H55.355V62.4639ZM61.5337 45.8914L61.1337 45.3913C60.7908 44.9437 60.4908 44.5961 60.2336 44.3484C59.986 44.0913 59.6431 43.796 59.205 43.4626L58.7192 43.0912L59.205 42.7055C59.6431 42.3721 59.9907 42.0768 60.2479 41.8197C60.5051 41.5625 60.8051 41.2101 61.148 40.7625L61.5337 40.291L61.9052 40.7625C62.248 41.2101 62.5481 41.5625 62.8052 41.8197C63.0624 42.0768 63.41 42.3721 63.8481 42.7055L64.3339 43.0912L63.8481 43.4626C63.41 43.8055 63.0624 44.1055 62.8052 44.3627C62.5481 44.6199 62.248 44.9675 61.9052 45.4056L61.5337 45.8914ZM66.0483 62.421H57.0048V61.9067H57.1906C57.3715 61.9067 57.6192 61.8877 57.9335 61.8496C58.2478 61.8019 58.5287 61.6972 58.7764 61.5353C59.0335 61.3733 59.1812 61.1209 59.2193 60.7781V50.9631C59.1621 50.6488 59.005 50.4155 58.7478 50.2631C58.4906 50.1107 58.2097 50.0155 57.9049 49.9774C57.6096 49.9393 57.3763 49.9202 57.2048 49.9202H57.0334V49.4202H59.2193C59.9622 49.4202 60.6194 49.3392 61.1908 49.1773C61.7623 49.0154 62.2433 48.8344 62.6338 48.6344C63.0243 48.4249 63.3243 48.2391 63.5338 48.0772L63.8338 47.8344V60.7638C63.8529 61.1067 63.9862 61.3638 64.2339 61.5353C64.4815 61.6972 64.7625 61.8019 65.0768 61.8496C65.3911 61.8877 65.6435 61.9067 65.834 61.9067H66.0483V62.421ZM79.3629 62.421C78.3723 62.421 77.6627 62.3829 77.2341 62.3067C75.5102 62.0877 74.4387 61.4019 74.0197 60.2495C73.9435 60.0113 73.9054 59.7732 73.9054 59.5351C73.9054 58.9256 74.153 58.4684 74.6483 58.1636C75.0102 57.9826 75.3436 57.8922 75.6483 57.8922C75.9626 57.8922 76.2198 57.9541 76.4198 58.0779C76.6293 58.1922 76.7341 58.2922 76.7341 58.3779V58.4065C76.5913 58.8256 76.5103 59.2065 76.4912 59.5494C76.4912 60.4257 76.8865 61.04 77.677 61.3924C78.1628 61.621 78.6723 61.7353 79.2057 61.7353C79.6534 61.7353 80.101 61.6734 80.5487 61.5495C80.9963 61.4162 81.363 61.2257 81.6487 60.9781C82.0868 60.5685 82.3059 60.1066 82.3059 59.5923L82.2916 59.4351C82.2154 58.9303 81.8344 58.4684 81.1487 58.0493C80.4629 57.6207 79.6438 57.1921 78.6914 56.7635C76.9484 55.992 75.7293 55.2968 75.034 54.6777C74.2816 54.011 73.9054 53.149 73.9054 52.0918C73.9054 51.0155 74.3101 50.1155 75.1197 49.3916C75.9293 48.6677 77.0198 48.1915 78.3914 47.9629L78.4199 47.9487C79.02 47.8534 79.6057 47.8058 80.1772 47.8058C81.9487 47.8058 83.2155 48.1391 83.9774 48.8059C84.3489 49.1106 84.6156 49.4916 84.7775 49.9488C84.8537 50.1869 84.8918 50.425 84.8918 50.6631C84.8918 51.2727 84.6442 51.7299 84.1489 52.0346C83.787 52.2251 83.4536 52.3204 83.1488 52.3204C82.8345 52.3204 82.5726 52.2632 82.3631 52.1489C82.163 52.0251 82.063 51.9156 82.063 51.8203V51.7918C82.1107 51.6394 82.1535 51.4822 82.1916 51.3203C82.2392 51.1489 82.2678 51.006 82.2773 50.8917C82.2869 50.7774 82.2964 50.6679 82.3059 50.5631C82.3059 49.1725 81.544 48.4773 80.02 48.4773C79.42 48.4868 78.92 48.663 78.5199 49.0059C78.1675 49.3011 77.9913 49.6583 77.9913 50.0774C77.9913 50.6965 78.4057 51.2632 79.2343 51.7775C79.7962 52.1204 80.4677 52.4823 81.2487 52.8633C82.3726 53.3966 83.5155 54.0491 84.6775 54.8205C85.0013 55.0396 85.3061 55.2872 85.5918 55.5634C86.2395 56.2111 86.5633 56.9873 86.5633 57.8922C86.5633 59.1684 86.0014 60.2399 84.8775 61.1067C83.906 61.8591 82.4726 62.2829 80.5772 62.3782C80.1772 62.4067 79.7724 62.421 79.3629 62.421ZM99.0424 62.4353C97.8804 62.4353 97.028 62.1448 96.4851 61.5638C95.666 62.1448 94.7326 62.4353 93.6849 62.4353C93.0182 62.4353 92.3896 62.3401 91.7991 62.1496C91.2181 61.9496 90.7276 61.7067 90.3276 61.421C89.7466 61.0019 89.2942 60.559 88.9703 60.0923C88.656 59.6161 88.437 59.1541 88.3132 58.7065C88.1989 58.2588 88.1417 57.8731 88.1417 57.5493C88.1417 57.2064 88.1989 56.7826 88.3132 56.2778C88.4274 55.773 88.6465 55.2682 88.9703 54.7634C89.3037 54.2586 89.7847 53.8205 90.4133 53.449C91.4134 52.9061 92.4991 52.6347 93.6706 52.6347C93.9659 52.6347 94.2564 52.6537 94.5421 52.6918C95.2374 52.7966 95.7089 52.9395 95.9565 53.1204C95.8994 51.2251 95.5803 49.8678 94.9993 49.0487C94.6564 48.6868 94.2469 48.5058 93.7707 48.5058C93.3802 48.5154 93.042 48.6011 92.7563 48.763C92.1848 49.0963 91.8991 49.6916 91.8991 50.5488C91.8991 50.6726 91.9039 50.7965 91.9134 50.9203C91.9229 51.0346 91.9467 51.1774 91.9848 51.3489C92.0324 51.5108 92.0801 51.6679 92.1277 51.8203V51.8489C92.1277 51.9442 92.0277 52.0537 91.8277 52.1775C91.6277 52.2918 91.3705 52.3489 91.0562 52.3489C90.7514 52.3489 90.4181 52.2537 90.0561 52.0632C89.5609 51.7584 89.3132 51.306 89.3132 50.706C89.3132 50.4679 89.3513 50.2298 89.4275 49.9916C89.7132 49.1916 90.2752 48.6297 91.1133 48.3058C91.9801 47.9915 92.842 47.8344 93.6992 47.8344L94.0707 47.8486C95.3088 47.9058 96.4137 48.282 97.3852 48.9773C98.3662 49.6631 99.1424 50.5583 99.7139 51.6632C100.295 52.768 100.585 53.9443 100.585 55.192V60.1494C100.585 60.3971 100.638 60.6066 100.743 60.7781C100.857 60.9495 100.995 61.0876 101.157 61.1924C101.319 61.2971 101.476 61.3781 101.628 61.4352C101.79 61.4924 101.924 61.5305 102.028 61.5495L102.2 61.5781L101.785 61.7924C101.509 61.9353 101.133 62.0781 100.657 62.221C100.181 62.3639 99.6425 62.4353 99.0424 62.4353ZM94.885 61.5781C95.3422 61.5781 95.7851 61.4305 96.2137 61.1352C96.0518 60.8209 95.9708 60.4066 95.9708 59.8923V53.8348L95.8708 53.7776C95.766 53.6919 95.6374 53.6109 95.4851 53.5347C95.3327 53.4585 95.1422 53.4204 94.9136 53.4204C94.2945 53.4204 93.8183 53.7205 93.4849 54.3205C93.2278 54.7872 93.042 55.3206 92.9277 55.9206C92.823 56.5206 92.7706 57.0492 92.7706 57.5064C92.7706 58.0017 92.7992 58.5208 92.8563 59.0637C92.923 59.6066 93.0658 60.0971 93.2849 60.5352C93.5135 60.9638 93.8659 61.2781 94.3421 61.4781C94.5231 61.5448 94.704 61.5781 94.885 61.5781ZM108.764 69.7215C108.421 69.7215 108.078 69.6644 107.736 69.5501C107.288 69.4072 106.897 69.1453 106.564 68.7643C106.24 68.3928 106.078 67.9785 106.078 67.5214C106.078 67.2166 106.188 66.9118 106.407 66.607C106.635 66.3308 106.883 66.1356 107.15 66.0213C107.416 65.907 107.659 65.8498 107.878 65.8498C108.031 65.8498 108.155 65.8689 108.25 65.907C108.355 65.9546 108.412 66.0117 108.421 66.0784C108.45 66.4118 108.493 66.7213 108.55 67.007C108.693 67.6261 108.974 68.0642 109.393 68.3214C109.812 68.5881 110.24 68.7214 110.679 68.7214C111.25 68.7214 111.722 68.5357 112.093 68.1643C112.369 67.888 112.526 67.5309 112.564 67.0928C112.564 66.1498 111.96 65.5593 110.75 65.3212C110.14 65.2069 109.417 65.1117 108.578 65.0355C107.626 64.9593 106.593 64.8259 105.478 64.6355C105.078 64.5878 104.626 64.4545 104.121 64.2354C103.626 64.0259 103.245 63.6163 102.978 63.0068C102.845 62.6448 102.778 62.2972 102.778 61.9639C102.778 60.7733 103.602 59.7018 105.25 58.7494C104.545 58.1874 103.988 57.4921 103.578 56.6635C103.169 55.8254 102.964 54.9158 102.964 53.9348C102.964 52.7918 103.231 51.7632 103.764 50.8488C104.307 49.925 105.035 49.1916 105.95 48.6487C106.874 48.1058 107.902 47.8344 109.036 47.8344C109.569 47.8344 110.169 47.9248 110.836 48.1058C110.836 48.0296 110.845 47.9534 110.864 47.8772C110.941 47.3534 111.069 46.8343 111.25 46.32C111.574 45.4818 112.131 44.9199 112.922 44.6342C113.16 44.558 113.403 44.5199 113.65 44.5199C114.25 44.5199 114.703 44.7675 115.007 45.2628C115.198 45.6247 115.293 45.958 115.293 46.2628C115.293 46.5771 115.231 46.8343 115.107 47.0343C114.993 47.2343 114.888 47.3343 114.793 47.3343H114.765C114.612 47.2867 114.45 47.2438 114.279 47.2057C114.117 47.1581 113.974 47.1296 113.85 47.12C113.736 47.1105 113.622 47.1057 113.507 47.1057C112.926 47.1057 112.479 47.2248 112.164 47.4629C111.85 47.701 111.641 48.001 111.536 48.363C112.612 48.8487 113.474 49.5869 114.122 50.5774C114.769 51.5584 115.093 52.6775 115.093 53.9348C115.093 55.0777 114.822 56.1111 114.279 57.035C113.745 57.9493 113.022 58.6779 112.107 59.2208C111.193 59.7637 110.169 60.0352 109.036 60.0352C107.778 60.0352 106.659 59.7066 105.678 59.0494C105.478 59.1827 105.374 59.3208 105.364 59.4637C105.364 59.7208 105.631 59.9304 106.164 60.0923C106.707 60.2542 107.359 60.3876 108.121 60.4923C108.893 60.5876 109.645 60.6733 110.379 60.7495C111.112 60.8162 111.698 60.8828 112.136 60.9495C112.879 61.0733 113.526 61.3686 114.079 61.8353C114.641 62.302 115.012 62.8972 115.193 63.6211C115.26 63.9164 115.293 64.2116 115.293 64.5069C115.293 65.4022 114.984 66.2546 114.365 67.0642C113.745 67.8738 112.807 68.5595 111.55 69.1215C110.598 69.5215 109.669 69.7215 108.764 69.7215ZM109.036 59.4923C109.836 59.4923 110.402 58.7779 110.736 57.3493C110.955 56.3587 111.064 55.2206 111.064 53.9348C111.064 53.4585 111.021 52.7918 110.936 51.9346C110.86 51.0679 110.721 50.3393 110.521 49.7488C110.169 48.844 109.674 48.3915 109.036 48.3915C108.274 48.3915 107.721 49.1059 107.378 50.5345C107.121 51.5822 106.993 52.7156 106.993 53.9348C106.993 55.1539 107.121 56.2921 107.378 57.3493C107.721 58.7779 108.274 59.4923 109.036 59.4923ZM127.772 62.4353C126.61 62.4353 125.758 62.1448 125.215 61.5638C124.396 62.1448 123.462 62.4353 122.415 62.4353C121.748 62.4353 121.119 62.3401 120.529 62.1496C119.948 61.9496 119.457 61.7067 119.057 61.421C118.476 61.0019 118.024 60.559 117.7 60.0923C117.386 59.6161 117.167 59.1541 117.043 58.7065C116.929 58.2588 116.872 57.8731 116.872 57.5493C116.872 57.2064 116.929 56.7826 117.043 56.2778C117.157 55.773 117.376 55.2682 117.7 54.7634C118.034 54.2586 118.515 53.8205 119.143 53.449C120.143 52.9061 121.229 52.6347 122.401 52.6347C122.696 52.6347 122.986 52.6537 123.272 52.6918C123.967 52.7966 124.439 52.9395 124.686 53.1204C124.629 51.2251 124.31 49.8678 123.729 49.0487C123.386 48.6868 122.977 48.5058 122.501 48.5058C122.11 48.5154 121.772 48.6011 121.486 48.763C120.915 49.0963 120.629 49.6916 120.629 50.5488C120.629 50.6726 120.634 50.7965 120.643 50.9203C120.653 51.0346 120.677 51.1774 120.715 51.3489C120.762 51.5108 120.81 51.6679 120.858 51.8203V51.8489C120.858 51.9442 120.758 52.0537 120.558 52.1775C120.358 52.2918 120.1 52.3489 119.786 52.3489C119.481 52.3489 119.148 52.2537 118.786 52.0632C118.291 51.7584 118.043 51.306 118.043 50.706C118.043 50.4679 118.081 50.2298 118.157 49.9916C118.443 49.1916 119.005 48.6297 119.843 48.3058C120.71 47.9915 121.572 47.8344 122.429 47.8344L122.801 47.8486C124.039 47.9058 125.144 48.282 126.115 48.9773C127.096 49.6631 127.872 50.5583 128.444 51.6632C129.025 52.768 129.315 53.9443 129.315 55.192V60.1494C129.315 60.3971 129.368 60.6066 129.472 60.7781C129.587 60.9495 129.725 61.0876 129.887 61.1924C130.049 61.2971 130.206 61.3781 130.358 61.4352C130.52 61.4924 130.653 61.5305 130.758 61.5495L130.93 61.5781L130.515 61.7924C130.239 61.9353 129.863 62.0781 129.387 62.221C128.91 62.3639 128.372 62.4353 127.772 62.4353ZM123.615 61.5781C124.072 61.5781 124.515 61.4305 124.944 61.1352C124.782 60.8209 124.701 60.4066 124.701 59.8923V53.8348L124.601 53.7776C124.496 53.6919 124.367 53.6109 124.215 53.5347C124.063 53.4585 123.872 53.4204 123.643 53.4204C123.024 53.4204 122.548 53.7205 122.215 54.3205C121.958 54.7872 121.772 55.3206 121.658 55.9206C121.553 56.5206 121.5 57.0492 121.5 57.5064C121.5 58.0017 121.529 58.5208 121.586 59.0637C121.653 59.6066 121.796 60.0971 122.015 60.5352C122.243 60.9638 122.596 61.2781 123.072 61.4781C123.253 61.5448 123.434 61.5781 123.615 61.5781ZM147.902 62.4353H138.858V61.921H139.072C139.253 61.921 139.501 61.8972 139.815 61.8496C140.139 61.8019 140.43 61.6972 140.687 61.5353C140.944 61.3638 141.073 61.0971 141.073 60.7352V48.3487H138.772V47.8486H141.073V47.42C141.073 45.839 141.358 44.5103 141.93 43.4341C142.511 42.3578 143.287 41.5387 144.259 40.9768C145.24 40.4148 146.349 40.1148 147.587 40.0767H147.916C148.83 40.0767 149.711 40.2291 150.559 40.5339C151.407 40.8768 151.969 41.4387 152.245 42.2197C152.321 42.4578 152.359 42.6959 152.359 42.934C152.359 43.5341 152.111 43.9865 151.616 44.2913C151.254 44.4818 150.921 44.577 150.616 44.577C150.302 44.577 150.045 44.5199 149.845 44.4056C149.645 44.2817 149.545 44.1722 149.545 44.077V44.0484C149.592 43.896 149.635 43.7389 149.673 43.5769C149.721 43.4055 149.749 43.2626 149.759 43.1483C149.768 43.0245 149.773 42.9007 149.773 42.7769C149.773 41.9197 149.487 41.3244 148.916 40.9911C148.63 40.8291 148.287 40.7387 147.887 40.7196C147.335 40.7196 146.882 40.972 146.53 41.4768L146.502 41.534C146.244 41.9721 146.059 42.4959 145.944 43.1055C145.83 43.7055 145.759 44.3246 145.73 44.9627C145.701 45.5914 145.687 46.1581 145.687 46.6629V47.8486H147.987V48.3487H145.687V60.7495C145.687 61.1114 145.816 61.3781 146.073 61.5495C146.33 61.7115 146.616 61.8162 146.93 61.8638C147.254 61.9019 147.506 61.921 147.687 61.921H147.902V62.4353ZM160.338 62.4353C159.176 62.4353 158.323 62.1448 157.781 61.5638C156.961 62.1448 156.028 62.4353 154.98 62.4353C154.314 62.4353 153.685 62.3401 153.095 62.1496C152.514 61.9496 152.023 61.7067 151.623 61.421C151.042 61.0019 150.59 60.559 150.266 60.0923C149.951 59.6161 149.732 59.1541 149.609 58.7065C149.494 58.2588 149.437 57.8731 149.437 57.5493C149.437 57.2064 149.494 56.7826 149.609 56.2778C149.723 55.773 149.942 55.2682 150.266 54.7634C150.599 54.2586 151.08 53.8205 151.709 53.449C152.709 52.9061 153.795 52.6347 154.966 52.6347C155.261 52.6347 155.552 52.6537 155.838 52.6918C156.533 52.7966 157.004 52.9395 157.252 53.1204C157.195 51.2251 156.876 49.8678 156.295 49.0487C155.952 48.6868 155.542 48.5058 155.066 48.5058C154.676 48.5154 154.337 48.6011 154.052 48.763C153.48 49.0963 153.195 49.6916 153.195 50.5488C153.195 50.6726 153.199 50.7965 153.209 50.9203C153.218 51.0346 153.242 51.1774 153.28 51.3489C153.328 51.5108 153.375 51.6679 153.423 51.8203V51.8489C153.423 51.9442 153.323 52.0537 153.123 52.1775C152.923 52.2918 152.666 52.3489 152.352 52.3489C152.047 52.3489 151.713 52.2537 151.352 52.0632C150.856 51.7584 150.609 51.306 150.609 50.706C150.609 50.4679 150.647 50.2298 150.723 49.9916C151.009 49.1916 151.571 48.6297 152.409 48.3058C153.275 47.9915 154.137 47.8344 154.995 47.8344L155.366 47.8486C156.604 47.9058 157.709 48.282 158.681 48.9773C159.662 49.6631 160.438 50.5583 161.009 51.6632C161.59 52.768 161.881 53.9443 161.881 55.192V60.1494C161.881 60.3971 161.933 60.6066 162.038 60.7781C162.152 60.9495 162.29 61.0876 162.452 61.1924C162.614 61.2971 162.771 61.3781 162.924 61.4352C163.086 61.4924 163.219 61.5305 163.324 61.5495L163.495 61.5781L163.081 61.7924C162.805 61.9353 162.428 62.0781 161.952 62.221C161.476 62.3639 160.938 62.4353 160.338 62.4353ZM156.18 61.5781C156.638 61.5781 157.08 61.4305 157.509 61.1352C157.347 60.8209 157.266 60.4066 157.266 59.8923V53.8348L157.166 53.7776C157.061 53.6919 156.933 53.6109 156.78 53.5347C156.628 53.4585 156.438 53.4204 156.209 53.4204C155.59 53.4204 155.114 53.7205 154.78 54.3205C154.523 54.7872 154.337 55.3206 154.223 55.9206C154.118 56.5206 154.066 57.0492 154.066 57.5064C154.066 58.0017 154.095 58.5208 154.152 59.0637C154.218 59.6066 154.361 60.0971 154.58 60.5352C154.809 60.9638 155.161 61.2781 155.638 61.4781C155.819 61.5448 155.999 61.5781 156.18 61.5781ZM170.831 62.4067H169.231L164.174 49.3773C163.993 49.044 163.731 48.8059 163.388 48.663C163.045 48.5106 162.712 48.4154 162.388 48.3773C162.064 48.3392 161.85 48.3201 161.745 48.3201H161.702V47.8058H170.717V48.3201L170.431 48.3058C170.279 48.3058 170.093 48.3249 169.874 48.363C169.664 48.3915 169.479 48.463 169.317 48.5773C169.164 48.682 169.088 48.8487 169.088 49.0773C169.088 49.163 169.102 49.2583 169.131 49.363L172.245 57.3207L175.274 49.5059C175.322 49.3726 175.346 49.2535 175.346 49.1487C175.346 48.882 175.231 48.6916 175.003 48.5773C174.784 48.463 174.546 48.3915 174.288 48.363C174.041 48.3344 173.879 48.3201 173.803 48.3201H173.76V47.8058H175.96V47.8201H176.46L176.474 47.8058H178.66V48.3201H178.446C177.122 48.3201 176.265 48.6773 175.874 49.3916L170.831 62.4067ZM33.4107 96.4067C31.9821 96.4067 30.7201 96.0829 29.6248 95.4352C28.539 94.7876 27.6913 93.9161 27.0817 92.8208C26.4722 91.716 26.1674 90.4825 26.1674 89.1205C26.1674 87.749 26.4817 86.5156 27.1103 85.4203C27.7389 84.3155 28.5914 83.4392 29.6676 82.7916C30.7439 82.1439 31.944 81.8201 33.2679 81.8201C34.8775 81.8201 36.2871 82.263 37.4967 83.1487C38.7158 84.0345 39.5635 85.2155 40.0397 86.6918L40.0826 86.8347C40.1207 86.949 40.1493 87.0633 40.1683 87.1776L30.782 89.8206C30.9248 91.0683 31.3058 92.0636 31.9249 92.8065C32.9536 94.0542 34.2013 94.6781 35.668 94.6781C36.5919 94.6781 37.4396 94.4542 38.211 94.0066C38.9825 93.5589 39.5921 93.0256 40.0397 92.4065V92.7494C39.9064 93.1018 39.6778 93.4875 39.354 93.9066C39.0397 94.3161 38.6111 94.7114 38.0682 95.0924C37.5348 95.4733 36.8824 95.7877 36.1109 96.0353C35.3394 96.2829 34.4394 96.4067 33.4107 96.4067ZM30.7391 89.3063L35.7252 87.9062C35.668 86.8585 35.5394 85.9203 35.3394 85.0917C35.1394 84.2536 34.868 83.5869 34.5251 83.0916C34.1822 82.5868 33.7631 82.3344 33.2679 82.3344C32.8774 82.3344 32.5202 82.5249 32.1964 82.9059C31.8821 83.2868 31.6106 83.7821 31.382 84.3917C31.163 84.9917 30.9915 85.6489 30.8677 86.3632C30.7534 87.068 30.6963 87.7586 30.6963 88.4348C30.6963 88.73 30.7105 89.0205 30.7391 89.3063ZM47.2042 96.421C46.2137 96.421 45.5041 96.3829 45.0755 96.3067C43.3516 96.0877 42.2801 95.4019 41.861 94.2495C41.7848 94.0113 41.7467 93.7732 41.7467 93.5351C41.7467 92.9256 41.9943 92.4684 42.4896 92.1636C42.8515 91.9826 43.1849 91.8922 43.4897 91.8922C43.804 91.8922 44.0611 91.9541 44.2611 92.0779C44.4707 92.1922 44.5755 92.2922 44.5755 92.3779V92.4065C44.4326 92.8256 44.3516 93.2065 44.3326 93.5494C44.3326 94.4257 44.7278 95.04 45.5184 95.3924C46.0041 95.621 46.5137 95.7353 47.047 95.7353C47.4947 95.7353 47.9423 95.6734 48.39 95.5495C48.8376 95.4162 49.2043 95.2257 49.4901 94.9781C49.9282 94.5685 50.1472 94.1066 50.1472 93.5923L50.133 93.4351C50.0568 92.9303 49.6758 92.4684 48.99 92.0493C48.3043 91.6207 47.4852 91.1921 46.5327 90.7635C44.7898 89.992 43.5706 89.2968 42.8753 88.6777C42.1229 88.011 41.7467 87.149 41.7467 86.0918C41.7467 85.0155 42.1515 84.1155 42.9611 83.3916C43.7706 82.6677 44.8612 82.1915 46.2327 81.9629L46.2613 81.9487C46.8613 81.8534 47.4471 81.8058 48.0185 81.8058C49.7901 81.8058 51.0568 82.1391 51.8188 82.8059C52.1902 83.1106 52.4569 83.4916 52.6188 83.9488C52.695 84.1869 52.7331 84.425 52.7331 84.6631C52.7331 85.2727 52.4855 85.7299 51.9902 86.0346C51.6283 86.2251 51.2949 86.3204 50.9902 86.3204C50.6758 86.3204 50.4139 86.2632 50.2044 86.1489C50.0044 86.0251 49.9044 85.9156 49.9044 85.8203V85.7918C49.952 85.6394 49.9949 85.4822 50.033 85.3203C50.0806 85.1489 50.1091 85.006 50.1187 84.8917C50.1282 84.7774 50.1377 84.6679 50.1472 84.5631C50.1472 83.1725 49.3853 82.4773 47.8614 82.4773C47.2613 82.4868 46.7613 82.663 46.3613 83.0059C46.0089 83.3011 45.8327 83.6583 45.8327 84.0774C45.8327 84.6965 46.247 85.2632 47.0756 85.7775C47.6376 86.1204 48.309 86.4823 49.09 86.8633C50.2139 87.3966 51.3568 88.0491 52.5188 88.8205C52.8427 89.0396 53.1474 89.2872 53.4332 89.5634C54.0808 90.2111 54.4047 90.9873 54.4047 91.8922C54.4047 93.1684 53.8427 94.2399 52.7188 95.1067C51.7473 95.8591 50.3139 96.2829 48.4186 96.3782C48.0185 96.4067 47.6137 96.421 47.2042 96.421ZM78.1485 96.521H62.2475V96.0067H62.4475C62.6284 96.0067 62.8761 95.9877 63.1904 95.9496C63.5142 95.9019 63.8047 95.7972 64.0619 95.6353C64.319 95.4638 64.4476 95.2019 64.4476 94.8495V77.6912C64.4476 77.3388 64.319 77.0817 64.0619 76.9198C63.8047 76.7483 63.5142 76.6435 63.1904 76.6054C62.8761 76.5578 62.6284 76.534 62.4475 76.534H62.2475V76.0054H78.1485L78.8914 81.0486L78.5057 80.5914C77.7532 79.7057 76.9056 78.8818 75.9626 78.1198C74.6387 77.0626 73.4768 76.534 72.4767 76.534H69.0479V86.0061H72.6624C73.1482 86.0061 73.4863 85.7251 73.6768 85.1631C73.8006 84.8012 73.8625 84.406 73.8625 83.9774L73.8482 83.8488H74.334V88.692H73.8482L73.8625 88.5634C73.8625 88.1348 73.8006 87.7395 73.6768 87.3776C73.4863 86.8156 73.1482 86.5347 72.6624 86.5347H69.0479V96.0067H72.4767C73.4768 96.0067 74.6387 95.4781 75.9626 94.4209C76.9056 93.6589 77.7532 92.8351 78.5057 91.9493L78.8914 91.4921L78.1485 96.521ZM89.5704 96.4067H80.5412V95.8924H80.727C81.8985 95.8924 82.5652 95.5686 82.7271 94.9209V77.1769C82.6699 76.8626 82.5128 76.6293 82.2556 76.4769C81.8651 76.2483 81.3508 76.134 80.7127 76.134H80.5412V75.6197H82.7271C83.47 75.6197 84.1272 75.5387 84.6986 75.3768C85.2701 75.2149 85.7511 75.0339 86.1416 74.8339C86.5416 74.6339 86.8464 74.4529 87.0559 74.291L87.356 74.0481C87.356 87.7824 87.3607 94.6733 87.3702 94.7209C87.3702 95.0828 87.4988 95.3448 87.756 95.5067C88.156 95.7638 88.6894 95.8924 89.3561 95.8924H89.5704V96.4067ZM102.871 96.421C101.88 96.421 101.171 96.3829 100.742 96.3067C99.018 96.0877 97.9465 95.4019 97.5275 94.2495C97.4513 94.0113 97.4132 93.7732 97.4132 93.5351C97.4132 92.9256 97.6608 92.4684 98.1561 92.1636C98.518 91.9826 98.8514 91.8922 99.1561 91.8922C99.4705 91.8922 99.7276 91.9541 99.9276 92.0779C100.137 92.1922 100.242 92.2922 100.242 92.3779V92.4065C100.099 92.8256 100.018 93.2065 99.9991 93.5494C99.9991 94.4257 100.394 95.04 101.185 95.3924C101.671 95.621 102.18 95.7353 102.714 95.7353C103.161 95.7353 103.609 95.6734 104.056 95.5495C104.504 95.4162 104.871 95.2257 105.157 94.9781C105.595 94.5685 105.814 94.1066 105.814 93.5923L105.799 93.4351C105.723 92.9303 105.342 92.4684 104.657 92.0493C103.971 91.6207 103.152 91.1921 102.199 90.7635C100.456 89.992 99.2371 89.2968 98.5418 88.6777C97.7894 88.011 97.4132 87.149 97.4132 86.0918C97.4132 85.0155 97.818 84.1155 98.6275 83.3916C99.4371 82.6677 100.528 82.1915 101.899 81.9629L101.928 81.9487C102.528 81.8534 103.114 81.8058 103.685 81.8058C105.457 81.8058 106.723 82.1391 107.485 82.8059C107.857 83.1106 108.123 83.4916 108.285 83.9488C108.362 84.1869 108.4 84.425 108.4 84.6631C108.4 85.2727 108.152 85.7299 107.657 86.0346C107.295 86.2251 106.961 86.3204 106.657 86.3204C106.342 86.3204 106.08 86.2632 105.871 86.1489C105.671 86.0251 105.571 85.9156 105.571 85.8203V85.7918C105.618 85.6394 105.661 85.4822 105.699 85.3203C105.747 85.1489 105.776 85.006 105.785 84.8917C105.795 84.7774 105.804 84.6679 105.814 84.5631C105.814 83.1725 105.052 82.4773 103.528 82.4773C102.928 82.4868 102.428 82.663 102.028 83.0059C101.675 83.3011 101.499 83.6583 101.499 84.0774C101.499 84.6965 101.913 85.2632 102.742 85.7775C103.304 86.1204 103.976 86.4823 104.757 86.8633C105.88 87.3966 107.023 88.0491 108.185 88.8205C108.509 89.0396 108.814 89.2872 109.1 89.5634C109.747 90.2111 110.071 90.9873 110.071 91.8922C110.071 93.1684 109.509 94.2399 108.385 95.1067C107.414 95.8591 105.98 96.2829 104.085 96.3782C103.685 96.4067 103.28 96.421 102.871 96.421ZM118.921 96.4067C117.493 96.4067 116.231 96.0829 115.135 95.4352C114.05 94.7876 113.202 93.9161 112.592 92.8208C111.983 91.716 111.678 90.4825 111.678 89.1205C111.678 87.749 111.992 86.5156 112.621 85.4203C113.25 84.3155 114.102 83.4392 115.178 82.7916C116.255 82.1439 117.455 81.8201 118.779 81.8201C120.388 81.8201 121.798 82.263 123.007 83.1487C124.227 84.0345 125.074 85.2155 125.55 86.6918L125.593 86.8347C125.631 86.949 125.66 87.0633 125.679 87.1776L116.293 89.8206C116.436 91.0683 116.817 92.0636 117.436 92.8065C118.464 94.0542 119.712 94.6781 121.179 94.6781C122.103 94.6781 122.95 94.4542 123.722 94.0066C124.493 93.5589 125.103 93.0256 125.55 92.4065V92.7494C125.417 93.1018 125.189 93.4875 124.865 93.9066C124.55 94.3161 124.122 94.7114 123.579 95.0924C123.046 95.4733 122.393 95.7877 121.622 96.0353C120.85 96.2829 119.95 96.4067 118.921 96.4067ZM116.25 89.3063L121.236 87.9062C121.179 86.8585 121.05 85.9203 120.85 85.0917C120.65 84.2536 120.379 83.5869 120.036 83.0916C119.693 82.5868 119.274 82.3344 118.779 82.3344C118.388 82.3344 118.031 82.5249 117.707 82.9059C117.393 83.2868 117.121 83.7821 116.893 84.3917C116.674 84.9917 116.502 85.6489 116.378 86.3632C116.264 87.068 116.207 87.7586 116.207 88.4348C116.207 88.73 116.221 89.0205 116.25 89.3063ZM145.03 96.4067H136.001V95.8924H136.187C136.368 95.8924 136.615 95.8734 136.929 95.8353C137.253 95.7877 137.539 95.6829 137.787 95.521C138.044 95.3495 138.182 95.0876 138.201 94.7352V89.0634C138.201 87.2252 138.053 85.8251 137.758 84.8631C137.463 83.8916 136.915 83.4059 136.115 83.4059C135.658 83.4059 135.239 83.5964 134.858 83.9774C134.486 84.3488 134.172 84.8298 133.915 85.4203C133.667 86.0013 133.491 86.6299 133.386 87.3061V94.7495C133.405 95.0924 133.539 95.3495 133.786 95.521C134.034 95.6829 134.315 95.7877 134.629 95.8353C134.944 95.8734 135.191 95.8924 135.372 95.8924H135.587V96.4067H126.543V95.8924H126.729C126.91 95.8924 127.157 95.8734 127.472 95.8353C127.786 95.7877 128.067 95.6829 128.315 95.521C128.572 95.3591 128.719 95.1067 128.758 94.7638V84.9488C128.7 84.6345 128.543 84.4012 128.286 84.2488C128.029 84.0964 127.748 84.0012 127.443 83.9631C127.148 83.925 126.915 83.9059 126.743 83.9059H126.572V83.4059H128.758C129.5 83.4059 130.158 83.3249 130.729 83.163C131.301 83.0011 131.782 82.8201 132.172 82.6201C132.572 82.4106 132.877 82.2249 133.086 82.0629L133.386 81.8201V85.3346C133.644 84.6298 134.048 83.944 134.601 83.2773C135.401 82.3153 136.353 81.8344 137.458 81.8344C138.63 81.8344 139.568 82.0487 140.273 82.4773C140.987 82.9059 141.53 83.4726 141.901 84.1774C142.282 84.8727 142.535 85.6537 142.658 86.5204C142.782 87.3776 142.844 88.2348 142.844 89.092V94.9066C142.911 95.2019 143.068 95.421 143.316 95.5638C143.563 95.7067 143.83 95.7972 144.116 95.8353C144.411 95.8734 144.644 95.8924 144.816 95.8924H145.03V96.4067ZM139.887 77.0769C139.696 77.7722 139.368 78.4008 138.901 78.9627C138.444 79.5152 137.825 79.7914 137.044 79.7914C136.568 79.7914 136.02 79.6437 135.401 79.3485C134.791 79.0532 134.21 78.9056 133.658 78.9056C133.096 78.9056 132.439 79.2009 131.686 79.7914C131.867 79.0675 132.191 78.4341 132.658 77.8912C133.124 77.3484 133.691 77.0769 134.358 77.0769C134.891 77.0769 135.467 77.2102 136.087 77.4769C136.715 77.7436 137.306 77.877 137.858 77.877C138.43 77.877 139.106 77.6103 139.887 77.0769ZM152.423 96.4067C151.099 96.4067 149.899 96.0829 148.823 95.4352C147.747 94.7876 146.894 93.9161 146.266 92.8208C145.637 91.716 145.323 90.4825 145.323 89.1205C145.323 87.7586 145.637 86.5251 146.266 85.4203C146.894 84.3155 147.747 83.4392 148.823 82.7916C149.899 82.1439 151.099 81.8201 152.423 81.8201C153.756 81.8201 154.957 82.1439 156.023 82.7916C157.1 83.4392 157.952 84.3155 158.581 85.4203C159.219 86.5251 159.538 87.7586 159.538 89.1205C159.538 90.4825 159.219 91.716 158.581 92.8208C157.952 93.9161 157.1 94.7876 156.023 95.4352C154.957 96.0829 153.756 96.4067 152.423 96.4067ZM152.423 95.8924C152.823 95.8924 153.175 95.6829 153.48 95.2638C153.795 94.8352 154.056 94.2828 154.266 93.6066C154.485 92.9208 154.647 92.1827 154.752 91.3921C154.866 90.6016 154.923 89.8444 154.923 89.1205C154.923 87.9014 154.828 86.7775 154.637 85.7489C154.457 84.7203 154.18 83.8964 153.809 83.2773C153.437 82.6487 152.975 82.3344 152.423 82.3344C151.842 82.3344 151.366 82.6487 150.994 83.2773C150.632 83.8964 150.366 84.725 150.194 85.7632C150.023 86.7918 149.937 87.9109 149.937 89.1205C149.937 89.8825 149.985 90.6635 150.08 91.4636C150.185 92.2636 150.342 92.997 150.551 93.6637C150.761 94.3304 151.018 94.8685 151.323 95.2781C151.637 95.6876 152.004 95.8924 152.423 95.8924ZM169.56 96.4353H160.53V95.9067H160.73C161.997 95.9067 162.669 95.5305 162.745 94.7781V84.9488C162.688 84.6441 162.54 84.4202 162.302 84.2774C161.921 84.0488 161.416 83.9345 160.788 83.9345H160.559V83.4202H162.745C163.478 83.4202 164.131 83.3392 164.702 83.1773C165.283 83.0154 165.769 82.8344 166.159 82.6344C166.55 82.4249 166.845 82.2391 167.045 82.0772L167.359 81.8344V83.9774C167.864 83.5488 168.388 83.163 168.931 82.8201C169.864 82.2391 170.893 81.9153 172.017 81.8486C172.512 81.8486 172.998 81.9582 173.474 82.1772C173.865 82.3868 174.169 82.682 174.388 83.063C174.608 83.444 174.717 83.8488 174.717 84.2774C174.717 84.4964 174.688 84.7107 174.631 84.9203C174.498 85.2822 174.255 85.6537 173.903 86.0346C173.56 86.4156 173.231 86.6204 172.917 86.649C172.812 86.649 172.688 86.5728 172.545 86.4204C172.403 86.2585 172.255 86.0823 172.103 85.8918C171.16 84.7012 170.16 84.1059 169.102 84.1059C168.512 84.1059 167.993 84.2869 167.545 84.6488L167.359 84.806V94.7781C167.378 95.1209 167.512 95.3733 167.759 95.5353C168.017 95.6972 168.302 95.8019 168.617 95.8496C168.931 95.8877 169.179 95.9067 169.36 95.9067H169.56V96.4353ZM77.9736 130.435H71.1589V129.707C70.797 130.164 70.1731 130.397 69.2873 130.407C68.0206 130.407 66.8586 130.083 65.8014 129.435C64.7537 128.778 63.9156 127.902 63.287 126.807C62.6679 125.711 62.3583 124.492 62.3583 123.149C62.3583 121.787 62.6726 120.554 63.3012 119.449C63.9299 118.335 64.7823 117.454 65.8586 116.806C66.9348 116.149 68.1349 115.82 69.4588 115.82C70.0588 115.82 70.6255 115.896 71.1589 116.049V111.205C71.1113 110.891 70.9589 110.658 70.7017 110.505C70.4446 110.353 70.1636 110.258 69.8588 110.22C69.5636 110.182 69.3302 110.163 69.1588 110.163H68.9873V109.648H71.1589C71.9018 109.648 72.559 109.567 73.1305 109.405C73.7114 109.243 74.1972 109.062 74.5877 108.862C74.9782 108.662 75.2782 108.482 75.4878 108.32L75.7878 108.077V128.892C75.8449 129.207 76.0021 129.44 76.2592 129.592C76.5164 129.745 76.7926 129.84 77.0879 129.878C77.3926 129.916 77.6307 129.935 77.8022 129.935H77.9736V130.435ZM69.6302 129.935C69.9636 129.935 70.2684 129.835 70.5446 129.635C70.8303 129.435 71.0351 129.216 71.1589 128.978V117.949C71.0351 117.615 70.8779 117.325 70.6874 117.077C70.3541 116.601 69.9445 116.363 69.4588 116.363C68.8778 116.363 68.4016 116.677 68.0301 117.306C67.6682 117.925 67.4015 118.749 67.2301 119.777C67.0586 120.806 66.9729 121.93 66.9729 123.149C66.9729 124.168 67.0634 125.187 67.2444 126.206C67.4253 127.216 67.7015 128.064 68.073 128.749C68.473 129.492 68.9921 129.888 69.6302 129.935ZM85.8096 130.407C84.3809 130.407 83.1189 130.083 82.0236 129.435C80.9378 128.788 80.0901 127.916 79.4806 126.821C78.871 125.716 78.5662 124.483 78.5662 123.121C78.5662 121.749 78.8805 120.516 79.5092 119.42C80.1378 118.315 80.9902 117.439 82.0665 116.792C83.1427 116.144 84.3428 115.82 85.6667 115.82C87.2763 115.82 88.6859 116.263 89.8955 117.149C91.1147 118.035 91.9623 119.216 92.4386 120.692L92.4814 120.835C92.5195 120.949 92.5481 121.063 92.5672 121.178L83.1808 123.821C83.3237 125.068 83.7047 126.064 84.3238 126.807C85.3524 128.054 86.6001 128.678 88.0669 128.678C88.9907 128.678 89.8384 128.454 90.6099 128.007C91.3814 127.559 91.9909 127.026 92.4386 126.406V126.749C92.3052 127.102 92.0766 127.488 91.7528 127.907C91.4385 128.316 91.0099 128.711 90.467 129.092C89.9336 129.473 89.2812 129.788 88.5097 130.035C87.7383 130.283 86.8382 130.407 85.8096 130.407ZM83.138 123.306L88.124 121.906C88.0669 120.858 87.9383 119.92 87.7383 119.092C87.5383 118.254 87.2668 117.587 86.9239 117.092C86.581 116.587 86.162 116.334 85.6667 116.334C85.2762 116.334 84.919 116.525 84.5952 116.906C84.2809 117.287 84.0095 117.782 83.7809 118.392C83.5618 118.992 83.3904 119.649 83.2665 120.363C83.1523 121.068 83.0951 121.759 83.0951 122.435C83.0951 122.73 83.1094 123.021 83.138 123.306ZM109.439 130.407H100.41V129.892H100.596C101.767 129.892 102.434 129.569 102.596 128.921V111.177C102.539 110.863 102.381 110.629 102.124 110.477C101.734 110.248 101.22 110.134 100.581 110.134H100.41V109.62H102.596C103.339 109.62 103.996 109.539 104.567 109.377C105.139 109.215 105.62 109.034 106.01 108.834C106.41 108.634 106.715 108.453 106.925 108.291L107.225 108.048C107.225 121.782 107.229 128.673 107.239 128.721C107.239 129.083 107.368 129.345 107.625 129.507C108.025 129.764 108.558 129.892 109.225 129.892H109.439V130.407ZM117.118 130.407C115.794 130.407 114.594 130.083 113.518 129.435C112.441 128.788 111.589 127.916 110.96 126.821C110.332 125.716 110.017 124.483 110.017 123.121C110.017 121.759 110.332 120.525 110.96 119.42C111.589 118.315 112.441 117.439 113.518 116.792C114.594 116.144 115.794 115.82 117.118 115.82C118.451 115.82 119.651 116.144 120.718 116.792C121.794 117.439 122.647 118.315 123.275 119.42C123.914 120.525 124.233 121.759 124.233 123.121C124.233 124.483 123.914 125.716 123.275 126.821C122.647 127.916 121.794 128.788 120.718 129.435C119.651 130.083 118.451 130.407 117.118 130.407ZM117.118 129.892C117.518 129.892 117.87 129.683 118.175 129.264C118.489 128.835 118.751 128.283 118.961 127.607C119.18 126.921 119.342 126.183 119.447 125.392C119.561 124.602 119.618 123.844 119.618 123.121C119.618 121.901 119.523 120.778 119.332 119.749C119.151 118.72 118.875 117.896 118.504 117.277C118.132 116.649 117.67 116.334 117.118 116.334C116.537 116.334 116.061 116.649 115.689 117.277C115.327 117.896 115.061 118.725 114.889 119.763C114.718 120.792 114.632 121.911 114.632 123.121C114.632 123.883 114.68 124.664 114.775 125.464C114.88 126.264 115.037 126.997 115.246 127.664C115.456 128.33 115.713 128.869 116.018 129.278C116.332 129.688 116.699 129.892 117.118 129.892ZM131.34 130.421C130.349 130.421 129.64 130.383 129.211 130.307C127.487 130.088 126.416 129.402 125.997 128.249C125.921 128.011 125.882 127.773 125.882 127.535C125.882 126.926 126.13 126.468 126.625 126.164C126.987 125.983 127.321 125.892 127.625 125.892C127.94 125.892 128.197 125.954 128.397 126.078C128.606 126.192 128.711 126.292 128.711 126.378V126.406C128.568 126.826 128.487 127.207 128.468 127.549C128.468 128.426 128.864 129.04 129.654 129.392C130.14 129.621 130.649 129.735 131.183 129.735C131.63 129.735 132.078 129.673 132.526 129.55C132.973 129.416 133.34 129.226 133.626 128.978C134.064 128.569 134.283 128.107 134.283 127.592L134.269 127.435C134.193 126.93 133.812 126.468 133.126 126.049C132.44 125.621 131.621 125.192 130.668 124.764C128.926 123.992 127.706 123.297 127.011 122.678C126.259 122.011 125.882 121.149 125.882 120.092C125.882 119.016 126.287 118.115 127.097 117.392C127.906 116.668 128.997 116.192 130.368 115.963L130.397 115.949C130.997 115.853 131.583 115.806 132.154 115.806C133.926 115.806 135.193 116.139 135.955 116.806C136.326 117.111 136.593 117.492 136.755 117.949C136.831 118.187 136.869 118.425 136.869 118.663C136.869 119.273 136.621 119.73 136.126 120.035C135.764 120.225 135.431 120.32 135.126 120.32C134.812 120.32 134.55 120.263 134.34 120.149C134.14 120.025 134.04 119.916 134.04 119.82V119.792C134.088 119.639 134.131 119.482 134.169 119.32C134.216 119.149 134.245 119.006 134.254 118.892C134.264 118.777 134.273 118.668 134.283 118.563C134.283 117.173 133.521 116.477 131.997 116.477C131.397 116.487 130.897 116.663 130.497 117.006C130.145 117.301 129.968 117.658 129.968 118.077C129.968 118.696 130.383 119.263 131.211 119.777C131.773 120.12 132.445 120.482 133.226 120.863C134.35 121.397 135.493 122.049 136.655 122.821C136.978 123.04 137.283 123.287 137.569 123.563C138.217 124.211 138.54 124.987 138.54 125.892C138.54 127.168 137.978 128.24 136.855 129.107C135.883 129.859 134.45 130.283 132.554 130.378C132.154 130.407 131.75 130.421 131.34 130.421ZM65.3728 164.435C64.2108 164.435 63.3584 164.145 62.8155 163.564C61.9964 164.145 61.063 164.435 60.0153 164.435C59.3486 164.435 58.72 164.34 58.1295 164.15C57.5485 163.95 57.058 163.707 56.658 163.421C56.077 163.002 55.6246 162.559 55.3007 162.092C54.9864 161.616 54.7674 161.154 54.6435 160.706C54.5292 160.259 54.4721 159.873 54.4721 159.549C54.4721 159.206 54.5292 158.783 54.6435 158.278C54.7578 157.773 54.9769 157.268 55.3007 156.763C55.6341 156.259 56.1151 155.82 56.7437 155.449C57.7437 154.906 58.8295 154.635 60.001 154.635C60.2963 154.635 60.5868 154.654 60.8725 154.692C61.5678 154.797 62.0393 154.939 62.2869 155.12C62.2297 153.225 61.9107 151.868 61.3297 151.049C60.9868 150.687 60.5773 150.506 60.101 150.506C59.7105 150.515 59.3724 150.601 59.0867 150.763C58.5152 151.096 58.2295 151.692 58.2295 152.549C58.2295 152.673 58.2342 152.796 58.2438 152.92C58.2533 153.035 58.2771 153.177 58.3152 153.349C58.3628 153.511 58.4104 153.668 58.4581 153.82V153.849C58.4581 153.944 58.3581 154.054 58.158 154.178C57.958 154.292 57.7009 154.349 57.3866 154.349C57.0818 154.349 56.7484 154.254 56.3865 154.063C55.8912 153.758 55.6436 153.306 55.6436 152.706C55.6436 152.468 55.6817 152.23 55.7579 151.992C56.0436 151.192 56.6056 150.63 57.4437 150.306C58.3104 149.992 59.1724 149.834 60.0296 149.834L60.4011 149.849C61.6392 149.906 62.7441 150.282 63.7156 150.977C64.6966 151.663 65.4728 152.558 66.0443 153.663C66.6253 154.768 66.9158 155.944 66.9158 157.192V162.149C66.9158 162.397 66.9681 162.607 67.0729 162.778C67.1872 162.95 67.3253 163.088 67.4872 163.192C67.6491 163.297 67.8063 163.378 67.9587 163.435C68.1206 163.492 68.2539 163.53 68.3587 163.55L68.5302 163.578L68.1158 163.792C67.8396 163.935 67.4634 164.078 66.9872 164.221C66.511 164.364 65.9728 164.435 65.3728 164.435ZM61.2154 163.578C61.6726 163.578 62.1155 163.43 62.544 163.135C62.3821 162.821 62.3012 162.407 62.3012 161.892V155.835L62.2012 155.778C62.0964 155.692 61.9678 155.611 61.8154 155.535C61.663 155.459 61.4726 155.42 61.244 155.42C60.6249 155.42 60.1487 155.72 59.8153 156.32C59.5581 156.787 59.3724 157.321 59.2581 157.921C59.1534 158.521 59.101 159.049 59.101 159.506C59.101 160.002 59.1295 160.521 59.1867 161.064C59.2534 161.607 59.3962 162.097 59.6153 162.535C59.8439 162.964 60.1963 163.278 60.6725 163.478C60.8535 163.545 61.0344 163.578 61.2154 163.578ZM87.5954 164.407H78.5662V163.892H78.752C78.9329 163.892 79.1806 163.873 79.4949 163.835C79.8187 163.788 80.1044 163.683 80.3521 163.521C80.6092 163.35 80.7473 163.088 80.7664 162.735V157.063C80.7664 155.225 80.6187 153.825 80.3235 152.863C80.0282 151.892 79.4806 151.406 78.6805 151.406C78.2234 151.406 77.8043 151.596 77.4233 151.977C77.0518 152.349 76.7375 152.83 76.4804 153.42C76.2327 154.001 76.0565 154.63 75.9518 155.306V162.749C75.9708 163.092 76.1042 163.35 76.3518 163.521C76.5994 163.683 76.8804 163.788 77.1947 163.835C77.509 163.873 77.7567 163.892 77.9376 163.892H78.1519V164.407H69.1085V163.892H69.2942C69.4752 163.892 69.7228 163.873 70.0371 163.835C70.3514 163.788 70.6324 163.683 70.88 163.521C71.1372 163.359 71.2848 163.107 71.3229 162.764V152.949C71.2658 152.635 71.1086 152.401 70.8514 152.249C70.5943 152.096 70.3133 152.001 70.0085 151.963C69.7133 151.925 69.4799 151.906 69.3085 151.906H69.137V151.406H71.3229C72.0658 151.406 72.723 151.325 73.2945 151.163C73.8659 151.001 74.3469 150.82 74.7374 150.62C75.1374 150.411 75.4422 150.225 75.6518 150.063L75.9518 149.82V153.335C76.2089 152.63 76.6137 151.944 77.1661 151.277C77.9662 150.315 78.9186 149.834 80.0235 149.834C81.195 149.834 82.1331 150.049 82.8379 150.477C83.5523 150.906 84.0952 151.473 84.4666 152.177C84.8476 152.873 85.1 153.654 85.2238 154.52C85.3476 155.378 85.4095 156.235 85.4095 157.092V162.907C85.4762 163.202 85.6334 163.421 85.881 163.564C86.1286 163.707 86.3953 163.797 86.681 163.835C86.9763 163.873 87.2097 163.892 87.3811 163.892H87.5954V164.407ZM93.1312 147.891L92.7312 147.391C92.3883 146.944 92.0883 146.596 91.8311 146.348C91.5835 146.091 91.2406 145.796 90.8025 145.463L90.3167 145.091L90.8025 144.705C91.2406 144.372 91.5882 144.077 91.8454 143.82C92.1025 143.563 92.4026 143.21 92.7454 142.762L93.1312 142.291L93.5026 142.762C93.8455 143.21 94.1455 143.563 94.4027 143.82C94.6599 144.077 95.0075 144.372 95.4456 144.705L95.9314 145.091L95.4456 145.463C95.0075 145.806 94.6599 146.106 94.4027 146.363C94.1455 146.62 93.8455 146.968 93.5026 147.406L93.1312 147.891ZM97.6458 164.421H88.6023V163.907H88.788C88.969 163.907 89.2166 163.888 89.5309 163.85C89.8453 163.802 90.1262 163.697 90.3739 163.535C90.631 163.373 90.7787 163.121 90.8167 162.778V152.963C90.7596 152.649 90.6024 152.415 90.3453 152.263C90.0881 152.111 89.8072 152.015 89.5024 151.977C89.2071 151.939 88.9738 151.92 88.8023 151.92H88.6309V151.42H90.8167C91.5597 151.42 92.2168 151.339 92.7883 151.177C93.3598 151.015 93.8408 150.834 94.2313 150.634C94.6218 150.425 94.9218 150.239 95.1313 150.077L95.4313 149.834V162.764C95.4504 163.107 95.5837 163.364 95.8314 163.535C96.079 163.697 96.36 163.802 96.6743 163.85C96.9886 163.888 97.241 163.907 97.4315 163.907H97.6458V164.421ZM107.696 164.407H98.667V163.892H98.8527C100.024 163.892 100.691 163.569 100.853 162.921V145.177C100.796 144.863 100.639 144.629 100.381 144.477C99.9909 144.248 99.4766 144.134 98.8384 144.134H98.667V143.62H100.853C101.596 143.62 102.253 143.539 102.824 143.377C103.396 143.215 103.877 143.034 104.267 142.834C104.667 142.634 104.972 142.453 105.182 142.291L105.482 142.048C105.482 155.782 105.486 162.673 105.496 162.721C105.496 163.083 105.625 163.345 105.882 163.507C106.282 163.764 106.815 163.892 107.482 163.892H107.696V164.407ZM117.618 164.407H108.589V163.892H108.774C109.946 163.892 110.613 163.569 110.775 162.921V145.177C110.717 144.863 110.56 144.629 110.303 144.477C109.913 144.248 109.398 144.134 108.76 144.134H108.589V143.62H110.775C111.518 143.62 112.175 143.539 112.746 143.377C113.318 143.215 113.799 143.034 114.189 142.834C114.589 142.634 114.894 142.453 115.103 142.291L115.403 142.048C115.403 155.782 115.408 162.673 115.418 162.721C115.418 163.083 115.546 163.345 115.804 163.507C116.204 163.764 116.737 163.892 117.404 163.892H117.618V164.407ZM125.297 164.407C123.973 164.407 122.773 164.083 121.696 163.435C120.62 162.788 119.768 161.916 119.139 160.821C118.511 159.716 118.196 158.483 118.196 157.121C118.196 155.759 118.511 154.525 119.139 153.42C119.768 152.315 120.62 151.439 121.696 150.792C122.773 150.144 123.973 149.82 125.297 149.82C126.63 149.82 127.83 150.144 128.897 150.792C129.973 151.439 130.826 152.315 131.454 153.42C132.092 154.525 132.411 155.759 132.411 157.121C132.411 158.483 132.092 159.716 131.454 160.821C130.826 161.916 129.973 162.788 128.897 163.435C127.83 164.083 126.63 164.407 125.297 164.407ZM125.297 163.892C125.697 163.892 126.049 163.683 126.354 163.264C126.668 162.835 126.93 162.283 127.14 161.607C127.359 160.921 127.521 160.183 127.625 159.392C127.74 158.602 127.797 157.844 127.797 157.121C127.797 155.901 127.702 154.778 127.511 153.749C127.33 152.72 127.054 151.896 126.683 151.277C126.311 150.649 125.849 150.334 125.297 150.334C124.716 150.334 124.239 150.649 123.868 151.277C123.506 151.896 123.239 152.725 123.068 153.763C122.897 154.792 122.811 155.911 122.811 157.121C122.811 157.883 122.858 158.664 122.954 159.464C123.058 160.264 123.216 160.997 123.425 161.664C123.635 162.33 123.892 162.869 124.197 163.278C124.511 163.688 124.878 163.892 125.297 163.892ZM139.519 164.421C138.528 164.421 137.819 164.383 137.39 164.307C135.666 164.088 134.595 163.402 134.176 162.249C134.099 162.011 134.061 161.773 134.061 161.535C134.061 160.926 134.309 160.468 134.804 160.164C135.166 159.983 135.499 159.892 135.804 159.892C136.119 159.892 136.376 159.954 136.576 160.078C136.785 160.192 136.89 160.292 136.89 160.378V160.406C136.747 160.826 136.666 161.207 136.647 161.549C136.647 162.426 137.042 163.04 137.833 163.392C138.319 163.621 138.828 163.735 139.362 163.735C139.809 163.735 140.257 163.673 140.705 163.55C141.152 163.416 141.519 163.226 141.805 162.978C142.243 162.569 142.462 162.107 142.462 161.592L142.448 161.435C142.371 160.93 141.99 160.468 141.305 160.049C140.619 159.621 139.8 159.192 138.847 158.764C137.104 157.992 135.885 157.297 135.19 156.678C134.437 156.011 134.061 155.149 134.061 154.092C134.061 153.016 134.466 152.115 135.276 151.392C136.085 150.668 137.176 150.192 138.547 149.963L138.576 149.949C139.176 149.853 139.762 149.806 140.333 149.806C142.105 149.806 143.371 150.139 144.133 150.806C144.505 151.111 144.772 151.492 144.933 151.949C145.01 152.187 145.048 152.425 145.048 152.663C145.048 153.273 144.8 153.73 144.305 154.035C143.943 154.225 143.61 154.32 143.305 154.32C142.99 154.32 142.729 154.263 142.519 154.149C142.319 154.025 142.219 153.916 142.219 153.82V153.792C142.267 153.639 142.309 153.482 142.348 153.32C142.395 153.149 142.424 153.006 142.433 152.892C142.443 152.777 142.452 152.668 142.462 152.563C142.462 151.173 141.7 150.477 140.176 150.477C139.576 150.487 139.076 150.663 138.676 151.006C138.323 151.301 138.147 151.658 138.147 152.077C138.147 152.696 138.562 153.263 139.39 153.777C139.952 154.12 140.624 154.482 141.405 154.863C142.528 155.397 143.671 156.049 144.833 156.821C145.157 157.04 145.462 157.287 145.748 157.563C146.395 158.211 146.719 158.987 146.719 159.892C146.719 161.168 146.157 162.24 145.033 163.107C144.062 163.859 142.629 164.283 140.733 164.378C140.333 164.407 139.928 164.421 139.519 164.421Z" fill="#2C2C2C"/>
<defs>
<clipPath id="clip0_147_1352">
<rect width="201.253" height="204.935" fill="white"/>
</clipPath>
</defs>
</svg>
