<svg width="25" height="26" viewBox="0 0 25 26" fill="none" xmlns="http://www.w3.org/2000/svg">
<path d="M2.02251 5.27307H5.58213C6.38674 5.27307 7.15839 5.5927 7.72733 6.16164C8.29627 6.73059 8.6159 7.50224 8.6159 8.30684V8.8327C8.6159 9.6373 8.29627 10.409 7.72733 10.9779C7.15839 11.5468 6.38674 11.8665 5.58213 11.8665H2.02251V5.27307Z" stroke="#70A9A1" stroke-width="1.67489" stroke-linecap="round" stroke-linejoin="round"/>
<path d="M2.02251 11.8564H7.85746C8.93027 11.8564 9.95914 12.2826 10.7177 13.0412C11.4763 13.7998 11.9025 14.8287 11.9025 15.9015V16.5992C11.9025 17.1304 11.7979 17.6564 11.5946 18.1472C11.3913 18.638 11.0933 19.0839 10.7177 19.4595C10.3421 19.8351 9.89619 20.1331 9.40543 20.3364C8.91466 20.5396 8.38866 20.6443 7.85746 20.6443H2.02251V11.8564Z" stroke="#70A9A1" stroke-width="1.67489" stroke-linecap="round" stroke-linejoin="round"/>
<path d="M18.1015 12.9587H18.7083C19.647 12.9587 20.5472 13.3316 21.211 13.9954C21.8748 14.6592 22.2477 15.5594 22.2477 16.4981V17.3476H14.5621V16.4981C14.5621 15.5594 14.935 14.6592 15.5988 13.9954C16.2625 13.3316 17.1628 12.9587 18.1015 12.9587Z" stroke="#70A9A1" stroke-width="1.67489" stroke-linecap="round" stroke-linejoin="round"/>
<path d="M14.5621 17.3474C14.5621 17.7803 14.6474 18.209 14.813 18.609C14.9787 19.009 15.2216 19.3724 15.5277 19.6785C15.8338 19.9847 16.1972 20.2275 16.5972 20.3932C16.9972 20.5588 17.4259 20.6441 17.8588 20.6441H20.0532" stroke="#70A9A1" stroke-width="1.67489" stroke-linecap="round" stroke-linejoin="round"/>
</svg>
