<svg width="45" height="40" viewBox="0 0 45 40" fill="none" xmlns="http://www.w3.org/2000/svg">
<path fill-rule="evenodd" clip-rule="evenodd" d="M29.2373 2.66819C31.4757 3.55911 32.1605 6.66181 33.0758 7.65911C33.9911 8.6564 35.3009 8.99549 36.0256 8.99549C39.8774 8.99549 43 12.1181 43 15.9677V28.8107C43 33.9745 38.8114 38.1631 33.6476 38.1631H11.3524C6.18643 38.1631 2 33.9745 2 28.8107V15.9677C2 12.1181 5.12265 8.99549 8.97443 8.99549C9.69692 8.99549 11.0067 8.6564 11.9242 7.65911C12.8395 6.66181 13.5221 3.55911 15.7605 2.66819C18.0011 1.77727 26.9989 1.77727 29.2373 2.66819Z" stroke="#D5AFF6" stroke-width="3.32432" stroke-linecap="round" stroke-linejoin="round"/>
<path d="M34.6788 14.7439H34.6987" stroke="#D5AFF6" stroke-width="4.43243" stroke-linecap="round" stroke-linejoin="round"/>
<path fill-rule="evenodd" clip-rule="evenodd" d="M29.5447 22.7841C29.5447 18.8924 26.391 15.7388 22.4993 15.7388C18.6077 15.7388 15.454 18.8924 15.454 22.7841C15.454 26.6758 18.6077 29.8295 22.4993 29.8295C26.391 29.8295 29.5447 26.6758 29.5447 22.7841Z" stroke="#D5AFF6" stroke-width="3.32432" stroke-linecap="round" stroke-linejoin="round"/>
</svg>
