<svg width="40" height="40" viewBox="0 0 40 40" fill="none" xmlns="http://www.w3.org/2000/svg">
<path d="M26 2H14C7.37258 2 2 7.37258 2 14V26C2 32.6274 7.37258 38 14 38H26C32.6274 38 38 32.6274 38 26V14C38 7.37258 32.6274 2 26 2Z" stroke="#D5AFF6" stroke-width="4.00667" stroke-linecap="round" stroke-linejoin="round"/>
<path d="M11.26 17.7798V29.7798" stroke="#D5AFF6" stroke-width="4.00667" stroke-linecap="round" stroke-linejoin="round"/>
<path d="M16.76 29.7798V23.7798C16.76 22.1885 17.3922 20.6624 18.5174 19.5371C19.6426 18.4119 21.1687 17.7798 22.76 17.7798V17.7798C23.5479 17.7798 24.3282 17.935 25.0561 18.2365C25.7841 18.538 26.4455 18.98 27.0026 19.5371C27.5598 20.0943 28.0018 20.7557 28.3033 21.4837C28.6048 22.2116 28.76 22.9919 28.76 23.7798V29.7798" stroke="#D5AFF6" stroke-width="4.00667" stroke-linecap="round" stroke-linejoin="round"/>
<path d="M11.26 11.7807V11.5601" stroke="#D5AFF6" stroke-width="4.00667" stroke-linecap="round" stroke-linejoin="round"/>
</svg>
