<svg width="22" height="16" viewBox="0 0 22 16" fill="none" xmlns="http://www.w3.org/2000/svg">
<path d="M19.2251 1.05627H3.04502C1.92802 1.05627 1.02251 1.96178 1.02251 3.07879V13.1914C1.02251 14.3084 1.92802 15.2139 3.04502 15.2139H19.2251C20.3421 15.2139 21.2476 14.3084 21.2476 13.1914V3.07879C21.2476 1.96178 20.3421 1.05627 19.2251 1.05627Z" stroke="#70A9A1" stroke-width="1.51689" stroke-linecap="round" stroke-linejoin="bevel"/>
<path d="M1.60905 1.65308L9.9317 9.96561C10.1195 10.1537 10.3426 10.3028 10.5881 10.4046C10.8337 10.5064 11.0968 10.5588 11.3626 10.5588C11.6284 10.5588 11.8916 10.5064 12.1371 10.4046C12.3827 10.3028 12.6057 10.1537 12.7936 9.96561L20.8836 1.87555" stroke="#70A9A1" stroke-width="1.51689" stroke-linecap="round" stroke-linejoin="round"/>
</svg>
