<svg width="21" height="21" viewBox="0 0 21 21" fill="none" xmlns="http://www.w3.org/2000/svg">
<path d="M13.1689 1.64172H7.10133C3.75031 1.64172 1.03378 4.35825 1.03378 7.70927V13.7768C1.03378 17.1278 3.75031 19.8444 7.10133 19.8444H13.1689C16.5199 19.8444 19.2364 17.1278 19.2364 13.7768V7.70927C19.2364 4.35825 16.5199 1.64172 13.1689 1.64172Z" stroke="#70A9A1" stroke-width="2.02588" stroke-linecap="round" stroke-linejoin="round"/>
<path d="M5.71588 9.62036V15.6879" stroke="#70A9A1" stroke-width="2.02588" stroke-linecap="round" stroke-linejoin="round"/>
<path d="M8.49686 15.6879V12.6541C8.49686 11.8495 8.81648 11.0779 9.38543 10.5089C9.95437 9.93999 10.726 9.62036 11.5306 9.62036V9.62036C11.929 9.62036 12.3235 9.69883 12.6916 9.85129C13.0597 10.0038 13.3941 10.2272 13.6758 10.5089C13.9575 10.7906 14.181 11.1251 14.3335 11.4932C14.4859 11.8612 14.5644 12.2557 14.5644 12.6541V15.6879" stroke="#70A9A1" stroke-width="2.02588" stroke-linecap="round" stroke-linejoin="round"/>
<path d="M5.71588 6.58705V6.47546" stroke="#70A9A1" stroke-width="2.02588" stroke-linecap="round" stroke-linejoin="round"/>
</svg>
