<svg width="48" height="49" viewBox="0 0 48 49" fill="none" xmlns="http://www.w3.org/2000/svg">
<path d="M4 8.96313H11.04C12.6313 8.96313 14.1574 9.59528 15.2826 10.7205C16.4079 11.8457 17.04 13.3718 17.04 14.9631V16.0031C17.04 17.5944 16.4079 19.1206 15.2826 20.2458C14.1574 21.371 12.6313 22.0031 11.04 22.0031H4V8.96313Z" stroke="#D5AFF6" stroke-width="3.3125" stroke-linecap="round" stroke-linejoin="round"/>
<path d="M3.99999 21.9832H15.54C17.6617 21.9832 19.6966 22.826 21.1968 24.3263C22.6971 25.8266 23.54 27.8614 23.54 29.9832V31.3632C23.54 32.4137 23.3331 33.454 22.931 34.4246C22.529 35.3952 21.9397 36.2771 21.1968 37.02C20.454 37.7629 19.5721 38.3522 18.6015 38.7542C17.6309 39.1562 16.5906 39.3632 15.54 39.3632H3.99999V21.9832Z" stroke="#D5AFF6" stroke-width="3.3125" stroke-linecap="round" stroke-linejoin="round"/>
<path d="M35.8 24.1633H37C38.8565 24.1633 40.637 24.9008 41.9497 26.2136C43.2625 27.5263 44 29.3068 44 31.1633V32.8433H28.8V31.1633C28.8 29.3068 29.5375 27.5263 30.8502 26.2136C32.163 24.9008 33.9435 24.1633 35.8 24.1633Z" stroke="#D5AFF6" stroke-width="3.3125" stroke-linecap="round" stroke-linejoin="round"/>
<path d="M28.8 32.843C28.8 33.6992 28.9686 34.5471 29.2963 35.3381C29.624 36.1292 30.1042 36.8479 30.7097 37.4534C31.3151 38.0588 32.0339 38.5391 32.8249 38.8667C33.6159 39.1944 34.4638 39.363 35.32 39.363H39.66" stroke="#D5AFF6" stroke-width="3.3125" stroke-linecap="round" stroke-linejoin="round"/>
</svg>
