<svg width="23" height="21" viewBox="0 0 23 21" fill="none" xmlns="http://www.w3.org/2000/svg">
<path fill-rule="evenodd" clip-rule="evenodd" d="M14.772 1.76937C15.9037 2.21985 16.25 3.78866 16.7128 4.29292C17.1756 4.79719 17.8379 4.96864 18.2043 4.96864C20.1519 4.96864 21.7308 6.54754 21.7308 8.49399V14.9878C21.7308 17.5987 19.6129 19.7166 17.0019 19.7166H5.72886C3.11678 19.7166 1 17.5987 1 14.9878V8.49399C1 6.54754 2.5789 4.96864 4.52647 4.96864C4.89178 4.96864 5.55405 4.79719 6.01797 4.29292C6.48077 3.78866 6.82591 2.21985 7.9577 1.76937C9.0906 1.3189 13.6402 1.3189 14.772 1.76937Z" stroke="#70A9A1" stroke-width="1.68087" stroke-linecap="round" stroke-linejoin="round"/>
<path d="M17.5233 7.87511H17.5334" stroke="#70A9A1" stroke-width="2.24116" stroke-linecap="round" stroke-linejoin="round"/>
<path fill-rule="evenodd" clip-rule="evenodd" d="M14.9274 11.9405C14.9274 9.97276 13.3328 8.37817 11.365 8.37817C9.39731 8.37817 7.80272 9.97276 7.80272 11.9405C7.80272 13.9082 9.39731 15.5028 11.365 15.5028C13.3328 15.5028 14.9274 13.9082 14.9274 11.9405Z" stroke="#70A9A1" stroke-width="1.68087" stroke-linecap="round" stroke-linejoin="round"/>
</svg>
