<svg width="70" height="65" viewBox="0 0 70 65" fill="none" xmlns="http://www.w3.org/2000/svg">
<g clip-path="url(#clip0_246_862)">
<path d="M31.477 62.5546H28.3224C24.9965 62.5546 22.2984 59.8564 22.2984 56.5306V39.657C22.2984 37.3257 21.3365 36.16 19.4128 36.16C17.489 36.16 16.5679 37.3257 16.5679 39.657V56.5306C16.5679 59.8564 13.8698 62.5546 10.544 62.5546H7.38933C4.06352 62.5546 1.36537 59.8564 1.36537 56.5306V39.9423C1.36537 34.652 3.11794 30.2013 6.61493 26.582C10.1119 22.9628 14.3996 21.1531 19.4698 21.1531C25.2737 21.1531 29.9201 23.2562 33.417 27.4542C36.1559 30.7393 37.5254 35.3041 37.5254 41.1569V56.5225C37.5254 59.8483 34.8272 62.5464 31.5014 62.5464L31.477 62.5546Z" stroke="#2C2C2C" stroke-width="2.73075" stroke-miterlimit="10"/>
<path d="M67.7674 23.566V27.3809C67.7674 30.7148 65.053 33.4211 61.719 33.4048C59.2899 33.3967 57.2765 33.3804 56.7955 33.3804C54.0322 33.3804 52.6464 35.4916 52.6464 39.7222V52.9358C52.6464 56.2616 49.9483 58.9598 46.6225 58.9598H43.4678C40.142 58.9598 37.4439 56.2616 37.4439 52.9358V36.7959C37.4439 30.9431 39.0416 26.2723 42.2451 22.7834C45.4486 19.3027 49.7119 17.5583 55.0593 17.5583C55.7358 17.5583 58.7111 17.542 61.7435 17.5339C65.0774 17.5339 67.7837 20.2239 67.7837 23.5578L67.7674 23.566Z" stroke="#2C2C2C" stroke-width="2.73075" stroke-miterlimit="10"/>
<path d="M51.8639 17.7621C51.8639 17.7621 35.5446 17.6154 33.7594 0C33.7594 0 35.781 19.3761 18.2797 21.1531" stroke="#2C2C2C" stroke-width="2.73075" stroke-miterlimit="10"/>
</g>
<defs>
<clipPath id="clip0_246_862">
<rect width="69.1491" height="65" fill="white"/>
</clipPath>
</defs>
</svg>
