<svg width="452" height="431" viewBox="0 0 452 431" fill="none" xmlns="http://www.w3.org/2000/svg">
<g clip-path="url(#clip0_79_61)">
<path d="M448.209 133.952C447.982 133.13 447.754 132.335 447.501 131.513C446.01 126.718 444.14 122.088 441.891 117.622C424.073 82.2505 385.126 63.5647 336.121 61.7564C330.763 61.5646 325.304 61.5646 319.718 61.7564C271.117 63.5099 214.555 80.5792 159.635 113.074C102.062 147.13 54.8258 192.859 26.6205 241.847C16.2836 259.821 8.95424 277.438 4.68301 294.288C4.48082 295.165 4.25335 296.042 4.07644 296.891C-2.57051 325.112 -0.548625 351.086 10.4201 372.867C29.1731 410.157 71.4811 428.898 124.252 428.898C177.024 428.898 234.597 411.801 292.701 377.443C350.274 343.387 397.51 297.631 425.69 248.642C449.776 206.777 457.51 166.775 448.234 133.952H448.209ZM424.603 247.93C396.525 296.727 349.44 342.291 292.069 376.238C173.713 446.241 47.8503 444.433 11.5069 372.21C0.967789 351.305 -1.18046 326.399 4.7841 299.33C4.96101 298.508 5.1632 297.686 5.36539 296.864C9.48499 279.466 16.966 261.218 27.682 242.587C55.7609 193.79 102.82 148.226 160.217 114.28C215.086 81.8122 271.547 64.7976 319.971 63.0989C322.7 62.9893 325.405 62.9345 328.084 62.9345C330.763 62.9345 333.24 62.9893 335.792 63.0989C358.842 63.8935 379.642 68.4964 397.03 76.7982C416.339 86.0042 431.453 99.8678 440.728 118.28C443.255 123.321 445.303 128.582 446.87 134.034C447.097 134.883 447.324 135.733 447.552 136.582C455.766 168.584 447.906 207.353 424.553 247.93H424.603Z" fill="#2F3033"/>
<path d="M441.891 58.0028C405.219 -14.8775 278.573 -16.9324 159.61 53.4547C128.852 71.6747 101.026 93.21 77.4961 116.828C76.9654 117.321 76.2577 118.061 75.3732 118.992C71.3041 123.075 67.3614 127.266 63.5704 131.541C63.2418 131.897 62.9133 132.253 62.61 132.609C62.4836 132.746 62.3825 132.856 62.2814 132.993C62.1803 133.075 62.1045 133.185 62.0287 133.267C61.9023 133.404 61.8012 133.513 61.7001 133.65C61.3716 134.007 61.043 134.39 60.7398 134.746C47.4711 150.007 35.9716 165.926 26.5951 182.228C2.50943 224.093 -5.22429 264.068 4.05111 296.891C4.27858 297.713 4.50604 298.508 4.78405 299.33C6.27519 304.124 8.14543 308.782 10.3948 313.248C27.1259 346.483 62.7616 366.073 111.312 369.004C111.514 369.032 111.717 369.032 111.944 369.032C112.171 369.059 112.374 369.059 112.601 369.059C112.601 368.813 112.551 368.566 112.551 368.319C112.551 368.1 112.551 367.908 112.551 367.689C112.323 367.689 112.121 367.689 111.919 367.662C111.691 367.662 111.489 367.634 111.287 367.607C63.2166 364.73 27.9852 345.359 11.4815 312.591C8.95419 307.577 6.90703 302.316 5.34007 296.864C5.08733 296.014 4.85987 295.165 4.63241 294.316C-3.58151 262.287 4.30385 223.545 27.6566 182.94C34.5563 170.94 42.6186 159.158 51.7171 147.678C51.7171 147.624 51.7676 147.596 51.8182 147.541C55.1543 143.295 58.6673 139.048 62.3067 134.911C62.3573 134.856 62.4078 134.774 62.4836 134.719C62.4836 134.664 62.5595 134.637 62.5847 134.582C62.888 134.226 63.1913 133.897 63.5199 133.541C63.5199 133.513 63.5704 133.459 63.5957 133.431C63.6715 133.349 63.722 133.294 63.7979 133.212C66.6285 130.006 69.5602 126.828 72.5678 123.677C72.6183 123.65 72.6183 123.622 72.6436 123.595C97.2601 97.813 126.982 74.305 160.191 54.6602C218.194 20.3571 277.941 3.28781 328.109 3.28781C354.242 3.28781 377.772 7.91818 397.081 17.1515C416.39 26.3848 431.503 40.2485 440.779 58.6604C451.292 79.5655 453.466 104.471 447.501 131.513C447.299 132.363 447.122 133.185 446.92 134.034C442.775 151.405 435.32 169.652 424.604 188.311C417.35 200.914 408.833 213.298 399.178 225.326C399.052 225.49 398.926 225.682 398.749 225.847C398.648 226.011 398.521 226.175 398.37 226.34C398.648 226.669 398.951 226.97 399.279 227.271C399.431 227.107 399.557 226.943 399.684 226.778C399.835 226.586 399.987 226.422 400.113 226.23C409.818 214.147 418.386 201.681 425.665 189.023C436.002 171.077 443.331 153.46 447.602 136.609C447.805 135.705 448.032 134.828 448.209 133.952C454.856 105.731 452.834 79.7573 441.891 58.0028ZM388.437 238.094C388.285 238.258 388.159 238.423 388.007 238.587L387.552 239.08C361.495 268.232 328.918 294.809 292.069 316.591C272.128 328.4 251.757 338.29 231.438 346.154C227.545 347.661 223.679 349.086 219.786 350.428C186.83 361.935 154.277 367.991 124.151 368.018H122.862C122.862 368.018 122.887 368.21 122.887 368.319C122.887 368.676 122.862 369.032 122.786 369.388H124.202C154.732 369.388 187.689 363.196 221.05 351.442C224.917 350.099 228.784 348.647 232.676 347.113C252.768 339.277 272.911 329.468 292.65 317.796C329.575 295.96 362.228 269.328 388.336 240.094C388.513 239.93 388.664 239.765 388.791 239.601C388.943 239.436 389.094 239.272 389.22 239.108C388.968 238.751 388.69 238.423 388.412 238.094H388.437Z" fill="#2F3033"/>
<path d="M439.11 59.6467C403.273 -11.5897 278.547 -13.0144 161.126 56.4411L158.7 51.6189C278.573 -19.2887 406.356 -16.8776 443.559 57.0164L439.11 59.6467Z" fill="#2F3033"/>
<path d="M124.328 430.87C70.7985 430.87 27.8082 411.774 8.72663 373.854L13.1748 371.224C49.0127 442.46 173.738 443.885 291.159 374.429L293.585 379.251C235.254 413.746 175.052 430.898 124.328 430.898V430.87Z" fill="#2F3033"/>
<path d="M62.9891 134.691C41.6834 135.431 24.4216 135.732 24.4216 135.321C24.4216 134.91 41.6582 133.979 62.9638 133.239C84.2694 132.499 101.531 132.198 101.531 132.609C101.531 133.02 84.2947 133.951 62.9891 134.691Z" fill="#2F3033"/>
<path d="M62.3067 133.979C61.6243 110.882 61.3463 92.1688 61.7254 92.1688C62.1045 92.1688 62.9638 110.855 63.6462 133.952C64.3286 157.049 64.6066 175.762 64.2275 175.762C63.8484 175.762 62.9891 157.076 62.3067 133.979Z" fill="#2F3033"/>
<path d="M62.5089 134.5C53.3851 125.239 46.2074 117.485 46.4601 117.184C46.7129 116.882 54.3202 124.17 63.4187 133.431C72.5425 142.692 79.7202 150.446 79.4674 150.747C79.2147 151.048 71.6073 143.76 62.5089 134.5Z" fill="#2F3033"/>
<path d="M63.444 134.445C54.9015 144.336 47.7491 152.117 47.4711 151.843C47.1931 151.569 53.9158 143.322 62.4583 133.459C71.0008 123.568 78.1532 115.786 78.4312 116.06C78.7092 116.334 71.9864 124.581 63.444 134.445Z" fill="#2F3033"/>
<path d="M411.587 231.189C407.215 231.025 403.222 229.189 400.113 226.23C399.785 225.956 399.481 225.655 399.178 225.326C395.943 221.846 393.896 217.079 393.719 211.818C393.719 211.462 393.416 211.161 393.087 211.161C392.733 211.161 392.455 211.462 392.455 211.818C392.102 222.312 384.241 230.806 374.587 231.189C374.233 231.217 373.98 231.518 373.98 231.874C373.98 232.258 374.233 232.559 374.587 232.559C379.692 232.751 384.292 235.244 387.552 239.08C387.83 239.409 388.108 239.738 388.361 240.094C390.787 243.382 392.304 247.464 392.455 251.93C392.455 252.286 392.733 252.588 393.087 252.588C393.416 252.588 393.694 252.286 393.719 251.93C394.073 241.464 401.908 232.943 411.587 232.559C411.916 232.559 412.194 232.258 412.194 231.874C412.194 231.518 411.916 231.217 411.587 231.189ZM393.087 247.245C392.354 244.204 391.015 241.436 389.246 239.107C388.993 238.751 388.715 238.423 388.437 238.094C385.91 235.135 382.624 232.943 378.909 231.874C385.808 229.902 391.268 223.983 393.087 216.504C393.997 220.285 395.867 223.682 398.369 226.34C398.647 226.668 398.951 226.97 399.279 227.271C401.529 229.408 404.258 231.025 407.266 231.874C400.366 233.847 394.907 239.765 393.087 247.245Z" fill="#2F3033"/>
<path d="M226.13 338.373C224.512 343.14 220.999 346.949 216.602 348.702C220.999 350.456 224.512 354.264 226.13 359.031C227.747 354.264 231.26 350.456 235.658 348.702C231.26 346.949 227.747 343.14 226.13 338.373Z" fill="#2F3033"/>
<path d="M327.881 52.0299C326.264 56.7973 322.751 60.6057 318.353 62.3592C322.751 64.1127 326.264 67.9211 327.881 72.6885C329.499 67.9211 333.012 64.1127 337.41 62.3592C333.012 60.6057 329.499 56.7973 327.881 52.0299Z" fill="#2F3033"/>
<path d="M117.732 361.36C114.396 361.36 111.641 364.1 111.312 367.607C111.312 367.854 111.312 368.073 111.312 368.319C111.312 368.539 111.312 368.785 111.312 369.004C111.641 372.539 114.37 375.306 117.732 375.306C121.093 375.306 123.595 372.758 124.075 369.388C124.126 369.032 124.151 368.676 124.151 368.319V368.018C123.999 364.319 121.169 361.36 117.732 361.36ZM122.887 368.319C122.887 368.676 122.862 369.032 122.786 369.388C122.331 371.991 120.234 373.936 117.732 373.936C115.103 373.936 112.93 371.799 112.601 369.059C112.601 368.813 112.551 368.566 112.551 368.319C112.551 368.1 112.551 367.908 112.551 367.689C112.854 364.922 115.053 362.73 117.706 362.73C120.36 362.73 122.711 365.086 122.837 368.018C122.862 368.128 122.862 368.21 122.862 368.319H122.887Z" fill="#2F3033"/>
</g>
<defs>
<clipPath id="clip0_79_61">
<rect width="451.765" height="430.87" fill="white" transform="translate(0.234741)"/>
</clipPath>
</defs>
</svg>
