<svg width="308" height="170" viewBox="0 0 308 170" fill="none" xmlns="http://www.w3.org/2000/svg">
<g clip-path="url(#clip0_167_939)">
<path d="M13.208 82.1468C13.0323 81.9711 12.8273 81.8247 12.6223 81.7076C12.0658 81.3561 11.4069 81.1511 10.704 81.1511C8.63939 81.1511 6.97009 82.8204 6.97009 84.8704C6.97009 86.1151 7.57045 87.1987 8.5076 87.8869C8.69796 88.0333 8.90296 88.1651 9.13725 88.253C9.60582 88.4872 10.133 88.6044 10.704 88.6044C12.7541 88.6044 14.4234 86.9351 14.4234 84.8704C14.4234 83.7869 13.9548 82.8058 13.208 82.1468ZM10.704 87.8722C10.2794 87.8722 9.88404 87.7844 9.51797 87.638C9.28368 87.5355 9.07868 87.4037 8.88832 87.2572C8.17082 86.7155 7.70224 85.8369 7.70224 84.8704C7.70224 83.2304 9.04939 81.8833 10.704 81.8833C11.2458 81.8833 11.7583 82.0297 12.1976 82.2933C12.4173 82.4104 12.6076 82.5568 12.7833 82.7326C13.3398 83.2744 13.6912 84.0358 13.6912 84.8704C13.6912 86.5251 12.3441 87.8722 10.704 87.8722Z" fill="#D5AFF6"/>
<path d="M196.421 149.461C196.421 149.578 196.421 149.71 196.45 149.827H40.9418V120.131C40.9418 89.3073 52.5976 60.0068 73.7713 37.6177L74.2984 38.1302C53.2711 60.3728 41.6739 89.4977 41.6739 120.131V149.095H196.45C196.45 149.212 196.421 149.343 196.421 149.461Z" fill="#D5AFF6"/>
<path d="M281.218 120.131V149.827H202.38C202.38 149.71 202.41 149.578 202.41 149.461C202.41 149.344 202.41 149.212 202.38 149.095H280.486V120.131C280.486 113.761 279.988 107.494 279.007 101.388C278.978 101.11 278.934 100.831 278.875 100.553C271.027 53.11 235.093 15.009 188.777 3.98288C187.928 3.77788 187.064 3.57288 186.2 3.39717C178.102 1.65465 169.697 0.732148 161.087 0.732148C139.811 0.732148 118.945 6.39897 100.714 17.103L100.334 16.4733C118.681 5.69611 139.694 0 161.087 0C170.634 0 179.933 1.11286 188.836 3.23609C189.641 3.42645 190.432 3.63145 191.237 3.83646C236.528 15.5801 271.539 53.1832 279.505 99.8796C279.563 100.158 279.607 100.451 279.637 100.744C280.676 107.055 281.218 113.527 281.218 120.131Z" fill="#D5AFF6"/>
<path d="M89.1463 28.9197C88.8242 28.5097 89.1463 27.9093 89.6735 27.9679C97.0535 28.7293 102.647 29.0661 102.691 28.744C102.72 28.4218 97.1853 27.5286 89.8199 26.6647C89.3074 26.6061 89.1171 25.9472 89.5124 25.625C94.1982 21.7886 97.566 18.7428 97.361 18.4939C97.156 18.245 93.466 20.8661 88.6924 24.6C88.2824 24.9222 87.682 24.6 87.7406 24.0729C88.502 16.6928 88.8388 11.0992 88.5167 11.0553C88.1945 11.026 87.3013 16.561 86.4374 23.9265C86.3788 24.439 85.7199 24.6293 85.3977 24.234C81.5613 19.5482 78.5156 16.1803 78.2666 16.3853C78.0177 16.5903 80.6388 20.2804 84.3727 25.054C84.6949 25.464 84.3727 26.0643 83.8456 26.0058C76.4655 25.2443 70.8719 24.9075 70.828 25.2297C70.7987 25.5518 76.3338 26.445 83.6992 27.309C84.2117 27.3675 84.402 28.0265 84.0067 28.3486C79.3209 32.1851 75.953 35.2308 76.158 35.4797C76.363 35.7287 80.0531 33.1076 84.8267 29.3736C85.2367 29.0515 85.837 29.3736 85.7785 29.9008C85.017 37.2808 84.6802 42.8744 85.0024 42.9184C85.3245 42.9477 86.2177 37.4126 87.0817 30.0472C87.1403 29.5347 87.7992 29.3443 88.1213 29.7397C91.9578 34.4255 95.0035 37.7933 95.2525 37.5883C95.5014 37.3833 92.8803 33.6933 89.1463 28.9197Z" fill="#D5AFF6"/>
<path d="M12.7833 82.733C12.6076 82.5573 12.4173 82.4109 12.1976 82.2938C12.2562 82.1913 12.3294 82.0888 12.4173 81.9863C12.4758 81.8984 12.5491 81.7959 12.6223 81.708C13.3105 80.7562 14.028 79.7898 14.7894 78.838C27.0163 63.3311 46.0375 48.5564 69.803 36.1099L70.1398 36.7542C46.4622 49.1567 27.5288 63.8729 15.3605 79.292C14.6137 80.2437 13.8816 81.1955 13.208 82.1473C13.1201 82.2498 13.0616 82.3377 13.003 82.4255C12.9151 82.528 12.8419 82.6305 12.7833 82.733Z" fill="#D5AFF6"/>
<path d="M196.787 150.881C196.67 150.925 196.552 150.954 196.435 150.998C196.318 151.042 196.201 151.086 196.084 151.13C187.664 154.147 178.878 156.87 169.814 159.242C144.936 165.758 120.189 169.068 97.3611 169.068C83.6406 169.068 70.623 167.882 58.6744 165.466C26.782 159.023 6.38435 144.658 1.24467 125.022C-1.78643 113.483 0.732164 100.788 8.50758 87.8872C8.56615 87.7847 8.62472 87.6822 8.68329 87.5797C8.74186 87.4772 8.81508 87.3601 8.88829 87.2576C9.07865 87.404 9.28365 87.5358 9.51794 87.6383C9.44473 87.7408 9.38615 87.8433 9.32758 87.9458C9.25437 88.0483 9.19579 88.1508 9.13722 88.2533C1.46431 100.993 -1.02499 113.483 1.94753 124.831C7.01399 144.189 27.2066 158.364 58.8208 164.748C90.5228 171.147 129.883 168.951 169.639 158.539C178.688 156.167 187.445 153.458 195.835 150.442C195.952 150.413 196.069 150.369 196.172 150.325C196.289 150.281 196.406 150.252 196.509 150.208C196.582 150.457 196.67 150.662 196.787 150.881Z" fill="#D5AFF6"/>
<path d="M300.942 61.4859C300.942 61.4859 300.927 61.5005 300.942 61.5151C299.375 74.4595 291.849 87.9164 279.637 100.744C279.432 100.963 279.227 101.183 279.007 101.388C261.67 119.369 235.137 136.121 203.025 148.538C202.908 148.582 202.79 148.626 202.673 148.67C202.571 148.714 202.454 148.758 202.336 148.802C202.278 148.568 202.205 148.348 202.087 148.128C202.205 148.084 202.322 148.04 202.439 147.996C202.556 147.953 202.673 147.909 202.776 147.865C235.034 135.404 261.611 118.579 278.875 100.553C279.08 100.319 279.3 100.099 279.505 99.8797C291.014 87.6675 298.248 74.9427 300.049 62.6427C300.679 58.5719 300.679 54.5451 300.049 50.6061C299.859 49.3908 299.61 48.19 299.302 47.004C294.236 27.6606 274.043 13.4862 242.429 7.10191C226.907 3.96832 209.57 2.88474 191.237 3.83653C190.417 3.86582 189.597 3.92439 188.777 3.98296C170.385 5.09582 151.057 8.21477 131.626 13.2959C121.434 15.9609 111.404 19.1384 101.783 22.7113L101.534 22.0231C111.169 18.4356 121.229 15.258 131.435 12.593C150.017 7.73156 168.511 4.64189 186.2 3.39724C187.078 3.33867 187.957 3.2801 188.836 3.23617C208.106 2.06473 226.336 3.10438 242.575 6.3844C274.482 12.8273 294.88 27.1774 300.02 46.8136C300.459 48.4683 300.766 50.1229 300.957 51.8069C301.367 54.999 301.352 58.2351 300.957 61.4859H300.942Z" fill="#D5AFF6"/>
<path d="M203.127 149.095C203.098 148.904 203.069 148.714 203.025 148.538C202.966 148.304 202.878 148.07 202.776 147.865C202.19 146.591 200.901 145.727 199.423 145.727C197.49 145.727 195.894 147.206 195.703 149.095C195.703 149.212 195.703 149.344 195.703 149.461C195.703 149.578 195.703 149.71 195.703 149.827C195.732 150.032 195.762 150.237 195.835 150.442C195.894 150.676 195.981 150.91 196.084 151.13C196.699 152.345 197.973 153.18 199.423 153.18C201.355 153.18 202.937 151.701 203.127 149.827C203.127 149.71 203.127 149.578 203.127 149.461C203.127 149.344 203.127 149.212 203.127 149.095ZM202.41 149.461C202.41 149.578 202.41 149.71 202.38 149.827C202.205 151.291 200.96 152.448 199.423 152.448C198.28 152.448 197.299 151.818 196.787 150.881C196.67 150.661 196.582 150.456 196.509 150.208C196.479 150.076 196.465 149.944 196.45 149.827C196.435 149.71 196.421 149.578 196.421 149.461C196.421 149.344 196.421 149.212 196.45 149.095C196.626 147.616 197.885 146.459 199.423 146.459C200.594 146.459 201.619 147.147 202.088 148.128C202.205 148.348 202.278 148.568 202.336 148.802C202.336 148.904 202.38 148.992 202.38 149.095C202.38 149.212 202.41 149.344 202.41 149.461Z" fill="#D5AFF6"/>
<path d="M300.312 48.9368C300.459 53.1247 303.827 56.4779 308 56.6243C303.812 56.7708 300.459 60.1386 300.312 64.3119C300.166 60.124 296.798 56.7708 292.625 56.6243C296.813 56.4779 300.166 53.11 300.312 48.9368Z" fill="#D5AFF6"/>
</g>
<defs>
<clipPath id="clip0_167_939">
<rect width="308" height="169.068" fill="white"/>
</clipPath>
</defs>
</svg>
