<svg width="78" height="89" viewBox="0 0 78 89" fill="none" xmlns="http://www.w3.org/2000/svg">
<g clip-path="url(#clip0_79_55)">
<path d="M17.6731 39.8361C17.687 39.8382 17.7021 39.8415 17.716 39.8436C17.6849 39.7029 17.7128 39.5623 17.7042 39.4216C17.7042 39.4077 17.672 39.3958 17.6473 39.3776C17.6387 39.4592 17.6312 39.5279 17.6237 39.5977C17.614 39.5977 17.6044 39.5977 17.5947 39.5988C17.5872 39.5011 17.5797 39.4034 17.5732 39.3142C17.629 39.2691 17.7085 39.3636 17.7278 39.2691C17.7343 39.2391 17.7031 39.2004 17.687 39.1628C17.7021 39.1553 17.7214 39.1457 17.7429 39.1338C17.7429 39.1177 17.7472 39.0995 17.7429 39.0844C17.701 38.961 17.6548 38.8428 17.7246 38.7086C17.7493 38.6603 17.7225 38.5862 17.7182 38.5272C17.745 38.4756 17.7719 38.4241 17.7987 38.3725C17.7933 38.3715 17.7869 38.3682 17.7815 38.3682C17.7762 38.3682 17.7708 38.3715 17.7643 38.3725C17.7042 38.3675 17.6774 38.3382 17.6838 38.2845C17.716 38.321 17.7407 38.3489 17.7643 38.3768C17.7966 38.1685 17.7826 37.9538 17.8664 37.7508C17.8964 37.6778 17.8878 37.5844 17.8846 37.5006C17.876 37.3138 17.9104 37.1946 18.0199 37.0743C17.934 36.924 17.9555 36.7898 18.0897 36.6835C17.9931 36.4762 18.0682 36.3098 18.1949 36.1573C18.0811 36.0532 18.0865 35.9694 18.2143 35.7987C18.1445 35.6999 18.1552 35.6 18.2143 35.4937C18.2443 35.44 18.2637 35.3735 18.2647 35.3123C18.2658 35.2446 18.2701 35.1888 18.3216 35.1372C18.3431 35.1158 18.3614 35.0599 18.3485 35.0417C18.2443 34.8849 18.4118 34.7722 18.4043 34.6272C18.3893 34.6111 18.3678 34.5875 18.3442 34.5628C18.5171 34.4672 18.6105 34.0076 18.5901 33.8133C18.6459 33.7778 18.7125 33.7381 18.6975 33.6479C18.6942 33.6264 18.6975 33.5867 18.7082 33.5813C18.8424 33.5169 18.7962 33.3805 18.8263 33.2785C18.8639 33.1508 18.9111 33.0348 18.9831 32.9199C19.054 32.8071 19.0744 32.6654 19.1216 32.5376C19.157 32.4421 19.2011 32.3486 19.2354 32.2531C19.2483 32.2187 19.2494 32.179 19.2494 32.1414C19.2483 32.0491 19.2386 31.9578 19.3288 31.8955C19.3471 31.8826 19.375 31.8526 19.3707 31.8429C19.2923 31.67 19.549 31.5841 19.4802 31.4016C19.4577 31.3404 19.5296 31.2437 19.5597 31.1589C19.5994 31.146 19.6456 31.1299 19.7036 31.1106C19.6724 31.0333 19.6445 30.9656 19.6209 30.9055C19.7079 30.7981 19.7927 30.7004 19.8679 30.5962C19.8851 30.5715 19.8851 30.505 19.8657 30.4899C19.8034 30.4373 19.8346 30.3825 19.8679 30.3536C19.9613 30.273 19.9624 30.1592 19.9946 30.0561C20.0085 30.0099 20.0257 29.9477 20.0612 29.9273C20.1471 29.8768 20.1771 29.8006 20.2007 29.7157C20.1589 29.7404 20.1181 29.7651 20.0719 29.793C20.0762 29.6846 20.1556 29.734 20.2007 29.7157C20.1825 29.6556 20.1653 29.5944 20.1428 29.5203C20.2287 29.501 20.1932 29.341 20.3296 29.3668C20.3618 29.2723 20.393 29.1778 20.423 29.0908C20.4488 29.1005 20.4789 29.1219 20.5046 29.1187C20.5197 29.1166 20.5379 29.0736 20.5401 29.0489C20.5444 28.9748 20.5422 28.9007 20.5422 28.8116C20.6904 28.8438 20.7022 28.7461 20.714 28.6398C20.7323 28.6645 20.7462 28.6828 20.7634 28.7053C20.8955 28.6269 20.8021 28.4895 20.8568 28.3735C20.8751 28.4046 20.889 28.4272 20.9116 28.4648C20.9266 28.4358 20.9395 28.4143 20.9492 28.3928C20.9642 28.3574 20.9685 28.3112 20.9943 28.2865C21.136 28.1534 21.2928 28.0353 21.3765 27.8506C21.3798 27.8441 21.3959 27.8388 21.4055 27.8388C21.5086 27.842 21.5612 27.769 21.6106 27.6981C21.6954 27.5768 21.8232 27.5091 21.9381 27.4243C21.9736 27.3974 22.0133 27.376 22.0498 27.3502C22.126 27.2933 22.1883 27.216 22.2935 27.2031C22.329 27.1988 22.3687 27.1666 22.3923 27.1354C22.4471 27.0635 22.4976 26.9937 22.6049 27.0152C22.6178 27.0173 22.6404 27.0055 22.649 26.9937C22.7649 26.8412 22.94 26.7832 23.1053 26.7113C23.1161 26.707 23.1322 26.7049 23.1365 26.6963C23.2428 26.4998 23.494 26.5427 23.6304 26.3967C23.7732 26.4214 23.8344 26.2947 23.9332 26.2367C24.0105 26.1916 24.0996 26.168 24.1834 26.1325C24.3402 26.066 24.4894 25.9715 24.6526 25.9393C24.8728 25.8963 25.0671 25.7889 25.2797 25.7363C25.5278 25.6751 25.7855 25.6569 26.0324 25.5946C26.2365 25.543 26.4491 25.5516 26.6499 25.4765C26.7583 25.4357 26.8872 25.455 27.0064 25.4421C27.1975 25.4217 27.3886 25.4131 27.5787 25.3755C27.6989 25.3519 27.8267 25.3573 27.9459 25.3079C27.9685 25.2982 28.0017 25.3154 28.0307 25.3197C28.1048 25.3283 28.1897 25.3648 28.2498 25.3401C28.4141 25.2735 28.5784 25.3004 28.7427 25.3014C28.8092 25.3014 28.8758 25.3036 28.9413 25.3154C29.0787 25.339 29.2119 25.3487 29.3536 25.3315C29.4836 25.3165 29.6178 25.3433 29.7509 25.3487C29.8207 25.3519 29.8905 25.3487 29.9603 25.3487C30.0945 25.3465 30.2298 25.3422 30.3641 25.3412C30.4908 25.3401 30.6196 25.3594 30.742 25.3369C30.9181 25.3036 31.0889 25.3036 31.2628 25.3369C31.3637 25.2606 31.4733 25.339 31.5785 25.3208C31.6869 25.3025 31.7986 25.3079 31.9092 25.3057C32.0928 25.3014 32.2775 25.2971 32.4611 25.2982C32.6695 25.2993 32.8788 25.3025 33.0872 25.3122C33.3298 25.324 33.5725 25.3519 33.8152 25.3583C33.9258 25.3616 34.0374 25.3251 34.1491 25.3143C34.2458 25.3047 34.3435 25.3089 34.4401 25.3014C34.6141 25.2885 34.7912 25.2907 34.962 25.2961C35.1714 25.3025 35.3775 25.2843 35.5848 25.2714C35.7319 25.2617 35.8811 25.2392 36.0207 25.193C36.098 25.1672 36.1463 25.048 36.2215 25.0308C36.3332 25.0051 36.3482 24.9288 36.3815 24.8526C36.3858 24.8419 36.3912 24.8311 36.3976 24.8182C36.3675 24.7624 36.331 24.7248 36.2569 24.713C36.1807 24.7012 36.1109 24.6529 36.0358 24.626C35.8833 24.5713 35.7308 24.5176 35.5633 24.5659C35.5332 24.5745 35.4881 24.5627 35.4624 24.5433C35.3067 24.4242 35.1144 24.4585 34.9426 24.4123C34.7665 24.3651 34.5883 24.3232 34.4111 24.2803C34.3725 24.2706 34.3317 24.2685 34.2909 24.2663C34.176 24.2599 34.0589 24.2792 33.9537 24.2083C33.9279 24.1911 33.885 24.2008 33.8506 24.1987C33.7218 24.1933 33.5961 24.1836 33.4812 24.1117C33.4544 24.0945 33.4147 24.0977 33.3814 24.0924C33.3363 24.0848 33.288 24.0838 33.245 24.0677C33.0925 24.0086 32.9465 23.9453 32.7725 23.956C32.6738 23.9624 32.5707 23.9163 32.4719 23.8862C32.2582 23.8207 32.0456 23.753 31.8341 23.6811C31.6483 23.6177 31.469 23.5233 31.2789 23.4878C31.1318 23.461 30.989 23.4255 30.8473 23.3837C30.6808 23.3343 30.5176 23.2731 30.3522 23.2204C30.2814 23.1979 30.2073 23.1861 30.1343 23.1668C30.0945 23.1571 30.0441 23.1549 30.0194 23.1292C29.8916 23.0003 29.7166 22.9874 29.5587 22.9338C29.3966 22.8779 29.2377 22.8103 29.0755 22.7523C28.9563 22.7104 28.8328 22.6782 28.7126 22.6385C28.6686 22.6245 28.6149 22.6116 28.587 22.5805C28.5107 22.4924 28.4066 22.4817 28.3056 22.4527C28.107 22.3958 27.8976 22.3625 27.7279 22.2294C27.5615 22.2315 27.4423 22.1198 27.3081 22.049C27.176 21.9792 27.0343 21.9416 26.8968 21.89C26.8496 21.8718 26.8077 21.8396 26.7637 21.8127C26.7347 21.7955 26.7089 21.7644 26.6788 21.7612C26.55 21.7451 26.4598 21.671 26.3707 21.5819C26.2977 21.5088 26.2139 21.4498 26.1076 21.4208C26.0335 21.4004 25.9594 21.3456 25.9079 21.2876C25.8359 21.2071 25.7511 21.162 25.6555 21.1169C25.4601 21.0235 25.2647 20.9258 25.095 20.784C25.0059 20.71 24.9103 20.6434 24.818 20.5725C24.745 20.5177 24.6752 20.4684 24.6322 20.3749C24.6 20.3051 24.5087 20.2547 24.4336 20.2139C24.3488 20.1677 24.2532 20.1419 24.163 20.1065C24.1469 20.1001 24.1265 20.0936 24.119 20.0807C24.0384 19.9422 23.9117 19.8735 23.7657 19.8252C23.7217 19.8101 23.6895 19.7618 23.6519 19.7285C23.6315 19.7092 23.6164 19.6759 23.5928 19.6684C23.3952 19.6061 23.2803 19.4375 23.13 19.3151C23.0044 19.2131 22.9185 19.0757 22.8186 18.95C22.7692 18.8888 22.7091 18.8351 22.6608 18.7729C22.4976 18.5624 22.3204 18.3605 22.1829 18.135C22.0799 17.9675 21.9907 17.7925 21.8683 17.6379C21.8189 17.5745 21.7717 17.5101 21.7255 17.4446C21.6589 17.3523 21.5816 17.2749 21.5526 17.1493C21.5247 17.0258 21.4334 16.9152 21.3626 16.8025C21.2896 16.6854 21.2606 16.5458 21.151 16.446C21.1059 16.4052 21.1092 16.315 21.0812 16.2527C21.0243 16.1271 20.9481 16.0122 20.9084 15.8758C20.8536 15.69 20.7763 15.5097 20.7076 15.3282C20.6807 15.2584 20.6517 15.1897 20.6249 15.1199C20.5701 14.9814 20.5164 14.8418 20.4638 14.7022C20.4456 14.6549 20.4262 14.6077 20.4155 14.5583C20.3908 14.4531 20.3801 14.3435 20.3479 14.2404C20.3167 14.1427 20.2426 14.0547 20.2319 13.958C20.2244 13.8893 20.2287 13.8421 20.1438 13.8206C20.175 13.7379 20.1879 13.6606 20.1395 13.579C20.1116 13.5307 20.0751 13.4748 20.1213 13.404C20.1374 13.3793 20.1052 13.3138 20.0816 13.2762C20.0472 13.2236 20.0193 13.1785 20.0096 13.1087C20.0021 13.0507 19.9151 13.0024 19.8528 12.939C19.9001 12.9315 19.9441 12.9251 20.0032 12.9154C19.9613 12.6427 19.9162 12.3839 19.8142 12.1326C19.7508 11.9769 19.7261 11.8051 19.7133 11.629C19.6703 11.6011 19.6273 11.5732 19.5855 11.5463C19.5994 11.5034 19.6263 11.4615 19.6188 11.4282C19.6016 11.3498 19.5833 11.2629 19.5361 11.2006C19.4824 11.1308 19.4835 11.0127 19.3675 10.9923C19.3449 11.0417 19.3192 11.0814 19.2569 11.0395C19.2805 10.9772 19.3117 10.9461 19.3707 10.9966C19.3922 10.9611 19.4137 10.9257 19.4405 10.8817C19.4169 10.7893 19.389 10.6798 19.3535 10.5402C19.4437 10.4028 19.3729 10.2557 19.2558 10.1075C19.3149 10.0334 19.302 9.96144 19.2752 9.87124C19.2354 9.73809 19.1538 9.60924 19.1903 9.45784C19.1946 9.4428 19.1914 9.41381 19.1817 9.40844C19.0786 9.34187 19.1613 9.23127 19.1162 9.14644C19.0744 9.06913 19.0744 8.96927 19.04 8.88551C18.9734 8.72552 19.0497 8.5709 19.0411 8.40446C19.0013 8.39265 18.9584 8.37869 18.909 8.36366C18.9165 8.34433 18.9197 8.3293 18.9272 8.31641C18.9863 8.22729 19.0131 8.14031 18.9262 8.05226C18.9133 8.0383 18.9015 8.0179 18.8993 7.99965C18.8897 7.84824 18.8811 7.69684 18.8746 7.54544C18.8703 7.45739 18.8124 7.41551 18.7426 7.38222C18.7415 7.37793 18.7393 7.37471 18.7372 7.37363C18.6234 7.20827 18.6159 7.16639 18.7587 7.0515C18.8338 6.99029 18.7748 6.92372 18.8113 6.87111C18.7071 6.79165 18.8349 6.67138 18.7597 6.58655C18.8274 6.47273 18.7458 6.34925 18.7962 6.22791C18.7426 6.21503 18.6996 6.20322 18.6448 6.19033C18.6824 6.14631 18.7179 6.10443 18.7447 6.07329C18.735 5.97557 18.7329 5.88538 18.7146 5.79733C18.705 5.74901 18.6695 5.70498 18.6266 5.66847C18.6255 5.65666 18.6191 5.6427 18.6234 5.63411C18.7243 5.42795 18.7157 5.22071 18.6395 5.00917C18.6201 4.95656 18.6255 4.89428 18.6255 4.8363C18.6234 4.66234 18.6277 4.48947 18.6223 4.31551C18.6212 4.26827 18.5912 4.2221 18.5697 4.16196C18.5858 4.12438 18.6685 4.09968 18.604 4.00412C18.5622 3.94184 18.5869 3.83231 18.5912 3.74426C18.5976 3.60038 18.633 3.45327 18.6148 3.31368C18.5954 3.16872 18.6277 2.99584 18.4612 2.88846C18.5063 2.87558 18.531 2.86806 18.5697 2.85732C18.5074 2.71558 18.575 2.53841 18.4301 2.416C18.4151 2.40312 18.458 2.32258 18.4784 2.2603C18.4365 2.25493 18.4011 2.25064 18.3334 2.24312C18.4086 2.19695 18.4591 2.16688 18.516 2.13252C18.473 2.00367 18.4301 1.87589 18.3807 1.72556C18.3549 1.71375 18.3088 1.69335 18.2594 1.6708C18.2594 1.6708 18.2626 1.65899 18.2679 1.65791C18.2969 1.65254 18.3313 1.65791 18.3528 1.64395C18.3753 1.62892 18.4 1.59349 18.3979 1.56986C18.3925 1.52691 18.3581 1.52047 18.3195 1.54302C18.3088 1.54946 18.2883 1.53872 18.2819 1.53765C18.24 1.50544 18.342 1.44208 18.2325 1.42168C18.167 1.40987 18.1702 1.30035 18.2282 1.24666C18.2572 1.21981 18.2959 1.20371 18.3313 1.18116C18.3292 1.09847 18.3635 1.01365 18.2722 0.955662C18.2604 0.948146 18.2647 0.917006 18.2615 0.897678C18.2572 0.865465 18.2594 0.828957 18.2465 0.801038C18.2046 0.706546 18.1423 0.617422 18.1144 0.519709C18.0865 0.420921 18.0908 0.313543 18.079 0.198649C18.0425 0.214756 18.021 0.22442 17.9855 0.239453C17.9641 0.169657 17.9222 0.118116 17.8417 0.106304C17.7783 0.09664 17.7278 0.0450987 17.6484 0.0805334C17.5593 0.120263 17.4648 0.108452 17.4218 0C17.1641 0.0977138 17.0138 0.311396 17.0202 0.574471C17.0277 0.877277 17.031 1.17793 17.0116 1.48074C16.9923 1.77496 17.0138 2.07132 17.0127 2.36661C17.0127 2.45358 16.9955 2.53948 16.9934 2.62646C16.9869 2.86377 16.9869 3.10107 16.9794 3.3373C16.974 3.48978 16.9569 3.64226 16.9504 3.79473C16.9375 4.09968 16.8785 4.39927 16.8806 4.70744C16.8828 4.93616 16.8205 5.16487 16.7894 5.39466C16.7614 5.59653 16.726 5.79518 16.6659 5.99168C16.6412 6.07221 16.6594 6.16456 16.6476 6.25046C16.6197 6.46307 16.5853 6.67568 16.5542 6.88829C16.551 6.91084 16.5456 6.93338 16.5456 6.95593C16.5456 7.03539 16.5596 7.117 16.5456 7.19324C16.5112 7.36826 16.4533 7.53685 16.4694 7.72261C16.4769 7.80851 16.435 7.90838 16.3888 7.98676C16.3244 8.09521 16.319 8.21225 16.3201 8.325C16.3223 8.53009 16.3115 8.72982 16.2557 8.92846C16.2235 9.04443 16.2041 9.16147 16.1977 9.28603C16.1837 9.54052 16.1333 9.79393 16.0893 10.0463C16.0699 10.1547 16.0152 10.2567 16.0023 10.3652C15.969 10.6293 15.9625 10.8967 15.9228 11.1587C15.897 11.3251 15.8509 11.4862 15.8917 11.6559C15.8197 11.7546 15.867 11.8674 15.8541 11.9737C15.8466 12.0295 15.8262 12.0854 15.8079 12.1391C15.7993 12.1659 15.766 12.2003 15.7736 12.2164C15.8498 12.371 15.7242 12.4999 15.7188 12.6448C15.7134 12.7898 15.6597 12.9337 15.6265 13.0775C15.6222 13.0936 15.6146 13.1119 15.6018 13.1226C15.5062 13.2032 15.4729 13.2966 15.5169 13.4201C15.5277 13.4501 15.5073 13.5017 15.4858 13.5328C15.3387 13.7444 15.3226 13.9806 15.3408 14.2254C15.3462 14.2941 15.344 14.3629 15.3365 14.4316C15.3279 14.5186 15.3161 14.6055 15.2957 14.6893C15.2839 14.7376 15.2549 14.7827 15.2313 14.8267C15.1229 15.0297 15.0144 15.2326 14.9049 15.4356C14.8888 15.4656 14.8705 15.4957 14.849 15.5236C14.7137 15.6997 14.5946 15.8844 14.4925 16.0809C14.4517 16.1593 14.3766 16.2216 14.3132 16.2871C14.2327 16.3687 14.1489 16.4481 14.0641 16.5254C14.0265 16.5598 13.9868 16.5974 13.9406 16.6167C13.7388 16.6994 13.5863 16.8508 13.4166 16.9775C13.335 17.0376 13.2437 17.0849 13.1568 17.1375C12.8829 17.3018 12.6134 17.4747 12.3321 17.6239C12.199 17.6948 12.0722 17.7742 11.9423 17.8451C11.8328 17.9052 11.7555 17.9997 11.6438 18.0545C11.53 18.1103 11.4301 18.1941 11.3195 18.2585C11.2154 18.3187 11.0994 18.3605 10.9985 18.426C10.8675 18.5109 10.7247 18.5656 10.584 18.629C10.4895 18.6709 10.4047 18.7353 10.3155 18.789C10.2866 18.8061 10.2565 18.8265 10.2243 18.8373C10.0654 18.891 9.90751 18.9436 9.76685 19.0445C9.68094 19.1057 9.5682 19.1337 9.46404 19.1637C9.34378 19.1981 9.20741 19.1938 9.10003 19.2496C8.9744 19.3151 8.81333 19.2872 8.71239 19.4085C8.69951 19.4236 8.65871 19.4171 8.63079 19.4171C8.48261 19.4182 8.34409 19.4493 8.21416 19.5267C8.17014 19.5535 8.11538 19.5793 8.06706 19.5771C7.89096 19.5664 7.73096 19.6383 7.5613 19.6641C7.44748 19.6813 7.33903 19.7317 7.22521 19.7575C7.12535 19.7801 7.02227 19.7876 6.92133 19.8037C6.8365 19.8166 6.74953 19.8262 6.66685 19.8477C6.50041 19.8917 6.3372 19.9476 6.16002 19.939C6.09238 19.9358 6.02365 19.968 5.95493 19.9776C5.8991 19.9852 5.84219 19.983 5.78528 19.9873C5.65428 19.9948 5.52328 20.0045 5.39227 20.012C5.26557 20.0195 5.13886 20.026 5.01216 20.0324C4.91444 20.0378 4.81565 20.0388 4.71901 20.0507C4.43339 20.085 4.14776 20.1215 3.86321 20.1602C3.80201 20.1688 3.7408 20.1881 3.68174 20.2074C3.61087 20.2311 3.54645 20.2611 3.46484 20.2332C3.42297 20.2192 3.35639 20.2353 3.31773 20.2622C3.25009 20.3094 3.18244 20.3041 3.10728 20.3041C2.91399 20.3041 2.72501 20.3008 2.53387 20.3803C2.39643 20.4372 2.22355 20.4072 2.06893 20.4265C1.90679 20.4458 1.74465 20.4254 1.57821 20.4533C1.40963 20.4812 1.24749 20.5306 1.07998 20.5596C1.05314 20.5639 1.02307 20.551 0.994076 20.55C0.912472 20.5467 0.828716 20.5306 0.751408 20.5457C0.580677 20.5779 0.414238 20.6262 0.244583 20.6649C0.137203 20.6896 0.0953255 20.7626 0.044857 20.8571C-0.0539284 21.0461 0.0416374 21.2017 0.0953255 21.3628C0.111431 21.4111 0.189819 21.4423 0.243507 21.4745C0.349812 21.5368 0.475445 21.5368 0.59034 21.5733C0.703087 21.6087 0.820126 21.6313 0.93502 21.6603C0.984413 21.6721 1.03166 21.6914 1.08105 21.6968C1.19809 21.7086 1.31836 21.6914 1.43003 21.7462C1.45258 21.7569 1.49446 21.7558 1.51379 21.7419C1.64801 21.6484 1.78438 21.7215 1.86599 21.7934C1.97015 21.8857 2.08289 21.8729 2.16557 21.8471C2.30731 21.8009 2.41039 21.8439 2.52206 21.9083C2.5779 21.9405 2.63266 21.9802 2.69387 21.9931C2.79266 22.0146 2.89574 22.0178 3.01493 21.9974C3.04392 22.0339 3.06755 22.079 3.10405 22.1037C3.16741 22.1467 3.2372 22.2122 3.31344 22.1263C3.35532 22.0801 3.3929 22.0887 3.43585 22.1177C3.45088 22.1273 3.46377 22.1402 3.4788 22.1477C3.59584 22.2068 3.71074 22.253 3.8514 22.2594C4.06293 22.2702 4.27232 22.3131 4.46453 22.4216C4.55795 22.4742 4.65888 22.5289 4.77914 22.4892C4.80706 22.4795 4.84465 22.4989 4.87793 22.5075C4.95632 22.53 5.03148 22.5687 5.11094 22.5751C5.22906 22.5858 5.33644 22.602 5.42771 22.6922C5.46207 22.7254 5.53831 22.7415 5.58555 22.7297C5.66286 22.7104 5.71655 22.734 5.78205 22.7662C5.85292 22.8017 5.93775 22.8092 6.01506 22.8328C6.06983 22.8489 6.13747 22.8575 6.17183 22.8951C6.26955 23.0003 6.38444 22.996 6.51437 23.0025C6.62067 23.0078 6.72376 23.0809 6.82684 23.126C6.84724 23.1345 6.8612 23.1668 6.88053 23.1678C7.05019 23.1796 7.1683 23.3021 7.31326 23.3665C7.53876 23.4685 7.74277 23.607 7.94357 23.7509C8.07135 23.8422 8.22383 23.8991 8.34409 23.9968C8.51697 24.1385 8.72635 24.2352 8.86702 24.422C8.94111 24.5208 9.05386 24.5895 9.14405 24.6765C9.2568 24.7849 9.36311 24.8988 9.47371 25.0083C9.59612 25.1296 9.7196 25.2499 9.84308 25.3702C9.85597 25.382 9.86993 25.3949 9.87745 25.4099C9.95583 25.5774 10.0847 25.7052 10.2307 25.8072C10.3982 25.9242 10.4884 26.1196 10.672 26.2163C10.6871 26.2238 10.6989 26.2388 10.7075 26.2539C10.8481 26.4708 11.065 26.6157 11.2326 26.8069C11.3228 26.911 11.4183 27.0109 11.5085 27.114C11.5182 27.1247 11.515 27.1473 11.5182 27.1634C11.5418 27.2879 11.5944 27.3921 11.7125 27.4544C11.777 27.4887 11.8156 27.5338 11.821 27.6186C11.8285 27.7249 11.8919 27.8098 11.9756 27.8828C12.0368 27.9365 12.1131 27.9794 12.0905 28.0965C12.0798 28.1545 12.1399 28.2382 12.1893 28.2919C12.3557 28.4766 12.4202 28.7182 12.5265 28.9319C12.636 29.152 12.7444 29.3775 12.8314 29.6084C12.8636 29.6921 12.8883 29.7791 12.9087 29.8661C12.9978 30.2365 13.2437 30.5425 13.335 30.9119C13.3576 31.0032 13.4177 31.0859 13.4574 31.1739C13.4725 31.2083 13.4767 31.248 13.4864 31.2845C13.4982 31.3285 13.5004 31.3779 13.524 31.4155C13.6206 31.568 13.6196 31.7666 13.7538 31.8998C13.7613 31.9073 13.7667 31.9213 13.7667 31.932C13.7538 32.2069 13.903 32.4335 13.9836 32.6815C14.0394 32.8522 14.091 33.024 14.1489 33.1948C14.1693 33.2549 14.2015 33.3097 14.2262 33.3677C14.2488 33.4203 14.2724 33.4718 14.2875 33.5266C14.3272 33.6726 14.3401 33.8272 14.4346 33.9539C14.4464 33.97 14.4378 33.999 14.4431 34.0216C14.5011 34.2793 14.5903 34.5263 14.6837 34.7722C14.7223 34.8752 14.7406 34.9858 14.7792 35.0889C14.8823 35.3681 14.9328 35.6602 15.0144 35.9447C15.067 36.1294 15.1304 36.3109 15.1841 36.4956C15.2045 36.5654 15.2152 36.6395 15.2281 36.7114C15.242 36.7919 15.2377 36.8789 15.27 36.9509C15.3408 37.1087 15.3365 37.2794 15.3784 37.4405C15.4461 37.7057 15.4772 37.9763 15.5137 38.2469C15.5481 38.5014 15.6297 38.7494 15.6694 39.0039C15.6995 39.1993 15.707 39.4001 15.7016 39.5977C15.6995 39.6761 15.7027 39.7448 15.7306 39.8157C15.8047 40.0057 15.7768 40.2087 15.7789 40.403C15.7811 40.5426 15.8272 40.6726 15.8208 40.8111C15.8176 40.883 15.8423 40.9571 15.8541 41.0301C15.8766 41.1665 15.8981 41.3039 15.9217 41.4403C15.9507 41.6068 15.9722 41.7743 16.0152 41.9375C16.0721 42.1533 16.1472 42.3648 16.2106 42.5796C16.2299 42.6462 16.2482 42.7149 16.2492 42.7836C16.2514 42.9125 16.2396 43.0392 16.3309 43.1508C16.3555 43.182 16.3459 43.241 16.3523 43.2872C16.3813 43.4762 16.4103 43.6641 16.4382 43.8531C16.4425 43.881 16.4382 43.9111 16.4415 43.939C16.45 44.0056 16.4608 44.0711 16.4704 44.1376C16.478 44.1892 16.4973 44.2429 16.4898 44.2923C16.4661 44.4415 16.5682 44.5006 16.6648 44.5736C16.7561 44.6434 16.8634 44.6552 16.9655 44.6799C17.0213 44.6928 17.0954 44.6799 17.1458 44.6509C17.2232 44.6058 17.352 44.5972 17.3262 44.4501C17.323 44.4329 17.3756 44.4072 17.395 44.3921C17.3907 44.3438 17.3692 44.2912 17.3874 44.2676C17.4658 44.1602 17.483 44.0453 17.4712 43.9164C17.4615 43.8155 17.4766 43.7124 17.4712 43.6115C17.4691 43.5739 17.439 43.5374 17.4154 43.4869C17.4755 43.3731 17.5227 43.2421 17.4905 43.0918C17.4819 43.0499 17.498 42.9984 17.5142 42.9554C17.5421 42.8803 17.5195 42.8309 17.4336 42.7965C17.5002 42.7331 17.5474 42.6741 17.5163 42.5817C17.5013 42.5356 17.5034 42.4733 17.5217 42.4282C17.6054 42.2253 17.5689 42.0191 17.5485 41.8129C17.5442 41.7743 17.555 41.7324 17.5646 41.6927C17.6151 41.4972 17.5968 41.3201 17.4358 41.1568C17.4798 41.1633 17.5238 41.1697 17.5614 41.1762C17.657 41.0248 17.629 40.8734 17.5335 40.7037C17.5861 40.7187 17.6129 40.7273 17.657 40.7402C17.6205 40.6371 17.6978 40.5383 17.6376 40.4385C17.6301 40.4256 17.6409 40.3869 17.6548 40.3762C17.7966 40.2699 17.7042 40.1679 17.6516 40.0659C17.6495 40.0627 17.6409 40.0637 17.6355 40.0627C17.6484 40.0261 17.6666 39.9907 17.6741 39.9531C17.6827 39.9134 17.585 39.8951 17.6484 39.8415C17.6559 39.835 17.6709 39.8393 17.6817 39.8372C17.6495 39.8125 17.6183 39.7878 17.5775 39.7545C17.6978 39.7126 17.6731 39.7878 17.6795 39.8361H17.6731ZM18.8295 9.87446C18.8714 9.91205 18.9326 9.93245 18.9648 10.0151C18.8714 9.98828 18.7909 9.98614 18.8295 9.87339C18.7801 9.88914 18.7515 9.8784 18.7436 9.84118C18.7726 9.85191 18.8005 9.86265 18.8285 9.87339L18.8295 9.87446ZM18.4591 6.31059C18.3925 6.29986 18.3388 6.42227 18.2626 6.331C18.3227 6.24617 18.3871 6.25261 18.4548 6.31596C18.4934 6.30308 18.531 6.29019 18.5697 6.27731C18.5697 6.3224 18.5557 6.35677 18.5353 6.36213C18.502 6.37073 18.4494 6.37932 18.4602 6.31059H18.4591ZM18.924 10.8129C18.9434 10.8473 18.9627 10.8817 18.9831 10.916C18.8843 10.9042 18.909 10.858 18.9337 10.8129C18.8821 10.8795 18.8424 10.8516 18.7941 10.8011C18.8678 10.7782 18.9287 10.7911 18.9766 10.8398C18.9595 10.8312 18.9423 10.8226 18.9251 10.8129H18.924ZM18.3904 6.16456C18.3657 6.13986 18.3281 6.11946 18.3281 6.09906C18.3281 6.0153 18.3882 5.98631 18.458 5.97128C18.4365 6.03249 18.4161 6.09047 18.3904 6.16456ZM18.5944 8.19937C18.5632 8.25198 18.5418 8.29386 18.4537 8.3003C18.4795 8.23266 18.4891 8.17897 18.5944 8.19937ZM18.5353 6.45878C18.4741 6.52964 18.4333 6.57689 18.3925 6.62414C18.3721 6.52857 18.3947 6.46844 18.5353 6.45878ZM18.5235 7.5347C18.5933 7.42518 18.6695 7.46813 18.735 7.46276C18.7372 7.47457 18.7393 7.48531 18.7415 7.49712C18.6771 7.50893 18.6126 7.51967 18.5235 7.53577V7.5347ZM18.5514 7.27163C18.5407 7.28344 18.531 7.29417 18.5203 7.30599C18.4859 7.27807 18.4526 7.25122 18.4075 7.21472C18.5332 7.13633 18.5267 7.2276 18.5514 7.2727V7.27163ZM18.6567 6.6134C18.6058 6.54682 18.6191 6.50495 18.6964 6.48777C18.6835 6.52964 18.6706 6.56937 18.6567 6.6134ZM18.501 7.7151C18.4977 7.75912 18.4934 7.80314 18.4891 7.86113C18.3947 7.80637 18.4365 7.76127 18.501 7.7151ZM17.4916 41.4983C17.498 41.5724 17.5013 41.6175 17.5066 41.6798C17.4368 41.6239 17.4379 41.5788 17.4916 41.4983ZM18.6685 8.94135C18.6717 8.95316 18.676 8.9639 18.6792 8.97571C18.6373 8.98967 18.5954 9.00255 18.5525 9.01651C18.5493 9.0047 18.545 8.99289 18.5418 8.98108C18.5836 8.96819 18.6266 8.95424 18.6685 8.94135ZM20.3264 15.7513C20.3446 15.7448 20.364 15.7394 20.3822 15.733C20.394 15.7792 20.4048 15.8253 20.4166 15.8715C20.4026 15.8758 20.3897 15.8801 20.3758 15.8844C20.3597 15.8393 20.3425 15.7953 20.3264 15.7502V15.7513ZM17.3971 41.3555C17.4111 41.349 17.425 41.3426 17.4401 41.3372C17.4519 41.3641 17.4648 41.3899 17.4734 41.4178C17.4734 41.421 17.4487 41.4317 17.4358 41.4392C17.4229 41.4113 17.4111 41.3834 17.3982 41.3555H17.3971ZM18.4172 6.68642C18.4301 6.6993 18.444 6.71326 18.4569 6.72615C18.4269 6.74977 18.3957 6.77232 18.3657 6.79594C18.3571 6.78628 18.3485 6.77769 18.3399 6.76802C18.3657 6.7401 18.3914 6.71326 18.4172 6.68534V6.68642ZM18.8864 10.4693C18.8768 10.4586 18.866 10.4479 18.8564 10.4371C18.8768 10.4178 18.8972 10.3985 18.9176 10.3781C18.9272 10.3888 18.9476 10.4092 18.9466 10.4103C18.9283 10.4318 18.9068 10.45 18.8864 10.4693ZM19.0411 10.5037L19.0142 10.465C19.0486 10.4457 19.0819 10.4264 19.1152 10.4071L19.1345 10.4393C19.1033 10.4607 19.0711 10.4811 19.04 10.5026L19.0411 10.5037ZM18.313 5.42365C18.2454 5.36459 18.2658 5.33453 18.3399 5.29909C18.3281 5.356 18.3206 5.38929 18.313 5.42365ZM18.3066 3.26214C18.312 3.27073 18.3163 3.28039 18.3216 3.28898C18.2959 3.30509 18.2701 3.32012 18.2454 3.33623C18.24 3.32656 18.2336 3.31583 18.2282 3.30616C18.2551 3.29113 18.2808 3.27717 18.3077 3.26214H18.3066ZM18.4655 8.85115C18.4398 8.88551 18.4322 8.90377 18.4204 8.90806C18.4054 8.91236 18.3871 8.90484 18.37 8.90269C18.37 8.89518 18.37 8.88659 18.37 8.87907C18.3936 8.87263 18.4183 8.86511 18.4655 8.85223V8.85115ZM18.6384 6.95593C18.6599 6.97848 18.6738 6.99137 18.6835 7.00748C18.6846 7.00962 18.6631 7.03539 18.6534 7.03432C18.6395 7.03217 18.6234 7.01929 18.6169 7.0064C18.6126 6.99781 18.6266 6.9817 18.6373 6.95593H18.6384ZM18.4945 5.80807C18.4451 5.81236 18.4279 5.8188 18.4161 5.81343C18.4022 5.80807 18.3925 5.79196 18.3807 5.78015C18.3861 5.7737 18.3914 5.76619 18.3968 5.75975C18.4204 5.77156 18.444 5.78337 18.4956 5.80914L18.4945 5.80807ZM18.7103 9.78319C18.7028 9.77675 18.6942 9.77138 18.6867 9.76494C18.6899 9.7542 18.6899 9.73809 18.6964 9.73487C18.7114 9.72843 18.7297 9.72736 18.7469 9.72521C18.735 9.74454 18.7222 9.76386 18.7103 9.78319ZM18.5697 9.17651C18.5761 9.1647 18.5836 9.14752 18.5858 9.14859C18.5997 9.15288 18.6148 9.15933 18.6244 9.16899C18.6277 9.17329 18.6148 9.19047 18.6094 9.20228C18.5965 9.19369 18.5826 9.1851 18.5697 9.17651ZM18.429 7.10626C18.4011 7.12774 18.3861 7.14599 18.3796 7.14277C18.3657 7.1374 18.3496 7.1213 18.3485 7.10841C18.3474 7.09875 18.3667 7.0762 18.3764 7.0762C18.3914 7.0762 18.4054 7.09123 18.4301 7.10626H18.429Z" fill="#2C2C2C"/>
<path d="M18.7417 7.37469C18.7417 7.37469 18.746 7.37899 18.7471 7.38329C18.7825 7.3661 18.818 7.34892 18.8405 7.33819C18.8459 7.26195 18.8502 7.19967 18.8545 7.13632C18.7696 7.10518 18.7074 7.13632 18.7041 7.22651C18.7031 7.27483 18.7278 7.32423 18.7407 7.37362L18.7417 7.37469Z" fill="#2C2C2C"/>
</g>
<g clip-path="url(#clip1_79_55)">
<path d="M26.3148 55.4591C26.2726 55.2642 26.3229 55.1555 26.5356 55.0905C26.659 55.0532 26.7093 54.9818 26.7418 54.8844C26.7743 54.7918 26.7856 54.6912 26.8051 54.597C26.8895 54.6132 26.9642 54.6279 27.0259 54.6392C27.0697 54.5288 27.1087 54.4314 27.1298 54.3778C27.2483 54.3681 27.3149 54.3665 27.3814 54.3551C27.4464 54.3454 27.5097 54.3129 27.5746 54.3145C27.7418 54.3194 27.8879 54.1457 28.0649 54.261C28.1493 54.1538 28.2451 54.196 28.3425 54.2366C28.3652 54.2464 28.3977 54.2464 28.4204 54.2366C28.6315 54.1408 28.8441 54.2415 29.0568 54.2317C29.3328 54.2204 29.612 54.2545 29.888 54.2009C30.013 54.1765 30.1445 54.1765 30.2711 54.1619C30.4237 54.1457 30.5779 54.1343 30.7289 54.1035C30.8848 54.0726 31.0341 53.9882 31.1884 53.985C31.5065 53.9769 31.7923 53.847 32.0958 53.7902C32.1413 53.7821 32.1916 53.795 32.2387 53.7902C32.4871 53.7593 32.7355 53.7269 32.9839 53.6928C32.992 53.6928 32.9969 53.6814 33.005 53.6765C33.3021 53.4801 33.6608 53.4785 33.9888 53.3729C34.2193 53.2999 34.4839 53.3389 34.7144 53.2626C34.9644 53.1814 35.1933 53.0304 35.4742 53.0921C35.5927 52.9882 35.7404 53.0337 35.8736 53.0174C36.07 52.9947 36.2616 52.9444 36.4239 52.8388C36.5181 52.7788 36.6057 52.7496 36.7129 52.7398C36.9207 52.7203 37.1301 52.709 37.3103 52.5807C37.3574 52.5466 37.4256 52.5304 37.484 52.5288C37.6999 52.5223 37.9061 52.4638 38.1074 52.3989C38.3217 52.3307 38.5214 52.2236 38.7324 52.1456C38.924 52.0742 39.1204 52.019 39.3152 51.9557C39.5084 51.894 39.7454 51.8794 39.8867 51.7576C40.075 51.5953 40.2958 51.5628 40.502 51.4881C40.6757 51.4265 40.8559 51.3956 41.0198 51.2933C41.2487 51.1505 41.489 51.0222 41.7309 50.9053C41.8429 50.8501 41.9906 50.8615 42.0913 50.7949C42.3413 50.6294 42.627 50.5173 42.8511 50.3112C42.8884 50.2771 42.9257 50.2251 42.9679 50.2186C43.1335 50.1943 43.2504 50.105 43.3722 49.993C43.5313 49.8452 43.7245 49.7348 43.8917 49.5952C44.0443 49.4686 44.1823 49.3241 44.3251 49.1861C44.356 49.1569 44.3917 49.1293 44.416 49.0952C44.5946 48.8338 44.7878 48.592 45.1109 48.4929C45.1774 48.4718 45.2261 48.3971 45.2878 48.3419C45.2456 48.3095 45.2148 48.2851 45.1791 48.2591C45.4437 48.1861 45.4404 48.1828 45.5735 47.9345C45.6255 47.8371 45.7002 47.7494 45.7651 47.6585C45.7732 47.6487 45.7943 47.6471 45.8089 47.6423C45.8268 47.6763 45.8463 47.7104 45.8641 47.7429C46.0427 47.6877 45.8593 47.5789 45.9128 47.501C46.0508 47.4215 46.1531 47.3159 46.1986 47.139C46.2424 46.9669 46.3236 46.7948 46.494 46.6893C46.5395 46.6601 46.5638 46.5968 46.5947 46.5481C46.6353 46.4831 46.6645 46.4117 46.7099 46.3516C46.9194 46.061 47.2002 45.8094 47.2262 45.4165C47.2262 45.3938 47.2522 45.3727 47.2652 45.35C47.382 45.1487 47.5038 44.9506 47.6109 44.7461C47.7132 44.5512 47.8058 44.3499 47.8902 44.147C48.0071 43.8629 48.2392 43.6259 48.2295 43.2963C48.2798 43.2898 48.3188 43.2833 48.3382 43.2801C48.3593 43.1892 48.3707 43.1145 48.3951 43.0447C48.4746 42.8288 48.4649 42.5772 48.6467 42.3986C48.6597 42.3856 48.6402 42.3466 48.6467 42.3223C48.7084 42.0723 48.7409 41.8109 48.8399 41.5755C49.0623 41.0511 49.1613 40.4911 49.3448 39.9553C49.4746 39.5771 49.4876 39.1615 49.7003 38.8092C49.7165 38.7816 49.7165 38.7426 49.7214 38.7085C49.7506 38.5235 49.7717 38.3351 49.8123 38.1517C49.861 37.926 49.9324 37.7036 49.9844 37.478C50.0428 37.2247 50.0915 36.9682 50.1451 36.7117C50.2652 36.1386 50.4649 35.5851 50.5234 34.9974C50.5445 34.7847 50.6321 34.5802 50.6695 34.3675C50.7523 33.8902 50.827 33.4129 50.8968 32.9324C50.9682 32.4453 51.0396 31.9583 51.0883 31.468C51.1338 31.0102 51.137 30.5459 51.1841 30.0881C51.2377 29.5621 51.3107 29.0361 51.3935 28.5134C51.5656 27.4225 51.7523 26.3331 51.9309 25.2438C51.9504 25.1253 51.9228 24.976 51.9861 24.8932C52.0932 24.7519 52.1062 24.5912 52.1598 24.4386C52.1793 24.385 52.2523 24.3168 52.301 24.3152C52.5559 24.312 52.8092 24.1772 53.1062 24.3363C53.1874 24.4094 53.2069 24.6545 53.4585 24.5896C53.4618 24.6448 53.4666 24.7 53.4699 24.7584C53.5137 24.7438 53.5446 24.7324 53.6095 24.7097C53.5981 24.8055 53.59 24.8786 53.5835 24.9532C53.5819 24.9808 53.5803 25.0328 53.59 25.0344C53.6939 25.062 53.6517 25.1464 53.6598 25.2097C53.6793 25.3542 53.6956 25.5003 53.7118 25.6448C53.7183 25.7049 53.7199 25.7649 53.7183 25.825C53.7118 25.9971 53.6598 26.1805 53.7069 26.3348C53.7459 26.463 53.6939 26.5685 53.7118 26.6838C53.7361 26.8526 53.7524 27.0231 53.7686 27.1936C53.7865 27.3803 53.7994 27.5669 53.8141 27.7601C53.793 27.7601 53.741 27.765 53.6891 27.7683C53.6891 27.7796 53.6858 27.791 53.6842 27.804C53.7329 27.817 53.78 27.8316 53.8287 27.8446C53.8124 27.9111 53.7783 27.9679 53.7897 28.0166C53.8352 28.2212 53.892 28.4225 53.9456 28.6238C53.9699 28.7163 53.9098 28.7423 53.8449 28.765C53.8628 28.7813 53.879 28.7975 53.8985 28.8121C54.0511 28.9241 54.0478 28.9534 53.9034 29.0719C53.8563 29.1108 53.8368 29.1839 53.8173 29.2196C53.8904 29.2228 53.9748 29.205 53.9894 29.2293C54.0365 29.3089 54.0722 29.4014 54.0835 29.4923C54.1128 29.705 54.1371 29.9193 54.1371 30.1336C54.1371 30.2213 54.0706 30.3073 54.0462 30.3657C54.0998 30.4161 54.181 30.4583 54.2037 30.5216C54.2459 30.6401 54.267 30.7716 54.2751 30.8982C54.2897 31.1304 54.3043 31.3576 54.3547 31.5898C54.444 31.9989 54.5608 32.4113 54.4504 32.835C54.504 32.8739 54.5527 32.908 54.6339 32.9681C54.556 33.0233 54.491 33.0687 54.4261 33.1142C54.4943 33.1824 54.5608 33.2181 54.5706 33.2636C54.6241 33.5168 54.7005 33.7733 54.6956 34.0266C54.6923 34.2344 54.7248 34.4259 54.7686 34.6224C54.7849 34.697 54.7979 34.7798 54.7832 34.8529C54.7134 35.2019 54.8709 35.5266 54.8904 35.8659C54.8969 35.9909 55.03 36.0981 54.944 36.2555C54.9196 36.301 55.0073 36.3968 55.0105 36.4698C55.0154 36.6452 55.004 36.8221 54.9894 36.9974C54.9862 37.0299 54.9423 37.0575 54.918 37.0883C54.8953 37.1955 54.8742 37.301 54.8482 37.4228C54.9294 37.4617 55.0105 37.5007 55.0885 37.5364C55.0771 37.6517 55.0333 37.7669 55.0657 37.8497C55.1339 38.0234 55.0462 38.2118 55.1339 38.3806C55.1453 38.4033 55.0852 38.4618 55.0722 38.4812C54.9602 38.4894 54.8742 38.4942 54.7897 38.5007C54.7784 38.5218 54.767 38.5446 54.7605 38.5575C54.8466 38.6046 54.9586 38.629 55.0057 38.6988C55.1177 38.8628 55.2199 39.043 55.2346 39.2508C55.2459 39.3985 55.2297 39.5495 55.3726 39.6517C55.3888 39.6631 55.3969 39.7021 55.3904 39.7232C55.3352 39.9034 55.4164 40.069 55.4342 40.241C55.4748 40.6079 55.5203 40.9732 55.5917 41.3352C55.6031 41.3953 55.6031 41.457 55.6096 41.5171C55.6242 41.6567 55.6079 41.8109 55.6664 41.9294C55.7394 42.0771 55.7037 42.22 55.72 42.3629C55.72 42.371 55.7605 42.7801 55.7605 42.7931C55.7768 42.9424 55.793 43.0918 55.8109 43.2411C55.8125 43.2557 55.8255 43.2704 55.8336 43.285C55.8596 43.2882 55.8839 43.2931 55.8856 43.2931C55.8985 43.4928 55.8726 43.7022 55.9359 43.8791C56.0073 44.0772 55.8904 44.3223 56.1161 44.4652C56.0593 44.5123 56.0203 44.5431 55.9911 44.5675C56.0349 44.6146 56.0836 44.6503 56.108 44.699C56.1924 44.8776 56.2833 45.0545 56.3434 45.2412C56.3953 45.4052 56.4846 45.587 56.3385 45.7217C56.3856 45.8354 56.4262 45.9377 56.4732 46.0513C56.3742 46.074 56.3141 46.087 56.2541 46.1C56.2898 46.1519 56.3287 46.1568 56.3645 46.1682C56.5008 46.2104 56.6875 46.4198 56.6664 46.5529C56.6356 46.7526 56.7297 46.889 56.8369 47.0286C56.9229 47.1422 56.9457 47.2591 56.8612 47.3582C56.9148 47.415 56.97 47.4507 56.9911 47.501C57.1291 47.8322 57.259 48.165 57.3921 48.4978C57.4018 48.5221 57.4018 48.553 57.4164 48.5709C57.5707 48.7429 57.6648 48.9442 57.7298 49.1634C57.7817 49.3371 57.8824 49.4767 58.0155 49.6082C58.1616 49.7527 58.246 49.9573 58.3808 50.1164C58.6892 50.4768 59.009 50.8274 59.3288 51.1781C59.3743 51.2284 59.4392 51.2609 59.4977 51.2982C59.7477 51.4573 59.9944 51.6229 60.2509 51.7706C60.4393 51.8794 60.6406 51.9654 60.8354 52.0612C60.9052 52.0953 60.9766 52.1278 61.0432 52.1651C61.2039 52.2544 61.3533 52.3908 61.5237 52.4265C61.6877 52.4606 61.8257 52.5953 62.014 52.5515C62.0676 52.5385 62.1406 52.6018 62.2039 52.6327C62.251 52.6554 62.2997 52.7025 62.3435 52.6976C62.6293 52.6651 62.8582 52.834 63.1131 52.907C63.3955 52.9882 63.6715 53.0937 63.9507 53.1863C64.0741 53.2268 64.204 53.2561 64.3241 53.3048C64.5611 53.4038 64.8014 53.4931 65.0498 53.5613C65.4021 53.6587 65.7511 53.7756 66.0904 53.9087C66.5417 54.0856 66.9947 54.2528 67.4606 54.3876C68.248 54.6132 69.0304 54.8568 69.8194 55.0792C70.1701 55.1782 70.5289 55.2415 70.8828 55.3259C71.1377 55.3876 71.399 55.4347 71.6393 55.5337C71.8292 55.6117 72.0176 55.6474 72.2156 55.6733C72.438 55.7026 72.6572 55.7578 72.878 55.8032L73.2611 55.9201C73.4721 55.9412 73.7108 55.9104 73.8877 55.9997C74.0225 56.0678 74.1475 56.0824 74.2709 56.076C74.4332 56.0678 74.5842 56.0857 74.7303 56.1425C74.9202 56.2156 75.1102 56.2286 75.3099 56.2091C75.3829 56.2026 75.4608 56.2367 75.5355 56.261C75.6816 56.3097 75.8294 56.412 75.9722 56.4071C76.2027 56.399 76.3976 56.4786 76.6005 56.5532C76.6492 56.5711 76.6979 56.5938 76.7482 56.6019C77.1476 56.6669 77.4966 56.8487 77.8359 57.0695C77.8278 57.2351 77.7823 57.4039 77.9463 57.5224C77.969 57.5387 77.956 57.6068 77.9625 57.6491C77.9723 57.7156 77.9853 57.7806 77.995 57.8439C77.9496 57.9169 77.8992 57.9867 77.8603 58.063C77.7482 58.2724 77.6573 58.4965 77.3911 58.5679C77.3456 58.5793 77.3148 58.6361 77.2726 58.6669C77.2109 58.714 77.146 58.7546 77.0826 58.8001C76.9658 58.8829 76.8505 58.9673 76.7044 59.0712C76.5518 59.0809 76.3489 59.1231 76.1524 59.102C75.8456 59.0696 75.5453 59.1036 75.2449 59.1345C74.8732 59.1718 74.503 59.2384 74.1361 59.3082C73.6588 59.3991 73.1848 59.5046 72.7091 59.6037C72.3439 59.68 71.9786 59.7595 71.6117 59.8342C71.339 59.891 71.0646 59.943 70.7919 59.9949C70.6035 60.0322 70.4152 60.0728 70.2253 60.1021C69.6068 60.1962 68.9866 60.2855 68.3665 60.3748C68.3243 60.3813 68.2642 60.3959 68.2398 60.3748C68.1294 60.2823 68.0239 60.3634 67.9184 60.3715C67.8324 60.378 67.7496 60.4121 67.6635 60.4202C67.4541 60.4413 67.2447 60.4754 67.0369 60.4641C66.8648 60.4543 66.7106 60.5306 66.5417 60.5209C66.4492 60.5144 66.355 60.516 66.2625 60.5274C66.1537 60.542 66.0498 60.5826 65.9411 60.594C65.5953 60.6329 65.2495 60.6573 64.9037 60.7027C64.5336 60.7514 64.165 60.818 63.7965 60.8781C63.2997 60.9592 62.7997 61.0274 62.3078 61.1313C62.1991 61.154 62.0611 61.1232 61.9945 61.1816C61.8614 61.2969 61.7055 61.292 61.5578 61.3342C61.4068 61.3764 61.2477 61.3943 61.0984 61.4446C60.5708 61.62 60.0464 61.8018 59.5237 61.9852C59.3987 62.0291 59.2379 62.0096 59.1746 62.1752C59.1665 62.1946 59.1146 62.1963 59.0821 62.2076C59.0025 62.2336 58.9149 62.2482 58.8434 62.2888C58.384 62.5551 57.9262 62.8245 57.4716 63.0989C57.3677 63.1622 57.2671 63.2369 57.1827 63.3229C57.0609 63.4463 56.9668 63.5973 56.8385 63.7126C56.7119 63.8262 56.6356 64.0064 56.4408 64.0372C56.4326 64.0372 56.4213 64.0713 56.4262 64.0795C56.4943 64.185 56.4099 64.1882 56.3434 64.2126C56.28 64.2353 56.22 64.2694 56.1891 64.284C56.1096 64.4837 56.0414 64.6558 55.9732 64.8262C55.806 64.8441 55.6794 64.9529 55.6989 65.1266C55.7167 65.2808 55.7508 65.4058 55.556 65.4496C55.4911 65.6461 55.2557 65.7402 55.2459 65.9691C55.2459 65.9918 55.2297 66.0324 55.2151 66.0357C55.0787 66.0698 55.1177 66.1802 55.1031 66.2695C55.1014 66.2857 55.0885 66.3003 55.0852 66.3052C55.0122 66.3458 54.9472 66.3815 54.8644 66.4269C54.991 66.5292 54.9537 66.6461 54.9131 66.7402C54.8742 66.8328 54.7281 66.8815 54.8108 67.0195C54.6956 67.0844 54.7329 67.2159 54.6842 67.3084C54.6404 67.3912 54.5901 67.4708 54.5284 67.5747C54.5641 67.8361 54.556 67.8555 54.4618 68.1526C54.4164 68.2971 54.3952 68.4497 54.3628 68.5975C54.3157 68.5975 54.2475 68.5975 54.1517 68.5975C54.2297 68.6786 54.2832 68.7322 54.3498 68.802C54.2784 68.8475 54.2232 68.8815 54.1631 68.9189C54.1631 68.9854 54.1663 69.0553 54.168 69.1251C54.1745 69.3686 53.9228 69.5683 54.0495 69.8313C54.0511 69.8361 54.0446 69.8507 54.0381 69.854C53.8741 69.94 53.9374 70.1024 53.9309 70.2274C53.9196 70.4238 53.7702 70.6154 53.9131 70.8021C53.793 70.9969 53.6176 71.156 53.7215 71.4044C53.7296 71.4238 53.7199 71.4579 53.7053 71.4774C53.5267 71.7355 53.655 72.0732 53.478 72.3313C53.5624 72.4985 53.4326 72.6057 53.3481 72.7291C53.4537 72.8508 53.478 72.9726 53.4163 73.1203C53.3124 73.3687 53.2832 73.6382 53.2507 73.9044C53.2361 74.0229 53.2231 74.1431 53.2037 74.2616C53.1809 74.398 53.1225 74.5376 53.1371 74.6707C53.1517 74.8136 53.0835 74.9012 53.0299 75.0035C52.9731 74.9954 52.9277 74.9889 52.8676 74.9791C53.0072 75.174 53.0527 75.3688 53.0137 75.5847C52.9747 75.7941 52.978 75.7941 52.7231 75.7957C52.6906 75.8785 52.616 75.9776 52.6273 76.0652C52.6387 76.1448 52.741 76.2129 52.8092 76.2892C52.8027 76.3331 52.7962 76.3915 52.7848 76.4483C52.7718 76.5198 52.7686 76.5993 52.7345 76.661C52.6712 76.7763 52.5868 76.8818 52.5088 76.9971C52.6176 77.0539 52.7296 77.1058 52.663 77.2162C52.5949 77.3282 52.6338 77.437 52.6419 77.5377C52.6517 77.6708 52.6793 77.7958 52.6143 77.9208C52.5997 77.95 52.5916 77.9955 52.6046 78.0214C52.6809 78.1692 52.6225 78.3137 52.59 78.4533C52.5348 78.6952 52.4796 78.9354 52.5007 79.1871C52.5153 79.3624 52.4926 79.5329 52.3919 79.6855C52.3741 79.7131 52.3741 79.752 52.3676 79.7861C52.3108 80.1611 52.2556 80.5361 52.1971 80.9111C52.1776 81.0329 52.1354 81.153 52.1387 81.2748C52.1387 81.3689 52.1241 81.4306 52.0705 81.5102C52.0137 81.5962 51.9634 81.7472 52.0023 81.8203C52.1273 82.054 51.9698 82.2424 51.9455 82.4485C51.9325 82.567 51.8611 82.6076 51.7572 82.5687C51.8189 82.8106 51.8773 83.0362 51.939 83.2781C51.8952 83.3463 51.8448 83.4258 51.8043 83.4908C51.8237 83.533 51.8497 83.5638 51.8481 83.5914C51.8384 83.744 51.8448 83.9047 51.801 84.0492C51.7393 84.2554 51.7247 84.4486 51.7945 84.6515C51.8108 84.697 51.7945 84.7522 51.7929 84.8041C51.7832 84.8122 51.7718 84.8204 51.7621 84.8285C51.7458 84.8009 51.7312 84.7733 51.6939 84.71C51.6841 84.796 51.6565 84.8577 51.676 84.8837C51.7669 85.0087 51.7247 85.1256 51.689 85.2522C51.6663 85.3285 51.6744 85.4145 51.6744 85.4973C51.6744 85.5395 51.6971 85.5801 51.6971 85.6223C51.7004 85.7847 51.6971 85.947 51.6987 86.111C51.7004 86.309 51.6663 86.5185 51.7166 86.7019C51.7815 86.9308 51.5705 87.1532 51.7296 87.3724C51.7426 87.3902 51.6971 87.4438 51.6874 87.4828C51.6744 87.5282 51.65 87.5883 51.6679 87.6224C51.7361 87.7523 51.7036 87.8529 51.5867 87.939C51.6452 87.9649 51.6825 87.9812 51.7458 88.0104C51.6793 88.0948 51.6192 88.1711 51.5705 88.2344C51.6159 88.2588 51.6695 88.2718 51.689 88.3042C51.7166 88.3497 51.5137 88.6825 51.4585 88.6971C51.4503 88.6987 51.4422 88.6971 51.4357 88.6971C51.4098 88.6565 51.3854 88.6176 51.3562 88.5721C51.2945 88.6451 51.2572 88.7182 51.1987 88.7539C51.1273 88.7978 51.038 88.8107 50.9438 88.84C50.8903 88.7961 50.8302 88.749 50.7685 88.7003C50.7198 88.7393 50.6808 88.7718 50.6386 88.8043C50.4308 88.6695 50.2652 88.5007 50.1159 88.3042C50.0185 88.176 49.8756 88.0802 49.7506 87.9714C49.7279 87.952 49.6841 87.9292 49.6662 87.939C49.5298 88.0104 49.4763 87.9195 49.4243 87.8253C49.3188 87.637 49.137 87.4747 49.2035 87.223C49.2068 87.2084 49.1987 87.1889 49.1905 87.1743C49.1337 87.0607 49.0769 86.9487 49.0217 86.8383C49.0737 86.7847 49.1077 86.7474 49.1386 86.7165C49.0801 86.6629 48.9876 86.6191 48.9779 86.5623C48.9227 86.2279 48.874 85.8918 48.8496 85.5541C48.8236 85.1937 48.9422 84.8333 48.861 84.4697C48.8529 84.4324 48.8821 84.3869 48.8918 84.3463C48.9032 84.2976 48.9227 84.2457 48.9178 84.1986C48.8561 83.7083 48.9487 83.2262 48.9925 82.7424C49.0314 82.3105 49.1207 81.8803 48.9925 81.4485C48.9762 81.3949 48.9844 81.3251 49.0055 81.2715C49.0444 81.1693 49.0363 81.0751 49.0233 80.968C48.9892 80.6757 48.9568 80.3819 48.9064 80.0913C48.8788 79.9306 48.986 79.7423 48.809 79.6092C48.7993 79.601 48.8188 79.5605 48.8155 79.5345C48.7977 79.3559 48.7977 79.1708 48.7506 78.9987C48.7181 78.8802 48.7003 78.7845 48.7652 78.6789C48.7733 78.6676 48.7652 78.6448 48.762 78.6043C48.723 78.5831 48.671 78.5539 48.6581 78.5474C48.6483 78.4078 48.6516 78.3153 48.6337 78.226C48.6191 78.1513 48.5655 78.0815 48.5542 78.0068C48.5022 77.674 48.5704 77.3201 48.3934 77.0068C48.3902 77.0003 48.3967 76.9889 48.3967 76.9808C48.3967 76.7876 48.3447 76.6042 48.374 76.398C48.4064 76.1675 48.2668 75.924 48.1889 75.6967C48.1304 75.5246 48.0347 75.3817 48.0298 75.1788C48.0249 74.9824 47.9178 74.7876 47.848 74.5944C47.8285 74.5392 47.7473 74.4856 47.7554 74.4434C47.8074 74.1983 47.6483 74.0035 47.6142 73.7794C47.5963 73.6658 47.4697 73.5716 47.5622 73.4369C47.572 73.4223 47.5444 73.3719 47.5233 73.3508C47.3967 73.2275 47.3642 73.0684 47.3333 72.9044C47.3139 72.8021 47.3106 72.6739 47.2489 72.6057C47.0379 72.3768 47.0087 72.0976 46.9746 71.8135C46.9697 71.7794 46.9307 71.7501 46.9145 71.7144C46.8349 71.5277 46.757 71.341 46.6872 71.1527C46.6401 71.0277 46.6158 70.8897 46.5817 70.7599C46.5557 70.6576 46.4177 70.6219 46.4567 70.5374C46.5297 70.3848 46.2992 70.3491 46.3479 70.2647C46.4275 70.1267 46.3154 70.0553 46.2911 69.9546C46.2765 69.8946 46.2684 69.828 46.1758 69.8572C46.171 69.8588 46.1434 69.8264 46.145 69.8118C46.1661 69.5699 45.843 69.4335 45.9518 69.1656C45.9534 69.1608 45.9421 69.1527 45.9372 69.1445C45.9047 69.1364 45.8706 69.1283 45.8365 69.1186C45.8398 69.0439 45.843 68.9692 45.8447 68.9514C45.7619 68.8751 45.7002 68.841 45.6726 68.7874C45.6222 68.69 45.6206 68.5552 45.5508 68.4822C45.3755 68.3004 45.3511 68.0633 45.2667 67.8474C45.244 67.7874 45.2342 67.7224 45.2148 67.6624C45.1774 67.5438 45.1385 67.4253 45.0914 67.2825C44.8803 67.2516 44.9209 67.0698 44.9355 66.9237C44.8089 66.7614 44.6709 66.625 44.5849 66.461C44.5053 66.3117 44.4826 66.1331 44.429 65.9691C44.4144 65.9204 44.3868 65.8766 44.3576 65.8328C44.3073 65.7548 44.2407 65.685 44.2001 65.6022C43.9793 65.1558 43.7667 64.7061 43.5475 64.2597C43.5215 64.2061 43.4728 64.1655 43.4355 64.1184C43.4046 64.0778 43.3624 64.0405 43.3462 63.9934C43.2196 63.6363 43.0426 63.3099 42.804 63.0129C42.6936 62.8765 42.666 62.6801 42.4955 62.5843C42.5118 62.4203 42.3754 62.3505 42.2894 62.2466C42.1432 62.068 41.9874 61.8911 41.864 61.6963C41.6026 61.2823 41.2065 60.9884 40.9208 60.5988C40.9013 60.5712 40.8721 60.5501 40.8429 60.5306C40.3071 60.154 39.8055 59.7287 39.2194 59.4251C39.1431 59.3861 39.0847 59.3066 39.0068 59.279C38.7048 59.1735 38.398 59.0809 38.0944 58.9835C37.9467 58.9364 37.799 58.8894 37.6528 58.8358C37.3168 58.7124 36.9694 58.6345 36.6187 58.5647C36.307 58.503 36.0051 58.3796 35.6934 58.3244C35.3833 58.2692 35.0927 58.1442 34.7696 58.1247C34.4482 58.1052 34.1333 57.9997 33.8151 57.9364C33.6202 57.8974 33.4254 57.8617 33.2274 57.8358C33.0066 57.8065 32.7826 57.7968 32.5618 57.7676C32.151 57.7124 31.7403 57.6491 31.3296 57.5906C30.9221 57.5322 30.513 57.4802 30.1055 57.4137C29.8425 57.3714 29.5844 57.2968 29.3198 57.2578C28.8815 57.1929 28.4383 57.1539 28.0016 57.0857C27.7402 57.0451 27.4821 56.9721 27.2256 56.9055C26.9398 56.8308 26.7126 56.6377 26.4642 56.4932C26.3262 56.4136 26.2126 56.2464 26.1541 56.0938C26.1135 55.9867 26.0421 55.9104 25.9983 55.8406C26.008 55.6117 26.1606 55.524 26.3148 55.4477V55.4591ZM38.3639 54.8795C38.5311 54.9558 38.6788 54.8584 38.8266 54.8616C38.8233 54.8454 38.8217 54.8259 38.812 54.821C38.7308 54.7788 38.4694 54.8097 38.3623 54.8795H38.3639ZM41.7585 53.4704C41.7244 53.5093 41.6903 53.5483 41.6562 53.5872C41.6725 53.6002 41.6871 53.6116 41.7033 53.6246C41.7325 53.5807 41.7617 53.5385 41.791 53.4947C41.7796 53.4866 41.7682 53.4785 41.7569 53.4704H41.7585ZM50.6679 42.8126C50.6857 42.8369 50.7036 42.8613 50.7214 42.8856C50.7328 42.8775 50.7425 42.8694 50.7539 42.8596C50.7344 42.8369 50.7166 42.8126 50.6971 42.7898L50.6679 42.8126ZM50.8205 42.4814C50.7961 42.4944 50.775 42.5155 50.7539 42.5349C50.7718 42.5496 50.7896 42.5755 50.8091 42.5772C50.8253 42.5772 50.8448 42.5528 50.8708 42.5333C50.8497 42.5106 50.827 42.4781 50.8205 42.4814ZM51.1533 40.9359C51.3546 40.9878 51.465 40.8855 51.5851 40.8157C51.4439 40.8109 51.3107 40.8417 51.1533 40.9359ZM53.5705 29.3706C53.5576 29.3868 53.5332 29.4063 53.5348 29.4209C53.5348 29.4388 53.5608 29.4534 53.5835 29.4793C53.6014 29.4501 53.6241 29.429 53.6193 29.4128C53.616 29.3965 53.5868 29.3836 53.5705 29.3706ZM53.6533 29.9079C53.6615 29.9274 53.6696 29.9469 53.6777 29.9647C53.7102 29.9501 53.7443 29.9355 53.7767 29.9209C53.7702 29.9079 53.7605 29.882 53.7556 29.8836C53.7199 29.8884 53.6858 29.8982 53.6517 29.9063L53.6533 29.9079ZM53.8287 28.7715L53.7475 28.6498C53.7264 28.7358 53.7475 28.7845 53.8287 28.7715ZM53.7004 30.692C53.6939 30.7164 53.6874 30.7407 53.6809 30.7667C53.7231 30.7797 53.767 30.7911 53.8092 30.8041C53.8157 30.7878 53.8222 30.7716 53.8287 30.7554C53.7865 30.7343 53.7426 30.7148 53.7004 30.6937V30.692ZM53.741 31.08C53.7296 31.0865 53.7183 31.093 53.7069 31.0979C53.7231 31.1986 53.7378 31.3008 53.7589 31.4307C53.8043 31.3447 53.8352 31.2862 53.8693 31.2197C53.827 31.1726 53.7832 31.1255 53.741 31.0784V31.08ZM53.892 32.1466C53.8563 32.1515 53.8222 32.1564 53.7865 32.1612C53.7897 32.1759 53.793 32.2018 53.7978 32.2018C53.8319 32.2018 53.866 32.1986 53.9001 32.197C53.8969 32.1807 53.8952 32.1645 53.892 32.1483V32.1466ZM53.8173 32.7944C53.8611 32.8139 53.8887 32.8333 53.918 32.8366C53.9277 32.8366 53.9423 32.7993 53.9537 32.7798C53.9277 32.7668 53.905 32.7457 53.8774 32.7408C53.8644 32.7392 53.8465 32.7668 53.8173 32.7944ZM54.043 32.3593C54.0024 32.3642 53.9618 32.3707 53.9212 32.3755C53.9228 32.3918 53.9261 32.4064 53.9277 32.4226C53.9683 32.4161 54.0089 32.4096 54.0478 32.4031C54.0462 32.3885 54.043 32.3755 54.0413 32.3609L54.043 32.3593ZM54.0397 32.9843C54.0202 32.9859 54.0024 32.9892 53.9829 32.9908C53.991 33.0541 53.9991 33.1158 54.0089 33.1791C54.0235 33.1775 54.0381 33.1759 54.0527 33.1743C54.0478 33.111 54.0446 33.0476 54.0397 32.9843ZM54.3449 35.5737C54.3254 35.5721 54.306 35.5688 54.2881 35.5672C54.2784 35.6516 54.2702 35.7344 54.2573 35.8529C54.3904 35.749 54.353 35.6597 54.3449 35.5753V35.5737ZM54.3595 37.0429C54.3449 37.0607 54.3287 37.077 54.3206 37.0948C54.3173 37.1013 54.3433 37.1273 54.3465 37.1257C54.366 37.1143 54.3823 37.0997 54.4001 37.0851C54.3888 37.0737 54.379 37.0607 54.3595 37.0413V37.0429ZM54.392 38.0105C54.4375 38.0705 54.4651 38.1062 54.4975 38.1501C54.5657 38.129 54.6355 38.1062 54.7069 38.0835C54.6144 38.0624 54.5219 38.0413 54.392 38.0105ZM54.569 37.5802C54.5381 37.6062 54.5089 37.6306 54.478 37.6565L54.5056 37.6906C54.5365 37.6663 54.5673 37.6419 54.5982 37.6176C54.5884 37.6062 54.5787 37.5932 54.569 37.5819V37.5802ZM54.5495 37.8465H54.7897C54.8027 37.8286 54.8157 37.8091 54.8287 37.7913C54.7897 37.7621 54.7443 37.702 54.7118 37.7085C54.6485 37.7199 54.5917 37.7686 54.5495 37.8465ZM54.7492 36.624C54.7345 36.637 54.7199 36.6484 54.7037 36.6614C54.7329 36.7068 54.7605 36.7523 54.7897 36.7978C54.806 36.788 54.8222 36.7783 54.8384 36.7685C54.8092 36.7198 54.7784 36.6728 54.7492 36.624ZM54.9147 37.0965C54.8514 37.1046 54.7881 37.1111 54.7134 37.1192C54.7665 37.1657 54.8336 37.1582 54.9147 37.0965ZM54.9277 38.1095C54.8579 38.1014 54.7865 38.0932 54.7134 38.0851C54.7524 38.2442 54.918 38.2134 55.0235 38.2799C54.9927 38.2247 54.9602 38.1679 54.9277 38.1111V38.1095ZM54.7832 38.5072C54.7345 38.4553 54.6842 38.4033 54.6242 38.34C54.5901 38.3627 54.5511 38.3887 54.504 38.4196C54.5868 38.5283 54.6842 38.517 54.7816 38.5072H54.7832ZM54.5381 39.0332C54.543 39.0462 54.5495 39.0592 54.5543 39.0722C54.5868 39.0624 54.6209 39.0527 54.6534 39.0413C54.6469 39.0267 54.6388 39.0007 54.6371 39.0007C54.603 39.0105 54.5706 39.0218 54.5381 39.0332ZM54.78 39.6258C54.741 39.6371 54.7021 39.6534 54.6647 39.6663C54.6696 39.681 54.6761 39.6956 54.681 39.7086C54.7199 39.6939 54.7605 39.681 54.7995 39.6663C54.793 39.6517 54.7832 39.6241 54.7816 39.6241L54.78 39.6258ZM54.9813 39.1842C54.9927 39.3254 55.0446 39.3433 55.181 39.3254C55.0998 39.2686 55.056 39.2378 54.9813 39.1842ZM55.1063 39.7345C55.1209 39.7102 55.1453 39.6858 55.1404 39.6745C55.1307 39.6566 55.1047 39.6355 55.0852 39.6371C55.069 39.6371 55.0544 39.6663 55.0397 39.6842C55.0592 39.6988 55.0771 39.7134 55.1063 39.7345ZM55.0625 42.1713C55.0738 42.1745 55.0852 42.1778 55.0949 42.181C55.1161 42.1405 55.1372 42.0999 55.1583 42.0593C55.1485 42.0512 55.1404 42.043 55.1307 42.0333C55.1112 42.0495 55.082 42.0609 55.0738 42.082C55.0625 42.108 55.0657 42.1405 55.0625 42.1713ZM55.72 46.0318C55.72 46.0691 55.72 46.1065 55.7216 46.1422C55.7346 46.1422 55.7476 46.1454 55.7589 46.1471C55.767 46.1097 55.7752 46.0724 55.7817 46.0351C55.7605 46.0351 55.7394 46.0334 55.7183 46.0318H55.72ZM67.0661 58.2984L67.1099 58.253C67.084 58.2173 67.058 58.1815 67.032 58.1458C67.0093 58.1686 66.9865 58.1929 66.9638 58.2156C66.9979 58.2432 67.0304 58.2708 67.0645 58.2968L67.0661 58.2984ZM62.7656 58.6215C62.7932 58.6215 62.8192 58.6004 62.8549 58.5841C62.829 58.5501 62.816 58.5306 62.8014 58.5111C62.7721 58.5338 62.7429 58.5565 62.7137 58.5793C62.7299 58.5939 62.7478 58.6231 62.764 58.6215H62.7656ZM60.1195 59.5192C60.1178 59.4835 60.1162 59.4478 60.1097 59.4121C60.1097 59.4089 60.0805 59.4089 60.0659 59.4072C60.0626 59.4446 60.061 59.4819 60.0578 59.5176C60.0789 59.5176 60.0983 59.5176 60.1195 59.5176V59.5192ZM52.8822 75.5896C52.9033 75.5684 52.9309 75.5506 52.9439 75.5262C52.9488 75.5165 52.9196 75.4905 52.9066 75.4727C52.8838 75.4905 52.8595 75.5068 52.8286 75.5311C52.8546 75.5587 52.8692 75.5749 52.8838 75.5912L52.8822 75.5896ZM48.0184 69.9611C48.0282 69.8735 48.0428 69.8345 48.0314 69.8069C48.0233 69.7858 47.9811 69.7761 47.9015 69.7338C47.9502 69.828 47.9713 69.8686 48.0184 69.9611ZM42.1027 59.4576C42.1189 59.4364 42.1416 59.417 42.1497 59.3926C42.153 59.3845 42.1221 59.352 42.1075 59.352C42.0913 59.352 42.0767 59.378 42.0572 59.3942C42.0751 59.4186 42.0897 59.4381 42.1027 59.4559V59.4576ZM41.2341 58.4656C41.2601 58.5533 41.2861 58.641 41.3137 58.7368C41.4306 58.6101 41.4143 58.5549 41.2341 58.4656ZM41.2211 58.4429C41.2666 58.3325 41.1611 58.3179 41.1091 58.2595C41.0344 58.3926 41.0344 58.3942 41.2211 58.4429ZM40.1951 57.6474L40.2487 57.6004C40.2179 57.5695 40.1854 57.5387 40.1545 57.5078C40.1448 57.5143 40.1334 57.5224 40.1237 57.5289C40.1481 57.5679 40.1708 57.6068 40.1951 57.6474ZM36.2226 55.7058C36.2924 55.7545 36.3785 55.8259 36.4483 55.8178C36.6966 55.787 36.9191 55.8487 37.1382 55.9542C37.1691 55.9688 37.2015 55.9867 37.2356 55.9915C37.8233 56.0565 38.2048 56.1782 38.7649 56.4493C38.9402 56.5338 39.1464 56.5467 39.3201 56.6539C39.5896 56.8195 39.9175 56.8714 40.1659 57.0825C40.2097 57.1198 40.2779 57.1312 40.3364 57.149C40.5377 57.2107 40.7049 57.3163 40.8429 57.4818C40.9257 57.5809 41.0507 57.6426 41.1611 57.7237C41.14 57.7643 41.1172 57.8065 41.0896 57.8569C41.3429 57.7968 41.3559 57.8049 41.3721 58.0565C41.3802 58.1929 41.4111 58.3212 41.5328 58.3975C41.6984 58.5014 41.8283 58.4283 41.963 58.2302C41.9712 58.352 42.0004 58.4267 41.9744 58.4608C41.8624 58.6101 41.9484 58.6978 42.0669 58.8033C42.0767 58.7286 42.0848 58.6669 42.0962 58.5858C42.3348 58.7319 42.5572 58.8569 42.6497 59.1264C42.6676 59.1799 42.7196 59.2286 42.7683 59.2644C42.9712 59.4105 43.067 59.6361 43.1985 59.8358C43.2472 59.9105 43.3154 59.9738 43.3657 60.0485C43.5264 60.2806 43.6855 60.5128 43.8397 60.7482C43.9615 60.9349 44.0914 61.1151 44.1758 61.331C44.2456 61.5128 44.3884 61.6654 44.4956 61.8326C44.5703 61.9479 44.6498 62.0599 44.7083 62.1817C44.7294 62.2271 44.7001 62.2969 44.692 62.3749C44.9031 62.4706 44.9729 62.6736 45.0264 62.8862C45.0476 62.9658 45.0362 63.0648 45.1661 63.0713C45.192 63.0713 45.2213 63.133 45.2391 63.1703C45.2716 63.2401 45.2976 63.3148 45.33 63.3976C45.3235 63.4009 45.2943 63.4171 45.2667 63.4333C45.2748 63.4479 45.2813 63.469 45.2927 63.4739C45.4615 63.5324 45.5297 63.6801 45.5849 63.8246C45.6791 64.073 45.8187 64.2921 45.9469 64.521C46.0476 64.7012 46.1223 64.8977 46.1872 65.0941C46.2099 65.1655 46.1758 65.2581 46.1564 65.3392C46.1434 65.3928 46.1109 65.4415 46.0687 65.5292C46.158 65.4707 46.2099 65.4383 46.2895 65.3863C46.3804 65.6753 46.5882 65.888 46.6077 66.1932C46.6142 66.2938 46.7051 66.3912 46.7603 66.487C46.8593 66.6575 46.9681 66.8133 47.0119 67.0227C47.059 67.2516 47.2018 67.4627 47.3041 67.6802C47.4145 67.9156 47.5817 68.1413 47.6191 68.388C47.6564 68.6315 47.8252 68.7923 47.8821 69.0098C47.8918 69.0504 47.9145 69.0958 47.9032 69.1316C47.8382 69.341 47.9778 69.4757 48.0801 69.6186C48.1467 69.7111 48.2262 69.7777 48.1759 69.9157C48.1564 69.9676 48.2619 70.0212 48.2766 70.1137C48.3025 70.2744 48.4779 70.3995 48.3934 70.5943C48.3886 70.6056 48.4259 70.63 48.4373 70.6527C48.5103 70.7923 48.5801 70.9319 48.6646 71.0975C48.5428 71.0894 48.447 71.0829 48.3512 71.0748C48.3545 71.1592 48.3902 71.1949 48.4795 71.2014C48.6727 71.2144 48.671 71.2193 48.749 71.4125C48.7311 71.4255 48.7133 71.4417 48.6938 71.4563C48.6743 71.4709 48.6548 71.4823 48.6029 71.518C48.6889 71.5326 48.7409 71.5423 48.8155 71.5537C48.7847 71.6089 48.7571 71.6576 48.7392 71.6901C48.7944 71.7355 48.8464 71.7794 48.9178 71.8394C48.8009 71.8573 48.71 71.8719 48.6418 71.8816C48.7522 71.9466 48.9259 71.9904 48.973 72.0911C49.0233 72.1998 49.1711 72.3102 49.0818 72.4693C49.072 72.4856 49.0785 72.5213 49.0899 72.5391C49.2912 72.8687 49.361 73.2486 49.4957 73.6025C49.5055 73.6268 49.5185 73.6528 49.5168 73.6772C49.499 73.984 49.6483 74.2551 49.6987 74.5489C49.7555 74.8704 49.8578 75.1821 49.9487 75.5311C50.038 75.1236 50.1289 74.7535 50.1386 74.3704C50.1386 74.3444 50.137 74.3168 50.1419 74.2924C50.2036 73.9629 50.3172 73.6333 50.3123 73.3054C50.3075 72.9775 50.4633 72.6836 50.4292 72.3508C50.4081 72.143 50.5185 71.9222 50.5705 71.7079C50.5851 71.6479 50.6143 71.5894 50.6159 71.531C50.624 71.2014 50.7149 70.8865 50.775 70.565C50.827 70.2842 50.9341 70.0147 50.9731 69.742C51.0185 69.4205 51.1094 69.1105 51.1614 68.7923C51.1987 68.5666 51.2994 68.3507 51.3692 68.1299C51.3903 68.065 51.3952 67.9968 51.413 67.9302C51.4585 67.763 51.4942 67.5893 51.5607 67.4302C51.5965 67.3442 51.6793 67.2808 51.6078 67.1753C51.5981 67.1607 51.6224 67.1088 51.6452 67.0925C51.7653 67.0065 51.7848 66.901 51.7296 66.7695C51.7198 66.7467 51.715 66.7078 51.7263 66.6948C51.8903 66.5227 51.788 66.2516 51.9552 66.0811C51.978 66.0584 51.9877 66.0194 51.9942 65.9854C52.0851 65.5503 52.2393 65.1395 52.4406 64.7418C52.4942 64.6363 52.5007 64.5048 52.5592 64.4025C52.741 64.0794 52.9407 63.7661 53.1273 63.4463C53.4131 62.9593 53.767 62.5177 54.0754 62.0469C54.2735 61.745 54.5365 61.5031 54.8449 61.3294C54.9683 61.2596 55.0203 61.1329 55.1339 61.0794C55.2865 61.0063 55.3774 60.8293 55.5803 60.8342C55.6307 60.8342 55.6745 60.7027 55.7394 60.6686C55.9554 60.555 56.1518 60.4202 56.319 60.2433C56.3482 60.2124 56.3953 60.1702 56.4262 60.1751C56.6875 60.2254 56.8271 59.99 57.0366 59.917C57.1892 59.8634 57.3272 59.7871 57.4944 59.753C57.6924 59.7141 57.8824 59.5972 58.0577 59.4868C58.1551 59.4251 58.246 59.3715 58.3597 59.352C58.41 59.3423 58.4554 59.3147 58.5041 59.2952C58.699 59.2189 58.8678 59.0842 59.1113 59.1345C59.2314 59.1588 59.3775 59.0744 59.509 59.029C59.7818 58.9332 60.048 58.8147 60.3467 58.839C60.5075 58.6816 60.725 58.7562 60.9084 58.701C60.9815 58.6783 61.0448 58.6231 61.1162 58.5793C61.139 58.6117 61.1633 58.6458 61.199 58.6962C61.4377 58.5062 61.7348 58.5143 62.0156 58.451C62.2608 58.3958 62.5254 58.4315 62.7591 58.2984C62.8046 58.2725 62.9036 58.339 63.0319 58.3812C63.3566 58.2075 63.7803 58.2384 64.1894 58.1783C64.3923 58.1491 64.5904 58.0598 64.7965 58.1572C64.954 58.0371 65.1277 58.1312 65.2933 58.1182C65.3404 58.115 65.3858 58.0793 65.4329 58.0582C65.4638 58.0435 65.506 58.0078 65.5222 58.0176C65.7398 58.1491 65.9914 57.9461 66.2073 58.0923C66.2317 58.1085 66.2869 58.076 66.3274 58.0679C66.6408 57.9997 66.9557 57.9461 67.2771 57.9445C67.4411 57.9445 67.6051 57.9234 67.7577 57.9137C67.8767 57.747 68.0131 57.708 68.1668 57.7968C68.1408 57.7562 68.1229 57.6978 68.0856 57.6815C67.9996 57.6442 67.894 57.5906 67.8129 57.6101C67.6181 57.6555 67.472 57.5078 67.2836 57.5192C67.1684 57.5257 67.0482 57.4331 66.9297 57.3844C66.8372 57.3455 66.7463 57.2805 66.6505 57.2724C66.5434 57.2643 66.4508 57.2578 66.3583 57.1912C66.3177 57.1637 66.2365 57.1945 66.1618 57.1994C66.1618 57.1604 66.1618 57.1361 66.1618 57.1133C66.1618 57.0906 66.1683 57.0679 66.1732 57.0305C66.0774 57.0289 65.993 57.0257 65.9005 57.024C65.8355 56.951 65.7674 56.8747 65.6846 56.7838C65.4638 57.0224 65.256 56.8763 65.1082 56.7383C64.928 56.5679 64.717 56.5224 64.5108 56.5354C64.3193 56.5467 64.1602 56.4721 64.0205 56.4039C63.7673 56.2805 63.4881 56.2351 63.2397 56.1084C63.0903 56.0321 62.915 56.0061 62.7949 55.8714C62.7802 55.8552 62.7348 55.86 62.7039 55.8649C62.4994 55.8974 62.3484 55.8016 62.2039 55.6685C62.1715 55.6896 62.1374 55.7139 62.0838 55.7496C61.9426 55.5759 61.7315 55.6441 61.4994 55.6311C61.5692 55.5467 61.613 55.4948 61.6552 55.4444C61.4149 55.5987 61.2234 55.4201 61.0253 55.3698C60.6941 55.2853 60.3906 55.1084 60.0383 55.0905C59.91 55.084 59.7948 55.037 59.6876 54.9412C59.5886 54.8519 59.449 54.787 59.3159 54.7577C59.009 54.6895 58.7493 54.5175 58.5041 54.3503C58.3028 54.2139 58.1032 54.1295 57.8775 54.0791C57.7314 54.0467 57.7249 53.9071 57.6551 53.8145C57.5869 53.722 57.4197 53.8048 57.3694 53.6684C57.358 53.6392 57.3612 53.6035 57.3548 53.5596C57.1242 53.5467 56.9359 53.4363 56.7801 53.2853C56.5528 53.0661 56.319 52.8518 56.1599 52.571C56.0365 52.3534 55.9002 52.144 55.7589 51.9378C55.6859 51.8307 55.681 51.6943 55.5609 51.6002C55.4602 51.5206 55.4034 51.3745 55.3514 51.2479C55.1615 50.7933 54.8855 50.3793 54.7232 49.9167C54.6177 49.6196 54.4797 49.3355 54.3725 49.04C54.2573 48.7186 54.1745 48.3906 54.0852 48.066C54.0235 47.8387 53.9098 47.6325 53.8579 47.4117C53.8157 47.2267 53.6874 47.0546 53.7378 46.85C53.7394 46.8419 53.7378 46.8322 53.7329 46.824C53.5705 46.5513 53.5884 46.2315 53.5024 45.9377C53.465 45.8062 53.3952 45.6665 53.4131 45.5399C53.4472 45.2867 53.2118 45.0642 53.3465 44.8077C53.3514 44.798 53.3433 44.772 53.3335 44.7623C53.0851 44.5383 53.2361 44.2103 53.1176 43.9522C53.2329 43.8597 53.1095 43.7736 53.103 43.686C53.0835 43.4262 52.9926 43.1762 53.0088 42.9083C53.017 42.7687 52.9569 42.6242 52.9277 42.4846C52.9049 42.3775 53.0592 42.3028 52.9358 42.1843C52.8806 42.1307 52.939 41.97 52.9196 41.8628C52.8822 41.6615 52.8221 41.4651 52.7816 41.2654C52.7588 41.1567 52.7588 41.0414 52.7475 40.931C52.7377 40.8303 52.7004 40.7232 52.7247 40.6323C52.7832 40.4066 52.689 40.1956 52.6874 39.9764C52.6874 39.7816 52.6842 39.5852 52.6793 39.3904C52.6793 39.3368 52.6988 39.2848 52.6338 39.2361C52.5965 39.2085 52.5949 39.1241 52.5932 39.0641C52.5884 38.8449 52.5673 38.6306 52.5364 38.4131C52.5234 38.3205 52.5575 38.2118 52.5121 38.116C52.4877 38.064 52.4406 38.0234 52.3871 37.9569C52.3481 38.0153 52.3173 38.051 52.2978 38.0932C52.2556 38.1858 52.2182 38.2816 52.1809 38.3757C52.1728 38.3985 52.1614 38.4261 52.1663 38.4472C52.2345 38.7069 52.1289 38.9374 52.0591 39.1777C51.9861 39.431 51.913 39.6842 51.8757 39.9472C51.8676 40.0056 51.8351 40.0608 51.8156 40.1177C51.7377 40.3531 51.6598 40.5901 51.5819 40.8271C51.5429 41.0138 51.5137 41.2021 51.4633 41.3856C51.413 41.569 51.3448 41.7476 51.2783 41.9262C51.2198 42.0836 51.1516 42.2362 51.0932 42.3937C51.0234 42.5772 50.9649 42.7655 50.8919 42.9473C50.8448 43.0674 50.7377 43.0788 50.5656 42.996C50.7701 43.1762 50.7555 43.3889 50.6646 43.608C50.6273 43.6989 50.5688 43.7817 50.5299 43.8726C50.387 44.1973 50.262 44.5301 50.1029 44.8467C49.9876 45.0756 49.8334 45.2867 49.6954 45.5042C49.6678 45.548 49.6175 45.5837 49.6045 45.6308C49.4974 46.0367 49.2035 46.3338 48.986 46.6731C48.848 46.8874 48.6499 47.0594 48.5736 47.3208C48.5493 47.402 48.4373 47.4556 48.3642 47.5221C48.2993 47.4539 48.2803 47.3538 48.3074 47.2218C48.1402 47.2835 48.1402 47.3257 48.3041 47.6877C48.2603 47.7315 48.2132 47.7786 48.1694 47.8241C48.0834 47.8111 48.0249 47.6812 47.9194 47.8062C48.0103 47.9491 47.9697 48.04 47.8301 48.1764C47.6759 48.3257 47.559 48.527 47.408 48.6942C47.1872 48.941 46.9843 49.2056 46.7651 49.454C46.6466 49.5887 46.5184 49.7186 46.3755 49.8241C46.309 49.8728 46.2716 49.8988 46.2895 49.98C46.2927 49.9995 46.2716 50.0303 46.2538 50.0465C46.0508 50.2121 45.8479 50.3745 45.6385 50.5417C45.6515 50.5807 45.6693 50.6342 45.6953 50.717C45.5005 50.6846 45.3998 50.7576 45.3349 50.9167C45.244 51.1391 45.0232 51.2349 44.83 51.3729C44.8349 51.4086 44.8414 51.4508 44.8479 51.4914C44.7261 51.5839 44.5979 51.6683 44.4875 51.7722C44.4501 51.808 44.4631 51.894 44.4485 51.9768C44.4047 51.98 44.3235 51.9849 44.2229 51.9914C44.2115 52.0921 44.2602 52.2301 44.1238 52.269C44.0167 52.2999 43.903 52.3047 43.7699 52.3242C43.8121 52.3745 43.8478 52.4167 43.9063 52.4866C43.8138 52.4655 43.7586 52.4525 43.705 52.4411C43.6076 52.5872 43.4782 52.6716 43.317 52.6944C43.416 52.847 43.2667 52.9233 43.192 52.9411C43.0589 52.972 42.9647 53.0483 42.877 53.1327C42.8283 53.097 42.7942 53.0726 42.7439 53.0369C42.6952 53.1376 42.5913 53.1798 42.5215 53.2414C42.4095 53.3421 42.3023 53.1116 42.2325 53.2966C42.2536 53.3161 42.2861 53.347 42.3234 53.3811C41.9582 53.7106 41.5426 53.86 41.0474 53.7723C41.1172 53.8178 41.1724 53.8535 41.226 53.8876C41.213 53.9103 41.2 53.933 41.187 53.9558C41.101 53.9769 41.0133 53.9963 40.9273 54.0207C40.8981 54.0288 40.851 54.0418 40.8477 54.0597C40.8169 54.2496 40.6838 54.2236 40.5572 54.1993C40.5133 54.2658 40.4873 54.3535 40.4305 54.3811C40.3104 54.4412 40.1756 54.4753 40.0458 54.511C39.9906 54.5256 39.9127 54.4964 39.8737 54.524C39.6594 54.6782 39.4256 54.7107 39.1675 54.7107C39.0539 54.7107 38.9402 54.8162 38.8282 54.8762C38.8152 54.9038 38.8055 54.9363 38.7827 54.9542C38.7681 54.9655 38.7324 54.9574 38.7081 54.9542C38.5262 54.9136 38.4012 55.097 38.1999 55.0581C38.0392 55.0272 37.8558 55.1246 37.6821 55.1652C37.708 55.1847 37.734 55.2025 37.7616 55.222C37.7291 55.2415 37.6951 55.2626 37.6626 55.2821C37.6561 55.2431 37.6496 55.2042 37.6447 55.1652C37.4905 55.1425 37.3282 55.0905 37.2567 55.2448C37.1074 55.1993 36.9824 55.162 36.8541 55.123C36.8103 55.2123 36.7778 55.2805 36.7389 55.3633C36.669 55.3243 36.6138 55.2935 36.5457 55.2545C36.5489 55.3064 36.5522 55.3487 36.557 55.4266C36.3233 55.3113 36.1739 55.4688 36.0067 55.5272C36.0846 55.5954 36.1463 55.662 36.2194 55.7123L36.2226 55.7058Z" fill="#2C2C2C"/>
</g>
<defs>
<clipPath id="clip0_79_55">
<rect width="36.4" height="44.6842" fill="white" transform="matrix(-1 0 0 1 36.4 0)"/>
</clipPath>
<clipPath id="clip1_79_55">
<rect width="52" height="64.5848" fill="white" transform="matrix(-1 0 0 1 78 24.2667)"/>
</clipPath>
</defs>
</svg>
