<svg width="90" height="103" viewBox="0 0 90 103" fill="none" xmlns="http://www.w3.org/2000/svg">
<g clip-path="url(#clip0_79_54)">
<path d="M69.608 45.9647C69.5919 45.9672 69.5745 45.9709 69.5584 45.9734C69.5944 45.8111 69.5621 45.6488 69.5721 45.4865C69.5721 45.4704 69.6092 45.4567 69.6377 45.4357C69.6476 45.5298 69.6563 45.6091 69.665 45.6897C69.6761 45.6897 69.6873 45.6897 69.6984 45.6909C69.7071 45.5782 69.7158 45.4654 69.7232 45.3626C69.6588 45.3105 69.5671 45.4196 69.5448 45.3105C69.5374 45.2758 69.5733 45.2312 69.5919 45.1879C69.5745 45.1792 69.5522 45.1681 69.5275 45.1544C69.5275 45.1358 69.5225 45.1148 69.5275 45.0974C69.5758 44.955 69.629 44.8187 69.5485 44.6638C69.52 44.608 69.551 44.5226 69.5559 44.4544C69.525 44.3949 69.494 44.3355 69.463 44.276C69.4692 44.2748 69.4767 44.271 69.4828 44.271C69.489 44.271 69.4952 44.2748 69.5027 44.276C69.5721 44.2702 69.603 44.2364 69.5956 44.1744C69.5584 44.2165 69.5299 44.2487 69.5027 44.281C69.4655 44.0406 69.4816 43.7928 69.385 43.5586C69.3503 43.4744 69.3602 43.3666 69.3639 43.2699C69.3738 43.0544 69.3342 42.9168 69.2078 42.7781C69.3069 42.6046 69.2821 42.4497 69.1273 42.3271C69.2388 42.088 69.152 41.8959 69.0058 41.72C69.1372 41.5998 69.131 41.5032 68.9835 41.3062C69.0641 41.1922 69.0517 41.077 68.9835 40.9543C68.9489 40.8924 68.9265 40.8155 68.9253 40.7449C68.9241 40.6669 68.9191 40.6024 68.8596 40.543C68.8349 40.5182 68.8138 40.4538 68.8287 40.4327C68.9489 40.2518 68.7556 40.1217 68.7642 39.9545C68.7816 39.9359 68.8064 39.9086 68.8336 39.8801C68.6341 39.7698 68.5264 39.2396 68.5499 39.0153C68.4855 38.9744 68.4087 38.9286 68.426 38.8245C68.4297 38.7997 68.426 38.7539 68.4136 38.7477C68.2587 38.6734 68.312 38.516 68.2773 38.3983C68.234 38.2509 68.1794 38.1171 68.0964 37.9845C68.0147 37.8544 67.9911 37.6908 67.9366 37.5434C67.8957 37.4331 67.8449 37.3253 67.8053 37.2151C67.7904 37.1754 67.7892 37.1296 67.7892 37.0862C67.7904 36.9797 67.8016 36.8744 67.6975 36.8025C67.6764 36.7876 67.6442 36.7529 67.6492 36.7418C67.7396 36.5423 67.4435 36.4432 67.5228 36.2326C67.5488 36.162 67.4658 36.0504 67.4311 35.9526C67.3853 35.9377 67.332 35.9191 67.2651 35.8968C67.301 35.8076 67.3332 35.7295 67.3605 35.6602C67.2601 35.5363 67.1622 35.4235 67.0755 35.3033C67.0557 35.2748 67.0557 35.198 67.078 35.1807C67.1499 35.12 67.1139 35.0568 67.0755 35.0233C66.9677 34.9304 66.9665 34.7991 66.9293 34.6801C66.9132 34.6269 66.8934 34.555 66.8525 34.5315C66.7534 34.4732 66.7187 34.3853 66.6914 34.2874C66.7398 34.3159 66.7868 34.3444 66.8401 34.3766C66.8352 34.2515 66.7435 34.3084 66.6914 34.2874C66.7125 34.218 66.7323 34.1474 66.7583 34.0619C66.6592 34.0396 66.7001 33.855 66.5428 33.8847C66.5056 33.7757 66.4697 33.6667 66.435 33.5663C66.4052 33.5775 66.3705 33.6022 66.3408 33.5985C66.3235 33.596 66.3024 33.5465 66.2999 33.518C66.295 33.4325 66.2974 33.347 66.2974 33.2442C66.1265 33.2813 66.1128 33.1686 66.0992 33.0459C66.0781 33.0744 66.062 33.0955 66.0422 33.1215C65.8898 33.0311 65.9976 32.8725 65.9344 32.7387C65.9134 32.7746 65.8973 32.8006 65.8712 32.844C65.8539 32.8105 65.839 32.7857 65.8279 32.761C65.8105 32.7201 65.8056 32.6668 65.7758 32.6383C65.6123 32.4847 65.4314 32.3484 65.3348 32.1353C65.331 32.1278 65.3125 32.1217 65.3013 32.1217C65.1824 32.1254 65.1217 32.0411 65.0647 31.9594C64.9668 31.8193 64.8193 31.7413 64.6868 31.6434C64.6459 31.6124 64.6 31.5877 64.5579 31.5579C64.47 31.4923 64.3981 31.4031 64.2767 31.3882C64.2358 31.3832 64.1899 31.3461 64.1627 31.3101C64.0995 31.2271 64.0413 31.1466 63.9174 31.1714C63.9025 31.1738 63.8765 31.1602 63.8666 31.1466C63.7328 30.9706 63.5308 30.9037 63.34 30.8207C63.3276 30.8158 63.309 30.8133 63.3041 30.8034C63.1814 30.5767 62.8915 30.6262 62.7342 30.4577C62.5694 30.4862 62.4987 30.34 62.3848 30.2731C62.2956 30.2211 62.1927 30.1938 62.0961 30.1529C61.9152 30.0761 61.743 29.9671 61.5547 29.9299C61.3007 29.8804 61.0764 29.7565 60.8311 29.6957C60.5449 29.6251 60.2475 29.6041 59.9626 29.5322C59.7272 29.4727 59.4818 29.4826 59.2502 29.3959C59.125 29.3488 58.9763 29.3711 58.8388 29.3563C58.6183 29.3327 58.3977 29.3228 58.1784 29.2794C58.0397 29.2522 57.8922 29.2584 57.7547 29.2014C57.7287 29.1902 57.6903 29.2101 57.6568 29.215C57.5713 29.2249 57.4735 29.2671 57.4041 29.2386C57.2145 29.1617 57.025 29.1927 56.8354 29.194C56.7586 29.194 56.6818 29.1964 56.6062 29.2101C56.4476 29.2373 56.294 29.2485 56.1304 29.2287C55.9805 29.2113 55.8256 29.2423 55.672 29.2485C55.5915 29.2522 55.5109 29.2485 55.4304 29.2485C55.2755 29.246 55.1194 29.241 54.9645 29.2398C54.8183 29.2386 54.6697 29.2609 54.5284 29.2348C54.3252 29.1964 54.1282 29.1964 53.9275 29.2348C53.8111 29.1469 53.6847 29.2373 53.5633 29.2163C53.4381 29.1952 53.3093 29.2014 53.1817 29.1989C52.9698 29.194 52.7567 29.189 52.5448 29.1902C52.3045 29.1915 52.0629 29.1952 51.8225 29.2063C51.5425 29.22 51.2625 29.2522 50.9825 29.2596C50.8549 29.2633 50.726 29.2212 50.5972 29.2088C50.4857 29.1977 50.3729 29.2026 50.2614 29.194C50.0607 29.1791 49.8563 29.1816 49.6593 29.1878C49.4177 29.1952 49.1798 29.1741 48.9407 29.1593C48.7709 29.1481 48.5987 29.1221 48.4376 29.0688C48.3484 29.0391 48.2927 28.9016 48.2059 28.8817C48.0771 28.852 48.0597 28.764 48.0213 28.6761C48.0164 28.6637 48.0102 28.6513 48.0027 28.6364C48.0374 28.572 48.0796 28.5286 48.1651 28.515C48.253 28.5014 48.3336 28.4456 48.4203 28.4146C48.5962 28.3515 48.7721 28.2895 48.9654 28.3453C49.0001 28.3552 49.0522 28.3415 49.0819 28.3192C49.2615 28.1817 49.4833 28.2214 49.6816 28.1681C49.8847 28.1136 50.0904 28.0653 50.2948 28.0157C50.3395 28.0045 50.3865 28.0021 50.4336 27.9996C50.5662 27.9922 50.7012 28.0145 50.8227 27.9327C50.8524 27.9129 50.9019 27.924 50.9416 27.9215C51.0903 27.9153 51.2352 27.9042 51.3678 27.8212C51.3988 27.8014 51.4446 27.8051 51.483 27.7989C51.5351 27.7902 51.5908 27.789 51.6404 27.7704C51.8163 27.7022 51.9848 27.6291 52.1855 27.6415C52.2995 27.649 52.4185 27.5957 52.5324 27.561C52.779 27.4854 53.0243 27.4074 53.2684 27.3243C53.4827 27.2512 53.6896 27.1422 53.9089 27.1013C54.0787 27.0704 54.2435 27.0295 54.407 26.9812C54.599 26.9242 54.7874 26.8535 54.9782 26.7928C55.0599 26.7668 55.1454 26.7532 55.2297 26.7309C55.2755 26.7197 55.3338 26.7172 55.3623 26.6875C55.5097 26.5388 55.7116 26.524 55.8938 26.462C56.0809 26.3976 56.2642 26.3195 56.4513 26.2526C56.5888 26.2043 56.7313 26.1671 56.8701 26.1213C56.9209 26.1052 56.9828 26.0903 57.015 26.0544C57.103 25.9528 57.2232 25.9404 57.3397 25.907C57.5689 25.8413 57.8105 25.8029 58.0062 25.6493C58.1983 25.6517 58.3358 25.5229 58.4907 25.4411C58.6431 25.3606 58.8066 25.3172 58.9652 25.2577C59.0197 25.2367 59.068 25.1995 59.1188 25.1685C59.1523 25.1487 59.182 25.1128 59.2167 25.1091C59.3654 25.0905 59.4695 25.005 59.5723 24.9022C59.6565 24.8179 59.7532 24.7498 59.8758 24.7163C59.9613 24.6928 60.0468 24.6296 60.1063 24.5627C60.1893 24.4697 60.2872 24.4177 60.3974 24.3657C60.6229 24.2579 60.8484 24.1451 61.0442 23.9816C61.147 23.8961 61.2573 23.8193 61.3638 23.7375C61.4481 23.6743 61.5286 23.6173 61.5782 23.5095C61.6154 23.429 61.7207 23.3708 61.8074 23.3237C61.9053 23.2704 62.0155 23.2407 62.1196 23.1998C62.1382 23.1924 62.1617 23.1849 62.1704 23.1701C62.2633 23.0102 62.4095 22.9309 62.578 22.8752C62.6288 22.8578 62.666 22.8021 62.7094 22.7637C62.7329 22.7414 62.7503 22.703 62.7775 22.6943C63.0055 22.6224 63.1381 22.4279 63.3115 22.2867C63.4565 22.169 63.5556 22.0104 63.6708 21.8654C63.7278 21.7948 63.7972 21.7329 63.8529 21.661C64.0413 21.4182 64.2457 21.1852 64.4043 20.925C64.5232 20.7318 64.6261 20.5298 64.7673 20.3514C64.8243 20.2783 64.8788 20.204 64.9321 20.1284C65.0089 20.0218 65.0981 19.9326 65.1316 19.7877C65.1638 19.6452 65.2691 19.5176 65.3509 19.3875C65.4351 19.2524 65.4686 19.0914 65.5949 18.9761C65.647 18.9291 65.6433 18.825 65.6755 18.7531C65.7411 18.6082 65.8291 18.4756 65.875 18.3182C65.9381 18.1039 66.0273 17.8958 66.1066 17.6864C66.1376 17.6058 66.1711 17.5265 66.202 17.446C66.2652 17.2862 66.3272 17.1251 66.3879 16.964C66.409 16.9095 66.4313 16.855 66.4436 16.798C66.4721 16.6766 66.4845 16.5502 66.5217 16.4313C66.5576 16.3185 66.6431 16.2169 66.6555 16.1054C66.6642 16.0261 66.6592 15.9716 66.7571 15.9468C66.7212 15.8514 66.7063 15.7622 66.7621 15.6681C66.7943 15.6123 66.8364 15.5479 66.7831 15.4661C66.7645 15.4376 66.8017 15.362 66.829 15.3187C66.8686 15.258 66.9008 15.2059 66.912 15.1254C66.9206 15.0585 67.021 15.0027 67.0929 14.9296C67.0384 14.921 66.9876 14.9135 66.9194 14.9024C66.9677 14.5877 67.0198 14.2891 67.1375 13.9992C67.2106 13.8195 67.2391 13.6213 67.2539 13.4181C67.3035 13.3859 67.3531 13.3537 67.4014 13.3227C67.3853 13.2731 67.3543 13.2248 67.363 13.1864C67.3828 13.096 67.4038 12.9956 67.4584 12.9237C67.5203 12.8432 67.5191 12.7069 67.6529 12.6834C67.6789 12.7404 67.7086 12.7862 67.7805 12.7379C67.7532 12.666 67.7173 12.6301 67.6492 12.6883C67.6244 12.6475 67.5996 12.6066 67.5686 12.5558C67.5959 12.4492 67.6281 12.3228 67.669 12.1618C67.5649 12.0032 67.6467 11.8334 67.7817 11.6625C67.7136 11.577 67.7285 11.494 67.7594 11.3899C67.8053 11.2363 67.8994 11.0876 67.8573 10.9129C67.8524 10.8955 67.8561 10.8621 67.8672 10.8559C67.9862 10.7791 67.8908 10.6515 67.9428 10.5536C67.9911 10.4644 67.9911 10.3492 68.0308 10.2525C68.1076 10.0679 68.0196 9.88949 68.0295 9.69745C68.0754 9.68383 68.1249 9.66772 68.1819 9.65037C68.1733 9.62807 68.1695 9.61073 68.1609 9.59586C68.0927 9.49302 68.0617 9.39267 68.1621 9.29107C68.177 9.27496 68.1906 9.25142 68.1931 9.23036C68.2042 9.05567 68.2141 8.88097 68.2216 8.70627C68.2265 8.60468 68.2934 8.55636 68.374 8.51795C68.3752 8.51299 68.3777 8.50928 68.3802 8.50804C68.5115 8.31724 68.5202 8.26892 68.3554 8.13635C68.2687 8.06572 68.3368 7.98891 68.2947 7.9282C68.4149 7.83651 68.2674 7.69775 68.3541 7.59987C68.2761 7.46854 68.3702 7.32606 68.312 7.18605C68.374 7.17119 68.4235 7.15756 68.4867 7.14269C68.4433 7.09189 68.4025 7.04357 68.3715 7.00764C68.3826 6.89489 68.3851 6.79082 68.4062 6.68922C68.4173 6.63347 68.4582 6.58267 68.5078 6.54055C68.509 6.52692 68.5164 6.51081 68.5115 6.5009C68.395 6.26302 68.4049 6.02389 68.4929 5.77982C68.5152 5.71911 68.509 5.64725 68.509 5.58034C68.5115 5.37963 68.5065 5.18015 68.5127 4.97944C68.514 4.92492 68.5487 4.87165 68.5734 4.80227C68.5549 4.7589 68.4595 4.73041 68.5338 4.62014C68.5821 4.54828 68.5536 4.4219 68.5487 4.3203C68.5412 4.15428 68.5003 3.98454 68.5214 3.82348C68.5437 3.65621 68.5065 3.45674 68.6986 3.33284C68.6465 3.31797 68.618 3.3093 68.5734 3.29691C68.6453 3.13337 68.5672 2.92894 68.7345 2.78769C68.7519 2.77283 68.7023 2.6799 68.6788 2.60804C68.7271 2.60185 68.768 2.59689 68.846 2.58822C68.7593 2.53494 68.7011 2.50025 68.6354 2.4606C68.6849 2.31193 68.7345 2.16449 68.7915 1.99103C68.8212 1.9774 68.8745 1.95386 68.9315 1.92784C68.9315 1.92784 68.9278 1.91422 68.9216 1.91298C68.8881 1.90678 68.8485 1.91298 68.8237 1.89687C68.7977 1.87952 68.7692 1.83864 68.7717 1.81138C68.7779 1.76182 68.8175 1.75439 68.8621 1.78041C68.8745 1.78784 68.8981 1.77545 68.9055 1.77421C68.9538 1.73704 68.8361 1.66394 68.9625 1.6404C69.0381 1.62677 69.0343 1.5004 68.9674 1.43845C68.934 1.40748 68.8894 1.38889 68.8485 1.36287C68.851 1.26747 68.8113 1.16959 68.9166 1.10269C68.9303 1.09401 68.9253 1.05808 68.929 1.03578C68.934 0.998614 68.9315 0.956488 68.9464 0.924275C68.9947 0.815245 69.0666 0.71241 69.0988 0.599664C69.131 0.485678 69.126 0.361781 69.1397 0.22921C69.1818 0.247795 69.2066 0.258946 69.2474 0.276291C69.2722 0.195758 69.3205 0.136287 69.4135 0.122658C69.4866 0.111508 69.5448 0.0520369 69.6365 0.0929231C69.7393 0.138765 69.8483 0.125136 69.8979 0C70.1953 0.112747 70.3687 0.359303 70.3613 0.662851C70.3526 1.01224 70.3489 1.35916 70.3712 1.70855C70.3935 2.04803 70.3687 2.38998 70.37 2.7307C70.37 2.83106 70.3898 2.93017 70.3923 3.03053C70.3997 3.30435 70.3997 3.57816 70.4084 3.85073C70.4146 4.02667 70.4344 4.2026 70.4418 4.37854C70.4567 4.73041 70.5248 5.07608 70.5223 5.43166C70.5199 5.69557 70.5917 5.95947 70.6277 6.22461C70.6599 6.45754 70.7008 6.68675 70.7701 6.91348C70.7986 7.0064 70.7776 7.11295 70.7912 7.21207C70.8234 7.45739 70.8631 7.70271 70.899 7.94802C70.9027 7.97404 70.9089 8.00006 70.9089 8.02608C70.9089 8.11776 70.8928 8.21192 70.9089 8.29989C70.9486 8.50184 71.0155 8.69636 70.9969 8.91071C70.9882 9.00982 71.0365 9.12505 71.0898 9.21549C71.1641 9.34063 71.1703 9.47568 71.1691 9.60577C71.1666 9.84241 71.179 10.0729 71.2434 10.3021C71.2806 10.4359 71.3029 10.5709 71.3103 10.7147C71.3264 11.0083 71.3847 11.3007 71.4355 11.5918C71.4578 11.717 71.521 11.8347 71.5358 11.9598C71.5742 12.2646 71.5817 12.5731 71.6275 12.8754C71.6572 13.0675 71.7105 13.2533 71.6634 13.4491C71.7465 13.5631 71.6919 13.6931 71.7068 13.8158C71.7155 13.8802 71.739 13.9447 71.7601 14.0066C71.77 14.0376 71.8084 14.0772 71.7997 14.0958C71.7118 14.2742 71.8567 14.4229 71.8629 14.5902C71.8691 14.7574 71.9311 14.9234 71.9695 15.0895C71.9744 15.1081 71.9831 15.1291 71.998 15.1415C72.1082 15.2344 72.1466 15.3422 72.0958 15.4847C72.0835 15.5194 72.107 15.5789 72.1318 15.6148C72.3015 15.8589 72.3201 16.1314 72.299 16.4139C72.2928 16.4932 72.2953 16.5725 72.304 16.6518C72.3139 16.7522 72.3275 16.8525 72.3511 16.9492C72.3647 17.0049 72.3982 17.057 72.4254 17.1078C72.5505 17.3419 72.6757 17.5761 72.8021 17.8103C72.8206 17.845 72.8417 17.8796 72.8665 17.9119C73.0226 18.115 73.1601 18.3282 73.2778 18.5549C73.3249 18.6453 73.4116 18.7172 73.4847 18.7928C73.5777 18.8869 73.6743 18.9786 73.7722 19.0678C73.8155 19.1075 73.8614 19.1508 73.9147 19.1731C74.1476 19.2685 74.3235 19.4432 74.5193 19.5894C74.6134 19.6588 74.7188 19.7133 74.8191 19.774C75.135 19.9636 75.446 20.1631 75.7706 20.3353C75.9243 20.4171 76.0705 20.5087 76.2204 20.5905C76.3468 20.6599 76.436 20.7689 76.5648 20.8321C76.6962 20.8965 76.8114 20.9932 76.939 21.0675C77.0592 21.1369 77.193 21.1852 77.3095 21.2608C77.4606 21.3587 77.6254 21.4219 77.7877 21.495C77.8967 21.5433 77.9946 21.6176 78.0974 21.6796C78.1309 21.6994 78.1656 21.7229 78.2028 21.7353C78.3861 21.7973 78.5682 21.858 78.7306 21.9745C78.8297 22.0451 78.9598 22.0773 79.0799 22.112C79.2187 22.1516 79.3761 22.1467 79.5 22.2111C79.6449 22.2867 79.8308 22.2545 79.9472 22.3945C79.9621 22.4118 80.0092 22.4044 80.0414 22.4044C80.2124 22.4056 80.3722 22.4415 80.5221 22.5308C80.5729 22.5617 80.6361 22.5915 80.6919 22.589C80.895 22.5766 81.0797 22.6596 81.2754 22.6893C81.4067 22.7092 81.5319 22.7674 81.6632 22.7971C81.7784 22.8232 81.8974 22.8318 82.0138 22.8504C82.1117 22.8653 82.2121 22.8764 82.3075 22.9012C82.4995 22.952 82.6878 23.0164 82.8923 23.0065C82.9703 23.0028 83.0496 23.04 83.1289 23.0511C83.1933 23.0598 83.259 23.0573 83.3247 23.0623C83.4758 23.0709 83.627 23.0821 83.7781 23.0908C83.9243 23.0994 84.0705 23.1069 84.2167 23.1143C84.3295 23.1205 84.4435 23.1217 84.555 23.1354C84.8845 23.175 85.2141 23.2171 85.5424 23.2617C85.6131 23.2717 85.6837 23.294 85.7518 23.3163C85.8336 23.3435 85.9079 23.3782 86.0021 23.346C86.0504 23.3299 86.1272 23.3485 86.1718 23.3795C86.2499 23.434 86.3279 23.4278 86.4147 23.4278C86.6377 23.4278 86.8558 23.4241 87.0763 23.5157C87.2349 23.5814 87.4344 23.5467 87.6128 23.569C87.7999 23.5913 87.9869 23.5678 88.179 23.6C88.3735 23.6322 88.5606 23.6892 88.7539 23.7226C88.7848 23.7276 88.8195 23.7127 88.853 23.7115C88.9471 23.7078 89.0438 23.6892 89.133 23.7065C89.33 23.7437 89.522 23.7995 89.7178 23.8441C89.8417 23.8726 89.89 23.9568 89.9482 24.0658C90.0622 24.2839 89.952 24.4636 89.89 24.6494C89.8714 24.7052 89.781 24.7411 89.719 24.7783C89.5964 24.8501 89.4514 24.8501 89.3188 24.8922C89.1887 24.9331 89.0537 24.9591 88.9211 24.9926C88.8641 25.0062 88.8096 25.0285 88.7526 25.0347C88.6176 25.0483 88.4788 25.0285 88.35 25.0917C88.3239 25.1041 88.2756 25.1029 88.2533 25.0868C88.0984 24.979 87.9411 25.0632 87.8469 25.1462C87.7267 25.2528 87.5967 25.2379 87.5013 25.2082C87.3377 25.1549 87.2188 25.2045 87.0899 25.2788C87.0255 25.316 86.9623 25.3618 86.8917 25.3767C86.7777 25.4015 86.6588 25.4052 86.5212 25.3816C86.4878 25.4238 86.4605 25.4758 86.4184 25.5043C86.3453 25.5539 86.2648 25.6294 86.1768 25.5303C86.1285 25.477 86.0851 25.4869 86.0355 25.5204C86.0182 25.5315 86.0033 25.5464 85.986 25.5551C85.8509 25.6232 85.7184 25.6765 85.5561 25.6839C85.312 25.6963 85.0704 25.7459 84.8486 25.871C84.7408 25.9317 84.6244 25.9949 84.4856 25.9491C84.4534 25.9379 84.41 25.9602 84.3716 25.9701C84.2812 25.9962 84.1944 26.0408 84.1028 26.0482C83.9665 26.0606 83.8426 26.0792 83.7373 26.1833C83.6976 26.2217 83.6096 26.2402 83.5551 26.2266C83.4659 26.2043 83.404 26.2316 83.3284 26.2687C83.2466 26.3096 83.1487 26.3183 83.0595 26.3456C82.9963 26.3641 82.9183 26.3741 82.8786 26.4174C82.7659 26.5388 82.6333 26.5339 82.4834 26.5413C82.3608 26.5475 82.2418 26.6318 82.1229 26.6838C82.0993 26.6937 82.0832 26.7309 82.0609 26.7321C81.8652 26.7457 81.7289 26.887 81.5616 26.9613C81.3014 27.079 81.066 27.2389 80.8343 27.4049C80.6869 27.5102 80.511 27.5759 80.3722 27.6886C80.1727 27.8521 79.9311 27.9637 79.7688 28.1792C79.6833 28.2932 79.5532 28.3725 79.4492 28.4729C79.3191 28.598 79.1964 28.7293 79.0688 28.8557C78.9275 28.9957 78.7851 29.1345 78.6426 29.2733C78.6277 29.2869 78.6116 29.3018 78.6029 29.3191C78.5125 29.5124 78.3638 29.6598 78.1953 29.7775C78.002 29.9126 77.898 30.1381 77.6861 30.2496C77.6688 30.2582 77.6551 30.2756 77.6452 30.2929C77.4829 30.5432 77.2326 30.7105 77.0394 30.931C76.9353 31.0512 76.825 31.1664 76.7209 31.2853C76.7098 31.2977 76.7135 31.3238 76.7098 31.3423C76.6825 31.4861 76.6218 31.6062 76.4855 31.6781C76.4112 31.7178 76.3666 31.7698 76.3604 31.8677C76.3517 31.9903 76.2786 32.0882 76.182 32.1725C76.1114 32.2344 76.0234 32.284 76.0494 32.419C76.0618 32.4859 75.9924 32.5826 75.9354 32.6445C75.7434 32.8576 75.669 33.1364 75.5464 33.3829C75.42 33.6369 75.2949 33.8971 75.1945 34.1635C75.1574 34.2601 75.1289 34.3605 75.1053 34.4608C75.0025 34.8883 74.7188 35.2414 74.6134 35.6676C74.5874 35.7729 74.518 35.8683 74.4722 35.9699C74.4549 36.0096 74.4499 36.0554 74.4387 36.0975C74.4251 36.1483 74.4226 36.2053 74.3954 36.2487C74.2839 36.4246 74.2851 36.6538 74.1302 36.8075C74.1216 36.8161 74.1154 36.8322 74.1154 36.8446C74.1302 37.1618 73.958 37.4232 73.8651 37.7094C73.8007 37.9064 73.7412 38.1047 73.6743 38.3017C73.6508 38.371 73.6136 38.4342 73.5851 38.5011C73.5591 38.5618 73.5318 38.6213 73.5145 38.6845C73.4686 38.853 73.4538 39.0314 73.3447 39.1776C73.3311 39.1962 73.341 39.2297 73.3348 39.2557C73.2679 39.553 73.1651 39.838 73.0573 40.1217C73.0127 40.2407 72.9916 40.3683 72.947 40.4872C72.8281 40.8093 72.7698 41.1463 72.6757 41.4747C72.615 41.6878 72.5419 41.8972 72.4799 42.1103C72.4564 42.1908 72.444 42.2763 72.4291 42.3593C72.413 42.4522 72.418 42.5526 72.3808 42.6356C72.299 42.8177 72.304 43.0147 72.2557 43.2006C72.1776 43.5066 72.1417 43.8188 72.0996 44.131C72.0599 44.4247 71.9658 44.7109 71.9199 45.0045C71.8852 45.23 71.8765 45.4617 71.8827 45.6897C71.8852 45.7801 71.8815 45.8594 71.8493 45.9412C71.7638 46.1605 71.796 46.3946 71.7935 46.6189C71.7911 46.78 71.7378 46.9299 71.7452 47.0897C71.7489 47.1727 71.7204 47.2582 71.7068 47.3425C71.6808 47.4998 71.656 47.6584 71.6288 47.8157C71.5953 48.0078 71.5705 48.2011 71.521 48.3894C71.4553 48.6384 71.3686 48.8825 71.2955 49.1303C71.2732 49.2071 71.2521 49.2864 71.2509 49.3657C71.2484 49.5144 71.262 49.6606 71.1567 49.7894C71.1282 49.8254 71.1394 49.8935 71.1319 49.9468C71.0985 50.1648 71.065 50.3817 71.0328 50.5997C71.0278 50.6319 71.0328 50.6666 71.0291 50.6988C71.0192 50.7757 71.0068 50.8512 70.9956 50.9281C70.987 50.9875 70.9647 51.0495 70.9733 51.1065C71.0006 51.2787 70.8829 51.3468 70.7714 51.4311C70.6661 51.5116 70.5422 51.5252 70.4245 51.5537C70.36 51.5686 70.2746 51.5537 70.2163 51.5203C70.1271 51.4682 69.9784 51.4583 70.0082 51.2886C70.0119 51.2688 69.9512 51.239 69.9289 51.2217C69.9338 51.1659 69.9586 51.1052 69.9376 51.078C69.8471 50.9541 69.8273 50.8215 69.8409 50.6728C69.8521 50.5564 69.8347 50.4374 69.8409 50.321C69.8434 50.2776 69.8781 50.2355 69.9053 50.1772C69.836 50.0459 69.7814 49.8947 69.8186 49.7213C69.8285 49.673 69.8099 49.6135 69.7914 49.5639C69.7591 49.4772 69.7852 49.4202 69.8843 49.3806C69.8075 49.3075 69.7529 49.2393 69.7889 49.1328C69.8062 49.0795 69.8037 49.0076 69.7827 48.9556C69.686 48.7214 69.7282 48.4836 69.7517 48.2457C69.7567 48.2011 69.7443 48.1527 69.7331 48.1069C69.6749 47.8814 69.696 47.677 69.8818 47.4887C69.831 47.4961 69.7802 47.5035 69.7368 47.511C69.6266 47.3363 69.6588 47.1616 69.7691 46.9658C69.7083 46.9832 69.6774 46.9931 69.6266 47.0079C69.6687 46.889 69.5795 46.775 69.6489 46.6598C69.6575 46.6449 69.6452 46.6003 69.629 46.5879C69.4655 46.4653 69.5721 46.3476 69.6328 46.2299C69.6352 46.2261 69.6452 46.2274 69.6513 46.2261C69.6365 46.184 69.6154 46.1431 69.6067 46.0998C69.5968 46.0539 69.7096 46.0329 69.6365 45.9709C69.6278 45.9635 69.6105 45.9684 69.5981 45.966C69.6352 45.9375 69.6712 45.909 69.7183 45.8706C69.5795 45.8222 69.608 45.909 69.6005 45.9647H69.608ZM68.2736 11.3936C68.2253 11.437 68.1547 11.4605 68.1175 11.5559C68.2253 11.5249 68.3182 11.5225 68.2736 11.3924C68.3306 11.4105 68.3636 11.3982 68.3727 11.3552C68.3393 11.3676 68.3071 11.38 68.2748 11.3924L68.2736 11.3936ZM68.7011 7.28145C68.7779 7.26906 68.8398 7.41031 68.9278 7.30499C68.8584 7.20712 68.7841 7.21455 68.706 7.28765C68.6614 7.27278 68.618 7.25791 68.5734 7.24305C68.5734 7.29508 68.5895 7.33473 68.6131 7.34092C68.6515 7.35084 68.7122 7.36075 68.6998 7.28145H68.7011ZM68.1646 12.4765C68.1423 12.5161 68.12 12.5558 68.0964 12.5954C68.2104 12.5818 68.1819 12.5285 68.1534 12.4765C68.2129 12.5533 68.2587 12.5211 68.3145 12.4628C68.2294 12.4364 68.1592 12.4513 68.1039 12.5074C68.1237 12.4975 68.1435 12.4876 68.1633 12.4765H68.1646ZM68.7803 7.11295C68.8088 7.08446 68.8522 7.06092 68.8522 7.03738C68.8522 6.94074 68.7828 6.90728 68.7023 6.88994C68.7271 6.96056 68.7506 7.02746 68.7803 7.11295ZM68.5449 9.46081C68.5809 9.52152 68.6057 9.56984 68.7073 9.57727C68.6775 9.49922 68.6664 9.43727 68.5449 9.46081ZM68.6131 7.45243C68.6837 7.5342 68.7308 7.58872 68.7779 7.64323C68.8014 7.53297 68.7754 7.46358 68.6131 7.45243ZM68.6267 8.69388C68.5462 8.56751 68.4582 8.61707 68.3826 8.61087C68.3802 8.6245 68.3777 8.63689 68.3752 8.65052C68.4495 8.66415 68.5239 8.67654 68.6267 8.69512V8.69388ZM68.5945 8.39034C68.6069 8.40396 68.618 8.41636 68.6304 8.42998C68.6701 8.39777 68.7085 8.3668 68.7605 8.32467C68.6156 8.23423 68.623 8.33954 68.5945 8.39158V8.39034ZM68.4731 7.63084C68.5317 7.55403 68.5164 7.50571 68.4272 7.48588C68.4421 7.5342 68.457 7.58005 68.4731 7.63084ZM68.6527 8.90203C68.6565 8.95283 68.6614 9.00363 68.6664 9.07053C68.7754 9.00735 68.7271 8.95531 68.6527 8.90203ZM69.8174 47.8827C69.8099 47.9681 69.8062 48.0202 69.8 48.092C69.8806 48.0276 69.8793 47.9756 69.8174 47.8827ZM68.4595 10.3169C68.4557 10.3306 68.4508 10.343 68.4471 10.3566C68.4954 10.3727 68.5437 10.3876 68.5933 10.4037C68.597 10.39 68.6019 10.3764 68.6057 10.3628C68.5573 10.3479 68.5078 10.3318 68.4595 10.3169ZM66.5465 18.1745C66.5254 18.1671 66.5031 18.1609 66.4821 18.1535C66.4684 18.2067 66.456 18.26 66.4424 18.3133C66.4585 18.3182 66.4734 18.3232 66.4895 18.3282C66.5081 18.2761 66.5279 18.2253 66.5465 18.1733V18.1745ZM69.9264 47.7179C69.9103 47.7104 69.8942 47.703 69.8768 47.6968C69.8632 47.7278 69.8483 47.7575 69.8384 47.7897C69.8384 47.7934 69.8669 47.8058 69.8818 47.8145C69.8967 47.7823 69.9103 47.7501 69.9252 47.7179H69.9264ZM68.7494 7.7151C68.7345 7.72996 68.7184 7.74607 68.7035 7.76094C68.7382 7.78819 68.7742 7.81421 68.8088 7.84147C68.8188 7.83032 68.8287 7.82041 68.8386 7.80926C68.8088 7.77704 68.7791 7.74607 68.7494 7.71386V7.7151ZM68.2079 12.08C68.2191 12.0676 68.2315 12.0552 68.2426 12.0428C68.2191 12.0205 68.1956 11.9982 68.172 11.9747C68.1609 11.9871 68.1373 12.0106 68.1386 12.0119C68.1596 12.0366 68.1844 12.0577 68.2079 12.08ZM68.0295 12.1196L68.0605 12.075C68.0209 12.0527 67.9825 12.0304 67.944 12.0081L67.9217 12.0453C67.9577 12.0701 67.9948 12.0936 68.0308 12.1184L68.0295 12.1196ZM68.8696 6.25806C68.9476 6.18992 68.9241 6.15523 68.8386 6.11434C68.8522 6.18001 68.8609 6.21841 68.8696 6.25806ZM68.877 3.764C68.8708 3.77392 68.8658 3.78507 68.8596 3.79498C68.8894 3.81356 68.9191 3.83091 68.9476 3.84949C68.9538 3.83834 68.9612 3.82595 68.9674 3.8148C68.9365 3.79746 68.9067 3.78135 68.8758 3.764H68.877ZM68.6936 10.2129C68.7234 10.2525 68.732 10.2736 68.7457 10.2785C68.763 10.2835 68.7841 10.2748 68.8039 10.2723C68.8039 10.2637 68.8039 10.2538 68.8039 10.2451C68.7766 10.2376 68.7481 10.229 68.6936 10.2141V10.2129ZM68.4941 8.02608C68.4694 8.0521 68.4533 8.06696 68.4421 8.08555C68.4409 8.08803 68.4657 8.11776 68.4768 8.11652C68.4929 8.11405 68.5115 8.09918 68.5189 8.08431C68.5239 8.0744 68.5078 8.05581 68.4954 8.02608H68.4941ZM68.6602 6.70161C68.7172 6.70657 68.737 6.714 68.7506 6.70781C68.7667 6.70161 68.7779 6.68303 68.7915 6.6694C68.7853 6.66197 68.7791 6.65329 68.7729 6.64586C68.7457 6.65949 68.7184 6.67312 68.6589 6.70285L68.6602 6.70161ZM68.4111 11.2883C68.4198 11.2809 68.4297 11.2747 68.4384 11.2672C68.4347 11.2548 68.4347 11.2363 68.4272 11.2325C68.4099 11.2251 68.3888 11.2239 68.369 11.2214C68.3826 11.2437 68.3975 11.266 68.4111 11.2883ZM68.5734 10.5883C68.566 10.5746 68.5573 10.5548 68.5549 10.5561C68.5387 10.561 68.5214 10.5685 68.5103 10.5796C68.5065 10.5846 68.5214 10.6044 68.5276 10.618C68.5425 10.6081 68.5586 10.5982 68.5734 10.5883ZM68.7357 8.19953C68.768 8.22431 68.7853 8.24538 68.7927 8.24166C68.8088 8.23546 68.8274 8.21688 68.8287 8.20201C68.8299 8.19086 68.8076 8.16484 68.7965 8.16484C68.7791 8.16484 68.763 8.18219 68.7345 8.19953H68.7357Z" fill="#2C2C2C"/>
<path d="M68.375 8.50929C68.375 8.50929 68.37 8.51424 68.3688 8.5192C68.3279 8.49938 68.287 8.47955 68.261 8.46716C68.2548 8.3792 68.2498 8.30734 68.2449 8.23424C68.3428 8.19831 68.4146 8.23424 68.4183 8.33831C68.4196 8.39406 68.3911 8.45106 68.3762 8.50805L68.375 8.50929Z" fill="#2C2C2C"/>
</g>
<g clip-path="url(#clip1_79_54)">
<path d="M59.6367 63.9913C59.6854 63.7666 59.6273 63.641 59.3819 63.5661C59.2395 63.523 59.1815 63.4406 59.144 63.3282C59.1065 63.2215 59.0934 63.1053 59.071 62.9967C58.9736 63.0154 58.8874 63.0323 58.8162 63.0454C58.7656 62.918 58.7207 62.8056 58.6963 62.7438C58.5596 62.7326 58.4828 62.7307 58.406 62.7176C58.331 62.7063 58.258 62.6689 58.1831 62.6707C57.9901 62.6764 57.8215 62.4759 57.6174 62.6089C57.52 62.4853 57.4094 62.534 57.2971 62.5808C57.2708 62.5921 57.2334 62.5921 57.2071 62.5808C56.9636 62.4703 56.7182 62.5864 56.4729 62.5752C56.1544 62.5621 55.8322 62.6014 55.5138 62.5396C55.3695 62.5115 55.2178 62.5115 55.0717 62.4947C54.8956 62.4759 54.7177 62.4628 54.5435 62.4272C54.3636 62.3916 54.1913 62.2942 54.0134 62.2905C53.6462 62.2811 53.3165 62.1313 52.9662 62.0657C52.9138 62.0563 52.8557 62.0713 52.8014 62.0657C52.5148 62.0301 52.2282 61.9926 51.9416 61.9533C51.9322 61.9533 51.9266 61.9402 51.9173 61.9346C51.5745 61.7079 51.1605 61.706 50.7821 61.5843C50.5161 61.5 50.2108 61.545 49.9448 61.4569C49.6563 61.3633 49.3922 61.189 49.0681 61.2602C48.9314 61.1403 48.7609 61.1928 48.6073 61.1741C48.3807 61.1478 48.1597 61.0898 47.9723 60.968C47.8637 60.8987 47.7625 60.865 47.6389 60.8537C47.3991 60.8313 47.1575 60.8182 46.9496 60.6702C46.8953 60.6308 46.8166 60.6121 46.7491 60.6102C46.5 60.6027 46.2621 60.5353 46.0298 60.4604C45.7826 60.3817 45.5522 60.2581 45.3087 60.1682C45.0876 60.0857 44.861 60.0221 44.6362 59.949C44.4133 59.8778 44.1398 59.861 43.9768 59.7205C43.7595 59.5332 43.5048 59.4957 43.2669 59.4095C43.0665 59.3383 42.8585 59.3028 42.6693 59.1847C42.4052 59.0199 42.128 58.8719 41.8489 58.737C41.7196 58.6734 41.5492 58.6865 41.433 58.6097C41.1446 58.4186 40.8149 58.2894 40.5564 58.0515C40.5133 58.0121 40.4702 57.9522 40.4215 57.9447C40.2305 57.9166 40.0956 57.8136 39.9551 57.6843C39.7715 57.5139 39.5486 57.3865 39.3557 57.2254C39.1796 57.0793 39.0204 56.9126 38.8555 56.7533C38.82 56.7196 38.7787 56.6878 38.7506 56.6484C38.5446 56.3469 38.3217 56.0678 37.9489 55.9535C37.8721 55.9291 37.8159 55.843 37.7447 55.7793C37.7934 55.7418 37.829 55.7137 37.8702 55.6838C37.5649 55.5995 37.5687 55.5957 37.4151 55.3091C37.3551 55.1967 37.269 55.0956 37.194 54.9907C37.1847 54.9794 37.1603 54.9776 37.1434 54.9719C37.1228 55.0113 37.1004 55.0506 37.0798 55.0881C36.8737 55.0244 37.0854 54.8989 37.0236 54.809C36.8643 54.7172 36.7463 54.5954 36.6939 54.3913C36.6433 54.1927 36.5497 53.9941 36.353 53.8724C36.3005 53.8387 36.2724 53.7656 36.2368 53.7094C36.19 53.6345 36.1563 53.5521 36.1038 53.4828C35.8622 53.1475 35.5381 52.8571 35.5082 52.4038C35.5082 52.3776 35.4782 52.3532 35.4632 52.327C35.3283 52.0947 35.1878 51.8662 35.0642 51.6302C34.9462 51.4054 34.8394 51.1731 34.742 50.939C34.6072 50.6112 34.3393 50.3377 34.3505 49.9574C34.2925 49.9499 34.2475 49.9424 34.225 49.9387C34.2007 49.8338 34.1876 49.7476 34.1595 49.6671C34.0677 49.418 34.0789 49.1276 33.8691 48.9216C33.8541 48.9066 33.8766 48.8616 33.8691 48.8335C33.7979 48.545 33.7605 48.2435 33.6462 47.9719C33.3896 47.3668 33.2753 46.7206 33.0637 46.1024C32.9138 45.666 32.8988 45.1864 32.6534 44.7799C32.6347 44.7481 32.6347 44.7031 32.6291 44.6638C32.5954 44.4503 32.571 44.233 32.5242 44.0213C32.468 43.7609 32.3856 43.5043 32.3256 43.2439C32.2582 42.9517 32.202 42.6558 32.1402 42.3598C32.0016 41.6986 31.7712 41.0598 31.7037 40.3817C31.6794 40.1363 31.5782 39.9003 31.5351 39.6549C31.4396 39.1042 31.3534 38.5535 31.2729 37.999C31.1905 37.4371 31.108 36.8751 31.0519 36.3094C30.9994 35.7812 30.9957 35.2454 30.9413 34.7172C30.8795 34.1103 30.7952 33.5034 30.6997 32.9002C30.5011 31.6414 30.2857 30.3845 30.0797 29.1276C30.0572 28.9909 30.089 28.8185 30.016 28.723C29.8923 28.56 29.8774 28.3746 29.8155 28.1985C29.7931 28.1367 29.7088 28.058 29.6526 28.0561C29.3585 28.0524 29.0663 27.8969 28.7235 28.0805C28.6298 28.1648 28.6073 28.4476 28.317 28.3727C28.3133 28.4364 28.3076 28.5001 28.3039 28.5675C28.2533 28.5507 28.2177 28.5376 28.1428 28.5113C28.1559 28.6218 28.1653 28.7061 28.1728 28.7923C28.1746 28.8242 28.1765 28.8841 28.1653 28.886C28.0454 28.9178 28.0941 29.0152 28.0847 29.0883C28.0622 29.255 28.0435 29.4236 28.0248 29.5903C28.0173 29.6596 28.0154 29.7289 28.0173 29.7982C28.0248 29.9968 28.0847 30.2084 28.0304 30.3864C27.9854 30.5344 28.0454 30.6561 28.0248 30.7891C27.9967 30.9839 27.978 31.1806 27.9592 31.3773C27.9386 31.5927 27.9236 31.8081 27.9068 32.031C27.9311 32.031 27.9911 32.0367 28.051 32.0404C28.051 32.0535 28.0548 32.0666 28.0566 32.0816C28.0004 32.0966 27.9461 32.1135 27.8899 32.1285C27.9086 32.2053 27.948 32.2708 27.9349 32.327C27.8824 32.563 27.8169 32.7953 27.755 33.0276C27.7269 33.1344 27.7963 33.1643 27.8712 33.1905C27.8506 33.2093 27.8318 33.228 27.8094 33.2449C27.6333 33.3741 27.637 33.4078 27.8037 33.5446C27.8581 33.5895 27.8805 33.6738 27.903 33.715C27.8187 33.7188 27.7213 33.6982 27.7045 33.7263C27.6501 33.8181 27.6089 33.9248 27.5958 34.0297C27.5621 34.2751 27.534 34.5224 27.534 34.7696C27.534 34.8708 27.6108 34.9701 27.6389 35.0375C27.5771 35.0956 27.4834 35.1443 27.4572 35.2173C27.4085 35.3541 27.3842 35.5058 27.3748 35.6519C27.3579 35.9198 27.3411 36.182 27.283 36.4499C27.18 36.9219 27.0451 37.3977 27.1725 37.8866C27.1107 37.9316 27.0545 37.9709 26.9608 38.0402C27.0507 38.1039 27.1257 38.1564 27.2006 38.2088C27.1219 38.2875 27.0451 38.3287 27.0339 38.3811C26.9721 38.6734 26.884 38.9693 26.8896 39.2615C26.8934 39.5013 26.8559 39.7223 26.8053 39.949C26.7866 40.0352 26.7716 40.1307 26.7885 40.215C26.869 40.6177 26.6873 40.9924 26.6649 41.3839C26.6574 41.5281 26.5038 41.6517 26.603 41.8334C26.6311 41.8859 26.53 41.9964 26.5262 42.0807C26.5206 42.283 26.5337 42.4872 26.5506 42.6895C26.5543 42.7269 26.6049 42.7588 26.633 42.7944C26.6592 42.918 26.6836 43.0398 26.7136 43.1802C26.6199 43.2252 26.5262 43.2702 26.4363 43.3114C26.4494 43.4444 26.5 43.5774 26.4625 43.6729C26.3839 43.8733 26.485 44.0906 26.3839 44.2854C26.3708 44.3116 26.4401 44.3791 26.4551 44.4016C26.5843 44.4109 26.6836 44.4165 26.781 44.424C26.7941 44.4484 26.8072 44.4746 26.8147 44.4896C26.7154 44.5439 26.5862 44.572 26.5319 44.6526C26.4026 44.8418 26.2846 45.0497 26.2677 45.2895C26.2546 45.4599 26.2734 45.6341 26.1085 45.7521C26.0898 45.7652 26.0804 45.8102 26.0879 45.8345C26.1516 46.0425 26.0579 46.2335 26.0373 46.4321C25.9905 46.8554 25.9381 47.2769 25.8556 47.6946C25.8425 47.7639 25.8425 47.8351 25.835 47.9044C25.8182 48.0655 25.8369 48.2435 25.7695 48.3802C25.6852 48.5507 25.7264 48.7155 25.7077 48.8803C25.7077 48.8897 25.6608 49.3618 25.6608 49.3767C25.6421 49.5491 25.6234 49.7214 25.6028 49.8937C25.6009 49.9106 25.5859 49.9275 25.5765 49.9443C25.5466 49.9481 25.5185 49.9537 25.5166 49.9537C25.5016 50.1841 25.5316 50.4257 25.4585 50.6299C25.3761 50.8584 25.511 51.1413 25.2506 51.3061C25.3162 51.3604 25.3611 51.396 25.3948 51.4241C25.3443 51.4785 25.2881 51.5197 25.26 51.5759C25.1626 51.7819 25.0577 51.9861 24.9883 52.2015C24.9284 52.3907 24.8254 52.6005 24.994 52.756C24.9396 52.8871 24.8928 53.0051 24.8385 53.1362C24.9528 53.1625 25.0221 53.1774 25.0914 53.1924C25.0502 53.2524 25.0052 53.258 24.964 53.2711C24.8067 53.3198 24.5912 53.5614 24.6156 53.715C24.6512 53.9454 24.5425 54.1028 24.4189 54.2639C24.3196 54.395 24.2934 54.5299 24.3908 54.6441C24.329 54.7097 24.2653 54.7509 24.2409 54.809C24.0817 55.1911 23.9319 55.5751 23.7783 55.9591C23.767 55.9872 23.767 56.0228 23.7502 56.0434C23.5722 56.242 23.4636 56.4742 23.3886 56.7271C23.3287 56.9276 23.2126 57.0886 23.059 57.2404C22.8904 57.4071 22.793 57.6431 22.6375 57.8267C22.2816 58.2425 21.9126 58.6471 21.5436 59.0517C21.4911 59.1098 21.4162 59.1473 21.3488 59.1904C21.0603 59.3739 20.7756 59.565 20.4796 59.7355C20.2623 59.861 20.03 59.9602 19.8052 60.0708C19.7247 60.1101 19.6423 60.1476 19.5655 60.1906C19.38 60.2937 19.2077 60.451 19.011 60.4922C18.8218 60.5316 18.6626 60.687 18.4453 60.6365C18.3835 60.6215 18.2992 60.6945 18.2262 60.7301C18.1718 60.7563 18.1156 60.8107 18.0651 60.805C17.7354 60.7676 17.4713 60.9624 17.1772 61.0467C16.8512 61.1403 16.5328 61.2621 16.2106 61.3689C16.0682 61.4157 15.9184 61.4494 15.7798 61.5056C15.5063 61.6199 15.2291 61.7229 14.9425 61.8016C14.536 61.914 14.1332 62.0488 13.7417 62.2024C13.221 62.4066 12.6984 62.5996 12.1608 62.755C11.2523 63.0154 10.3494 63.2964 9.43904 63.553C9.03443 63.6673 8.62046 63.7403 8.2121 63.8377C7.91801 63.9089 7.61643 63.9632 7.3392 64.0775C7.12003 64.1674 6.90275 64.2086 6.67422 64.2386C6.41759 64.2723 6.16471 64.336 5.90996 64.3884L5.46788 64.5233C5.22437 64.5477 4.94901 64.5121 4.74483 64.6151C4.58936 64.6938 4.44513 64.7106 4.30276 64.7031C4.11544 64.6938 3.94124 64.7144 3.77265 64.7799C3.55349 64.8642 3.33433 64.8792 3.10392 64.8567C3.01963 64.8493 2.92972 64.8886 2.84355 64.9167C2.67497 64.9729 2.50451 65.0909 2.33967 65.0853C2.07367 65.0759 1.84889 65.1677 1.61474 65.2539C1.55855 65.2745 1.50235 65.3007 1.44428 65.3101C0.983479 65.385 0.580744 65.5948 0.189248 65.8495C0.198614 66.0406 0.251064 66.2354 0.0618718 66.3722C0.0356472 66.3909 0.0506327 66.4696 0.04314 66.5183C0.0319009 66.5951 0.0169154 66.67 0.00567627 66.743C0.0581255 66.8273 0.116194 66.9079 0.161151 66.9959C0.2904 67.2376 0.395299 67.4961 0.702501 67.5785C0.75495 67.5916 0.790541 67.6572 0.839244 67.6927C0.910425 67.7471 0.985352 67.7939 1.05841 67.8464C1.19328 67.9419 1.32627 68.0393 1.49486 68.1592C1.67094 68.1704 1.90509 68.2191 2.13174 68.1948C2.48577 68.1573 2.83231 68.1966 3.17885 68.2322C3.60781 68.2753 4.0349 68.3521 4.45824 68.4327C5.00895 68.5376 5.55592 68.6593 6.10477 68.7736C6.52623 68.8616 6.9477 68.9534 7.37104 69.0396C7.68574 69.1051 8.00231 69.1651 8.317 69.225C8.53429 69.2681 8.75158 69.3149 8.97074 69.3486C9.68443 69.4573 10.4 69.5603 11.1155 69.6633C11.1642 69.6708 11.2335 69.6877 11.2616 69.6633C11.389 69.5566 11.5108 69.6502 11.6325 69.6596C11.7318 69.6671 11.8273 69.7064 11.9266 69.7158C12.1683 69.7401 12.4099 69.7795 12.6497 69.7664C12.8482 69.7551 13.0262 69.8432 13.221 69.8319C13.3278 69.8244 13.4364 69.8263 13.5432 69.8394C13.6687 69.8563 13.7886 69.9031 13.9141 69.9162C14.3131 69.9612 14.7121 69.9893 15.111 70.0417C15.5381 70.0979 15.9633 70.1747 16.3886 70.244C16.9618 70.3377 17.5387 70.4164 18.1063 70.5362C18.2318 70.5625 18.391 70.5269 18.4678 70.5943C18.6214 70.7273 18.8012 70.7217 18.9717 70.7704C19.1459 70.8191 19.3295 70.8397 19.5018 70.8978C20.1106 71.1001 20.7156 71.3099 21.3188 71.5215C21.463 71.5721 21.6485 71.5496 21.7215 71.7407C21.7309 71.7632 21.7908 71.7651 21.8283 71.7782C21.9201 71.8081 22.0212 71.825 22.1036 71.8718C22.6338 72.179 23.162 72.49 23.6865 72.8065C23.8064 72.8796 23.9225 72.9658 24.0199 73.065C24.1604 73.2074 24.269 73.3816 24.417 73.5146C24.5631 73.6457 24.6512 73.8537 24.876 73.8892C24.8853 73.8892 24.8984 73.9286 24.8928 73.938C24.8141 74.0597 24.9115 74.0634 24.9883 74.0915C25.0614 74.1178 25.1307 74.1571 25.1663 74.174C25.2581 74.4044 25.3368 74.6029 25.4154 74.7996C25.6084 74.8202 25.7545 74.9457 25.732 75.1462C25.7114 75.3241 25.6721 75.4683 25.8968 75.5189C25.9718 75.7456 26.2434 75.8542 26.2546 76.1183C26.2546 76.1446 26.2734 76.1914 26.2902 76.1951C26.4476 76.2345 26.4026 76.3619 26.4195 76.4649C26.4213 76.4836 26.4363 76.5005 26.4401 76.5061C26.5244 76.5529 26.5993 76.5941 26.6948 76.6466C26.5487 76.7646 26.5918 76.8995 26.6386 77.0081C26.6836 77.1149 26.8522 77.1711 26.7566 77.3303C26.8896 77.4052 26.8465 77.5569 26.9027 77.6637C26.9533 77.7592 27.0114 77.851 27.0826 77.9709C27.0414 78.2725 27.0507 78.295 27.1594 78.6378C27.2118 78.8045 27.2362 78.9806 27.2736 79.151C27.328 79.151 27.4066 79.151 27.5171 79.151C27.4272 79.2447 27.3654 79.3065 27.2886 79.387C27.371 79.4395 27.4347 79.4788 27.504 79.5219C27.504 79.5987 27.5003 79.6793 27.4984 79.7598C27.4909 80.0408 27.7813 80.2712 27.6352 80.5746C27.6333 80.5803 27.6408 80.5971 27.6483 80.6009C27.8375 80.7001 27.7644 80.8875 27.7719 81.0317C27.785 81.2584 27.9573 81.4794 27.7925 81.6948C27.9311 81.9196 28.1334 82.1032 28.0135 82.3898C28.0042 82.4122 28.0154 82.4516 28.0323 82.4741C28.2383 82.7719 28.0903 83.1615 28.2945 83.4594C28.1971 83.6523 28.347 83.7759 28.4444 83.9183C28.3226 84.0588 28.2945 84.1993 28.3657 84.3697C28.4856 84.6563 28.5193 84.9673 28.5568 85.2745C28.5736 85.4112 28.5886 85.5498 28.6111 85.6866C28.6373 85.8439 28.7047 86.005 28.6879 86.1586C28.671 86.3235 28.7497 86.4246 28.8115 86.5426C28.8771 86.5332 28.9295 86.5258 28.9988 86.5145C28.8377 86.7393 28.7853 86.9641 28.8303 87.2132C28.8752 87.4549 28.8715 87.4549 29.1656 87.4567C29.203 87.5523 29.2892 87.6665 29.2761 87.7677C29.263 87.8595 29.1449 87.9381 29.0663 88.0262C29.0738 88.0768 29.0813 88.1442 29.0944 88.2097C29.1094 88.2922 29.1131 88.384 29.1524 88.4551C29.2255 88.5881 29.3229 88.7099 29.4128 88.8429C29.2873 88.9084 29.1581 88.9684 29.2349 89.0958C29.3135 89.225 29.2686 89.3505 29.2592 89.4667C29.248 89.6203 29.2161 89.7645 29.2911 89.9087C29.3079 89.9424 29.3173 89.9949 29.3023 90.0249C29.2143 90.1953 29.2817 90.362 29.3192 90.5231C29.3828 90.8022 29.4465 91.0795 29.4222 91.3698C29.4053 91.5721 29.4315 91.7688 29.5477 91.9449C29.5683 91.9767 29.5683 92.0217 29.5758 92.061C29.6413 92.4937 29.705 92.9264 29.7725 93.3591C29.7949 93.4996 29.8436 93.6382 29.8399 93.7787C29.8399 93.8874 29.8568 93.9585 29.9186 94.0503C29.9841 94.1496 30.0422 94.3238 29.9972 94.4081C29.853 94.6779 30.0347 94.8951 30.0628 95.133C30.0778 95.2698 30.1602 95.3166 30.2801 95.2717C30.2089 95.5508 30.1415 95.8111 30.0703 96.0902C30.1209 96.1689 30.1789 96.2607 30.2258 96.3356C30.2033 96.3843 30.1733 96.4199 30.1752 96.4518C30.1864 96.6278 30.1789 96.8133 30.2295 96.98C30.3007 97.2179 30.3176 97.4408 30.237 97.6749C30.2183 97.7274 30.237 97.7911 30.2389 97.851C30.2501 97.8604 30.2632 97.8698 30.2745 97.8791C30.2932 97.8473 30.3101 97.8154 30.3532 97.7424C30.3644 97.8417 30.3962 97.9128 30.3738 97.9428C30.2689 98.0871 30.3176 98.2219 30.3588 98.368C30.385 98.4561 30.3756 98.5554 30.3756 98.6509C30.3756 98.6996 30.3494 98.7464 30.3494 98.7951C30.3457 98.9824 30.3494 99.1698 30.3475 99.3589C30.3457 99.5875 30.385 99.8291 30.3269 100.041C30.252 100.305 30.4955 100.562 30.3119 100.814C30.297 100.835 30.3494 100.897 30.3606 100.942C30.3756 100.994 30.4037 101.064 30.3831 101.103C30.3044 101.253 30.3419 101.369 30.4768 101.468C30.4093 101.498 30.3663 101.517 30.2932 101.551C30.37 101.648 30.4393 101.736 30.4955 101.809C30.4431 101.837 30.3813 101.852 30.3588 101.89C30.3269 101.942 30.5611 102.326 30.6248 102.343C30.6341 102.345 30.6435 102.343 30.651 102.343C30.681 102.296 30.7091 102.251 30.7428 102.199C30.814 102.283 30.857 102.367 30.9245 102.408C31.0069 102.459 31.1099 102.474 31.2186 102.508C31.2804 102.457 31.3497 102.403 31.4209 102.347C31.4771 102.392 31.522 102.429 31.5707 102.467C31.8105 102.311 32.0016 102.116 32.1739 101.89C32.2863 101.742 32.4511 101.631 32.5954 101.506C32.6216 101.483 32.6722 101.457 32.6928 101.468C32.8501 101.551 32.9119 101.446 32.9719 101.337C33.0936 101.12 33.3034 100.932 33.2266 100.642C33.2229 100.625 33.2322 100.603 33.2416 100.586C33.3072 100.455 33.3727 100.326 33.4364 100.198C33.3765 100.136 33.3371 100.093 33.3015 100.058C33.369 99.9958 33.4758 99.9453 33.487 99.8797C33.5507 99.4938 33.6069 99.1061 33.635 98.7164C33.6649 98.3006 33.5282 97.8848 33.6219 97.4652C33.6312 97.4221 33.5975 97.3696 33.5863 97.3228C33.5732 97.2666 33.5507 97.2067 33.5563 97.1523C33.6275 96.5866 33.5207 96.0303 33.4701 95.4721C33.4252 94.9738 33.3222 94.4774 33.4701 93.9792C33.4889 93.9173 33.4795 93.8368 33.4551 93.775C33.4102 93.657 33.4196 93.5483 33.4345 93.4247C33.4739 93.0875 33.5113 92.7485 33.5694 92.4132C33.6013 92.2277 33.4776 92.0104 33.6818 91.8568C33.693 91.8475 33.6706 91.8006 33.6743 91.7707C33.6949 91.5646 33.6949 91.3511 33.7492 91.1525C33.7867 91.0158 33.8073 90.9053 33.7324 90.7835C33.723 90.7704 33.7324 90.7442 33.7361 90.6973C33.7811 90.673 33.841 90.6393 33.856 90.6318C33.8672 90.4707 33.8635 90.3639 33.8841 90.2609C33.901 90.1747 33.9628 90.0942 33.9759 90.008C34.0358 89.624 33.9572 89.2156 34.1613 88.8541C34.1651 88.8466 34.1576 88.8335 34.1576 88.8242C34.1576 88.6012 34.2175 88.3896 34.1838 88.1517C34.1464 87.8857 34.3074 87.6047 34.3974 87.3425C34.4648 87.1439 34.5753 86.9791 34.5809 86.7449C34.5866 86.5183 34.7102 86.2935 34.7907 86.0706C34.8132 86.0069 34.9069 85.9451 34.8975 85.8964C34.8376 85.6135 35.0211 85.3887 35.0605 85.1302C35.0811 84.9991 35.2272 84.8905 35.1204 84.735C35.1092 84.7181 35.141 84.6601 35.1654 84.6357C35.3115 84.4934 35.3489 84.3098 35.3845 84.1206C35.407 84.0026 35.4108 83.8546 35.4819 83.7759C35.7254 83.5118 35.7592 83.1896 35.7985 82.8618C35.8041 82.8225 35.8491 82.7887 35.8678 82.7475C35.9596 82.5321 36.0495 82.3167 36.1301 82.0994C36.1844 81.9552 36.2125 81.796 36.2518 81.6461C36.2818 81.5281 36.441 81.4869 36.396 81.3895C36.3118 81.2134 36.5777 81.1722 36.5216 81.0748C36.4298 80.9156 36.559 80.8331 36.5871 80.717C36.604 80.6477 36.6133 80.5709 36.7201 80.6046C36.7257 80.6065 36.7576 80.569 36.7557 80.5522C36.7313 80.2731 37.1041 80.1157 36.9786 79.8066C36.9767 79.801 36.9898 79.7917 36.9955 79.7823C37.0329 79.7729 37.0723 79.7636 37.1116 79.7523C37.1079 79.6661 37.1041 79.58 37.1022 79.5594C37.1978 79.4713 37.269 79.432 37.3008 79.3702C37.3589 79.2578 37.3607 79.1023 37.4413 79.018C37.6436 78.8082 37.6717 78.5347 37.7691 78.2856C37.7953 78.2163 37.8066 78.1414 37.829 78.0721C37.8721 77.9353 37.9171 77.7986 37.9714 77.6337C38.2149 77.5982 38.1681 77.3884 38.1512 77.2198C38.2973 77.0325 38.4566 76.8751 38.5558 76.6859C38.6476 76.5136 38.6738 76.3075 38.7357 76.1183C38.7525 76.0621 38.7844 76.0116 38.8181 75.961C38.8761 75.8711 38.9529 75.7905 38.9998 75.695C39.2545 75.1799 39.4999 74.661 39.7528 74.1459C39.7828 74.0841 39.839 74.0372 39.882 73.9829C39.9176 73.9361 39.9663 73.893 39.9851 73.8387C40.1312 73.4266 40.3354 73.0501 40.6107 72.7073C40.7381 72.5499 40.7699 72.3233 40.9666 72.2127C40.9479 72.0236 41.1052 71.943 41.2045 71.8231C41.3731 71.6171 41.5529 71.4129 41.6953 71.1881C41.9969 70.7104 42.4539 70.3714 42.7836 69.9218C42.8061 69.89 42.8398 69.8656 42.8735 69.8432C43.4917 69.4086 44.0705 68.9178 44.7467 68.5675C44.8347 68.5226 44.9022 68.4308 44.9921 68.3989C45.3405 68.2772 45.6945 68.1704 46.0448 68.058C46.2153 68.0037 46.3857 67.9494 46.5543 67.8876C46.9421 67.7452 47.3429 67.6553 47.7476 67.5747C48.1072 67.5036 48.4556 67.3612 48.8153 67.2975C49.173 67.2338 49.5083 67.0896 49.8811 67.0671C50.252 67.0446 50.6154 66.9229 50.9825 66.8498C51.2073 66.8049 51.4321 66.7636 51.6606 66.7337C51.9154 66.7 52.1739 66.6887 52.4286 66.655C52.9026 66.5913 53.3765 66.5183 53.8504 66.4508C54.3206 66.3834 54.7926 66.3234 55.2628 66.2466C55.5662 66.1979 55.8641 66.1118 56.1694 66.0668C56.6751 65.9919 57.1865 65.9469 57.6904 65.8683C57.992 65.8214 58.2898 65.7371 58.5858 65.6603C58.9155 65.5742 59.1777 65.3513 59.4643 65.1846C59.6235 65.0928 59.7547 64.8998 59.8221 64.7238C59.8689 64.6001 59.9514 64.5121 60.0019 64.4315C59.9907 64.1674 59.8146 64.0663 59.6367 63.9782V63.9913ZM45.7339 63.3226C45.5409 63.4106 45.3705 63.2983 45.2 63.302C45.2038 63.2833 45.2056 63.2608 45.2169 63.2552C45.3105 63.2065 45.6121 63.2421 45.7358 63.3226H45.7339ZM41.817 61.6967C41.8564 61.7416 41.8957 61.7866 41.9351 61.8316C41.9163 61.8465 41.8995 61.8596 41.8807 61.8746C41.847 61.8241 41.8133 61.7754 41.7796 61.7248C41.7927 61.7154 41.8058 61.706 41.8189 61.6967H41.817ZM31.537 49.3992C31.5164 49.4273 31.4958 49.4554 31.4752 49.4835C31.4621 49.4741 31.4508 49.4648 31.4377 49.4535C31.4602 49.4273 31.4808 49.3992 31.5033 49.373L31.537 49.3992ZM31.3609 49.0171C31.389 49.0321 31.4134 49.0564 31.4377 49.0789C31.4171 49.0958 31.3965 49.1257 31.374 49.1276C31.3553 49.1276 31.3328 49.0995 31.3029 49.077C31.3272 49.0508 31.3534 49.0133 31.3609 49.0171ZM30.9769 47.2338C30.7446 47.2938 30.6173 47.1757 30.4787 47.0952C30.6416 47.0896 30.7952 47.1252 30.9769 47.2338ZM28.1877 33.8892C28.2027 33.908 28.2308 33.9305 28.229 33.9473C28.229 33.9679 28.199 33.9848 28.1728 34.0147C28.1522 33.981 28.1259 33.9567 28.1316 33.9379C28.1353 33.9192 28.169 33.9042 28.1877 33.8892ZM28.0922 34.5093C28.0829 34.5317 28.0735 34.5542 28.0641 34.5748C28.0267 34.558 27.9873 34.5411 27.9499 34.5243C27.9573 34.5093 27.9686 34.4793 27.9742 34.4812C28.0154 34.4868 28.0548 34.498 28.0941 34.5074L28.0922 34.5093ZM27.8899 33.198L27.9836 33.0576C28.0079 33.1568 27.9836 33.213 27.8899 33.198ZM28.0379 35.414C28.0454 35.4421 28.0529 35.4702 28.0604 35.5002C28.0117 35.5152 27.9611 35.5283 27.9124 35.5433C27.9049 35.5245 27.8974 35.5058 27.8899 35.4871C27.9386 35.4627 27.9892 35.4402 28.0379 35.4159V35.414ZM27.9911 35.8617C28.0042 35.8692 28.0173 35.8767 28.0304 35.8823C28.0117 35.9985 27.9948 36.1165 27.9705 36.2663C27.918 36.167 27.8824 36.0996 27.8431 36.0228C27.8918 35.9685 27.9424 35.9142 27.9911 35.8598V35.8617ZM27.8169 37.0924C27.8581 37.098 27.8974 37.1036 27.9386 37.1093C27.9349 37.1261 27.9311 37.1561 27.9255 37.1561C27.8862 37.1561 27.8468 37.1523 27.8075 37.1505C27.8112 37.1317 27.8131 37.113 27.8169 37.0943V37.0924ZM27.903 37.8398C27.8525 37.8623 27.8206 37.8847 27.7869 37.8885C27.7756 37.8885 27.7588 37.8454 27.7457 37.8229C27.7756 37.8079 27.8019 37.7836 27.8337 37.778C27.8487 37.7761 27.8693 37.8079 27.903 37.8398ZM27.6427 37.3378C27.6895 37.3434 27.7363 37.3509 27.7831 37.3565C27.7813 37.3752 27.7775 37.3921 27.7756 37.4108C27.7288 37.4033 27.682 37.3958 27.637 37.3884C27.6389 37.3715 27.6427 37.3565 27.6445 37.3397L27.6427 37.3378ZM27.6464 38.059C27.6689 38.0608 27.6895 38.0646 27.712 38.0664C27.7026 38.1395 27.6932 38.2107 27.682 38.2837C27.6651 38.2819 27.6483 38.28 27.6314 38.2781C27.637 38.2051 27.6408 38.132 27.6464 38.059ZM27.2942 41.0467C27.3167 41.0448 27.3392 41.0411 27.3598 41.0392C27.371 41.1366 27.3804 41.2321 27.3954 41.3689C27.2418 41.249 27.2849 41.146 27.2942 41.0486V41.0467ZM27.2774 42.7419C27.2942 42.7625 27.313 42.7813 27.3223 42.8019C27.3261 42.8094 27.2961 42.8393 27.2924 42.8375C27.2699 42.8243 27.2512 42.8075 27.2306 42.7906C27.2437 42.7775 27.2549 42.7625 27.2774 42.74V42.7419ZM27.2399 43.8583C27.1875 43.9276 27.1556 43.9689 27.1182 44.0194C27.0395 43.9951 26.9589 43.9689 26.8765 43.9426C26.9833 43.9183 27.0901 43.8939 27.2399 43.8583ZM27.0357 43.3619C27.0713 43.3919 27.105 43.42 27.1406 43.45L27.1088 43.4893C27.0732 43.4612 27.0376 43.4331 27.002 43.405C27.0133 43.3919 27.0245 43.3769 27.0357 43.3638V43.3619ZM27.0582 43.6691H26.781C26.766 43.6485 26.751 43.6261 26.736 43.6055C26.781 43.5717 26.8334 43.5024 26.8709 43.5099C26.944 43.523 27.0095 43.5792 27.0582 43.6691ZM26.8278 42.2586C26.8447 42.2736 26.8615 42.2867 26.8803 42.3017C26.8465 42.3542 26.8147 42.4066 26.781 42.4591C26.7623 42.4478 26.7435 42.4366 26.7248 42.4254C26.7585 42.3692 26.7941 42.3148 26.8278 42.2586ZM26.6368 42.8037C26.7098 42.8131 26.7829 42.8206 26.869 42.83C26.8078 42.8837 26.7304 42.8749 26.6368 42.8037ZM26.6218 43.9726C26.7023 43.9632 26.7847 43.9539 26.869 43.9445C26.8241 44.1281 26.633 44.0925 26.5112 44.1693C26.5468 44.1056 26.5843 44.04 26.6218 43.9745V43.9726ZM26.7885 44.4315C26.8447 44.3716 26.9027 44.3116 26.9721 44.2386C27.0114 44.2648 27.0563 44.2948 27.1107 44.3304C27.0151 44.4559 26.9027 44.4428 26.7904 44.4315H26.7885ZM27.0713 45.0384C27.0657 45.0534 27.0582 45.0684 27.0526 45.0834C27.0151 45.0722 26.9758 45.0609 26.9383 45.0478C26.9458 45.031 26.9552 45.001 26.9571 45.001C26.9964 45.0122 27.0339 45.0253 27.0713 45.0384ZM26.7922 45.7222C26.8372 45.7353 26.8821 45.754 26.9252 45.769C26.9196 45.7858 26.9121 45.8027 26.9065 45.8177C26.8615 45.8008 26.8147 45.7858 26.7697 45.769C26.7772 45.7521 26.7885 45.7203 26.7904 45.7203L26.7922 45.7222ZM26.5599 45.2127C26.5468 45.3756 26.4869 45.3962 26.3295 45.3756C26.4232 45.3101 26.4738 45.2745 26.5599 45.2127ZM26.4157 45.8477C26.3989 45.8196 26.3708 45.7915 26.3764 45.7784C26.3876 45.7577 26.4176 45.7334 26.4401 45.7353C26.4588 45.7353 26.4757 45.769 26.4925 45.7896C26.47 45.8064 26.4494 45.8233 26.4157 45.8477ZM26.4663 48.6593C26.4532 48.6631 26.4401 48.6668 26.4288 48.6705C26.4045 48.6237 26.3801 48.5769 26.3558 48.5301C26.367 48.5207 26.3764 48.5113 26.3876 48.5001C26.4101 48.5188 26.4438 48.5319 26.4532 48.5563C26.4663 48.5863 26.4625 48.6237 26.4663 48.6593ZM25.7077 53.1137C25.7077 53.1568 25.7077 53.1999 25.7058 53.2411C25.6908 53.2411 25.6758 53.2449 25.6627 53.2467C25.6533 53.2037 25.644 53.1606 25.6365 53.1175C25.6608 53.1175 25.6852 53.1156 25.7095 53.1137H25.7077ZM12.616 67.2675L12.5654 67.2151C12.5954 67.1739 12.6253 67.1327 12.6553 67.0915C12.6815 67.1177 12.7077 67.1458 12.734 67.172C12.6946 67.2038 12.6572 67.2357 12.6178 67.2657L12.616 67.2675ZM17.578 67.6403C17.5462 67.6403 17.5162 67.6159 17.475 67.5972C17.505 67.5579 17.52 67.5354 17.5368 67.5129C17.5705 67.5391 17.6043 67.5654 17.638 67.5916C17.6192 67.6085 17.5986 67.6422 17.5799 67.6403H17.578ZM20.6313 68.6762C20.6332 68.635 20.6351 68.5938 20.6426 68.5525C20.6426 68.5488 20.6763 68.5488 20.6931 68.5469C20.6969 68.59 20.6988 68.6331 20.7025 68.6743C20.6782 68.6743 20.6557 68.6743 20.6313 68.6743V68.6762ZM28.982 87.2188C28.9576 87.1945 28.9258 87.1739 28.9108 87.1458C28.9052 87.1345 28.9389 87.1046 28.9539 87.084C28.9801 87.1046 29.0082 87.1233 29.0438 87.1514C29.0138 87.1832 28.997 87.202 28.9801 87.2207L28.982 87.2188ZM34.594 80.7245C34.5828 80.6233 34.5659 80.5784 34.5791 80.5465C34.5884 80.5222 34.6371 80.511 34.7289 80.4623C34.6727 80.5709 34.6484 80.6177 34.594 80.7245ZM41.4199 68.605C41.4012 68.5806 41.375 68.5582 41.3656 68.5301C41.3619 68.5207 41.3975 68.4832 41.4143 68.4832C41.433 68.4832 41.4499 68.5132 41.4724 68.5319C41.4518 68.56 41.4349 68.5825 41.4199 68.6031V68.605ZM42.4221 67.4605C42.3921 67.5616 42.3621 67.6628 42.3303 67.7733C42.1954 67.6272 42.2142 67.5635 42.4221 67.4605ZM42.4371 67.4342C42.3846 67.3069 42.5064 67.29 42.5663 67.2226C42.6525 67.3762 42.6525 67.3781 42.4371 67.4342ZM43.6209 66.5164L43.5591 66.4621C43.5947 66.4265 43.6322 66.3909 43.6678 66.3553C43.679 66.3628 43.6921 66.3722 43.7033 66.3796C43.6752 66.4246 43.649 66.4696 43.6209 66.5164ZM48.2046 64.2761C48.1241 64.3323 48.0248 64.4147 47.9442 64.4053C47.6576 64.3697 47.401 64.4409 47.1481 64.5627C47.1125 64.5795 47.0751 64.6001 47.0357 64.6057C46.3576 64.6807 45.9174 64.8212 45.2712 65.134C45.0689 65.2314 44.831 65.2464 44.6306 65.37C44.3196 65.5611 43.9412 65.621 43.6546 65.8645C43.6041 65.9076 43.5254 65.9207 43.458 65.9413C43.2257 66.0125 43.0327 66.1343 42.8735 66.3253C42.778 66.4396 42.6338 66.5108 42.5064 66.6044C42.5307 66.6513 42.557 66.7 42.5888 66.758C42.2966 66.6887 42.2816 66.6981 42.2629 66.9884C42.2535 67.1458 42.2179 67.2938 42.0774 67.3818C41.8864 67.5017 41.7365 67.4174 41.581 67.1889C41.5717 67.3294 41.5379 67.4155 41.5679 67.4549C41.6972 67.6272 41.5979 67.7283 41.4611 67.8501C41.4499 67.7639 41.4405 67.6927 41.4274 67.5991C41.1521 67.7677 40.8954 67.9119 40.7887 68.2229C40.7681 68.2847 40.7081 68.3409 40.6519 68.3821C40.4178 68.5507 40.3073 68.811 40.1555 69.0414C40.0993 69.1276 40.0207 69.2007 39.9626 69.2868C39.7771 69.5547 39.5936 69.8226 39.4156 70.0942C39.2751 70.3096 39.1253 70.5175 39.0279 70.7666C38.9473 70.9764 38.7825 71.1525 38.6589 71.3455C38.5727 71.4785 38.4809 71.6077 38.4135 71.7482C38.3891 71.8006 38.4228 71.8812 38.4322 71.9711C38.1887 72.0816 38.1081 72.3158 38.0463 72.5612C38.022 72.6529 38.0351 72.7672 37.8852 72.7747C37.8553 72.7747 37.8215 72.8459 37.8009 72.889C37.7635 72.9695 37.7335 73.0557 37.696 73.1512C37.7035 73.155 37.7373 73.1737 37.7691 73.1924C37.7597 73.2093 37.7522 73.2336 37.7391 73.2393C37.5443 73.3067 37.4656 73.4771 37.4019 73.6439C37.2933 73.9305 37.1322 74.1833 36.9842 74.4475C36.8681 74.6554 36.7819 74.882 36.707 75.1087C36.6808 75.1911 36.7201 75.2979 36.7426 75.3915C36.7576 75.4534 36.795 75.5096 36.8437 75.6107C36.7407 75.5433 36.6808 75.5058 36.589 75.4459C36.4841 75.7793 36.2443 76.0247 36.2218 76.3768C36.2143 76.493 36.1094 76.6054 36.0458 76.7159C35.9315 76.9126 35.806 77.0924 35.7554 77.334C35.7011 77.5982 35.5363 77.8417 35.4182 78.0927C35.2909 78.3643 35.0979 78.6247 35.0548 78.9094C35.0118 79.1904 34.817 79.3758 34.7514 79.6268C34.7402 79.6736 34.7139 79.7261 34.727 79.7673C34.802 80.0089 34.6409 80.1644 34.5229 80.3293C34.4461 80.436 34.3543 80.5128 34.4123 80.6721C34.4348 80.732 34.3131 80.7938 34.2962 80.9006C34.2662 81.086 34.0639 81.2303 34.1613 81.455C34.167 81.4682 34.1239 81.4963 34.1108 81.5225C34.0265 81.6836 33.9459 81.8447 33.8485 82.0357C33.989 82.0264 34.0995 82.0189 34.21 82.0095C34.2063 82.1069 34.1651 82.1481 34.0621 82.1556C33.8391 82.1706 33.841 82.1762 33.7511 82.3991C33.7717 82.4141 33.7923 82.4328 33.8148 82.4497C33.8373 82.4666 33.8598 82.4797 33.9197 82.5209C33.8204 82.5377 33.7605 82.549 33.6743 82.5621C33.7099 82.6258 33.7417 82.682 33.7624 82.7194C33.6987 82.7719 33.6387 82.8225 33.5563 82.8918C33.6912 82.9124 33.7961 82.9292 33.8747 82.9405C33.7474 83.0154 33.5469 83.066 33.4926 83.1821C33.4345 83.3076 33.2641 83.435 33.3671 83.6186C33.3783 83.6373 33.3709 83.6785 33.3577 83.6991C33.1255 84.0794 33.0449 84.5177 32.8894 84.9261C32.8782 84.9542 32.8632 84.9841 32.8651 85.0122C32.8857 85.3662 32.7134 85.6791 32.6553 86.0181C32.5897 86.389 32.4717 86.7487 32.3668 87.1514C32.2638 86.6812 32.1589 86.2541 32.1477 85.8121C32.1477 85.7821 32.1495 85.7503 32.1439 85.7222C32.0727 85.3419 31.9416 84.9616 31.9472 84.5833C31.9529 84.2049 31.773 83.8658 31.8124 83.4818C31.8367 83.2421 31.7093 82.9873 31.6494 82.74C31.6325 82.6707 31.5988 82.6033 31.5969 82.5359C31.5876 82.1556 31.4827 81.7922 31.4134 81.4213C31.3534 81.0973 31.2298 80.7863 31.1848 80.4716C31.1324 80.1007 31.0275 79.7429 30.9676 79.3758C30.9245 79.1154 30.8083 78.8663 30.7278 78.6115C30.7034 78.5366 30.6978 78.4579 30.6772 78.3811C30.6248 78.1882 30.5836 77.9878 30.5068 77.8042C30.4655 77.7049 30.37 77.6319 30.4524 77.5101C30.4637 77.4933 30.4356 77.4333 30.4093 77.4146C30.2707 77.3153 30.2483 77.1935 30.3119 77.0418C30.3232 77.0156 30.3288 76.9706 30.3157 76.9557C30.1265 76.7571 30.2445 76.4443 30.0516 76.2476C30.0253 76.2214 30.0141 76.1764 30.0066 76.1371C29.9017 75.6351 29.7238 75.1611 29.4915 74.7022C29.4297 74.5805 29.4222 74.4287 29.3547 74.3107C29.1449 73.9379 28.9145 73.5764 28.6991 73.2074C28.3694 72.6455 27.9611 72.1359 27.6052 71.5927C27.3767 71.2443 27.0732 70.9652 26.7173 70.7648C26.5749 70.6842 26.515 70.5381 26.3839 70.4763C26.2078 70.392 26.1029 70.1878 25.8687 70.1935C25.8107 70.1935 25.7601 70.0417 25.6852 70.0024C25.436 69.8713 25.2094 69.7158 25.0164 69.5116C24.9827 69.476 24.9284 69.4273 24.8928 69.4329C24.5912 69.491 24.4301 69.2194 24.1885 69.1351C24.0124 69.0733 23.8532 68.9852 23.6603 68.9459C23.4317 68.901 23.2126 68.7661 23.0103 68.6387C22.8979 68.5675 22.793 68.5057 22.6619 68.4832C22.6038 68.472 22.5513 68.4402 22.4951 68.4177C22.2704 68.3296 22.0755 68.1742 21.7946 68.2322C21.656 68.2603 21.4874 68.1629 21.3356 68.1105C21.0209 68 20.7137 67.8632 20.3691 67.8913C20.1836 67.7096 19.9326 67.7958 19.721 67.7321C19.6367 67.7059 19.5636 67.6422 19.4812 67.5916C19.455 67.6291 19.4269 67.6684 19.3857 67.7265C19.1103 67.5073 18.7675 67.5167 18.4434 67.4436C18.1606 67.3799 17.8553 67.4211 17.5855 67.2675C17.5331 67.2376 17.4188 67.3144 17.2708 67.3631C16.8962 67.1626 16.4073 67.1982 15.9352 67.1289C15.7011 67.0952 15.4726 66.9922 15.2347 67.1046C15.053 66.966 14.8525 67.0746 14.6615 67.0596C14.6072 67.0559 14.5547 67.0147 14.5004 66.9903C14.4648 66.9734 14.4161 66.9322 14.3974 66.9435C14.1464 67.0952 13.856 66.8611 13.6069 67.0296C13.5788 67.0484 13.5151 67.0109 13.4683 67.0015C13.1067 66.9229 12.7433 66.8611 12.3724 66.8592C12.1833 66.8592 11.9941 66.8348 11.818 66.8236C11.6806 66.6313 11.5233 66.5863 11.3459 66.6887C11.3759 66.6419 11.3965 66.5745 11.4396 66.5557C11.5389 66.5126 11.6606 66.4508 11.7543 66.4733C11.9791 66.5258 12.1477 66.3553 12.365 66.3684C12.4979 66.3759 12.6366 66.2691 12.7733 66.2129C12.8801 66.168 12.985 66.093 13.0955 66.0837C13.2191 66.0743 13.3259 66.0668 13.4327 65.99C13.4795 65.9582 13.5732 65.9938 13.6593 65.9994C13.6593 65.9544 13.6593 65.9263 13.6593 65.9001C13.6593 65.8739 13.6518 65.8477 13.6462 65.8046C13.7567 65.8027 13.8541 65.799 13.9609 65.7971C14.0358 65.7128 14.1145 65.6248 14.21 65.5199C14.4648 65.7952 14.7046 65.6266 14.875 65.4674C15.0829 65.2707 15.3265 65.2183 15.5644 65.2333C15.7854 65.2464 15.969 65.1602 16.1301 65.0815C16.4223 64.9392 16.7445 64.8867 17.0311 64.7406C17.2034 64.6526 17.4057 64.6226 17.5443 64.4671C17.5612 64.4484 17.6136 64.454 17.6492 64.4596C17.8852 64.4971 18.0594 64.3866 18.2262 64.233C18.2636 64.2573 18.303 64.2854 18.3648 64.3266C18.5277 64.1262 18.7712 64.2049 19.0391 64.1899C18.9586 64.0925 18.908 64.0325 18.8593 63.9745C19.1365 64.1524 19.3576 63.9464 19.5861 63.8883C19.9682 63.7909 20.3185 63.5867 20.725 63.5661C20.873 63.5586 21.006 63.5043 21.1296 63.3938C21.2439 63.2908 21.4049 63.2158 21.5585 63.1821C21.9126 63.1034 22.2123 62.9049 22.4951 62.7119C22.7274 62.5546 22.9578 62.4572 23.2182 62.3991C23.3868 62.3617 23.3943 62.2006 23.4748 62.0938C23.5535 61.987 23.7464 62.0826 23.8045 61.9252C23.8176 61.8915 23.8139 61.8503 23.8214 61.7997C24.0873 61.7847 24.3046 61.6573 24.4845 61.4831C24.7467 61.2303 25.0164 60.983 25.2 60.6589C25.3424 60.4079 25.4997 60.1663 25.6627 59.9284C25.747 59.8048 25.7526 59.6474 25.8912 59.5388C26.0074 59.447 26.0729 59.2784 26.1329 59.1323C26.352 58.6078 26.6705 58.1301 26.8578 57.5963C26.9795 57.2535 27.1388 56.9257 27.2624 56.5848C27.3954 56.2139 27.4909 55.8355 27.594 55.4608C27.6651 55.1986 27.7963 54.9607 27.8562 54.706C27.9049 54.4924 28.0529 54.2939 27.9948 54.0578C27.9929 54.0485 27.9948 54.0372 28.0004 54.0279C28.1877 53.7132 28.1671 53.3442 28.2664 53.0051C28.3095 52.8534 28.3901 52.6923 28.3694 52.5462C28.3301 52.254 28.6017 51.9973 28.4462 51.7014C28.4406 51.6901 28.45 51.6602 28.4612 51.6489C28.7478 51.3904 28.5736 51.012 28.7104 50.7142C28.5774 50.6074 28.7197 50.5081 28.7272 50.407C28.7497 50.1073 28.8546 49.8188 28.8359 49.5097C28.8265 49.3486 28.8958 49.1819 28.9295 49.0208C28.9558 48.8972 28.7778 48.811 28.9202 48.6743C28.9839 48.6125 28.9164 48.427 28.9389 48.3034C28.982 48.0711 29.0513 47.8445 29.0981 47.6141C29.1243 47.4886 29.1243 47.3556 29.1375 47.2282C29.1487 47.1121 29.1918 46.9884 29.1637 46.8835C29.0962 46.6232 29.2049 46.3796 29.2068 46.1268C29.2068 45.902 29.2105 45.6753 29.2161 45.4505C29.2161 45.3887 29.1937 45.3288 29.2686 45.2726C29.3117 45.2407 29.3135 45.1433 29.3154 45.074C29.321 44.8212 29.3454 44.5739 29.381 44.3229C29.396 44.2161 29.3566 44.0906 29.4091 43.9801C29.4372 43.9202 29.4915 43.8733 29.5533 43.7965C29.5983 43.864 29.6339 43.9052 29.6563 43.9539C29.705 44.0606 29.7481 44.1712 29.7912 44.2798C29.8006 44.306 29.8137 44.3379 29.8081 44.3622C29.7294 44.6619 29.8511 44.9279 29.9317 45.2052C30.016 45.4974 30.1003 45.7896 30.1434 46.093C30.1527 46.1605 30.1902 46.2242 30.2127 46.2897C30.3026 46.5613 30.3925 46.8348 30.4824 47.1083C30.5274 47.3237 30.5611 47.541 30.6191 47.7527C30.6772 47.9644 30.7559 48.1704 30.8327 48.3765C30.9001 48.5582 30.9788 48.7342 31.0462 48.9159C31.1268 49.1276 31.1942 49.3449 31.2785 49.5547C31.3328 49.6933 31.4565 49.7064 31.655 49.6109C31.419 49.8188 31.4359 50.0642 31.5408 50.3171C31.5838 50.422 31.6513 50.5175 31.6962 50.6224C31.8611 50.997 32.0053 51.381 32.1889 51.7463C32.3219 52.0104 32.4998 52.254 32.659 52.505C32.6909 52.5555 32.749 52.5967 32.7639 52.6511C32.8876 53.1194 33.2266 53.4622 33.4776 53.8537C33.6368 54.1009 33.8654 54.2995 33.9534 54.6011C33.9815 54.6947 34.1108 54.7565 34.1951 54.8333C34.27 54.7547 34.2918 54.6391 34.2606 54.4868C34.4536 54.558 34.4536 54.6067 34.2644 55.0244C34.3149 55.075 34.3693 55.1293 34.4198 55.1817C34.5191 55.1668 34.5865 55.0169 34.7083 55.1611C34.6034 55.326 34.6502 55.4309 34.8113 55.5882C34.9893 55.7606 35.1242 55.9928 35.2984 56.1858C35.5531 56.4705 35.7873 56.7758 36.0401 57.0624C36.1769 57.2179 36.3249 57.3678 36.4897 57.4895C36.5665 57.5457 36.6096 57.5757 36.589 57.6693C36.5852 57.6918 36.6096 57.7274 36.6302 57.7461C36.8643 57.9372 37.0985 58.1245 37.3401 58.3175C37.3251 58.3624 37.3045 58.4242 37.2746 58.5198C37.4994 58.4823 37.6155 58.5666 37.6904 58.7502C37.7953 59.0068 38.0501 59.1173 38.273 59.2765C38.2674 59.3177 38.2599 59.3664 38.2524 59.4133C38.3929 59.52 38.5408 59.6174 38.6682 59.7373C38.7113 59.7785 38.6963 59.8778 38.7132 59.9734C38.7638 59.9771 38.8574 59.9827 38.9735 59.9902C38.9867 60.1063 38.9305 60.2656 39.0878 60.3105C39.2114 60.3461 39.3426 60.3517 39.4962 60.3742C39.4475 60.4323 39.4063 60.481 39.3388 60.5615C39.4456 60.5372 39.5093 60.5222 39.5711 60.5091C39.6835 60.6777 39.8327 60.7751 40.0188 60.8013C39.9045 60.9774 40.0769 61.0654 40.163 61.086C40.3166 61.1216 40.4253 61.2097 40.5264 61.3071C40.5826 61.2659 40.622 61.2378 40.68 61.1965C40.7362 61.3127 40.8561 61.3614 40.9366 61.4326C41.0659 61.5487 41.1895 61.2827 41.2701 61.4963C41.2457 61.5187 41.2083 61.5543 41.1652 61.5937C41.5866 61.9739 42.0662 62.1462 42.6375 62.0451C42.557 62.0975 42.4933 62.1388 42.4315 62.1781C42.4464 62.2043 42.4614 62.2305 42.4764 62.2568C42.5757 62.2811 42.6768 62.3036 42.7761 62.3317C42.8098 62.3411 42.8642 62.356 42.8679 62.3766C42.9035 62.5958 43.0571 62.5658 43.2032 62.5377C43.2538 62.6145 43.2837 62.7157 43.3493 62.7475C43.4879 62.8168 43.6434 62.8562 43.7933 62.8974C43.8569 62.9143 43.9469 62.8805 43.9918 62.9124C44.2391 63.0903 44.5088 63.1278 44.8066 63.1278C44.9378 63.1278 45.0689 63.2496 45.1981 63.3189C45.2131 63.3507 45.2244 63.3882 45.2506 63.4088C45.2675 63.4219 45.3087 63.4125 45.3368 63.4088C45.5466 63.3619 45.6908 63.5736 45.9231 63.5287C46.1085 63.4931 46.3202 63.6055 46.5206 63.6523C46.4906 63.6748 46.4607 63.6954 46.4288 63.7178C46.4663 63.7403 46.5056 63.7647 46.5431 63.7872C46.5506 63.7422 46.5581 63.6972 46.5637 63.6523C46.7416 63.6261 46.929 63.5661 47.0114 63.7441C47.1837 63.6916 47.328 63.6485 47.4759 63.6036C47.5265 63.7066 47.564 63.7853 47.6089 63.8808C47.6895 63.8359 47.7532 63.8003 47.8318 63.7553C47.8281 63.8153 47.8244 63.864 47.8187 63.9539C48.0885 63.8209 48.2608 64.0026 48.4537 64.07C48.3638 64.1487 48.2926 64.2255 48.2084 64.2836L48.2046 64.2761Z" fill="#2C2C2C"/>
</g>
<defs>
<clipPath id="clip0_79_54">
<rect width="42" height="51.5587" fill="white" transform="translate(48)"/>
</clipPath>
<clipPath id="clip1_79_54">
<rect width="60" height="74.5209" fill="white" transform="translate(0 28)"/>
</clipPath>
</defs>
</svg>
