<svg width="44" height="32" viewBox="0 0 44 32" fill="none" xmlns="http://www.w3.org/2000/svg">
<path d="M38 2H6C3.79086 2 2 3.79086 2 6V26C2 28.2091 3.79086 30 6 30H38C40.2091 30 42 28.2091 42 26V6C42 3.79086 40.2091 2 38 2Z" stroke="#D5AFF6" stroke-width="3" stroke-linecap="round" stroke-linejoin="bevel"/>
<path d="M3.16003 3.18018L19.62 19.6202C19.9915 19.9921 20.4327 20.2871 20.9183 20.4884C21.4039 20.6897 21.9244 20.7933 22.45 20.7933C22.9757 20.7933 23.4962 20.6897 23.9818 20.4884C24.4674 20.2871 24.9085 19.9921 25.28 19.6202L41.28 3.62018" stroke="#D5AFF6" stroke-width="3" stroke-linecap="round" stroke-linejoin="round"/>
</svg>
