<?xml version="1.0" encoding="UTF-8"?>
<svg id="Capa_2" data-name="Capa 2" xmlns="http://www.w3.org/2000/svg" viewBox="0 0 178.75 157.26">
  <defs>
    <style>
      .cls-1 {
        fill: #2f3033;
        stroke-width: 0px;
      }
    </style>
  </defs>
  <g id="OBJECTS">
    <g>
      <path class="cls-1" d="M177.25,48.89c-.09-.3-.18-.59-.28-.89-.59-1.75-1.33-3.44-2.22-5.07-7.05-12.91-22.46-19.73-41.85-20.39-2.12-.07-4.28-.07-6.49,0h0c-19.23.64-41.61,6.87-63.34,18.73-22.78,12.43-41.47,29.12-52.63,47-4.09,6.56-6.99,12.99-8.68,19.14h0c-.08.32-.17.64-.24.95-2.63,10.3-1.83,19.78,2.51,27.73,7.42,13.61,24.16,20.45,45.04,20.45s43.66-6.24,66.65-18.78c22.78-12.43,41.47-29.13,52.62-47.01,9.53-15.28,12.59-29.88,8.92-41.86ZM167.91,90.49c-11.11,17.81-29.74,34.44-52.44,46.83-46.83,25.55-96.63,24.89-111.01-1.47-4.17-7.63-5.02-16.72-2.66-26.6.07-.3.15-.6.23-.9,1.63-6.35,4.59-13.01,8.83-19.81,11.11-17.81,29.73-34.44,52.44-46.83,21.71-11.85,44.05-18.06,63.21-18.68h0c1.08-.04,2.15-.06,3.21-.06s2.04.02,3.05.06h0c9.12.29,17.35,1.97,24.23,5,7.64,3.36,13.62,8.42,17.29,15.14,1,1.84,1.81,3.76,2.43,5.75.09.31.18.62.27.93h0c3.25,11.68.14,25.83-9.1,40.64Z"/>
      <path class="cls-1" d="M174.75,21.17c-14.51-26.6-64.62-27.35-111.69-1.66-12.17,6.65-23.18,14.51-32.49,23.13-.21.18-.49.45-.84.79-1.61,1.49-3.17,3.02-4.67,4.58-.13.13-.26.26-.38.39-.05.05-.09.09-.13.14-.04.03-.07.07-.1.1-.05.05-.09.09-.13.14-.13.13-.26.27-.38.4-5.25,5.57-9.8,11.38-13.51,17.33C.9,81.79-2.16,96.38,1.51,108.36c.09.3.18.59.29.89.59,1.75,1.33,3.45,2.22,5.08,6.62,12.13,20.72,19.28,39.93,20.35.08.01.16.01.25.01.09.01.17.01.26.01,0-.09-.02-.18-.02-.27,0-.08,0-.15,0-.23-.09,0-.17,0-.25-.01-.09,0-.17-.01-.25-.02-19.02-1.05-32.96-8.12-39.49-20.08-1-1.83-1.81-3.75-2.43-5.74-.1-.31-.19-.62-.28-.93h0c-3.25-11.69-.13-25.83,9.11-40.65,2.73-4.38,5.92-8.68,9.52-12.87,0-.02.02-.03.04-.05,1.32-1.55,2.71-3.1,4.15-4.61.02-.02.04-.05.07-.07,0-.02.03-.03.04-.05.12-.13.24-.25.37-.38,0-.01.02-.03.03-.04.03-.03.05-.05.08-.08,1.12-1.17,2.28-2.33,3.47-3.48.02-.01.02-.02.03-.03,9.74-9.41,21.5-17.99,34.64-25.16C86.24,7.43,109.88,1.2,129.73,1.2c10.34,0,19.65,1.69,27.29,5.06,7.64,3.37,13.62,8.43,17.29,15.15,4.16,7.63,5.02,16.72,2.66,26.59-.08.31-.15.61-.23.92-1.64,6.34-4.59,13-8.83,19.81-2.87,4.6-6.24,9.12-10.06,13.51-.05.06-.1.13-.17.19-.04.06-.09.12-.15.18.11.12.23.23.36.34.06-.06.11-.12.16-.18.06-.07.12-.13.17-.2,3.84-4.41,7.23-8.96,10.11-13.58,4.09-6.55,6.99-12.98,8.68-19.13h0c.08-.33.17-.65.24-.97,2.63-10.3,1.83-19.78-2.5-27.72ZM153.6,86.9c-.06.06-.11.12-.17.18l-.18.18c-10.31,10.64-23.2,20.34-37.78,28.29-7.89,4.31-15.95,7.92-23.99,10.79-1.54.55-3.07,1.07-4.61,1.56-13.04,4.2-25.92,6.41-37.84,6.42h-.51s.01.07.01.11c0,.13-.01.26-.04.39h.56c12.08,0,25.12-2.26,38.32-6.55h0c1.53-.49,3.06-1.02,4.6-1.58,7.95-2.86,15.92-6.44,23.73-10.7,14.61-7.97,27.53-17.69,37.86-28.36.07-.06.13-.12.18-.18.06-.06.12-.12.17-.18-.1-.13-.21-.25-.32-.37Z"/>
      <path class="cls-1" d="M173.65,21.77c-14.18-26-63.53-26.52-109.99-1.17l-.96-1.76c47.43-25.88,97.99-25,112.71,1.97l-1.76.96Z"/>
      <path class="cls-1" d="M49.1,157.26c-21.18,0-38.19-6.97-45.74-20.81l1.76-.96c14.18,26,63.53,26.52,109.99,1.17l.96,1.76c-23.08,12.59-46.9,18.85-66.97,18.85Z"/>
      <g>
        <path class="cls-1" d="M24.83,49.16c-8.43.27-15.26.38-15.26.23,0-.15,6.82-.49,15.25-.76,8.43-.27,15.26-.38,15.26-.23s-6.82.49-15.25.76Z"/>
        <path class="cls-1" d="M24.56,48.9c-.27-8.43-.38-15.26-.23-15.26.15,0,.49,6.82.76,15.25.27,8.43.38,15.26.23,15.26-.15,0-.49-6.82-.76-15.25Z"/>
        <path class="cls-1" d="M24.64,49.09c-3.61-3.38-6.45-6.21-6.35-6.32.1-.11,3.11,2.55,6.71,5.93,3.61,3.38,6.45,6.21,6.35,6.32-.1.11-3.11-2.55-6.71-5.93Z"/>
        <path class="cls-1" d="M25.01,49.07c-3.38,3.61-6.21,6.45-6.32,6.35-.11-.1,2.55-3.11,5.93-6.71,3.38-3.61,6.21-6.45,6.32-6.35s-2.55,3.11-5.93,6.71Z"/>
      </g>
      <path class="cls-1" d="M162.76,84.38c-1.73-.06-3.31-.73-4.54-1.81-.13-.1-.25-.21-.37-.33-1.28-1.27-2.09-3.01-2.16-4.93,0-.13-.12-.24-.25-.24-.14,0-.25.11-.25.24-.14,3.83-3.25,6.93-7.07,7.07-.14.01-.24.12-.24.25,0,.14.1.25.24.25,2.02.07,3.84.98,5.13,2.38.11.12.22.24.32.37.96,1.2,1.56,2.69,1.62,4.32,0,.13.11.24.25.24.13,0,.24-.11.25-.24.14-3.82,3.24-6.93,7.07-7.07.13,0,.24-.11.24-.25,0-.13-.11-.24-.24-.25ZM155.44,90.24c-.29-1.11-.82-2.12-1.52-2.97-.1-.13-.21-.25-.32-.37-1-1.08-2.3-1.88-3.77-2.27,2.73-.72,4.89-2.88,5.61-5.61.36,1.38,1.1,2.62,2.09,3.59.11.12.23.23.36.34.89.78,1.97,1.37,3.16,1.68-2.73.72-4.89,2.88-5.61,5.61Z"/>
      <path class="cls-1" d="M89.38,123.5c-.64,1.74-2.03,3.13-3.77,3.77,1.74.64,3.13,2.03,3.77,3.77.64-1.74,2.03-3.13,3.77-3.77-1.74-.64-3.13-2.03-3.77-3.77Z"/>
      <path class="cls-1" d="M129.64,18.99c-.64,1.74-2.03,3.13-3.77,3.77,1.74.64,3.13,2.03,3.77,3.77.64-1.74,2.03-3.13,3.77-3.77-1.74-.64-3.13-2.03-3.77-3.77Z"/>
      <path class="cls-1" d="M46.49,131.89c-1.32,0-2.41,1-2.54,2.28,0,.09,0,.17,0,.26,0,.08,0,.17,0,.25.13,1.29,1.21,2.3,2.54,2.3s2.32-.93,2.51-2.16c.02-.13.03-.26.03-.39v-.11c-.06-1.35-1.18-2.43-2.54-2.43ZM48.53,134.43c0,.13-.01.26-.04.39-.18.95-1.01,1.66-2,1.66-1.04,0-1.9-.78-2.03-1.78,0-.09-.02-.18-.02-.27,0-.08,0-.15,0-.23.12-1.01.99-1.81,2.04-1.81s1.98.86,2.03,1.93c.01.04.01.07.01.11Z"/>
    </g>
  </g>
</svg>